<svg width="1920" height="946" viewBox="0 0 1920 946" fill="none" xmlns="http://www.w3.org/2000/svg">
    <g clip-path="url(#clip0)">
        <rect width="1920" height="988" fill="url(#paint0_linear)" />
        <path d="M1632 1227.5C1632 1398.26 1554.97 1552.67 1430.76 1663.61C1309.31 1772.09 1142.76 1839 959 1839C587.312 1839 286 1565.22 286 1227.5C286 889.778 587.312 616 959 616C1330.69 616 1632 889.778 1632 1227.5Z" fill="url(#paint1_linear)" />
        <circle cx="583.341" cy="877.172" r="51.5659" transform="rotate(29.7019 583.341 877.172)" fill="url(#paint2_linear)" />
        <circle r="125.975" transform="matrix(-0.853849 0.520521 0.520521 0.853849 959.009 780.137)" fill="url(#paint3_linear)" />
        <circle r="51.7295" transform="matrix(-0.853849 0.520521 0.520521 0.853849 1400.95 953.158)" fill="url(#paint4_linear)" />
    </g>
    <defs>
        <linearGradient id="paint0_linear" x1="0" y1="0" x2="2030.31" y2="748.426" gradientUnits="userSpaceOnUse">
            <stop stop-color="#191830" />
            <stop offset="0.484966" stop-color="#1E1D38" />
            <stop offset="1" stop-color="#191830" />
        </linearGradient>
        <linearGradient id="paint1_linear" x1="1632" y1="871.148" x2="463.97" y2="1213.86" gradientUnits="userSpaceOnUse">
            <stop offset="0.0146048" stop-color="#27263D" />
            <stop offset="0.727493" stop-color="#2D2C45" stop-opacity="0.78" />
        </linearGradient>
        <linearGradient id="paint2_linear" x1="531.775" y1="877.172" x2="634.907" y2="877.172" gradientUnits="userSpaceOnUse">
            <stop stop-color="#4A4F78" stop-opacity="0.28" />
            <stop offset="1" stop-color="#34334C" stop-opacity="0.49" />
        </linearGradient>
        <linearGradient id="paint3_linear" x1="0" y1="125.975" x2="251.951" y2="125.975" gradientUnits="userSpaceOnUse">
            <stop stop-color="#4A4F78" stop-opacity="0.28" />
            <stop offset="1" stop-color="#34334C" stop-opacity="0.49" />
        </linearGradient>
        <linearGradient id="paint4_linear" x1="0" y1="51.7295" x2="103.459" y2="51.7295" gradientUnits="userSpaceOnUse">
            <stop stop-color="#4A4F78" stop-opacity="0.28" />
            <stop offset="1" stop-color="#34334C" stop-opacity="0.49" />
        </linearGradient>
        <clipPath id="clip0">
            <rect width="1920" height="946" fill="white" />
        </clipPath>
    </defs>
</svg>
