<svg width="1920" height="704" viewBox="0 0 1920 704" fill="none" xmlns="http://www.w3.org/2000/svg">
<g clip-path="url(#clip0)">
<rect width="1920" height="704" fill="#192941"/>
<rect x="1539.5" y="221" width="5" height="40" rx="2.5" fill="#1549D0"/>
<rect x="1522" y="243.5" width="5" height="40" rx="2.5" transform="rotate(-90 1522 243.5)" fill="#1549D0"/>
<rect x="50.4497" y="455.724" width="14.7976" height="118.38" rx="7.39878" transform="rotate(37.7728 50.4497 455.724)" fill="#22DDDD"/>
<rect x="-31.2759" y="476.635" width="14.7976" height="118.38" rx="7.39878" transform="rotate(-52.2272 -31.2759 476.635)" fill="#22DDDD"/>
<path d="M1941.21 326.92C1967.7 351.277 1969.55 392.609 1945.08 419.214C1920.72 445.699 1879.39 447.545 1852.79 423.079C1826.3 398.723 1824.46 357.39 1848.92 330.786C1873.39 304.18 1914.61 302.454 1941.21 326.92Z" stroke="#2D4A71"/>
</g>
<defs>
<clipPath id="clip0">
<rect width="1920" height="704" fill="white"/>
</clipPath>
</defs>
</svg>
