<svg width="72" height="72" viewBox="0 0 72 72" fill="none" xmlns="http://www.w3.org/2000/svg">
<path d="M48.0001 63.4797C43.0801 65.6697 37.4701 66.5397 31.5601 65.6997C18.9901 63.8997 8.70008 53.9697 6.48008 41.4597C4.11008 28.0197 10.7101 15.7797 21.3301 9.83975C25.6501 7.40975 30.5701 6.02975 35.8501 5.99975C51.5101 5.90975 64.9801 18.4797 65.9401 34.1397C66.0601 36.1797 65.9701 38.1897 65.7301 40.1397C65.1001 44.5797 61.2301 47.8497 56.7901 47.8497C56.6401 47.8497 56.5201 47.8497 56.3701 47.8497C51.6901 47.6697 48.0001 43.7997 48.0001 39.1197V35.9997V23.9997" stroke="#1549D0" stroke-width="2"/>
<path d="M48.0001 63.4797C43.0801 65.6697 37.4701 66.5397 31.5601 65.6997C18.9901 63.8997 8.70008 53.9697 6.48008 41.4597C4.11008 28.0197 10.7101 15.7797 21.3301 9.83975C25.6501 7.40975 30.5701 6.02975 35.8501 5.99975C51.5101 5.90975 64.9801 18.4797 65.9401 34.1397C66.0601 36.1797 65.9701 38.1897 65.7301 40.1397C65.1001 44.5797 61.2301 47.8497 56.7901 47.8497C56.6401 47.8497 56.5201 47.8497 56.3701 47.8497C51.6901 47.6697 48.0001 43.7997 48.0001 39.1197V35.9997V23.9997" fill="url(#paint0_linear)"/>
<path d="M48.0001 63.4797C43.0801 65.6697 37.4701 66.5397 31.5601 65.6997C18.9901 63.8997 8.70008 53.9697 6.48008 41.4597C4.11008 28.0197 10.7101 15.7797 21.3301 9.83975C25.6501 7.40975 30.5701 6.02975 35.8501 5.99975C51.5101 5.90975 64.9801 18.4797 65.9401 34.1397C66.0601 36.1797 65.9701 38.1897 65.7301 40.1397C65.1001 44.5797 61.2301 47.8497 56.7901 47.8497C56.6401 47.8497 56.5201 47.8497 56.3701 47.8497C51.6901 47.6697 48.0001 43.7997 48.0001 39.1197V35.9997V23.9997" stroke="#1549D0" stroke-width="2" stroke-miterlimit="9.3333" stroke-linecap="round" stroke-linejoin="round"/>
<path d="M36 48C42.6273 48 48 42.6273 48 36C48 29.3726 42.6273 24 36 24C29.3726 24 24 29.3726 24 36C24 42.6273 29.3726 48 36 48Z" stroke="#22DDDD" stroke-width="2" stroke-miterlimit="9.3333" stroke-linecap="round" stroke-linejoin="round"/>
<defs>
<linearGradient id="paint0_linear" x1="21.0003" y1="-1" x2="39.5003" y2="46.5" gradientUnits="userSpaceOnUse">
<stop stop-color="#1549D0" stop-opacity="0.29"/>
<stop offset="1" stop-color="#1549D0" stop-opacity="0"/>
</linearGradient>
</defs>
</svg>
