<svg width="76" height="76" viewBox="0 0 76 76" fill="none" xmlns="http://www.w3.org/2000/svg">
<g clip-path="url(#clip0)">
<path fill-rule="evenodd" clip-rule="evenodd" d="M19.3674 8.00364C19.7572 7.01604 20.1621 5.99149 20.7278 5.01064C22.1713 2.68726 24.662 1.64605 26.8624 2.21111C28.0911 2.52181 29.4344 3.66873 30.1029 4.65198L35.7085 12.5721L39.5278 13.5528C42.3386 14.2746 43.9995 16.999 43.5615 20.2025C43.0938 23.2662 41.6148 28.8965 40.25 32.0492C38.9449 35.2173 36.1959 36.7756 33.2479 36.0186L29.4286 35.0379L20.2761 39.2643C19.3296 39.7247 17.7724 40.1316 16.5339 39.8136C16.4537 39.7954 16.3829 39.7772 16.3122 39.7591C14.0697 39.1832 12.5494 37.0496 12.5093 34.3525C12.5265 33.221 12.7063 32.2025 12.8801 31.2181L12.8834 31.1998L13.0512 30.2176C13.5382 27.0171 17.7684 11.8838 19.0099 8.90109L19.3674 8.00364ZM11.3653 9.73709C11.9443 9.23798 12.8 9.29654 13.2788 9.87027C13.7507 10.4455 13.6648 11.3174 13.0862 11.815C11.4759 13.2025 10.2238 15.2801 9.5591 17.6679C8.89478 20.0542 8.89939 22.4574 9.57323 24.434C9.8158 25.1433 9.43727 25.9397 8.72826 26.2104C8.46393 26.3093 8.18269 26.3252 7.91694 26.2567C7.48847 26.1462 7.14833 25.8276 7.00343 25.4054C6.15243 22.91 6.13116 19.9228 6.94646 16.9942C7.76176 14.0655 9.33197 11.4887 11.3653 9.73709ZM9.72479 4.57252C9.26906 4.00279 8.43864 3.9538 7.87778 4.45595C4.8101 7.18695 2.42268 11.2008 1.15698 15.7533C-0.109564 20.3088 -0.123949 24.9337 1.11593 28.7769C1.25075 29.1966 1.57812 29.5121 1.99131 29.6188C2.24758 29.685 2.51814 29.6664 2.77456 29.5655C3.46236 29.2894 3.83501 28.493 3.60878 27.786C2.53694 24.4595 2.56072 20.4168 3.67644 16.4038C4.79173 12.3923 6.86852 8.8797 9.52259 6.51525C10.0849 6.01348 10.1758 5.14266 9.72479 4.57252Z" fill="url(#paint0_linear)"/>
<g filter="url(#filter0_b)">
<mask id="path-2-outside-1" maskUnits="userSpaceOnUse" x="3.06227" y="12.5113" width="75.5653" height="71.3884" fill="black">
<rect fill="white" x="3.06227" y="12.5113" width="75.5653" height="71.3884"/>
<path fill-rule="evenodd" clip-rule="evenodd" d="M43.9374 29.5541C43.3814 28.1399 42.8039 26.6728 41.9993 25.2675C39.9472 21.9382 36.421 20.4377 33.3131 21.2358C31.5778 21.6746 29.6844 23.3087 28.7443 24.7119L20.8591 36.0131L15.4647 37.3983C11.4947 38.4178 9.16032 42.3065 9.7954 46.8899C10.4718 51.2736 12.5905 59.3323 14.5356 63.8474C16.3963 68.3842 20.2901 70.6254 24.4538 69.5562L29.8482 68.171L42.8078 74.257C44.1481 74.9198 46.3515 75.5088 48.1007 75.0597C48.2141 75.034 48.314 75.0083 48.414 74.9827C51.5812 74.1693 53.7198 71.1249 53.7631 67.2678C53.7333 65.6496 53.474 64.1921 53.2234 62.7837L53.2234 62.7836L53.2187 62.7574L52.9765 61.352C52.2722 56.7726 46.2171 35.1106 44.4473 30.8392L43.9374 29.5541ZM55.2602 32.0727C54.4393 31.3562 53.2298 31.436 52.5559 32.2543C51.8916 33.0748 52.0172 34.3221 52.8376 35.0364C55.1208 37.0282 56.9009 40.0052 57.8522 43.4232C58.803 46.8391 58.8082 50.276 57.8652 53.0996C57.5258 54.1129 58.0647 55.2536 59.0684 55.6441C59.4425 55.7867 59.8402 55.8107 60.2155 55.714C60.8207 55.5579 61.3 55.1039 61.5028 54.5008C62.6937 50.936 62.7092 46.664 61.5424 42.4719C60.3755 38.2797 58.1432 34.5872 55.2602 32.0727ZM57.5529 24.6943C58.1944 23.8816 59.3681 23.8154 60.1634 24.5362C64.5134 28.4561 67.908 34.2076 69.7194 40.7241C71.5321 47.2449 71.575 53.8593 69.8409 59.3499C69.6523 59.9495 69.1911 60.3992 68.6075 60.5498C68.2455 60.6433 67.863 60.6154 67.5 60.47C66.5263 60.0719 65.9956 58.9312 66.312 57.9211C67.811 53.1688 67.7577 47.387 66.1609 41.6427C64.5647 35.9006 61.6117 30.8674 57.8482 27.4736C57.0509 26.7534 56.9181 25.5076 57.5529 24.6943Z"/>
</mask>
<path fill-rule="evenodd" clip-rule="evenodd" d="M43.9374 29.5541C43.3814 28.1399 42.8039 26.6728 41.9993 25.2675C39.9472 21.9382 36.421 20.4377 33.3131 21.2358C31.5778 21.6746 29.6844 23.3087 28.7443 24.7119L20.8591 36.0131L15.4647 37.3983C11.4947 38.4178 9.16032 42.3065 9.7954 46.8899C10.4718 51.2736 12.5905 59.3323 14.5356 63.8474C16.3963 68.3842 20.2901 70.6254 24.4538 69.5562L29.8482 68.171L42.8078 74.257C44.1481 74.9198 46.3515 75.5088 48.1007 75.0597C48.2141 75.034 48.314 75.0083 48.414 74.9827C51.5812 74.1693 53.7198 71.1249 53.7631 67.2678C53.7333 65.6496 53.474 64.1921 53.2234 62.7837L53.2234 62.7836L53.2187 62.7574L52.9765 61.352C52.2722 56.7726 46.2171 35.1106 44.4473 30.8392L43.9374 29.5541ZM55.2602 32.0727C54.4393 31.3562 53.2298 31.436 52.5559 32.2543C51.8916 33.0748 52.0172 34.3221 52.8376 35.0364C55.1208 37.0282 56.9009 40.0052 57.8522 43.4232C58.803 46.8391 58.8082 50.276 57.8652 53.0996C57.5258 54.1129 58.0647 55.2536 59.0684 55.6441C59.4425 55.7867 59.8402 55.8107 60.2155 55.714C60.8207 55.5579 61.3 55.1039 61.5028 54.5008C62.6937 50.936 62.7092 46.664 61.5424 42.4719C60.3755 38.2797 58.1432 34.5872 55.2602 32.0727ZM57.5529 24.6943C58.1944 23.8816 59.3681 23.8154 60.1634 24.5362C64.5134 28.4561 67.908 34.2076 69.7194 40.7241C71.5321 47.2449 71.575 53.8593 69.8409 59.3499C69.6523 59.9495 69.1911 60.3992 68.6075 60.5498C68.2455 60.6433 67.863 60.6154 67.5 60.47C66.5263 60.0719 65.9956 58.9312 66.312 57.9211C67.811 53.1688 67.7577 47.387 66.1609 41.6427C64.5647 35.9006 61.6117 30.8674 57.8482 27.4736C57.0509 26.7534 56.9181 25.5076 57.5529 24.6943Z" fill="url(#paint1_linear)"/>
<path d="M41.9993 25.2675L42.8712 24.7868C42.8658 24.7773 42.8602 24.7679 42.8544 24.7585L41.9993 25.2675ZM43.9374 29.5541L43.0021 29.9026L43.0032 29.9055L43.9374 29.5541ZM33.3131 21.2358L33.576 22.2006L33.5796 22.1997L33.3131 21.2358ZM28.7443 24.7119L29.5736 25.2867C29.5771 25.2817 29.5805 25.2766 29.5839 25.2716L28.7443 24.7119ZM20.8591 36.0131L21.1255 36.977C21.3548 36.9181 21.5542 36.7803 21.6884 36.588L20.8591 36.0131ZM15.4647 37.3983L15.1983 36.4345L15.4647 37.3983ZM9.7954 46.8899L8.80016 47.0098C8.80086 47.0149 8.8016 47.0199 8.80237 47.025L9.7954 46.8899ZM14.5356 63.8474L15.4654 63.4853C15.4632 63.4799 15.4609 63.4744 15.4586 63.469L14.5356 63.8474ZM24.4538 69.5562L24.7203 70.52L24.7203 70.52L24.4538 69.5562ZM29.8482 68.171L30.2666 67.2727C30.0519 67.1719 29.8094 67.1486 29.5817 67.2071L29.8482 68.171ZM42.8078 74.257L43.245 73.3677C43.2388 73.3646 43.2325 73.3616 43.2263 73.3587L42.8078 74.257ZM48.1007 75.0597L47.8621 74.0891C47.8528 74.0912 47.8435 74.0934 47.8343 74.0958L48.1007 75.0597ZM48.414 74.9827L48.6804 75.9465L48.6804 75.9465L48.414 74.9827ZM53.7631 67.2678L54.7676 67.2947C54.7678 67.285 54.7677 67.2752 54.7675 67.2655L53.7631 67.2678ZM53.2234 62.7837L52.2243 62.8719C52.2267 62.8952 52.23 62.9183 52.2341 62.9413L53.2234 62.7837ZM53.2234 62.7836L54.2225 62.6953C54.22 62.6721 54.2167 62.649 54.2127 62.626L53.2234 62.7836ZM53.2187 62.7574L52.2285 62.9097L52.2294 62.915L53.2187 62.7574ZM52.9765 61.352L51.9834 61.4866C51.9843 61.4925 51.9853 61.4984 51.9863 61.5043L52.9765 61.352ZM44.4473 30.8392L43.5131 31.1906C43.515 31.1953 43.5169 31.2 43.5188 31.2047L44.4473 30.8392ZM52.5559 32.2543L51.7735 31.6176L51.7683 31.6239L52.5559 32.2543ZM55.2602 32.0727L54.603 32.8151L54.6032 32.8153L55.2602 32.0727ZM52.8376 35.0364L53.4946 34.2938L53.4939 34.2932L52.8376 35.0364ZM57.8522 43.4232L56.8841 43.6736L57.8522 43.4232ZM57.8652 53.0996L58.8192 53.4267L58.8195 53.4258L57.8652 53.0996ZM59.0684 55.6441L58.7141 56.5699L58.7208 56.5725L59.0684 55.6441ZM60.2155 55.714L59.9482 54.7503L60.2155 55.714ZM61.5028 54.5008L62.4564 54.829L62.457 54.8271L61.5028 54.5008ZM60.1634 24.5362L59.4918 25.2658L59.494 25.2678L60.1634 24.5362ZM57.5529 24.6943L56.7578 24.0734L56.7545 24.0776L57.5529 24.6943ZM69.7194 40.7241L70.6877 40.474L69.7194 40.7241ZM69.8409 59.3499L68.8817 59.0389L68.8813 59.0401L69.8409 59.3499ZM68.6075 60.5498L68.8752 61.5134L68.8752 61.5134L68.6075 60.5498ZM67.5 60.47L67.1295 61.3893L67.1362 61.392L67.5 60.47ZM66.312 57.9211L65.3527 57.6105L65.3521 57.6124L66.312 57.9211ZM66.1609 41.6427L65.1926 41.8928L66.1609 41.6427ZM57.8482 27.4736L57.1779 28.2044L57.1785 28.205L57.8482 27.4736ZM41.1274 25.7482C41.8898 27.0797 42.4424 28.4791 43.0021 29.9026L44.8727 29.2056C44.3204 27.8008 43.7181 26.266 42.8712 24.7868L41.1274 25.7482ZM33.5796 22.1997C36.1932 21.5285 39.2896 22.7676 41.1442 25.7764L42.8544 24.7585C40.6047 21.1087 36.6489 19.3469 33.0467 20.272L33.5796 22.1997ZM29.5839 25.2716C29.9908 24.6644 30.6264 23.9779 31.3647 23.3941C32.1092 22.8054 32.8913 22.3737 33.576 22.2006L33.0503 20.271C31.9996 20.5367 30.9674 21.1415 30.0963 21.8303C29.219 22.524 28.4379 23.3562 27.9046 24.1522L29.5839 25.2716ZM21.6884 36.588L29.5736 25.2867L27.915 24.137L20.0298 35.4383L21.6884 36.588ZM15.7312 38.3622L21.1255 36.977L20.5926 35.0493L15.1983 36.4345L15.7312 38.3622ZM10.7906 46.7699C10.2113 42.5884 12.3335 39.2347 15.7312 38.3622L15.1983 36.4345C10.656 37.6009 8.10938 42.0245 8.80016 47.0098L10.7906 46.7699ZM15.4586 63.469C13.5535 59.0468 11.4546 51.0725 10.7884 46.7548L8.80237 47.025C9.48892 51.4747 11.6275 59.6179 13.6125 64.2259L15.4586 63.469ZM24.1873 68.5923C20.6095 69.5111 17.1737 67.6505 15.4654 63.4853L13.6057 64.2096C15.6188 69.1179 19.9708 71.7397 24.7203 70.52L24.1873 68.5923ZM29.5817 67.2071L24.1873 68.5923L24.7203 70.52L30.1146 69.1348L29.5817 67.2071ZM43.2263 73.3587L30.2666 67.2727L29.4298 69.0693L42.3894 75.1553L43.2263 73.3587ZM47.8343 74.0958C46.417 74.4597 44.4785 73.9778 43.245 73.3677L42.3707 75.1462C43.8177 75.8619 46.2861 76.5579 48.3672 76.0235L47.8343 74.0958ZM48.1475 74.0188C48.0465 74.0448 47.9596 74.067 47.8621 74.0891L48.3393 76.0303C48.4685 76.001 48.5815 75.9719 48.6804 75.9465L48.1475 74.0188ZM52.7585 67.2409C52.7191 70.7546 50.7923 73.3396 48.1475 74.0188L48.6804 75.9465C52.3701 74.9991 54.7205 71.4953 54.7676 67.2947L52.7585 67.2409ZM52.2341 62.9413C52.4859 64.3568 52.7305 65.741 52.7586 67.2702L54.7675 67.2655C54.7361 65.5582 54.462 64.0274 54.2126 62.626L52.2341 62.9413ZM52.2242 62.8719L52.2243 62.8719L54.2225 62.6954L54.2225 62.6953L52.2242 62.8719ZM52.2294 62.915L52.2341 62.9412L54.2127 62.626L54.208 62.5998L52.2294 62.915ZM51.9863 61.5043L52.2285 62.9097L54.2089 62.605L53.9667 61.1996L51.9863 61.5043ZM43.5188 31.2047C44.3754 33.2721 46.3147 39.6889 48.1436 46.2316C49.9724 52.7739 51.6424 59.2691 51.9834 61.4866L53.9696 61.2173C53.6064 58.8554 51.8967 52.23 50.0793 45.7286C48.2621 39.2276 46.2889 32.6778 45.3758 30.4738L43.5188 31.2047ZM43.0032 29.9055L43.5131 31.1906L45.3815 30.4878L44.8716 29.2027L43.0032 29.9055ZM53.3382 32.891C53.6475 32.5155 54.2024 32.4655 54.603 32.8151L55.9175 31.3303C54.6762 30.247 52.8122 30.3565 51.7735 31.6176L53.3382 32.891ZM53.4939 34.2932C53.0734 33.927 53.0197 33.2845 53.3434 32.8847L51.7683 31.6239C50.7634 32.8651 50.9611 34.7171 52.1812 35.7795L53.4939 34.2932ZM58.8204 43.1728C57.8259 39.5997 55.9533 36.4386 53.4946 34.2938L52.1805 35.7789C54.2884 37.6177 55.9759 40.4107 56.8841 43.6736L58.8204 43.1728ZM58.8195 53.4258C59.835 50.3848 59.8143 46.7436 58.8204 43.1728L56.8841 43.6736C57.7917 46.9345 57.7813 50.1672 56.911 52.7734L58.8195 53.4258ZM59.4226 54.7183C58.9315 54.5272 58.6457 53.9444 58.8192 53.4267L56.9112 52.7725C56.4058 54.2814 57.198 55.98 58.7141 56.5699L59.4226 54.7183ZM59.9482 54.7503C59.7801 54.7937 59.5975 54.7849 59.416 54.7157L58.7208 56.5725C59.2876 56.7885 59.9003 56.8278 60.4829 56.6776L59.9482 54.7503ZM60.5492 54.1727C60.4474 54.4753 60.2166 54.6811 59.9482 54.7503L60.4829 56.6776C61.4249 56.4347 62.1526 55.7325 62.4564 54.829L60.5492 54.1727ZM60.5742 42.7223C61.696 46.7527 61.6687 50.8215 60.5486 54.1746L62.457 54.8271C63.7187 51.0505 63.7224 46.5753 62.5105 42.2214L60.5742 42.7223ZM54.6032 32.8153C57.3153 35.1808 59.4524 38.6919 60.5742 42.7223L62.5105 42.2214C61.2987 37.8675 58.9711 33.9937 55.9172 31.3301L54.6032 32.8153ZM60.835 23.8065C59.627 22.7118 57.7743 22.7857 56.7578 24.0734L58.3479 25.3153C58.6145 24.9776 59.1091 24.919 59.4918 25.2658L60.835 23.8065ZM70.6877 40.474C68.8335 33.8038 65.349 27.8742 60.8328 23.8046L59.494 25.2678C63.6778 29.038 66.9824 34.6114 68.7512 40.9742L70.6877 40.474ZM70.8001 59.6609C72.6004 53.9605 72.5431 47.1485 70.6877 40.474L68.7512 40.9742C70.5211 47.3413 70.5495 53.7581 68.8817 59.0389L70.8001 59.6609ZM68.8752 61.5134C69.8099 61.2721 70.5173 60.5602 70.8005 59.6597L68.8813 59.0401C68.7874 59.3388 68.5723 59.5263 68.3398 59.5863L68.8752 61.5134ZM67.1362 61.392C67.692 61.6147 68.296 61.6629 68.8752 61.5134L68.3398 59.5863C68.1951 59.6236 68.0339 59.6161 67.8638 59.548L67.1362 61.392ZM65.3521 57.6124C64.8873 59.0963 65.6488 60.784 67.1295 61.3893L67.8705 59.5507C67.4038 59.3599 67.104 58.7661 67.2719 58.2299L65.3521 57.6124ZM65.1926 41.8928C66.7478 47.4873 66.7846 53.0709 65.3527 57.6105L67.2713 58.2318C68.8375 53.2666 68.7676 47.2868 67.1292 41.3926L65.1926 41.8928ZM57.1785 28.205C60.7736 31.4469 63.6381 36.3006 65.1926 41.8928L67.1292 41.3926C65.4913 35.5006 62.4498 30.288 58.5179 26.7423L57.1785 28.205ZM56.7545 24.0776C55.7892 25.3144 56.0052 27.1452 57.1779 28.2044L58.5185 26.7428C58.0965 26.3617 58.0471 25.7008 58.3512 25.3111L56.7545 24.0776Z" fill="url(#paint2_linear)" mask="url(#path-2-outside-1)"/>
</g>
</g>
<defs>
<filter id="filter0_b" x="-15.312" y="-3.97119" width="111.427" height="104.184" filterUnits="userSpaceOnUse" color-interpolation-filters="sRGB">
<feFlood flood-opacity="0" result="BackgroundImageFix"/>
<feGaussianBlur in="BackgroundImage" stdDeviation="12"/>
<feComposite in2="SourceAlpha" operator="in" result="effect1_backgroundBlur"/>
<feBlend mode="normal" in="SourceGraphic" in2="effect1_backgroundBlur" result="shape"/>
</filter>
<linearGradient id="paint0_linear" x1="42.1837" y1="26.3046" x2="1.37689" y2="14.9622" gradientUnits="userSpaceOnUse">
<stop stop-color="#16D9E3"/>
<stop offset="0.47" stop-color="#30C7EC"/>
<stop offset="1" stop-color="#46AEF7"/>
</linearGradient>
<linearGradient id="paint1_linear" x1="11.4852" y1="55.6854" x2="69.3352" y2="39.6059" gradientUnits="userSpaceOnUse">
<stop stop-color="#83A6FF"/>
<stop offset="1" stop-color="#4D6DE2"/>
</linearGradient>
<linearGradient id="paint2_linear" x1="15.2613" y1="32.614" x2="61.4266" y2="68.8717" gradientUnits="userSpaceOnUse">
<stop stop-color="white" stop-opacity="0.25"/>
<stop offset="1" stop-color="white" stop-opacity="0"/>
</linearGradient>
<clipPath id="clip0">
<rect width="76" height="76" fill="white"/>
</clipPath>
</defs>
</svg>
