<svg width="76" height="76" viewBox="0 0 76 76" fill="none" xmlns="http://www.w3.org/2000/svg">
<g clip-path="url(#clip0)">
<path fill-rule="evenodd" clip-rule="evenodd" d="M52.7842 14.5172C51.7071 13.2429 50.6299 12.6612 48.9872 12.6612H12.6186C11.7568 12.6612 11.0566 11.9964 10.9759 11.1071L10.4642 4.90194C10.3834 3.96008 9.71016 3.1872 8.79455 3.01821L2.37181 2.02372C1.2677 1.85474 0.217436 2.60546 0.0289283 3.73846C-0.15958 4.84653 0.594452 5.9269 1.67164 6.12082C4.0678 6.54523 5.87673 8.5316 6.07571 10.9569L8.21556 37.0388C8.51179 40.6954 11.4741 43.5182 15.0557 43.5182H44.436C47.8561 43.5182 50.7645 40.9447 51.2492 37.4515L53.8076 19.2792C54.0499 17.6198 53.8614 15.7915 52.7842 14.5172Z" fill="url(#paint0_linear)"/>
<g filter="url(#filter0_b)">
<mask id="path-2-outside-1" maskUnits="userSpaceOnUse" x="11" y="13.9644" width="61" height="63" fill="black">
<rect fill="white" x="11" y="13.9644" width="61" height="63"/>
<path fill-rule="evenodd" clip-rule="evenodd" d="M17.7315 27.5573C15.9452 27.5573 14.7739 28.1899 13.6025 29.5756C12.4312 30.9612 12.2262 32.9493 12.4898 34.7537L15.2717 54.5143C15.7988 58.3128 18.9614 61.1112 22.6804 61.1112H54.6285C58.5231 61.1112 61.7443 58.0417 62.0664 54.0655L64.7605 21.2285L69.1823 20.4453C70.3536 20.2345 71.1735 19.0597 70.9685 17.8548C70.7636 16.6227 69.6215 15.8064 68.4209 15.9901L61.4368 17.0716C60.4412 17.2553 59.7091 18.0957 59.6213 19.1199L59.0649 25.8674C58.977 26.8344 58.2157 27.5573 57.2786 27.5573H17.7315ZM55.0979 65.8726C57.5577 65.8726 59.549 67.9209 59.549 70.4512C59.549 72.9514 57.5577 74.9998 55.0979 74.9998C52.6674 74.9998 50.6762 72.9514 50.6762 70.4512C50.6762 67.9209 52.6674 65.8726 55.0979 65.8726ZM22.1545 65.8726C24.6143 65.8726 26.6056 67.9209 26.6056 70.4512C26.6056 72.9514 24.6143 74.9998 22.1545 74.9998C19.724 74.9998 17.7328 72.9514 17.7328 70.4512C17.7328 67.9209 19.724 65.8726 22.1545 65.8726Z"/>
</mask>
<path fill-rule="evenodd" clip-rule="evenodd" d="M17.7315 27.5573C15.9452 27.5573 14.7739 28.1899 13.6025 29.5756C12.4312 30.9612 12.2262 32.9493 12.4898 34.7537L15.2717 54.5143C15.7988 58.3128 18.9614 61.1112 22.6804 61.1112H54.6285C58.5231 61.1112 61.7443 58.0417 62.0664 54.0655L64.7605 21.2285L69.1823 20.4453C70.3536 20.2345 71.1735 19.0597 70.9685 17.8548C70.7636 16.6227 69.6215 15.8064 68.4209 15.9901L61.4368 17.0716C60.4412 17.2553 59.7091 18.0957 59.6213 19.1199L59.0649 25.8674C58.977 26.8344 58.2157 27.5573 57.2786 27.5573H17.7315ZM55.0979 65.8726C57.5577 65.8726 59.549 67.9209 59.549 70.4512C59.549 72.9514 57.5577 74.9998 55.0979 74.9998C52.6674 74.9998 50.6762 72.9514 50.6762 70.4512C50.6762 67.9209 52.6674 65.8726 55.0979 65.8726ZM22.1545 65.8726C24.6143 65.8726 26.6056 67.9209 26.6056 70.4512C26.6056 72.9514 24.6143 74.9998 22.1545 74.9998C19.724 74.9998 17.7328 72.9514 17.7328 70.4512C17.7328 67.9209 19.724 65.8726 22.1545 65.8726Z" fill="url(#paint1_linear)"/>
<path d="M12.4898 34.7537L13.4793 34.6091L13.48 34.6143L12.4898 34.7537ZM15.2717 54.5143L16.2619 54.3749L16.2622 54.3768L15.2717 54.5143ZM62.0664 54.0655L61.0697 53.9847L61.0698 53.9837L62.0664 54.0655ZM64.7605 21.2285L63.7638 21.1467C63.801 20.6939 64.1387 20.3231 64.5861 20.2438L64.7605 21.2285ZM69.1823 20.4453L69.3594 21.4295L69.3567 21.43L69.1823 20.4453ZM70.9685 17.8548L69.9827 18.0225L69.9821 18.0189L70.9685 17.8548ZM68.4209 15.9901L68.2679 15.0019L68.2696 15.0017L68.4209 15.9901ZM61.4368 17.0716L61.2553 16.0882C61.2648 16.0864 61.2743 16.0848 61.2838 16.0833L61.4368 17.0716ZM59.6213 19.1199L58.6246 19.0377L58.6249 19.0345L59.6213 19.1199ZM59.0649 25.8674L60.0615 25.9496L60.0608 25.9579L59.0649 25.8674ZM12.8388 28.93C13.4812 28.1701 14.1689 27.5626 14.9891 27.1524C15.8158 26.739 16.714 26.5573 17.7315 26.5573V28.5573C16.9627 28.5573 16.3821 28.6919 15.8837 28.9412C15.3788 29.1937 14.8952 29.5954 14.3662 30.2211L12.8388 28.93ZM11.5003 34.8982C11.2179 32.9647 11.4013 30.6306 12.8388 28.93L14.3662 30.2211C13.4611 31.2918 13.2346 32.9339 13.4793 34.6092L11.5003 34.8982ZM14.2815 54.6537L11.4995 34.8931L13.48 34.6143L16.2619 54.3749L14.2815 54.6537ZM22.6804 62.1112C18.4444 62.1112 14.8744 58.9268 14.2812 54.6517L16.2622 54.3768C16.7232 57.6987 19.4783 60.1112 22.6804 60.1112V62.1112ZM54.6285 62.1112H22.6804V60.1112H54.6285V62.1112ZM63.0632 54.1462C62.7011 58.6157 59.0697 62.1112 54.6285 62.1112V60.1112C57.9765 60.1112 60.7875 57.4676 61.0697 53.9847L63.0632 54.1462ZM65.7571 21.3103L63.0631 54.1472L61.0698 53.9837L63.7638 21.1467L65.7571 21.3103ZM69.3567 21.43L64.9349 22.2132L64.5861 20.2438L69.0079 19.4606L69.3567 21.43ZM71.9544 17.687C72.2493 19.4204 71.0829 21.1193 69.3594 21.4295L69.0051 19.4611C69.6243 19.3497 70.0978 18.699 69.9827 18.0225L71.9544 17.687ZM68.2696 15.0017C70.0136 14.7347 71.6606 15.9213 71.955 17.6906L69.9821 18.0189C69.8665 17.3242 69.2294 16.8781 68.5722 16.9786L68.2696 15.0017ZM61.2838 16.0833L68.2679 15.0019L68.5739 16.9784L61.5898 18.0598L61.2838 16.0833ZM58.6249 19.0345C58.7492 17.5856 59.7937 16.3579 61.2553 16.0882L61.6183 18.055C61.0887 18.1527 60.669 18.6059 60.6176 19.2054L58.6249 19.0345ZM58.0683 25.7853L58.6246 19.0377L60.6179 19.2021L60.0615 25.9496L58.0683 25.7853ZM57.2786 26.5573C57.666 26.5573 58.0249 26.2617 58.069 25.777L60.0608 25.9579C59.9291 27.407 58.7653 28.5573 57.2786 28.5573V26.5573ZM17.7315 26.5573H57.2786V28.5573H17.7315V26.5573ZM58.549 70.4512C58.549 68.4464 56.979 66.8726 55.0979 66.8726V64.8726C58.1365 64.8726 60.549 67.3955 60.549 70.4512H58.549ZM55.0979 73.9998C56.9832 73.9998 58.549 72.4216 58.549 70.4512H60.549C60.549 73.4812 58.1322 75.9998 55.0979 75.9998V73.9998ZM51.6762 70.4512C51.6762 72.426 53.2462 73.9998 55.0979 73.9998V75.9998C52.0887 75.9998 49.6762 73.4769 49.6762 70.4512H51.6762ZM55.0979 66.8726C53.2504 66.8726 51.6762 68.442 51.6762 70.4512H49.6762C49.6762 67.3998 52.0845 64.8726 55.0979 64.8726V66.8726ZM25.6056 70.4512C25.6056 68.4464 24.0356 66.8726 22.1545 66.8726V64.8726C25.1931 64.8726 27.6056 67.3955 27.6056 70.4512H25.6056ZM22.1545 73.9998C24.0398 73.9998 25.6056 72.4216 25.6056 70.4512H27.6056C27.6056 73.4812 25.1888 75.9998 22.1545 75.9998V73.9998ZM18.7328 70.4512C18.7328 72.426 20.3028 73.9998 22.1545 73.9998V75.9998C19.1453 75.9998 16.7328 73.4769 16.7328 70.4512H18.7328ZM22.1545 66.8726C20.307 66.8726 18.7328 68.442 18.7328 70.4512H16.7328C16.7328 67.3998 19.141 64.8726 22.1545 64.8726V66.8726Z" fill="url(#paint2_linear)" mask="url(#path-2-outside-1)"/>
</g>
<g filter="url(#filter1_bd)">
<mask id="path-4-inside-2" fill="white">
<path fill-rule="evenodd" clip-rule="evenodd" d="M27.3654 43.2167H35.4769C36.7068 43.2167 37.6732 42.1925 37.6732 40.9575C37.6732 39.6923 36.7068 38.6982 35.4769 38.6982H27.3654C26.1355 38.6982 25.1692 39.6923 25.1692 40.9575C25.1692 42.1925 26.1355 43.2167 27.3654 43.2167Z"/>
</mask>
<path fill-rule="evenodd" clip-rule="evenodd" d="M27.3654 43.2167H35.4769C36.7068 43.2167 37.6732 42.1925 37.6732 40.9575C37.6732 39.6923 36.7068 38.6982 35.4769 38.6982H27.3654C26.1355 38.6982 25.1692 39.6923 25.1692 40.9575C25.1692 42.1925 26.1355 43.2167 27.3654 43.2167Z" fill="url(#paint3_linear)"/>
<path d="M27.3654 43.0167H35.4769V43.4167H27.3654V43.0167ZM35.4769 43.0167C36.5894 43.0167 37.4732 42.0892 37.4732 40.9575H37.8732C37.8732 42.2958 36.8243 43.4167 35.4769 43.4167V43.0167ZM37.4732 40.9575C37.4732 39.7974 36.5911 38.8982 35.4769 38.8982V38.4982C36.8226 38.4982 37.8732 39.5872 37.8732 40.9575H37.4732ZM35.4769 38.8982H27.3654V38.4982H35.4769V38.8982ZM27.3654 38.8982C26.2513 38.8982 25.3692 39.7974 25.3692 40.9575H24.9692C24.9692 39.5872 26.0198 38.4982 27.3654 38.4982V38.8982ZM25.3692 40.9575C25.3692 42.0892 26.253 43.0167 27.3654 43.0167V43.4167C26.0181 43.4167 24.9692 42.2958 24.9692 40.9575H25.3692Z" fill="url(#paint4_linear)" fill-opacity="0.5" mask="url(#path-4-inside-2)"/>
</g>
</g>
<defs>
<filter id="filter0_b" x="-12.6119" y="-9.03564" width="108.612" height="109.036" filterUnits="userSpaceOnUse" color-interpolation-filters="sRGB">
<feFlood flood-opacity="0" result="BackgroundImageFix"/>
<feGaussianBlur in="BackgroundImage" stdDeviation="12"/>
<feComposite in2="SourceAlpha" operator="in" result="effect1_backgroundBlur"/>
<feBlend mode="normal" in="SourceGraphic" in2="effect1_backgroundBlur" result="shape"/>
</filter>
<filter id="filter1_bd" x="10.1692" y="23.6982" width="42.504" height="34.5184" filterUnits="userSpaceOnUse" color-interpolation-filters="sRGB">
<feFlood flood-opacity="0" result="BackgroundImageFix"/>
<feGaussianBlur in="BackgroundImage" stdDeviation="7.5"/>
<feComposite in2="SourceAlpha" operator="in" result="effect1_backgroundBlur"/>
<feColorMatrix in="SourceAlpha" type="matrix" values="0 0 0 0 0 0 0 0 0 0 0 0 0 0 0 0 0 0 127 0"/>
<feOffset dx="5" dy="5"/>
<feGaussianBlur stdDeviation="5"/>
<feColorMatrix type="matrix" values="0 0 0 0 0.454902 0 0 0 0 0.870588 0 0 0 0 0.376471 0 0 0 0.5 0"/>
<feBlend mode="normal" in2="effect1_backgroundBlur" result="effect2_dropShadow"/>
<feBlend mode="normal" in="SourceGraphic" in2="effect2_dropShadow" result="shape"/>
</filter>
<linearGradient id="paint0_linear" x1="0" y1="22.7591" x2="53.9014" y2="22.7591" gradientUnits="userSpaceOnUse">
<stop stop-color="#16D9E3"/>
<stop offset="0.47" stop-color="#30C7EC"/>
<stop offset="1" stop-color="#46AEF7"/>
</linearGradient>
<linearGradient id="paint1_linear" x1="71.2884" y1="45.4703" x2="12.4571" y2="45.4703" gradientUnits="userSpaceOnUse">
<stop stop-color="#83A6FF"/>
<stop offset="1" stop-color="#4D6DE2"/>
</linearGradient>
<linearGradient id="paint2_linear" x1="61.6699" y1="22.8421" x2="23.9554" y2="69.2176" gradientUnits="userSpaceOnUse">
<stop stop-color="white" stop-opacity="0.25"/>
<stop offset="1" stop-color="white" stop-opacity="0"/>
</linearGradient>
<linearGradient id="paint3_linear" x1="26.0557" y1="39.5142" x2="39.8862" y2="40.7621" gradientUnits="userSpaceOnUse">
<stop stop-color="white"/>
<stop offset="1" stop-color="white" stop-opacity="0.2"/>
</linearGradient>
<linearGradient id="paint4_linear" x1="36.3262" y1="40.214" x2="25.7108" y2="40.3761" gradientUnits="userSpaceOnUse">
<stop stop-color="white"/>
<stop offset="1" stop-color="white" stop-opacity="0"/>
</linearGradient>
<clipPath id="clip0">
<rect width="76" height="76" fill="white"/>
</clipPath>
</defs>
</svg>
