<svg width="72" height="72" viewBox="0 0 72 72" fill="none" xmlns="http://www.w3.org/2000/svg">
<path d="M52.5 60C54.1569 60 55.5 58.6569 55.5 57C55.5 55.3431 54.1569 54 52.5 54C50.8431 54 49.5 55.3431 49.5 57C49.5 58.6569 50.8431 60 52.5 60Z" stroke="#1549D0" stroke-width="2" stroke-miterlimit="10" stroke-linecap="round" stroke-linejoin="round"/>
<path d="M28.5 60C30.1569 60 31.5 58.6569 31.5 57C31.5 55.3431 30.1569 54 28.5 54C26.8432 54 25.5 55.3431 25.5 57C25.5 58.6569 26.8432 60 28.5 60Z" stroke="#1549D0" stroke-width="2" stroke-miterlimit="10" stroke-linecap="round" stroke-linejoin="round"/>
<path d="M64.5 12L58.5 45H22.5L16.5 12" stroke="#1549D0" stroke-width="2"/>
<path d="M64.5 12L58.5 45H22.5L16.5 12" fill="url(#paint0_linear)"/>
<path d="M64.5 12L58.5 45H22.5L16.5 12" stroke="#1549D0" stroke-width="2" stroke-miterlimit="10" stroke-linecap="round" stroke-linejoin="round"/>
<path d="M4.5 12H16.5" stroke="#1549D0" stroke-width="2" stroke-miterlimit="10" stroke-linecap="round" stroke-linejoin="round"/>
<path d="M31.5 33H49.5" stroke="#22DDDD" stroke-width="2" stroke-miterlimit="10" stroke-linecap="round" stroke-linejoin="round"/>
<path d="M28.5 21H52.5" stroke="#22DDDD" stroke-width="2" stroke-miterlimit="10" stroke-linecap="round" stroke-linejoin="round"/>
<defs>
<linearGradient id="paint0_linear" x1="40.5" y1="12" x2="65" y2="94" gradientUnits="userSpaceOnUse">
<stop stop-color="#1549D0" stop-opacity="0"/>
<stop offset="1" stop-color="#1549D0"/>
</linearGradient>
</defs>
</svg>
