<svg width="76" height="76" viewBox="0 0 76 76" fill="none" xmlns="http://www.w3.org/2000/svg">
    <g clip-path="url(#clip0)">
        <path d="M50.2907 8.80448C47.2898 7.02329 43.7163 6.55851 40.367 7.4886L15.6931 14.3405C8.69724 16.2832 4.55393 23.6471 6.40423 30.8037L11.6434 51.0679C13.4937 58.2245 20.6596 62.4478 27.6305 60.5121L52.3044 53.6602C59.2753 51.7244 63.4461 44.3529 61.5958 37.1963L56.3566 16.9321C55.4679 13.4949 53.2928 10.5799 50.2907 8.80448Z" fill="url(#paint0_linear)" />
        <g filter="url(#filter0_f)">
            <path d="M43.4424 15.4833C41.549 14.2924 39.3074 13.9582 37.217 14.5387L21.8179 18.8155C17.4518 20.0281 14.9148 24.8125 16.1299 29.5117L19.5703 42.8174C20.7854 47.5166 25.3065 50.3407 29.657 49.1325L45.0562 44.8557C49.4067 43.6474 51.9609 38.8582 50.7458 34.1591L47.3053 20.8533C46.7217 18.5964 45.3366 16.6704 43.4424 15.4833Z" fill="url(#paint1_linear)" />
        </g>
        <g filter="">
            <mask id="path-3-outside-1" maskUnits="userSpaceOnUse" x="12.9999" y="17" width="60" height="56" fill="black">
                <rect fill="white" x="12.9999" y="17" width="60" height="56" />
                <path d="M67.705 22.443C64.9529 19.59 61.2119 18 57.323 18H28.6739C20.551 18 13.9999 24.78 13.9999 33.15V56.85C13.9999 65.22 20.58 72 28.6739 72H57.323C65.4169 72 71.9999 65.22 71.9999 56.85V33.15C71.9999 29.13 70.46 25.29 67.705 22.443Z" />
            </mask>
            <path d="M67.705 22.443C64.9529 19.59 61.2119 18 57.323 18H28.6739C20.551 18 13.9999 24.78 13.9999 33.15V56.85C13.9999 65.22 20.58 72 28.6739 72H57.323C65.4169 72 71.9999 65.22 71.9999 56.85V33.15C71.9999 29.13 70.46 25.29 67.705 22.443Z" fill="#FF64A7" fill-opacity="0.4" />
            <path d="M66.9853 23.1373C67.3687 23.5348 68.0018 23.5462 68.3992 23.1627C68.7967 22.7793 68.8081 22.1462 68.4247 21.7487L66.9853 23.1373ZM68.4236 21.7476C68.0395 21.3507 67.4065 21.3403 67.0096 21.7244C66.6127 22.1084 66.6023 22.7415 66.9864 23.1384L68.4236 21.7476ZM68.4247 21.7487C65.4862 18.7025 61.4862 17 57.323 17V19C60.9375 19 64.4196 20.4775 66.9853 23.1373L68.4247 21.7487ZM57.323 17H28.6739V19H57.323V17ZM28.6739 17C19.9681 17 12.9999 24.2588 12.9999 33.15H14.9999C14.9999 25.3012 21.1338 19 28.6739 19V17ZM12.9999 33.15V56.85H14.9999V33.15H12.9999ZM12.9999 56.85C12.9999 65.7425 19.9984 73 28.6739 73V71C21.1615 71 14.9999 64.6975 14.9999 56.85H12.9999ZM28.6739 73H57.323V71H28.6739V73ZM57.323 73C65.9982 73 72.9999 65.7428 72.9999 56.85H70.9999C70.9999 64.6972 64.8356 71 57.323 71V73ZM72.9999 56.85V33.15H70.9999V56.85H72.9999ZM72.9999 33.15C72.9999 28.8749 71.3621 24.7842 68.4236 21.7476L66.9864 23.1384C69.5579 25.7958 70.9999 29.3852 70.9999 33.15H72.9999Z" fill="url(#paint2_linear)" mask="url(#path-3-outside-1)" />
        </g>
        <g filter="">
            <mask id="path-5-inside-2" fill="white">
                <path d="M63.4733 35.8072L63.2364 36.0487L49.8828 46.9471C48.228 48.2755 46.1825 49 44.0837 49C41.979 49 39.969 48.2755 38.3113 46.9471L24.8422 36.2299L24.4544 35.8374C23.7765 34.9317 23.8653 33.6336 24.6646 32.8185C25.4313 32.0034 26.7042 31.9128 27.6248 32.6071L40.9459 43.4753C42.6894 44.9274 45.1494 44.9274 46.8663 43.4753L60.214 32.6071C60.661 32.1845 61.2531 31.9701 61.8747 32.0034C62.4638 32.0637 63.0292 32.3385 63.4407 32.7883C64.1808 33.6638 64.1808 34.9317 63.4733 35.8072Z" />
            </mask>
            <path d="M63.4733 35.8072L63.2364 36.0487L49.8828 46.9471C48.228 48.2755 46.1825 49 44.0837 49C41.979 49 39.969 48.2755 38.3113 46.9471L24.8422 36.2299L24.4544 35.8374C23.7765 34.9317 23.8653 33.6336 24.6646 32.8185C25.4313 32.0034 26.7042 31.9128 27.6248 32.6071L40.9459 43.4753C42.6894 44.9274 45.1494 44.9274 46.8663 43.4753L60.214 32.6071C60.661 32.1845 61.2531 31.9701 61.8747 32.0034C62.4638 32.0637 63.0292 32.3385 63.4407 32.7883C64.1808 33.6638 64.1808 34.9317 63.4733 35.8072Z" fill="url(#paint3_linear)" />
            <path d="M63.2364 36.0487L63.3629 36.2037L63.3715 36.1967L63.3792 36.1888L63.2364 36.0487ZM49.8828 46.9471L50.008 47.1031L50.0093 47.1021L49.8828 46.9471ZM38.3113 46.9471L38.4363 46.791L38.4358 46.7906L38.3113 46.9471ZM24.8422 36.2299L24.6999 36.3704L24.7083 36.3789L24.7177 36.3864L24.8422 36.2299ZM24.4544 35.8374L24.2943 35.9573L24.3025 35.9682L24.3121 35.978L24.4544 35.8374ZM24.6646 32.8185L24.8074 32.9585L24.8102 32.9555L24.6646 32.8185ZM27.6248 32.6071L27.7513 32.4521L27.7452 32.4475L27.6248 32.6071ZM40.9459 43.4753L41.0739 43.3216L41.0723 43.3204L40.9459 43.4753ZM46.8663 43.4753L46.74 43.3202L46.7372 43.3226L46.8663 43.4753ZM60.214 32.6071L60.3403 32.7622L60.3461 32.7576L60.3514 32.7525L60.214 32.6071ZM61.8747 32.0034L61.8951 31.8042L61.8854 31.8036L61.8747 32.0034ZM63.4407 32.7883L63.5936 32.6591L63.5883 32.6533L63.4407 32.7883ZM63.3305 35.6672L63.0936 35.9087L63.3792 36.1888L63.6161 35.9472L63.3305 35.6672ZM63.11 35.8938L49.7564 46.7922L50.0093 47.1021L63.3629 36.2037L63.11 35.8938ZM49.7576 46.7912C48.1379 48.0914 46.1364 48.8 44.0837 48.8V49.2C46.2286 49.2 48.3182 48.4596 50.008 47.1031L49.7576 46.7912ZM44.0837 48.8C42.0259 48.8 40.0597 48.0918 38.4363 46.791L38.1862 47.1032C39.8783 48.4591 41.9321 49.2 44.0837 49.2V48.8ZM38.4358 46.7906L24.9667 36.0734L24.7177 36.3864L38.1867 47.1036L38.4358 46.7906ZM24.9844 36.0893L24.5967 35.6968L24.3121 35.978L24.6999 36.3704L24.9844 36.0893ZM24.6145 35.7176C23.9963 34.8916 24.0766 33.7038 24.8074 32.9585L24.5218 32.6784C23.654 33.5634 23.5567 34.9718 24.2943 35.9573L24.6145 35.7176ZM24.8102 32.9555C25.5037 32.2183 26.6613 32.1309 27.5044 32.7668L27.7452 32.4475C26.7471 31.6946 25.3589 31.7884 24.5189 32.6814L24.8102 32.9555ZM27.4984 32.7621L40.8194 43.6303L41.0723 43.3204L27.7512 32.4522L27.4984 32.7621ZM40.8179 43.629C42.635 45.1424 45.2034 45.1437 46.9955 43.628L46.7372 43.3226C45.0954 44.7112 42.7439 44.7125 41.0739 43.3217L40.8179 43.629ZM46.9926 43.6304L60.3403 32.7622L60.0878 32.4521L46.7401 43.3202L46.9926 43.6304ZM60.3514 32.7525C60.7579 32.3682 61.2961 32.1727 61.8641 32.2031L61.8854 31.8036C61.2101 31.7676 60.5642 32.0008 60.0766 32.4618L60.3514 32.7525ZM61.8543 32.2023C62.3959 32.2578 62.9156 32.5106 63.2931 32.9233L63.5883 32.6533C63.1428 32.1663 62.5317 31.8696 61.8951 31.8044L61.8543 32.2023ZM63.288 32.9174C63.9653 33.7187 63.9656 34.8797 63.3177 35.6815L63.6288 35.9329C64.3959 34.9837 64.3962 33.6088 63.5934 32.6592L63.288 32.9174Z" fill="url(#paint4_linear)" fill-opacity="0.5" mask="url(#path-5-inside-2)" />
        </g>
    </g>
    <defs>
        <filter id="filter0_f" x="-0.17395" y="-1.7395" width="67.2224" height="67.1512" filterUnits="userSpaceOnUse" color-interpolation-filters="sRGB">
            <feFlood flood-opacity="0" result="BackgroundImageFix" />
            <feBlend mode="normal" in="SourceGraphic" in2="BackgroundImageFix" result="shape" />
            <feGaussianBlur stdDeviation="8" result="effect1_foregroundBlur" />
        </filter>
        <filter id="filter1_b" x="-2.00012" y="2" width="90" height="86" filterUnits="userSpaceOnUse" color-interpolation-filters="sRGB">
            <feFlood flood-opacity="0" result="BackgroundImageFix" />
            <feGaussianBlur in="BackgroundImage" stdDeviation="7.5" />
            <feComposite in2="SourceAlpha" operator="in" result="effect1_backgroundBlur" />
            <feBlend mode="normal" in="SourceGraphic" in2="effect1_backgroundBlur" result="shape" />
        </filter>
        <filter id="filter2_bd" x="8.99988" y="17" width="70" height="47" filterUnits="userSpaceOnUse" color-interpolation-filters="sRGB">
            <feFlood flood-opacity="0" result="BackgroundImageFix" />
            <feGaussianBlur in="BackgroundImage" stdDeviation="7.5" />
            <feComposite in2="SourceAlpha" operator="in" result="effect1_backgroundBlur" />
            <feColorMatrix in="SourceAlpha" type="matrix" values="0 0 0 0 0 0 0 0 0 0 0 0 0 0 0 0 0 0 127 0" />
            <feOffset dx="5" dy="5" />
            <feGaussianBlur stdDeviation="5" />
            <feColorMatrix type="matrix" values="0 0 0 0 1 0 0 0 0 0.447059 0 0 0 0 0.368627 0 0 0 0.5 0" />
            <feBlend mode="normal" in2="effect1_backgroundBlur" result="effect2_dropShadow" />
            <feBlend mode="normal" in="SourceGraphic" in2="effect2_dropShadow" result="shape" />
        </filter>
        <linearGradient id="paint0_linear" x1="8.80595" y1="40.0727" x2="59.1824" y2="26.9798" gradientUnits="userSpaceOnUse">
            <stop stop-color="#FF66A9" />
            <stop offset="1" stop-color="#F53689" />
        </linearGradient>
        <linearGradient id="paint1_linear" x1="17.7068" y1="35.5986" x2="49.1476" y2="27.4271" gradientUnits="userSpaceOnUse">
            <stop stop-color="#FF66A9" />
            <stop offset="1" stop-color="#F53689" />
        </linearGradient>
        <linearGradient id="paint2_linear" x1="23.2325" y1="24.2911" x2="57.0822" y2="69.3202" gradientUnits="userSpaceOnUse">
            <stop stop-color="white" stop-opacity="0.25" />
            <stop offset="1" stop-color="white" stop-opacity="0" />
        </linearGradient>
        <linearGradient id="paint3_linear" x1="61.1639" y1="35.0699" x2="16.8213" y2="38.4717" gradientUnits="userSpaceOnUse">
            <stop stop-color="white" />
            <stop offset="1" stop-color="white" stop-opacity="0.2" />
        </linearGradient>
        <linearGradient id="paint4_linear" x1="62.286" y1="40.8596" x2="23.7004" y2="44.6418" gradientUnits="userSpaceOnUse">
            <stop stop-color="white" />
            <stop offset="1" stop-color="white" stop-opacity="0" />
        </linearGradient>
        <clipPath id="clip0">
            <rect width="76" height="76" fill="white" />
        </clipPath>
    </defs>
</svg>
