<svg width="525" height="510" viewBox="0 0 525 510" fill="none" xmlns="http://www.w3.org/2000/svg">
<g clip-path="url(#clip0)">
<path d="M111.498 355.596C111.128 352.901 110.657 350.154 110.1 347.43L113.324 348.294C113.908 351.147 114.398 354.021 114.786 356.84L111.498 355.596Z" fill="#F2F2F2"/>
<path d="M72.5702 419.639C67.7251 416.467 63.0907 412.007 59.1663 406.735L61.0112 404.59C64.4513 409.21 68.5254 413.128 72.7918 415.92L72.5702 419.639ZM86.4331 424.502L84.9601 420.193C88.431 420.227 91.7898 419.113 94.9429 416.88L97.4261 420.888C93.9863 423.324 90.2871 424.541 86.4331 424.502ZM49.8788 389.067C47.9943 383.575 47.0005 378.16 47.002 373.406C47.002 373.017 47.0087 372.629 47.0229 372.248L47.0622 371.435L50.3901 373.639L50.3575 374.322C50.3458 374.661 50.3391 374.996 50.3391 375.333C50.3376 379.5 51.2126 384.256 52.8704 389.09L49.8788 389.067ZM178.999 462.747L178.983 458.885C183.33 461.371 187.804 463.749 192.277 465.952L192.521 469.936C187.973 467.696 183.423 465.277 178.999 462.747ZM165.463 454.425L163.331 453.004C159.229 450.242 155.512 447.56 151.968 444.807L152.535 441.337C155.983 444.017 159.604 446.627 163.608 449.325L165.694 450.712L165.463 454.425ZM205.968 476.062L205.518 471.983C209.81 473.787 214.234 475.498 218.667 477.072L219.299 481.219C214.806 479.625 210.322 477.891 205.968 476.062ZM138.706 433.328C134.783 429.521 131.107 425.517 127.776 421.422C127.252 420.78 126.731 420.126 126.215 419.468L127.938 417.164C128.425 417.786 128.914 418.398 129.411 419.008C132.566 422.887 136.054 426.684 139.781 430.303L138.706 433.328ZM105.401 412.56L102.507 408.97C104.67 405.876 106.521 402.321 108.012 398.408L111.151 401.526C109.594 405.614 107.66 409.326 105.401 412.56ZM232.489 485.519L231.704 481.321C235.877 482.562 240.221 483.743 244.611 484.826L245.531 489.064C241.095 487.967 236.709 486.774 232.489 485.519ZM258.421 491.96L257.392 487.7C261.634 488.563 265.856 489.338 270.054 490.04L271.169 494.315C266.944 493.609 262.693 492.829 258.421 491.96ZM115.073 404.107C112.002 399.751 108.705 395.137 105.136 390.82L104.02 389.493L105.549 386.951C105.946 387.415 106.344 387.89 106.737 388.365C110.482 392.893 114.019 397.843 117.038 402.127L115.073 404.107ZM55.0667 363.662L52.7332 359.559C55.6712 357.934 59.6883 357.764 65.0151 359.042L66.1368 363.325C61.2315 362.15 57.5699 362.278 55.0667 363.662ZM91.8303 377.367C88.0365 374.196 84.1448 371.451 80.2632 369.21L78.9107 368.449L78.8287 364.548C83.422 367.071 88.0589 370.263 92.5595 374.029L91.8303 377.367ZM114.675 388.288L111.39 385.717C112.154 381.178 112.551 376.331 112.574 371.313L115.912 373.259C115.888 378.494 115.473 383.551 114.675 388.288Z" fill="#F2F2F2"/>
<path d="M283.945 496.241L282.759 491.955C284.835 492.239 286.912 492.51 288.981 492.772L290.194 497.063C288.117 496.801 286.034 496.529 283.945 496.241Z" fill="#F2F2F2"/>
<g filter="url(#filter0_ii)">
<path d="M86.0243 383.335L63.3283 241.073L142.23 295.798C142.815 296.199 142.838 297.594 142.276 298.152L110.946 329.082L83.3565 282.562L107.242 335.927L87.3819 383.644C86.9923 384.569 86.2025 384.369 86.0243 383.335Z" fill="#E0E0E0"/>
</g>
<g filter="url(#filter1_ii)">
<path d="M95.1138 382.804L72.4178 240.542L151.32 295.268C151.904 295.668 151.928 297.063 151.365 297.621L120.065 328.545L92.4757 282.025L116.313 335.384L96.4714 383.113C96.0818 384.038 95.292 383.838 95.1138 382.804Z" fill="url(#paint0_linear)"/>
</g>
<g filter="url(#filter2_ii)">
<path d="M507.917 239.73L521.426 100.243L448.098 158.107C447.554 158.531 447.615 159.886 448.195 160.395L480.468 188.548L504.467 141.726L484.474 194.972L506.617 240.112C507.051 240.986 507.806 240.745 507.917 239.73Z" fill="#E0E0E0"/>
</g>
<g filter="url(#filter3_ii)">
<path d="M499.061 239.764L512.571 100.276L439.242 158.14C438.699 158.565 438.76 159.92 439.339 160.428L471.583 188.577L495.582 141.755L475.636 194.993L497.762 240.145C498.195 241.02 498.95 240.778 499.061 239.764Z" fill="url(#paint1_linear)"/>
</g>
<g filter="url(#filter4_ddii)">
<path d="M297.254 247.958C340.942 79.1332 313.909 62.8207 298.752 56.4345C297.449 55.8852 295.951 56.3699 295.18 57.5555C279.711 81.322 239.876 134.595 284.995 255.048L297.254 247.958Z" fill="#E0E0E0"/>
</g>
<g filter="url(#filter5_ii)">
<path d="M289.457 237.719C283.036 245.773 275.905 254.613 270.902 260.794C265.302 244.043 272.709 220.611 280.986 203.09C282.986 213.973 285.772 225.492 289.457 237.719Z" fill="url(#paint2_linear)"/>
</g>
<g filter="url(#filter6_ii)">
<path d="M328.563 175.63C336.843 183.548 344.273 198.351 338.736 221.517C333.722 221.114 326.614 220.564 320.179 219.975C323.819 203.509 326.564 188.802 328.563 175.63Z" fill="url(#paint3_linear)"/>
</g>
<g filter="url(#filter7_ii)">
<path d="M310.886 258.15C356.842 80.5237 318.774 65.507 304.4 59.4691C290.071 82.1629 252.158 141.183 298.627 265.24L310.886 258.15Z" fill="#E0E0E0"/>
</g>
<g filter="url(#filter8_ddii)">
<path d="M290.732 122.005C290.749 132.817 297.117 137.894 304.965 133.355C312.814 128.816 319.153 116.348 319.136 105.536C319.119 94.7246 312.752 89.6468 304.903 94.1859C297.055 98.725 290.715 111.193 290.732 122.005Z" fill="#1549D0"/>
</g>
<g filter="url(#filter9_ddii)">
<path d="M293.827 305.427C297.073 300.109 298.634 293.373 300.009 287.46C301.606 280.648 302.944 274.848 306.308 273.383C310.159 271.694 311.886 275.956 314.327 281.863C315.754 285.34 317.444 289.452 319.919 293.227C322.57 290.417 325.372 288.093 328.325 286.405C340.695 279.24 351.03 285.396 353.485 300.133C355.166 298.858 356.847 297.696 358.567 296.683C378.412 285.204 394.518 298.16 394.561 325.694C394.605 353.192 378.569 384.792 358.761 396.271C339.514 407.413 323.746 395.503 322.807 369.654C319.19 376.393 314.373 382.05 309.028 385.126C307.645 385.914 306.3 386.515 305.028 386.891C297.349 403.85 285.888 418.459 273.069 425.886C249.897 439.316 231.057 424.232 230.969 392.208C230.919 360.184 249.677 323.304 272.848 309.875C280.51 305.448 287.653 304.09 293.827 305.427Z" fill="#DD2265" fill-opacity="0.58"/>
<path d="M293.827 305.427C297.073 300.109 298.634 293.373 300.009 287.46C301.606 280.648 302.944 274.848 306.308 273.383C310.159 271.694 311.886 275.956 314.327 281.863C315.754 285.34 317.444 289.452 319.919 293.227C322.57 290.417 325.372 288.093 328.325 286.405C340.695 279.24 351.03 285.396 353.485 300.133C355.166 298.858 356.847 297.696 358.567 296.683C378.412 285.204 394.518 298.16 394.561 325.694C394.605 353.192 378.569 384.792 358.761 396.271C339.514 407.413 323.746 395.503 322.807 369.654C319.19 376.393 314.373 382.05 309.028 385.126C307.645 385.914 306.3 386.515 305.028 386.891C297.349 403.85 285.888 418.459 273.069 425.886C249.897 439.316 231.057 424.232 230.969 392.208C230.919 360.184 249.677 323.304 272.848 309.875C280.51 305.448 287.653 304.09 293.827 305.427Z" fill="url(#paint4_linear)" fill-opacity="0.1"/>
</g>
</g>
<defs>
<filter id="filter0_ii" x="61.6628" y="240.24" width="81.8533" height="145.662" filterUnits="userSpaceOnUse" color-interpolation-filters="sRGB">
<feFlood flood-opacity="0" result="BackgroundImageFix"/>
<feBlend mode="normal" in="SourceGraphic" in2="BackgroundImageFix" result="shape"/>
<feColorMatrix in="SourceAlpha" type="matrix" values="0 0 0 0 0 0 0 0 0 0 0 0 0 0 0 0 0 0 127 0" result="hardAlpha"/>
<feOffset dx="-2.4983" dy="1.83209"/>
<feGaussianBlur stdDeviation="0.832768"/>
<feComposite in2="hardAlpha" operator="arithmetic" k2="-1" k3="1"/>
<feColorMatrix type="matrix" values="0 0 0 0 1 0 0 0 0 1 0 0 0 0 1 0 0 0 0.6 0"/>
<feBlend mode="normal" in2="shape" result="effect1_innerShadow"/>
<feColorMatrix in="SourceAlpha" type="matrix" values="0 0 0 0 0 0 0 0 0 0 0 0 0 0 0 0 0 0 127 0" result="hardAlpha"/>
<feOffset dx="0.832768" dy="-0.832768"/>
<feGaussianBlur stdDeviation="0.832768"/>
<feComposite in2="hardAlpha" operator="arithmetic" k2="-1" k3="1"/>
<feColorMatrix type="matrix" values="0 0 0 0 0 0 0 0 0 0 0 0 0 0 0 0 0 0 0.3 0"/>
<feBlend mode="normal" in2="effect1_innerShadow" result="effect2_innerShadow"/>
</filter>
<filter id="filter1_ii" x="70.7523" y="239.709" width="81.8533" height="145.662" filterUnits="userSpaceOnUse" color-interpolation-filters="sRGB">
<feFlood flood-opacity="0" result="BackgroundImageFix"/>
<feBlend mode="normal" in="SourceGraphic" in2="BackgroundImageFix" result="shape"/>
<feColorMatrix in="SourceAlpha" type="matrix" values="0 0 0 0 0 0 0 0 0 0 0 0 0 0 0 0 0 0 127 0" result="hardAlpha"/>
<feOffset dx="-2.4983" dy="1.83209"/>
<feGaussianBlur stdDeviation="0.832768"/>
<feComposite in2="hardAlpha" operator="arithmetic" k2="-1" k3="1"/>
<feColorMatrix type="matrix" values="0 0 0 0 1 0 0 0 0 1 0 0 0 0 1 0 0 0 0.6 0"/>
<feBlend mode="normal" in2="shape" result="effect1_innerShadow"/>
<feColorMatrix in="SourceAlpha" type="matrix" values="0 0 0 0 0 0 0 0 0 0 0 0 0 0 0 0 0 0 127 0" result="hardAlpha"/>
<feOffset dx="0.832768" dy="-0.832768"/>
<feGaussianBlur stdDeviation="0.832768"/>
<feComposite in2="hardAlpha" operator="arithmetic" k2="-1" k3="1"/>
<feColorMatrix type="matrix" values="0 0 0 0 0 0 0 0 0 0 0 0 0 0 0 0 0 0 0.3 0"/>
<feBlend mode="normal" in2="effect1_innerShadow" result="effect2_innerShadow"/>
</filter>
<filter id="filter2_ii" x="446.103" y="99.4323" width="76.1334" height="142.836" filterUnits="userSpaceOnUse" color-interpolation-filters="sRGB">
<feFlood flood-opacity="0" result="BackgroundImageFix"/>
<feBlend mode="normal" in="SourceGraphic" in2="BackgroundImageFix" result="shape"/>
<feColorMatrix in="SourceAlpha" type="matrix" values="0 0 0 0 0 0 0 0 0 0 0 0 0 0 0 0 0 0 127 0" result="hardAlpha"/>
<feOffset dx="-2.4303" dy="1.78222"/>
<feGaussianBlur stdDeviation="0.810102"/>
<feComposite in2="hardAlpha" operator="arithmetic" k2="-1" k3="1"/>
<feColorMatrix type="matrix" values="0 0 0 0 1 0 0 0 0 1 0 0 0 0 1 0 0 0 0.6 0"/>
<feBlend mode="normal" in2="shape" result="effect1_innerShadow"/>
<feColorMatrix in="SourceAlpha" type="matrix" values="0 0 0 0 0 0 0 0 0 0 0 0 0 0 0 0 0 0 127 0" result="hardAlpha"/>
<feOffset dx="0.810102" dy="-0.810102"/>
<feGaussianBlur stdDeviation="0.810102"/>
<feComposite in2="hardAlpha" operator="arithmetic" k2="-1" k3="1"/>
<feColorMatrix type="matrix" values="0 0 0 0 0 0 0 0 0 0 0 0 0 0 0 0 0 0 0.3 0"/>
<feBlend mode="normal" in2="effect1_innerShadow" result="effect2_innerShadow"/>
</filter>
<filter id="filter3_ii" x="437.247" y="99.466" width="76.1334" height="142.836" filterUnits="userSpaceOnUse" color-interpolation-filters="sRGB">
<feFlood flood-opacity="0" result="BackgroundImageFix"/>
<feBlend mode="normal" in="SourceGraphic" in2="BackgroundImageFix" result="shape"/>
<feColorMatrix in="SourceAlpha" type="matrix" values="0 0 0 0 0 0 0 0 0 0 0 0 0 0 0 0 0 0 127 0" result="hardAlpha"/>
<feOffset dx="-2.4303" dy="1.78222"/>
<feGaussianBlur stdDeviation="0.810102"/>
<feComposite in2="hardAlpha" operator="arithmetic" k2="-1" k3="1"/>
<feColorMatrix type="matrix" values="0 0 0 0 1 0 0 0 0 1 0 0 0 0 1 0 0 0 0.6 0"/>
<feBlend mode="normal" in2="shape" result="effect1_innerShadow"/>
<feColorMatrix in="SourceAlpha" type="matrix" values="0 0 0 0 0 0 0 0 0 0 0 0 0 0 0 0 0 0 127 0" result="hardAlpha"/>
<feOffset dx="0.810102" dy="-0.810102"/>
<feGaussianBlur stdDeviation="0.810102"/>
<feComposite in2="hardAlpha" operator="arithmetic" k2="-1" k3="1"/>
<feColorMatrix type="matrix" values="0 0 0 0 0 0 0 0 0 0 0 0 0 0 0 0 0 0 0.3 0"/>
<feBlend mode="normal" in2="effect1_innerShadow" result="effect2_innerShadow"/>
</filter>
<filter id="filter4_ddii" x="253.277" y="55.4849" width="75.7102" height="209.701" filterUnits="userSpaceOnUse" color-interpolation-filters="sRGB">
<feFlood flood-opacity="0" result="BackgroundImageFix"/>
<feColorMatrix in="SourceAlpha" type="matrix" values="0 0 0 0 0 0 0 0 0 0 0 0 0 0 0 0 0 0 127 0"/>
<feOffset dx="3.62064" dy="5.79303"/>
<feGaussianBlur stdDeviation="2.17239"/>
<feColorMatrix type="matrix" values="0 0 0 0 0 0 0 0 0 0 0 0 0 0 0 0 0 0 0.06 0"/>
<feBlend mode="normal" in2="BackgroundImageFix" result="effect1_dropShadow"/>
<feColorMatrix in="SourceAlpha" type="matrix" values="0 0 0 0 0 0 0 0 0 0 0 0 0 0 0 0 0 0 127 0"/>
<feOffset dx="-8.68955" dy="5.79303"/>
<feGaussianBlur stdDeviation="1.08619"/>
<feColorMatrix type="matrix" values="0 0 0 0 0 0 0 0 0 0 0 0 0 0 0 0 0 0 0.04 0"/>
<feBlend mode="normal" in2="effect1_dropShadow" result="effect2_dropShadow"/>
<feBlend mode="normal" in="SourceGraphic" in2="effect2_dropShadow" result="shape"/>
<feColorMatrix in="SourceAlpha" type="matrix" values="0 0 0 0 0 0 0 0 0 0 0 0 0 0 0 0 0 0 127 0" result="hardAlpha"/>
<feOffset dx="-1.08619" dy="0.796542"/>
<feGaussianBlur stdDeviation="0.362064"/>
<feComposite in2="hardAlpha" operator="arithmetic" k2="-1" k3="1"/>
<feColorMatrix type="matrix" values="0 0 0 0 1 0 0 0 0 1 0 0 0 0 1 0 0 0 0.2 0"/>
<feBlend mode="normal" in2="shape" result="effect3_innerShadow"/>
<feColorMatrix in="SourceAlpha" type="matrix" values="0 0 0 0 0 0 0 0 0 0 0 0 0 0 0 0 0 0 127 0" result="hardAlpha"/>
<feOffset dy="-0.724129"/>
<feGaussianBlur stdDeviation="0.362064"/>
<feComposite in2="hardAlpha" operator="arithmetic" k2="-1" k3="1"/>
<feColorMatrix type="matrix" values="0 0 0 0 0 0 0 0 0 0 0 0 0 0 0 0 0 0 0.3 0"/>
<feBlend mode="normal" in2="effect3_innerShadow" result="effect4_innerShadow"/>
</filter>
<filter id="filter5_ii" x="267.961" y="201.562" width="23.0247" height="60.2207" filterUnits="userSpaceOnUse" color-interpolation-filters="sRGB">
<feFlood flood-opacity="0" result="BackgroundImageFix"/>
<feBlend mode="normal" in="SourceGraphic" in2="BackgroundImageFix" result="shape"/>
<feColorMatrix in="SourceAlpha" type="matrix" values="0 0 0 0 0 0 0 0 0 0 0 0 0 0 0 0 0 0 127 0" result="hardAlpha"/>
<feOffset dx="-2.3679" dy="1.25274"/>
<feGaussianBlur stdDeviation="0.494435"/>
<feComposite in2="hardAlpha" operator="arithmetic" k2="-1" k3="1"/>
<feColorMatrix type="matrix" values="0 0 0 0 0.271215 0 0 0 0 0.317886 0 0 0 0 0.891667 0 0 0 1 0"/>
<feBlend mode="normal" in2="shape" result="effect1_innerShadow"/>
<feColorMatrix in="SourceAlpha" type="matrix" values="0 0 0 0 0 0 0 0 0 0 0 0 0 0 0 0 0 0 127 0" result="hardAlpha"/>
<feOffset dx="2.09273" dy="-1.52791"/>
<feGaussianBlur stdDeviation="0.763956"/>
<feComposite in2="hardAlpha" operator="arithmetic" k2="-1" k3="1"/>
<feColorMatrix type="matrix" values="0 0 0 0 0 0 0 0 0 0 0 0 0 0 0 0 0 0 0.1 0"/>
<feBlend mode="normal" in2="effect1_innerShadow" result="effect2_innerShadow"/>
</filter>
<filter id="filter6_ii" x="319.19" y="174.102" width="22.9871" height="48.4043" filterUnits="userSpaceOnUse" color-interpolation-filters="sRGB">
<feFlood flood-opacity="0" result="BackgroundImageFix"/>
<feBlend mode="normal" in="SourceGraphic" in2="BackgroundImageFix" result="shape"/>
<feColorMatrix in="SourceAlpha" type="matrix" values="0 0 0 0 0 0 0 0 0 0 0 0 0 0 0 0 0 0 127 0" result="hardAlpha"/>
<feOffset dx="-2.3679" dy="1.25274"/>
<feGaussianBlur stdDeviation="0.494435"/>
<feComposite in2="hardAlpha" operator="arithmetic" k2="-1" k3="1"/>
<feColorMatrix type="matrix" values="0 0 0 0 0.222396 0 0 0 0 0.271485 0 0 0 0 0.875 0 0 0 1 0"/>
<feBlend mode="normal" in2="shape" result="effect1_innerShadow"/>
<feColorMatrix in="SourceAlpha" type="matrix" values="0 0 0 0 0 0 0 0 0 0 0 0 0 0 0 0 0 0 127 0" result="hardAlpha"/>
<feOffset dx="2.09273" dy="-1.52791"/>
<feGaussianBlur stdDeviation="0.763956"/>
<feComposite in2="hardAlpha" operator="arithmetic" k2="-1" k3="1"/>
<feColorMatrix type="matrix" values="0 0 0 0 0 0 0 0 0 0 0 0 0 0 0 0 0 0 0.1 0"/>
<feBlend mode="normal" in2="effect1_innerShadow" result="effect2_innerShadow"/>
</filter>
<filter id="filter7_ii" x="275.221" y="57.9411" width="59.1883" height="208.287" filterUnits="userSpaceOnUse" color-interpolation-filters="sRGB">
<feFlood flood-opacity="0" result="BackgroundImageFix"/>
<feBlend mode="normal" in="SourceGraphic" in2="BackgroundImageFix" result="shape"/>
<feColorMatrix in="SourceAlpha" type="matrix" values="0 0 0 0 0 0 0 0 0 0 0 0 0 0 0 0 0 0 127 0" result="hardAlpha"/>
<feOffset dx="-2.3679" dy="1.25274"/>
<feGaussianBlur stdDeviation="0.494435"/>
<feComposite in2="hardAlpha" operator="arithmetic" k2="-1" k3="1"/>
<feColorMatrix type="matrix" values="0 0 0 0 1 0 0 0 0 1 0 0 0 0 1 0 0 0 0.8 0"/>
<feBlend mode="normal" in2="shape" result="effect1_innerShadow"/>
<feColorMatrix in="SourceAlpha" type="matrix" values="0 0 0 0 0 0 0 0 0 0 0 0 0 0 0 0 0 0 127 0" result="hardAlpha"/>
<feOffset dx="2.09273" dy="-1.52791"/>
<feGaussianBlur stdDeviation="0.763956"/>
<feComposite in2="hardAlpha" operator="arithmetic" k2="-1" k3="1"/>
<feColorMatrix type="matrix" values="0 0 0 0 0 0 0 0 0 0 0 0 0 0 0 0 0 0 0.1 0"/>
<feBlend mode="normal" in2="effect1_innerShadow" result="effect2_innerShadow"/>
</filter>
<filter id="filter8_ddii" x="279.87" y="91.7998" width="47.2315" height="53.3551" filterUnits="userSpaceOnUse" color-interpolation-filters="sRGB">
<feFlood flood-opacity="0" result="BackgroundImageFix"/>
<feColorMatrix in="SourceAlpha" type="matrix" values="0 0 0 0 0 0 0 0 0 0 0 0 0 0 0 0 0 0 127 0"/>
<feOffset dx="3.62064" dy="5.79303"/>
<feGaussianBlur stdDeviation="2.17239"/>
<feColorMatrix type="matrix" values="0 0 0 0 0 0 0 0 0 0 0 0 0 0 0 0 0 0 0.06 0"/>
<feBlend mode="normal" in2="BackgroundImageFix" result="effect1_dropShadow"/>
<feColorMatrix in="SourceAlpha" type="matrix" values="0 0 0 0 0 0 0 0 0 0 0 0 0 0 0 0 0 0 127 0"/>
<feOffset dx="-8.68955" dy="5.79303"/>
<feGaussianBlur stdDeviation="1.08619"/>
<feColorMatrix type="matrix" values="0 0 0 0 0 0 0 0 0 0 0 0 0 0 0 0 0 0 0.04 0"/>
<feBlend mode="normal" in2="effect1_dropShadow" result="effect2_dropShadow"/>
<feBlend mode="normal" in="SourceGraphic" in2="effect2_dropShadow" result="shape"/>
<feColorMatrix in="SourceAlpha" type="matrix" values="0 0 0 0 0 0 0 0 0 0 0 0 0 0 0 0 0 0 127 0" result="hardAlpha"/>
<feOffset dx="-1.08619" dy="0.796542"/>
<feGaussianBlur stdDeviation="0.362064"/>
<feComposite in2="hardAlpha" operator="arithmetic" k2="-1" k3="1"/>
<feColorMatrix type="matrix" values="0 0 0 0 1 0 0 0 0 1 0 0 0 0 1 0 0 0 0.2 0"/>
<feBlend mode="normal" in2="shape" result="effect3_innerShadow"/>
<feColorMatrix in="SourceAlpha" type="matrix" values="0 0 0 0 0 0 0 0 0 0 0 0 0 0 0 0 0 0 127 0" result="hardAlpha"/>
<feOffset dy="-0.724129"/>
<feGaussianBlur stdDeviation="0.362064"/>
<feComposite in2="hardAlpha" operator="arithmetic" k2="-1" k3="1"/>
<feColorMatrix type="matrix" values="0 0 0 0 0 0 0 0 0 0 0 0 0 0 0 0 0 0 0.3 0"/>
<feBlend mode="normal" in2="effect3_innerShadow" result="effect4_innerShadow"/>
</filter>
<filter id="filter9_ddii" x="229.821" y="271.862" width="177.37" height="175.005" filterUnits="userSpaceOnUse" color-interpolation-filters="sRGB">
<feFlood flood-opacity="0" result="BackgroundImageFix"/>
<feColorMatrix in="SourceAlpha" type="matrix" values="0 0 0 0 0 0 0 0 0 0 0 0 0 0 0 0 0 0 127 0"/>
<feOffset dx="5.74056" dy="9.18489"/>
<feGaussianBlur stdDeviation="3.44433"/>
<feColorMatrix type="matrix" values="0 0 0 0 0 0 0 0 0 0 0 0 0 0 0 0 0 0 0.06 0"/>
<feBlend mode="normal" in2="BackgroundImageFix" result="effect1_dropShadow"/>
<feColorMatrix in="SourceAlpha" type="matrix" values="0 0 0 0 0 0 0 0 0 0 0 0 0 0 0 0 0 0 127 0"/>
<feOffset dx="5.74056" dy="9.18489"/>
<feGaussianBlur stdDeviation="1.14811"/>
<feColorMatrix type="matrix" values="0 0 0 0 0 0 0 0 0 0 0 0 0 0 0 0 0 0 0.04 0"/>
<feBlend mode="normal" in2="effect1_dropShadow" result="effect2_dropShadow"/>
<feBlend mode="normal" in="SourceGraphic" in2="effect2_dropShadow" result="shape"/>
<feColorMatrix in="SourceAlpha" type="matrix" values="0 0 0 0 0 0 0 0 0 0 0 0 0 0 0 0 0 0 127 0" result="hardAlpha"/>
<feOffset dx="-1.72217" dy="1.26292"/>
<feGaussianBlur stdDeviation="0.574056"/>
<feComposite in2="hardAlpha" operator="arithmetic" k2="-1" k3="1"/>
<feColorMatrix type="matrix" values="0 0 0 0 1 0 0 0 0 1 0 0 0 0 1 0 0 0 0.2 0"/>
<feBlend mode="normal" in2="shape" result="effect3_innerShadow"/>
<feColorMatrix in="SourceAlpha" type="matrix" values="0 0 0 0 0 0 0 0 0 0 0 0 0 0 0 0 0 0 127 0" result="hardAlpha"/>
<feOffset dy="-1.14811"/>
<feGaussianBlur stdDeviation="0.574056"/>
<feComposite in2="hardAlpha" operator="arithmetic" k2="-1" k3="1"/>
<feColorMatrix type="matrix" values="0 0 0 0 0 0 0 0 0 0 0 0 0 0 0 0 0 0 0.3 0"/>
<feBlend mode="normal" in2="effect3_innerShadow" result="effect4_innerShadow"/>
</filter>
<linearGradient id="paint0_linear" x1="48.2548" y1="298.296" x2="124.569" y2="308.394" gradientUnits="userSpaceOnUse">
<stop stop-color="#D7DEE4"/>
<stop offset="1" stop-color="#CDD4DA"/>
</linearGradient>
<linearGradient id="paint1_linear" x1="539.493" y1="154.903" x2="466.002" y2="169.282" gradientUnits="userSpaceOnUse">
<stop stop-color="#D7DEE4"/>
<stop offset="1" stop-color="#CDD4DA"/>
</linearGradient>
<linearGradient id="paint2_linear" x1="279.471" y1="215.47" x2="282.823" y2="252.963" gradientUnits="userSpaceOnUse">
<stop stop-color="#081AFF"/>
<stop offset="0.942708" stop-color="#3947F5"/>
</linearGradient>
<linearGradient id="paint3_linear" x1="330.355" y1="175.627" x2="330.427" y2="221.53" gradientUnits="userSpaceOnUse">
<stop stop-color="#2B3AFF"/>
<stop offset="1" stop-color="#081AFF"/>
</linearGradient>
<linearGradient id="paint4_linear" x1="377.088" y1="203.579" x2="162.912" y2="343.295" gradientUnits="userSpaceOnUse">
<stop stop-color="white" stop-opacity="0.51"/>
<stop offset="0.372802" stop-color="white"/>
<stop offset="0.388381" stop-color="white" stop-opacity="0"/>
</linearGradient>
<clipPath id="clip0">
<rect width="525" height="510" fill="white"/>
</clipPath>
</defs>
</svg>
