<svg width="1920" height="944" viewBox="0 0 1920 944" fill="none" xmlns="http://www.w3.org/2000/svg">
<rect width="1920" height="944" fill="#0F2441"/>
<rect x="1456.12" y="234" width="3.75" height="30" rx="1.875" fill="#1549D0"/>
<rect x="1443" y="250.875" width="3.75" height="30" rx="1.875" transform="rotate(-90 1443 250.875)" fill="#1549D0"/>
<path d="M71.4968 365.203C121.514 411.199 125 489.254 78.7973 539.496C32.8015 589.513 -45.2547 592.999 -95.4968 546.797C-145.514 500.801 -148.999 422.745 -102.796 372.502C-56.5927 322.26 21.2541 319 71.4968 365.203Z" stroke="#1F3655"/>
<path d="M1938.68 334.89C1962.16 356.476 1963.79 393.106 1942.11 416.684C1920.52 440.156 1883.89 441.792 1860.32 420.11C1836.84 398.524 1835.21 361.894 1856.89 338.316C1878.57 314.737 1915.11 313.208 1938.68 334.89Z" stroke="#1549D0"/>
</svg>
