<svg width="1920" height="678" viewBox="0 0 1920 678" fill="none" xmlns="http://www.w3.org/2000/svg">
<g clip-path="url(#clip0)">
<rect width="1920" height="678" fill="#192941"/>
<rect x="1539.5" y="221" width="5" height="40" rx="2.5" fill="#1549D0"/>
<rect x="1522" y="243.5" width="5" height="40" rx="2.5" transform="rotate(-90 1522 243.5)" fill="#1549D0"/>
<rect x="50.4498" y="455.724" width="14.7976" height="118.38" rx="7.39878" transform="rotate(37.7728 50.4498 455.724)" fill="#22DDDD"/>
<rect x="-31.2759" y="476.635" width="14.7976" height="118.38" rx="7.39878" transform="rotate(-52.2272 -31.2759 476.635)" fill="#22DDDD"/>
<path d="M1941.21 326.92C1967.7 351.277 1969.55 392.609 1945.08 419.214C1920.72 445.699 1879.39 447.545 1852.79 423.079C1826.3 398.723 1824.46 357.39 1848.92 330.786C1873.39 304.18 1914.61 302.454 1941.21 326.92Z" stroke="#2D4A71"/>
</g>
<path d="M825.984 236.242L825.704 235.282L825.702 235.283L825.984 236.242ZM818.641 238.859L817.71 239.224L818.083 240.177L819.027 239.782L818.641 238.859ZM814.812 229.094L814.407 228.18L813.532 228.568L813.881 229.459L814.812 229.094ZM853.445 232.883L852.696 233.546L852.7 233.549L853.445 232.883ZM853.25 276.242L852.523 275.556L852.522 275.556L853.25 276.242ZM815.828 280.852H814.828V281.538L815.469 281.785L815.828 280.852ZM815.828 270.695L816.13 269.742L814.828 269.329V270.695H815.828ZM843.367 270.07L842.69 269.335L842.686 269.338L843.367 270.07ZM847.664 259.172L848.663 259.22L848.714 258.172H847.664V259.172ZM822.898 259.172H821.898V260.172H822.898V259.172ZM822.898 249.25V248.25H821.898V249.25H822.898ZM847.586 249.25V250.25H848.622L848.585 249.215L847.586 249.25ZM843.602 238.898L842.894 239.606L842.898 239.609L843.602 238.898ZM833.602 234.148C830.928 234.148 828.294 234.527 825.704 235.282L826.264 237.202C828.674 236.499 831.119 236.148 833.602 236.148V234.148ZM825.702 235.283C823.192 236.023 820.709 236.908 818.254 237.937L819.027 239.782C821.416 238.78 823.829 237.92 826.267 237.201L825.702 235.283ZM819.572 238.494L815.744 228.729L813.881 229.459L817.71 239.224L819.572 238.494ZM815.218 230.008C821.132 227.382 827.334 226.07 833.836 226.07V224.07C827.056 224.07 820.577 225.44 814.407 228.18L815.218 230.008ZM833.836 226.07C842.081 226.07 848.317 228.598 852.696 233.546L854.194 232.22C849.354 226.751 842.518 224.07 833.836 224.07V226.07ZM852.7 233.549C857.124 238.495 859.398 245.442 859.398 254.523H861.398C861.398 245.115 859.038 237.635 854.191 232.216L852.7 233.549ZM859.398 254.523C859.398 263.788 857.058 270.747 852.523 275.556L853.977 276.928C858.973 271.633 861.398 264.113 861.398 254.523H859.398ZM852.522 275.556C848.024 280.327 841.472 282.781 832.703 282.781V284.781C841.851 284.781 848.997 282.21 853.978 276.928L852.522 275.556ZM832.703 282.781C826.638 282.781 821.136 281.822 816.187 279.918L815.469 281.785C820.676 283.788 826.425 284.781 832.703 284.781V282.781ZM816.828 280.852V270.695H814.828V280.852H816.828ZM815.526 271.649C821.909 273.671 827.407 274.703 832 274.703V272.703C827.686 272.703 822.404 271.73 816.13 269.742L815.526 271.649ZM832 274.703C837.125 274.703 841.196 273.455 844.048 270.803L842.686 269.338C840.33 271.53 836.822 272.703 832 272.703V274.703ZM844.045 270.806C846.929 268.15 848.42 264.231 848.663 259.22L846.665 259.124C846.439 263.801 845.066 267.147 842.69 269.335L844.045 270.806ZM847.664 258.172H822.898V260.172H847.664V258.172ZM823.898 259.172V249.25H821.898V259.172H823.898ZM822.898 250.25H847.586V248.25H822.898V250.25ZM848.585 249.215C848.423 244.602 847.03 240.884 844.305 238.188L842.898 239.609C845.173 241.861 846.437 245.044 846.587 249.285L848.585 249.215ZM844.309 238.191C841.588 235.471 837.982 234.148 833.602 234.148V236.148C837.554 236.148 840.615 237.326 842.894 239.606L844.309 238.191ZM895.866 283V284H896.866V283H895.866ZM883.756 283H882.756V284H883.756V283ZM883.756 235.969H884.756V234.969H883.756V235.969ZM868.248 235.969H867.248V236.969H868.248V235.969ZM868.248 225.891V224.891H867.248V225.891H868.248ZM911.373 225.891H912.373V224.891H911.373V225.891ZM911.373 235.969V236.969H912.373V235.969H911.373ZM895.866 235.969V234.969H894.866V235.969H895.866ZM895.866 282H883.756V284H895.866V282ZM884.756 283V235.969H882.756V283H884.756ZM883.756 234.969H868.248V236.969H883.756V234.969ZM869.248 235.969V225.891H867.248V235.969H869.248ZM868.248 226.891H911.373V224.891H868.248V226.891ZM910.373 225.891V235.969H912.373V225.891H910.373ZM911.373 234.969H895.866V236.969H911.373V234.969ZM894.866 235.969V283H896.866V235.969H894.866ZM956.723 283L955.767 283.291L955.983 284H956.723V283ZM952.583 269.406L953.539 269.115L953.324 268.406H952.583V269.406ZM931.762 269.406V268.406H931.022L930.806 269.115L931.762 269.406ZM927.622 283V284H928.363L928.578 283.291L927.622 283ZM914.575 283L913.632 282.668L913.164 284H914.575V283ZM934.731 225.656V224.656H934.023L933.788 225.325L934.731 225.656ZM949.536 225.656L950.479 225.323L950.243 224.656H949.536V225.656ZM969.77 283V284H971.184L970.713 282.667L969.77 283ZM949.692 259.25V260.25H951.05L950.647 258.953L949.692 259.25ZM943.208 238.352L942.247 238.63L942.25 238.637L942.252 238.645L943.208 238.352ZM942.192 234.523L943.168 234.307L941.224 234.274L942.192 234.523ZM934.809 259.25L933.854 258.955L933.454 260.25H934.809V259.25ZM957.68 282.709L953.539 269.115L951.626 269.698L955.767 283.291L957.68 282.709ZM952.583 268.406H931.762V270.406H952.583V268.406ZM930.806 269.115L926.665 282.709L928.578 283.291L932.719 269.698L930.806 269.115ZM927.622 282H914.575V284H927.622V282ZM915.518 283.332L935.675 225.988L933.788 225.325L913.632 282.668L915.518 283.332ZM934.731 226.656H949.536V224.656H934.731V226.656ZM948.593 225.989L968.827 283.333L970.713 282.667L950.479 225.323L948.593 225.989ZM969.77 282H956.723V284H969.77V282ZM950.647 258.953C946.819 246.634 944.658 239.671 944.164 238.059L942.252 238.645C942.747 240.262 944.91 247.23 948.737 259.547L950.647 258.953ZM944.168 238.073C943.702 236.466 943.37 235.213 943.168 234.307L941.216 234.74C941.431 235.708 941.776 237.008 942.247 238.63L944.168 238.073ZM941.224 234.274C940.372 237.579 937.919 245.795 933.854 258.955L935.765 259.545C939.825 246.403 942.294 238.135 943.161 234.773L941.224 234.274ZM934.809 260.25H949.692V258.25H934.809V260.25ZM1023.79 283V284H1024.79V283H1023.79ZM1011.72 283H1010.72V284H1011.72V283ZM1011.72 235.969H1012.72V234.969H1011.72V235.969ZM990.706 235.969V234.969H989.706V235.969H990.706ZM990.706 283V284H991.706V283H990.706ZM978.597 283H977.597V284H978.597V283ZM978.597 225.891V224.891H977.597V225.891H978.597ZM1023.79 225.891H1024.79V224.891H1023.79V225.891ZM1023.79 282H1011.72V284H1023.79V282ZM1012.72 283V235.969H1010.72V283H1012.72ZM1011.72 234.969H990.706V236.969H1011.72V234.969ZM989.706 235.969V283H991.706V235.969H989.706ZM990.706 282H978.597V284H990.706V282ZM979.597 283V225.891H977.597V283H979.597ZM978.597 226.891H1023.79V224.891H978.597V226.891ZM1022.79 225.891V283H1024.79V225.891H1022.79ZM1072.93 278.547L1073.53 279.345L1073.53 279.344L1072.93 278.547ZM1039.81 283H1038.81V284H1039.81V283ZM1039.81 225.891V224.891H1038.81V225.891H1039.81ZM1051.92 225.891H1052.92V224.891H1051.92V225.891ZM1051.92 247.805H1050.92V248.805H1051.92V247.805ZM1072.81 252.375L1072.21 253.171L1072.21 253.176L1072.81 252.375ZM1051.92 273.078H1050.92V274.078H1051.92V273.078ZM1063.83 271.125L1064.41 271.943L1064.41 271.937L1063.83 271.125ZM1063.91 259.445L1063.36 260.285L1063.37 260.288L1063.91 259.445ZM1051.92 257.727V256.727H1050.92V257.727H1051.92ZM1097.89 283V284H1098.89V283H1097.89ZM1085.82 283H1084.82V284H1085.82V283ZM1085.82 225.891V224.891H1084.82V225.891H1085.82ZM1097.89 225.891H1098.89V224.891H1097.89V225.891ZM1077.87 265.148C1077.87 270.842 1075.99 274.982 1072.33 277.749L1073.53 279.344C1077.79 276.122 1079.87 271.33 1079.87 265.148H1077.87ZM1072.33 277.749C1068.64 280.531 1063.06 282 1055.43 282V284C1063.27 284 1069.35 282.501 1073.53 279.345L1072.33 277.749ZM1055.43 282H1039.81V284H1055.43V282ZM1040.81 283V225.891H1038.81V283H1040.81ZM1039.81 226.891H1051.92V224.891H1039.81V226.891ZM1050.92 225.891V247.805H1052.92V225.891H1050.92ZM1051.92 248.805H1055.82V246.805H1051.92V248.805ZM1055.82 248.805C1063.02 248.805 1068.44 250.305 1072.21 253.171L1073.42 251.579C1069.17 248.352 1063.26 246.805 1055.82 246.805V248.805ZM1072.21 253.176C1075.97 255.989 1077.87 259.936 1077.87 265.148H1079.87C1079.87 259.371 1077.73 254.803 1073.41 251.574L1072.21 253.176ZM1051.92 274.078H1055.08V272.078H1051.92V274.078ZM1055.08 274.078C1059.13 274.078 1062.3 273.424 1064.41 271.943L1063.25 270.307C1061.66 271.43 1059 272.078 1055.08 272.078V274.078ZM1064.41 271.937C1066.57 270.388 1067.6 268.065 1067.6 265.148H1065.6C1065.6 267.544 1064.79 269.206 1063.25 270.313L1064.41 271.937ZM1067.6 265.148C1067.6 262.247 1066.6 259.978 1064.45 258.602L1063.37 260.288C1064.81 261.204 1065.6 262.737 1065.6 265.148H1067.6ZM1064.45 258.606C1062.42 257.29 1059.03 256.727 1054.53 256.727V258.727C1058.99 258.727 1061.86 259.309 1063.36 260.285L1064.45 258.606ZM1054.53 256.727H1051.92V258.727H1054.53V256.727ZM1050.92 257.727V273.078H1052.92V257.727H1050.92ZM1097.89 282H1085.82V284H1097.89V282ZM1086.82 283V225.891H1084.82V283H1086.82ZM1085.82 226.891H1097.89V224.891H1085.82V226.891ZM1096.89 225.891V283H1098.89V225.891H1096.89ZM1148.4 252.766H1147.4V253.766H1148.4V252.766ZM1160.74 250.578L1161.36 251.363L1161.37 251.358L1160.74 250.578ZM1161.17 237.844L1160.51 238.594L1160.52 238.599L1161.17 237.844ZM1148.4 235.812V234.812H1147.4V235.812H1148.4ZM1169.96 257.805L1169.31 257.041L1169.31 257.043L1169.96 257.805ZM1148.4 262.688V261.688H1147.4V262.688H1148.4ZM1148.4 283V284H1149.4V283H1148.4ZM1136.29 283H1135.29V284H1136.29V283ZM1136.29 225.891V224.891H1135.29V225.891H1136.29ZM1170.31 230.383L1169.67 231.151L1169.68 231.156L1170.31 230.383ZM1148.4 253.766H1152.38V251.766H1148.4V253.766ZM1152.38 253.766C1156.21 253.766 1159.26 253.021 1161.36 251.363L1160.12 249.793C1158.53 251.052 1156 251.766 1152.38 251.766V253.766ZM1161.37 251.358C1163.5 249.648 1164.51 247.186 1164.51 244.133H1162.51C1162.51 246.705 1161.68 248.54 1160.11 249.798L1161.37 251.358ZM1164.51 244.133C1164.51 241.117 1163.68 238.695 1161.83 237.088L1160.52 238.599C1161.79 239.7 1162.51 241.471 1162.51 244.133H1164.51ZM1161.83 237.094C1160.03 235.505 1157.31 234.812 1153.9 234.812V236.812C1157.11 236.812 1159.24 237.474 1160.51 238.594L1161.83 237.094ZM1153.9 234.812H1148.4V236.812H1153.9V234.812ZM1147.4 235.812V252.766H1149.4V235.812H1147.4ZM1174.74 243.703C1174.74 249.625 1172.89 254.017 1169.31 257.041L1170.6 258.569C1174.73 255.082 1176.74 250.073 1176.74 243.703H1174.74ZM1169.31 257.043C1165.73 260.092 1160.53 261.688 1153.59 261.688V263.688C1160.82 263.688 1166.54 262.028 1170.61 258.566L1169.31 257.043ZM1153.59 261.688H1148.4V263.688H1153.59V261.688ZM1147.4 262.688V283H1149.4V262.688H1147.4ZM1148.4 282H1136.29V284H1148.4V282ZM1137.29 283V225.891H1135.29V283H1137.29ZM1136.29 226.891H1154.53V224.891H1136.29V226.891ZM1154.53 226.891C1161.33 226.891 1166.33 228.363 1169.67 231.151L1170.95 229.615C1167.11 226.413 1161.58 224.891 1154.53 224.891V226.891ZM1169.68 231.156C1173.01 233.886 1174.74 238.006 1174.74 243.703H1176.74C1176.74 237.578 1174.86 232.817 1170.95 229.61L1169.68 231.156ZM1223.08 283L1222.13 283.291L1222.34 284H1223.08V283ZM1218.94 269.406L1219.9 269.115L1219.68 268.406H1218.94V269.406ZM1198.12 269.406V268.406H1197.38L1197.17 269.115L1198.12 269.406ZM1193.98 283V284H1194.72L1194.94 283.291L1193.98 283ZM1180.93 283L1179.99 282.668L1179.52 284H1180.93V283ZM1201.09 225.656V224.656H1200.38L1200.15 225.325L1201.09 225.656ZM1215.9 225.656L1216.84 225.323L1216.6 224.656H1215.9V225.656ZM1236.13 283V284H1237.54L1237.07 282.667L1236.13 283ZM1216.05 259.25V260.25H1217.41L1217.01 258.953L1216.05 259.25ZM1209.57 238.352L1208.61 238.63L1208.61 238.637L1208.61 238.645L1209.57 238.352ZM1208.55 234.523L1209.53 234.307L1207.58 234.274L1208.55 234.523ZM1201.17 259.25L1200.21 258.955L1199.81 260.25H1201.17V259.25ZM1224.04 282.709L1219.9 269.115L1217.99 269.698L1222.13 283.291L1224.04 282.709ZM1218.94 268.406H1198.12V270.406H1218.94V268.406ZM1197.17 269.115L1193.02 282.709L1194.94 283.291L1199.08 269.698L1197.17 269.115ZM1193.98 282H1180.93V284H1193.98V282ZM1181.88 283.332L1202.03 225.988L1200.15 225.325L1179.99 282.668L1181.88 283.332ZM1201.09 226.656H1215.9V224.656H1201.09V226.656ZM1214.95 225.989L1235.19 283.333L1237.07 282.667L1216.84 225.323L1214.95 225.989ZM1236.13 282H1223.08V284H1236.13V282ZM1217.01 258.953C1213.18 246.634 1211.02 239.671 1210.52 238.059L1208.61 238.645C1209.11 240.262 1211.27 247.23 1215.1 259.547L1217.01 258.953ZM1210.53 238.073C1210.06 236.466 1209.73 235.213 1209.53 234.307L1207.58 234.74C1207.79 235.708 1208.14 237.008 1208.61 238.63L1210.53 238.073ZM1207.58 234.274C1206.73 237.579 1204.28 245.795 1200.21 258.955L1202.12 259.545C1206.18 246.403 1208.65 238.135 1209.52 234.773L1207.58 234.274ZM1201.17 260.25H1216.05V258.25H1201.17V260.25ZM1257.07 247.805H1256.07V248.805H1257.07V247.805ZM1244.96 283H1243.96V284H1244.96V283ZM1244.96 225.891V224.891H1243.96V225.891H1244.96ZM1281.05 225.891H1282.05V224.891H1281.05V225.891ZM1281.05 235.891V236.891H1282.05V235.891H1281.05ZM1257.07 235.891V234.891H1256.07V235.891H1257.07ZM1257.07 273.078H1256.07V274.078H1257.07V273.078ZM1270.11 271.125L1270.68 271.95L1270.69 271.945L1270.11 271.125ZM1270.07 259.484L1269.55 260.339L1269.56 260.344L1270.07 259.484ZM1257.07 257.727V256.727H1256.07V257.727H1257.07ZM1257.07 248.805H1261.83V246.805H1257.07V248.805ZM1261.83 248.805C1269.16 248.805 1274.67 250.294 1278.5 253.138L1279.69 251.533C1275.39 248.337 1269.4 246.805 1261.83 246.805V248.805ZM1278.5 253.138C1282.28 255.952 1284.19 259.911 1284.19 265.148H1286.19C1286.19 259.345 1284.04 254.762 1279.69 251.533L1278.5 253.138ZM1284.19 265.148C1284.19 270.858 1282.32 274.993 1278.69 277.74C1275.01 280.526 1269.36 282 1261.6 282V284C1269.56 284 1275.71 282.499 1279.9 279.335C1284.13 276.13 1286.19 271.34 1286.19 265.148H1284.19ZM1261.6 282H1244.96V284H1261.6V282ZM1245.96 283V225.891H1243.96V283H1245.96ZM1244.96 226.891H1281.05V224.891H1244.96V226.891ZM1280.05 225.891V235.891H1282.05V225.891H1280.05ZM1281.05 234.891H1257.07V236.891H1281.05V234.891ZM1256.07 235.891V247.805H1258.07V235.891H1256.07ZM1257.07 274.078H1261.13V272.078H1257.07V274.078ZM1261.13 274.078C1265.28 274.078 1268.52 273.425 1270.68 271.95L1269.55 270.3C1267.9 271.43 1265.15 272.078 1261.13 272.078V274.078ZM1270.69 271.945C1272.9 270.4 1273.96 268.076 1273.96 265.148H1271.96C1271.96 267.533 1271.13 269.194 1269.54 270.305L1270.69 271.945ZM1273.96 265.148C1273.96 262.238 1272.87 259.985 1270.58 258.625L1269.56 260.344C1271.13 261.275 1271.96 262.799 1271.96 265.148H1273.96ZM1270.59 258.63C1268.41 257.305 1264.86 256.727 1260.15 256.727V258.727C1264.81 258.727 1267.88 259.32 1269.55 260.339L1270.59 258.63ZM1260.15 256.727H1257.07V258.727H1260.15V256.727ZM1256.07 257.727V273.078H1258.07V257.727H1256.07ZM1302.14 232.531L1301.41 231.847L1301.41 231.847L1302.14 232.531ZM1342.49 232.57L1341.76 233.246L1341.76 233.248L1342.49 232.57ZM1311.48 239.953L1312.28 240.557L1312.28 240.554L1311.48 239.953ZM1348.49 254.367C1348.49 263.662 1346.18 270.651 1341.72 275.486L1343.19 276.842C1348.1 271.521 1350.49 263.978 1350.49 254.367H1348.49ZM1341.72 275.486C1337.27 280.307 1330.85 282.781 1322.3 282.781V284.781C1331.25 284.781 1338.26 282.177 1343.19 276.842L1341.72 275.486ZM1322.3 282.781C1313.75 282.781 1307.33 280.307 1302.88 275.486L1301.41 276.842C1306.33 282.177 1313.35 284.781 1322.3 284.781V282.781ZM1302.88 275.486C1298.42 270.652 1296.11 263.638 1296.11 254.289H1294.11C1294.11 263.95 1296.49 271.52 1301.41 276.842L1302.88 275.486ZM1296.11 254.289C1296.11 244.939 1298.42 237.968 1302.87 233.215L1301.41 231.847C1296.49 237.094 1294.11 244.629 1294.11 254.289H1296.11ZM1302.87 233.215C1307.35 228.443 1313.8 225.992 1322.38 225.992V223.992C1313.4 223.992 1306.36 226.568 1301.41 231.847L1302.87 233.215ZM1322.38 225.992C1330.96 225.992 1337.36 228.455 1341.76 233.246L1343.23 231.894C1338.36 226.581 1331.35 223.992 1322.38 223.992V225.992ZM1341.76 233.248C1346.19 238.056 1348.49 245.043 1348.49 254.367H1350.49C1350.49 244.733 1348.12 237.189 1343.23 231.892L1341.76 233.248ZM1306.81 254.367C1306.81 260.847 1308.03 265.904 1310.64 269.381L1312.24 268.181C1310 265.2 1308.81 260.648 1308.81 254.367H1306.81ZM1310.64 269.381C1313.29 272.912 1317.23 274.625 1322.3 274.625V272.625C1317.73 272.625 1314.43 271.108 1312.24 268.181L1310.64 269.381ZM1322.3 274.625C1327.37 274.625 1331.32 272.925 1333.97 269.412C1336.57 265.953 1337.79 260.883 1337.79 254.367H1335.79C1335.79 260.69 1334.6 265.249 1332.37 268.209C1330.18 271.116 1326.89 272.625 1322.3 272.625V274.625ZM1337.79 254.367C1337.79 247.839 1336.58 242.761 1333.99 239.296C1331.36 235.776 1327.43 234.07 1322.38 234.07V236.07C1326.94 236.07 1330.21 237.581 1332.39 240.493C1334.6 243.46 1335.79 248.03 1335.79 254.367H1337.79ZM1322.38 234.07C1317.31 234.07 1313.35 235.798 1310.68 239.352L1312.28 240.554C1314.5 237.598 1317.81 236.07 1322.38 236.07V234.07ZM1310.68 239.349C1308.05 242.827 1306.81 247.886 1306.81 254.367H1308.81C1308.81 248.088 1310.02 243.538 1312.28 240.557L1310.68 239.349ZM1384.95 283V284H1385.95V283H1384.95ZM1372.84 283H1371.84V284H1372.84V283ZM1372.84 235.969H1373.84V234.969H1372.84V235.969ZM1357.34 235.969H1356.34V236.969H1357.34V235.969ZM1357.34 225.891V224.891H1356.34V225.891H1357.34ZM1400.46 225.891H1401.46V224.891H1400.46V225.891ZM1400.46 235.969V236.969H1401.46V235.969H1400.46ZM1384.95 235.969V234.969H1383.95V235.969H1384.95ZM1384.95 282H1372.84V284H1384.95V282ZM1373.84 283V235.969H1371.84V283H1373.84ZM1372.84 234.969H1357.34V236.969H1372.84V234.969ZM1358.34 235.969V225.891H1356.34V235.969H1358.34ZM1357.34 226.891H1400.46V224.891H1357.34V226.891ZM1399.46 225.891V235.969H1401.46V225.891H1399.46ZM1400.46 234.969H1384.95V236.969H1400.46V234.969ZM1383.95 235.969V283H1385.95V235.969H1383.95Z" fill="#203656"/>
<path d="M389.594 274H381L368.061 255.909V274H360.492V238.307H368.061V255.592L380.854 238.307H388.91L375.897 255.445L389.594 274ZM411.834 274L410.394 270.289H410.198C408.945 271.868 407.651 272.966 406.316 273.585C404.998 274.187 403.273 274.488 401.141 274.488C398.52 274.488 396.453 273.74 394.939 272.242C393.442 270.745 392.693 268.613 392.693 265.846C392.693 262.949 393.702 260.816 395.721 259.449C397.755 258.066 400.815 257.301 404.9 257.154L409.637 257.008V255.812C409.637 253.045 408.221 251.661 405.389 251.661C403.208 251.661 400.644 252.32 397.698 253.639L395.232 248.609C398.374 246.965 401.857 246.144 405.682 246.144C409.344 246.144 412.151 246.941 414.104 248.536C416.058 250.131 417.034 252.556 417.034 255.812V274H411.834ZM409.637 261.354L406.756 261.451C404.591 261.516 402.98 261.907 401.922 262.623C400.864 263.339 400.335 264.43 400.335 265.895C400.335 267.994 401.539 269.044 403.948 269.044C405.674 269.044 407.049 268.548 408.074 267.555C409.116 266.562 409.637 265.243 409.637 263.6V261.354ZM443.62 246.705H451.823L441.008 259.791L452.775 274H444.328L433.171 260.157V274H425.725V246.705H433.171V259.962L443.62 246.705ZM506.069 274H499.111V252.491L498.721 254.005C497.842 257.439 497.052 260.035 496.353 261.793L491.519 274H486.221L481.313 261.695C480.614 259.905 479.865 257.39 479.067 254.151L478.604 252.491V274H471.67V246.705H481.924L486.611 258.351C487.1 259.604 487.547 261.044 487.954 262.672C488.377 264.299 488.662 265.691 488.809 266.847C489.346 264.405 489.761 262.656 490.054 261.598C490.363 260.523 490.697 259.539 491.055 258.644C491.413 257.748 493.032 253.769 495.913 246.705H506.069V274ZM522.353 257.252H525.941C530.108 257.252 533.192 257.919 535.194 259.254C537.196 260.589 538.197 262.607 538.197 265.309C538.197 268.189 537.196 270.362 535.194 271.827C533.192 273.276 530.198 274 526.21 274H514.906V246.705H522.353V257.252ZM530.751 265.406C530.751 264.348 530.328 263.583 529.481 263.111C528.635 262.639 527.374 262.403 525.697 262.403H522.353V268.849H525.795C529.099 268.849 530.751 267.701 530.751 265.406ZM549.599 274H542.152V246.705H549.599V274ZM587.414 274.488C584.208 274.488 581.693 273.325 579.87 270.997H579.479C579.74 273.276 579.87 274.594 579.87 274.952V286.012H572.424V246.705H578.479L579.528 250.245H579.87C581.612 247.543 584.191 246.192 587.609 246.192C590.832 246.192 593.355 247.438 595.178 249.928C597.001 252.418 597.912 255.877 597.912 260.304C597.912 263.217 597.481 265.748 596.618 267.896C595.772 270.045 594.559 271.681 592.98 272.804C591.402 273.927 589.546 274.488 587.414 274.488ZM585.217 252.149C583.378 252.149 582.035 252.719 581.188 253.858C580.342 254.981 579.903 256.845 579.87 259.449V260.255C579.87 263.185 580.301 265.284 581.164 266.554C582.043 267.823 583.426 268.458 585.314 268.458C588.651 268.458 590.319 265.707 590.319 260.206C590.319 257.521 589.904 255.51 589.074 254.176C588.26 252.825 586.975 252.149 585.217 252.149ZM622.398 274L620.958 270.289H620.763C619.509 271.868 618.215 272.966 616.881 273.585C615.562 274.187 613.837 274.488 611.705 274.488C609.085 274.488 607.018 273.74 605.504 272.242C604.007 270.745 603.258 268.613 603.258 265.846C603.258 262.949 604.267 260.816 606.285 259.449C608.32 258.066 611.38 257.301 615.465 257.154L620.201 257.008V255.812C620.201 253.045 618.785 251.661 615.953 251.661C613.772 251.661 611.209 252.32 608.263 253.639L605.797 248.609C608.938 246.965 612.421 246.144 616.246 246.144C619.908 246.144 622.716 246.941 624.669 248.536C626.622 250.131 627.599 252.556 627.599 255.812V274H622.398ZM620.201 261.354L617.32 261.451C615.156 261.516 613.544 261.907 612.486 262.623C611.428 263.339 610.899 264.43 610.899 265.895C610.899 267.994 612.104 269.044 614.513 269.044C616.238 269.044 617.613 268.548 618.639 267.555C619.68 266.562 620.201 265.243 620.201 263.6V261.354ZM634.629 257.643C634.629 251.376 635.817 246.624 638.193 243.385C640.586 240.13 644.313 238.071 649.375 237.208C651.833 236.785 655.503 236.248 660.386 235.597L661.24 242.091C659.124 242.335 655.373 242.856 649.985 243.653C647.935 243.979 646.405 244.467 645.396 245.118C644.386 245.769 643.63 246.697 643.125 247.901C642.637 249.106 642.336 250.709 642.222 252.711H642.588C643.451 251.376 644.59 250.351 646.006 249.635C647.422 248.919 648.944 248.561 650.571 248.561C653.94 248.561 656.561 249.594 658.433 251.661C660.304 253.712 661.24 256.658 661.24 260.499C661.24 264.926 660.052 268.368 657.676 270.826C655.316 273.268 652.052 274.488 647.886 274.488C643.719 274.488 640.464 272.999 638.12 270.021C635.793 267.026 634.629 262.9 634.629 257.643ZM648.325 268.458C651.857 268.458 653.623 266.025 653.623 261.158C653.623 256.422 652.028 254.054 648.838 254.054C647.959 254.054 647.08 254.257 646.201 254.664C645.339 255.071 644.541 255.608 643.809 256.275C643.092 256.926 642.563 257.586 642.222 258.253C642.222 261.557 642.751 264.088 643.809 265.846C644.867 267.587 646.372 268.458 648.325 268.458ZM674.325 260.304C674.325 263.006 674.765 265.048 675.644 266.432C676.539 267.815 677.987 268.507 679.989 268.507C681.975 268.507 683.399 267.823 684.262 266.456C685.141 265.073 685.58 263.022 685.58 260.304C685.58 257.602 685.141 255.576 684.262 254.225C683.383 252.874 681.942 252.198 679.94 252.198C677.955 252.198 676.522 252.874 675.644 254.225C674.765 255.559 674.325 257.586 674.325 260.304ZM693.197 260.304C693.197 264.747 692.025 268.222 689.682 270.729C687.338 273.235 684.075 274.488 679.892 274.488C677.271 274.488 674.96 273.919 672.958 272.779C670.956 271.624 669.418 269.972 668.344 267.823C667.27 265.675 666.732 263.168 666.732 260.304C666.732 255.844 667.896 252.377 670.224 249.903C672.551 247.429 675.823 246.192 680.038 246.192C682.659 246.192 684.97 246.762 686.972 247.901C688.974 249.041 690.512 250.676 691.586 252.809C692.66 254.941 693.197 257.439 693.197 260.304ZM722.933 246.705V252.296H713.997V274H706.551V252.296H697.591V246.705H722.933ZM746.369 274L744.929 270.289H744.733C743.48 271.868 742.186 272.966 740.852 273.585C739.533 274.187 737.808 274.488 735.676 274.488C733.055 274.488 730.988 273.74 729.475 272.242C727.977 270.745 727.229 268.613 727.229 265.846C727.229 262.949 728.238 260.816 730.256 259.449C732.29 258.066 735.35 257.301 739.436 257.154L744.172 257.008V255.812C744.172 253.045 742.756 251.661 739.924 251.661C737.743 251.661 735.179 252.32 732.233 253.639L729.768 248.609C732.909 246.965 736.392 246.144 740.217 246.144C743.879 246.144 746.687 246.941 748.64 248.536C750.593 250.131 751.569 252.556 751.569 255.812V274H746.369ZM744.172 261.354L741.291 261.451C739.126 261.516 737.515 261.907 736.457 262.623C735.399 263.339 734.87 264.43 734.87 265.895C734.87 267.994 736.075 269.044 738.483 269.044C740.209 269.044 741.584 268.548 742.609 267.555C743.651 266.562 744.172 265.243 744.172 263.6V261.354ZM771.563 251.49C769.985 251.49 768.748 251.995 767.853 253.004C766.957 253.997 766.445 255.413 766.314 257.252H776.764C776.731 255.413 776.251 253.997 775.323 253.004C774.396 251.995 773.142 251.49 771.563 251.49ZM772.613 274.488C768.219 274.488 764.785 273.276 762.311 270.851C759.837 268.425 758.6 264.991 758.6 260.548C758.6 255.974 759.739 252.442 762.018 249.952C764.312 247.446 767.478 246.192 771.515 246.192C775.372 246.192 778.375 247.291 780.523 249.488C782.672 251.686 783.746 254.721 783.746 258.595V262.208H766.144C766.225 264.324 766.852 265.976 768.023 267.164C769.195 268.352 770.839 268.946 772.955 268.946C774.599 268.946 776.153 268.775 777.618 268.434C779.083 268.092 780.613 267.547 782.208 266.798V272.56C780.906 273.211 779.514 273.691 778.033 274C776.552 274.326 774.745 274.488 772.613 274.488ZM825.2 274H818.242V252.491L817.852 254.005C816.973 257.439 816.183 260.035 815.483 261.793L810.649 274H805.352L800.444 261.695C799.744 259.905 798.996 257.39 798.198 254.151L797.734 252.491V274H790.801V246.705H801.055L805.742 258.351C806.23 259.604 806.678 261.044 807.085 262.672C807.508 264.299 807.793 265.691 807.939 266.847C808.477 264.405 808.892 262.656 809.185 261.598C809.494 260.523 809.827 259.539 810.186 258.644C810.544 257.748 812.163 253.769 815.044 246.705H825.2V274Z" fill="white"/>
<circle cx="388" cy="168" r="28" fill="#22DDDD" fill-opacity="0.1"/>
<circle cx="388" cy="168" r="12" fill="url(#paint0_linear)"/>
<rect x="405.25" y="168.25" width="166.5" height="0.5" stroke="url(#paint1_linear)" stroke-width="0.5" stroke-linecap="round" stroke-linejoin="round" stroke-dasharray="7 7"/>
<rect x="360.5" y="398.5" width="275" height="137" rx="11.5" stroke="url(#paint2_linear)" stroke-dasharray="7 7"/>
<path d="M415.786 448.15H419.601C421.37 448.15 422.647 448.408 423.433 448.924C424.224 449.439 424.619 450.254 424.619 451.367C424.619 452.117 424.426 452.741 424.039 453.239C423.652 453.737 423.096 454.051 422.369 454.18V454.268C423.271 454.438 423.934 454.774 424.355 455.278C424.783 455.776 424.997 456.453 424.997 457.309C424.997 458.463 424.593 459.368 423.784 460.024C422.981 460.675 421.862 461 420.427 461H415.786V448.15ZM417.887 453.459H419.908C420.787 453.459 421.429 453.321 421.833 453.046C422.237 452.765 422.439 452.29 422.439 451.622C422.439 451.019 422.22 450.582 421.78 450.312C421.347 450.043 420.655 449.908 419.706 449.908H417.887V453.459ZM417.887 455.164V459.233H420.119C420.998 459.233 421.66 459.066 422.105 458.732C422.557 458.393 422.782 457.859 422.782 457.133C422.782 456.465 422.554 455.97 422.097 455.647C421.64 455.325 420.945 455.164 420.014 455.164H417.887ZM429.515 455.164H431.483C432.843 455.164 433.848 455.398 434.498 455.867C435.148 456.336 435.474 457.039 435.474 457.977C435.474 458.979 435.134 459.734 434.454 460.244C433.78 460.748 432.79 461 431.483 461H427.449V451.279H429.515V455.164ZM433.426 458.029C433.426 457.543 433.244 457.203 432.881 457.01C432.523 456.816 432.008 456.72 431.334 456.72H429.515V459.471H431.07C431.902 459.471 432.503 459.354 432.872 459.119C433.241 458.885 433.426 458.521 433.426 458.029ZM439.077 461H437.003V451.279H439.077V461ZM441.477 455.164C441.477 452.996 441.843 451.329 442.575 450.163C443.313 448.997 444.485 448.247 446.091 447.913C447.304 447.667 448.701 447.427 450.283 447.192L450.573 449.012C448.651 449.305 447.245 449.533 446.354 449.697C445.435 449.867 444.77 450.245 444.359 450.831C443.955 451.417 443.721 452.299 443.656 453.477H443.788C444.122 452.99 444.559 452.615 445.098 452.352C445.637 452.082 446.214 451.947 446.829 451.947C448.024 451.947 448.956 452.325 449.624 453.081C450.292 453.837 450.626 454.897 450.626 456.263C450.626 457.827 450.219 459.037 449.404 459.893C448.596 460.748 447.474 461.176 446.038 461.176C444.614 461.176 443.498 460.648 442.689 459.594C441.881 458.539 441.477 457.062 441.477 455.164ZM446.179 459.488C447.714 459.488 448.481 458.48 448.481 456.465C448.481 454.52 447.787 453.547 446.398 453.547C446.018 453.547 445.648 453.629 445.291 453.793C444.934 453.957 444.603 454.174 444.298 454.443C443.999 454.713 443.768 454.991 443.604 455.278C443.604 456.661 443.823 457.71 444.263 458.425C444.702 459.134 445.341 459.488 446.179 459.488ZM454.985 451.279V456.263C454.985 456.843 454.938 457.695 454.845 458.82L459.723 451.279H462.245V461H460.259V456.104C460.259 455.835 460.273 455.398 460.303 454.795C460.338 454.191 460.367 453.752 460.391 453.477L455.53 461H453.008V451.279H454.985ZM470.12 461.176C468.89 461.176 467.935 460.733 467.255 459.849H467.132C467.214 460.669 467.255 461.167 467.255 461.343V465.324H465.189V451.279H466.859C466.906 451.461 467.003 451.895 467.149 452.58H467.255C467.899 451.596 468.866 451.104 470.155 451.104C471.368 451.104 472.312 451.543 472.985 452.422C473.665 453.301 474.005 454.534 474.005 456.122C474.005 457.71 473.659 458.949 472.968 459.84C472.282 460.73 471.333 461.176 470.12 461.176ZM469.619 452.791C468.799 452.791 468.198 453.031 467.817 453.512C467.442 453.992 467.255 454.76 467.255 455.814V456.122C467.255 457.306 467.442 458.164 467.817 458.697C468.192 459.225 468.805 459.488 469.654 459.488C470.369 459.488 470.92 459.195 471.307 458.609C471.693 458.023 471.887 457.188 471.887 456.104C471.887 455.015 471.693 454.191 471.307 453.635C470.926 453.072 470.363 452.791 469.619 452.791ZM482.486 461L482.073 459.646H482.003C481.534 460.238 481.062 460.643 480.588 460.859C480.113 461.07 479.504 461.176 478.76 461.176C477.805 461.176 477.058 460.918 476.519 460.402C475.985 459.887 475.719 459.157 475.719 458.214C475.719 457.212 476.091 456.456 476.835 455.946C477.579 455.437 478.713 455.158 480.236 455.111L481.915 455.059V454.54C481.915 453.919 481.769 453.456 481.476 453.151C481.188 452.841 480.74 452.686 480.131 452.686C479.633 452.686 479.155 452.759 478.698 452.905C478.241 453.052 477.802 453.225 477.38 453.424L476.712 451.947C477.239 451.672 477.816 451.464 478.443 451.323C479.07 451.177 479.662 451.104 480.219 451.104C481.455 451.104 482.387 451.373 483.014 451.912C483.646 452.451 483.963 453.298 483.963 454.452V461H482.486ZM479.41 459.594C480.16 459.594 480.761 459.386 481.212 458.97C481.669 458.548 481.897 457.959 481.897 457.203V456.359L480.649 456.412C479.677 456.447 478.968 456.611 478.522 456.904C478.083 457.191 477.863 457.634 477.863 458.231C477.863 458.665 477.992 459.002 478.25 459.242C478.508 459.477 478.895 459.594 479.41 459.594ZM491.091 461.176C489.579 461.176 488.396 460.736 487.54 459.857C486.69 458.973 486.266 457.757 486.266 456.21C486.266 454.622 486.661 453.374 487.452 452.466C488.243 451.558 489.33 451.104 490.713 451.104C491.996 451.104 493.01 451.493 493.754 452.272C494.498 453.052 494.87 454.124 494.87 455.489V456.605H488.393C488.422 457.549 488.677 458.275 489.157 458.785C489.638 459.289 490.314 459.541 491.188 459.541C491.762 459.541 492.295 459.488 492.787 459.383C493.285 459.271 493.818 459.09 494.387 458.838V460.517C493.883 460.757 493.373 460.927 492.857 461.026C492.342 461.126 491.753 461.176 491.091 461.176ZM490.713 452.668C490.057 452.668 489.529 452.876 489.131 453.292C488.738 453.708 488.504 454.314 488.428 455.111H492.84C492.828 454.309 492.635 453.702 492.26 453.292C491.885 452.876 491.369 452.668 490.713 452.668ZM504.521 451.279V452.896H501.356V461H499.282V452.896H496.118V451.279H504.521ZM510.638 461.176C509.126 461.176 507.942 460.736 507.087 459.857C506.237 458.973 505.812 457.757 505.812 456.21C505.812 454.622 506.208 453.374 506.999 452.466C507.79 451.558 508.877 451.104 510.26 451.104C511.543 451.104 512.557 451.493 513.301 452.272C514.045 453.052 514.417 454.124 514.417 455.489V456.605H507.939C507.969 457.549 508.224 458.275 508.704 458.785C509.185 459.289 509.861 459.541 510.734 459.541C511.309 459.541 511.842 459.488 512.334 459.383C512.832 459.271 513.365 459.09 513.934 458.838V460.517C513.43 460.757 512.92 460.927 512.404 461.026C511.889 461.126 511.3 461.176 510.638 461.176ZM510.26 452.668C509.604 452.668 509.076 452.876 508.678 453.292C508.285 453.708 508.051 454.314 507.975 455.111H512.387C512.375 454.309 512.182 453.702 511.807 453.292C511.432 452.876 510.916 452.668 510.26 452.668ZM527.724 451.279V452.896H523.505V461H521.439V451.279H527.724ZM538.218 456.122C538.218 457.71 537.811 458.949 536.996 459.84C536.182 460.73 535.048 461.176 533.595 461.176C532.687 461.176 531.884 460.971 531.187 460.561C530.489 460.15 529.953 459.562 529.578 458.794C529.203 458.026 529.016 457.136 529.016 456.122C529.016 454.546 529.42 453.315 530.229 452.431C531.037 451.546 532.177 451.104 533.647 451.104C535.054 451.104 536.167 451.558 536.987 452.466C537.808 453.368 538.218 454.587 538.218 456.122ZM531.143 456.122C531.143 458.366 531.972 459.488 533.63 459.488C535.271 459.488 536.091 458.366 536.091 456.122C536.091 453.901 535.265 452.791 533.612 452.791C532.745 452.791 532.115 453.078 531.723 453.652C531.336 454.227 531.143 455.05 531.143 456.122ZM545.53 461.176C544.3 461.176 543.345 460.733 542.665 459.849H542.542C542.624 460.669 542.665 461.167 542.665 461.343V465.324H540.6V451.279H542.27C542.316 451.461 542.413 451.895 542.56 452.58H542.665C543.31 451.596 544.276 451.104 545.565 451.104C546.778 451.104 547.722 451.543 548.396 452.422C549.075 453.301 549.415 454.534 549.415 456.122C549.415 457.71 549.069 458.949 548.378 459.84C547.692 460.73 546.743 461.176 545.53 461.176ZM545.029 452.791C544.209 452.791 543.608 453.031 543.228 453.512C542.853 453.992 542.665 454.76 542.665 455.814V456.122C542.665 457.306 542.853 458.164 543.228 458.697C543.603 459.225 544.215 459.488 545.064 459.488C545.779 459.488 546.33 459.195 546.717 458.609C547.104 458.023 547.297 457.188 547.297 456.104C547.297 455.015 547.104 454.191 546.717 453.635C546.336 453.072 545.773 452.791 545.029 452.791ZM560.437 456.122C560.437 457.71 560.029 458.949 559.215 459.84C558.4 460.73 557.267 461.176 555.813 461.176C554.905 461.176 554.103 460.971 553.405 460.561C552.708 460.15 552.172 459.562 551.797 458.794C551.422 458.026 551.234 457.136 551.234 456.122C551.234 454.546 551.639 453.315 552.447 452.431C553.256 451.546 554.396 451.104 555.866 451.104C557.272 451.104 558.386 451.558 559.206 452.466C560.026 453.368 560.437 454.587 560.437 456.122ZM553.361 456.122C553.361 458.366 554.19 459.488 555.849 459.488C557.489 459.488 558.31 458.366 558.31 456.122C558.31 453.901 557.483 452.791 555.831 452.791C554.964 452.791 554.334 453.078 553.941 453.652C553.555 454.227 553.361 455.05 553.361 456.122ZM572.144 464.437H570.219V461H563.557V464.437H561.649V459.4H562.44C563.132 458.41 563.68 457.215 564.084 455.814C564.494 454.408 564.737 452.896 564.813 451.279H570.72V459.4H572.144V464.437ZM568.689 459.4V452.861H566.598C566.486 454.068 566.252 455.258 565.895 456.43C565.543 457.602 565.112 458.592 564.603 459.4H568.689ZM580.027 461L579.614 459.646H579.544C579.075 460.238 578.604 460.643 578.129 460.859C577.654 461.07 577.045 461.176 576.301 461.176C575.346 461.176 574.599 460.918 574.06 460.402C573.526 459.887 573.26 459.157 573.26 458.214C573.26 457.212 573.632 456.456 574.376 455.946C575.12 455.437 576.254 455.158 577.777 455.111L579.456 455.059V454.54C579.456 453.919 579.31 453.456 579.017 453.151C578.729 452.841 578.281 452.686 577.672 452.686C577.174 452.686 576.696 452.759 576.239 452.905C575.782 453.052 575.343 453.225 574.921 453.424L574.253 451.947C574.78 451.672 575.357 451.464 575.984 451.323C576.611 451.177 577.203 451.104 577.76 451.104C578.996 451.104 579.928 451.373 580.555 451.912C581.188 452.451 581.504 453.298 581.504 454.452V461H580.027ZM576.951 459.594C577.701 459.594 578.302 459.386 578.753 458.97C579.21 458.548 579.438 457.959 579.438 457.203V456.359L578.19 456.412C577.218 456.447 576.509 456.611 576.063 456.904C575.624 457.191 575.404 457.634 575.404 458.231C575.404 458.665 575.533 459.002 575.791 459.242C576.049 459.477 576.436 459.594 576.951 459.594ZM447.031 490.437H445.106V487H438.444V490.437H436.537V485.4H437.328C438.02 484.41 438.567 483.215 438.972 481.814C439.382 480.408 439.625 478.896 439.701 477.279H445.607V485.4H447.031V490.437ZM443.577 485.4V478.861H441.485C441.374 480.068 441.14 481.258 440.782 482.43C440.431 483.602 440 484.592 439.49 485.4H443.577ZM456.822 487H454.739V478.896H452.059C451.895 480.982 451.672 482.611 451.391 483.783C451.115 484.955 450.752 485.811 450.301 486.35C449.855 486.889 449.275 487.158 448.561 487.158C448.109 487.158 447.731 487.094 447.427 486.965V485.348C447.644 485.43 447.86 485.471 448.077 485.471C448.675 485.471 449.144 484.8 449.483 483.458C449.829 482.11 450.099 480.051 450.292 477.279H456.822V487ZM460.777 487H458.466L461.173 483.019C460.517 482.831 460.001 482.497 459.626 482.017C459.251 481.53 459.063 480.93 459.063 480.215C459.063 479.295 459.392 478.577 460.048 478.062C460.704 477.54 461.601 477.279 462.737 477.279H467.167V487H465.093V483.256H463.133L460.777 487ZM461.076 480.232C461.076 480.73 461.264 481.105 461.639 481.357C462.02 481.604 462.529 481.727 463.168 481.727H465.093V478.844H462.843C462.28 478.844 461.844 478.964 461.533 479.204C461.229 479.444 461.076 479.787 461.076 480.232ZM479.727 487.176C478.496 487.176 477.541 486.733 476.861 485.849H476.738C476.82 486.669 476.861 487.167 476.861 487.343V491.324H474.796V477.279H476.466C476.513 477.461 476.609 477.895 476.756 478.58H476.861C477.506 477.596 478.473 477.104 479.762 477.104C480.975 477.104 481.918 477.543 482.592 478.422C483.271 479.301 483.611 480.534 483.611 482.122C483.611 483.71 483.266 484.949 482.574 485.84C481.889 486.73 480.939 487.176 479.727 487.176ZM479.226 478.791C478.405 478.791 477.805 479.031 477.424 479.512C477.049 479.992 476.861 480.76 476.861 481.814V482.122C476.861 483.306 477.049 484.164 477.424 484.697C477.799 485.225 478.411 485.488 479.261 485.488C479.976 485.488 480.526 485.195 480.913 484.609C481.3 484.023 481.493 483.188 481.493 482.104C481.493 481.015 481.3 480.191 480.913 479.635C480.532 479.072 479.97 478.791 479.226 478.791ZM492.093 487L491.68 485.646H491.609C491.141 486.238 490.669 486.643 490.194 486.859C489.72 487.07 489.11 487.176 488.366 487.176C487.411 487.176 486.664 486.918 486.125 486.402C485.592 485.887 485.325 485.157 485.325 484.214C485.325 483.212 485.697 482.456 486.441 481.946C487.186 481.437 488.319 481.158 489.843 481.111L491.521 481.059V480.54C491.521 479.919 491.375 479.456 491.082 479.151C490.795 478.841 490.347 478.686 489.737 478.686C489.239 478.686 488.762 478.759 488.305 478.905C487.848 479.052 487.408 479.225 486.986 479.424L486.318 477.947C486.846 477.672 487.423 477.464 488.05 477.323C488.677 477.177 489.269 477.104 489.825 477.104C491.062 477.104 491.993 477.373 492.62 477.912C493.253 478.451 493.569 479.298 493.569 480.452V487H492.093ZM489.017 485.594C489.767 485.594 490.367 485.386 490.818 484.97C491.275 484.548 491.504 483.959 491.504 483.203V482.359L490.256 482.412C489.283 482.447 488.574 482.611 488.129 482.904C487.689 483.191 487.47 483.634 487.47 484.231C487.47 484.665 487.599 485.002 487.856 485.242C488.114 485.477 488.501 485.594 489.017 485.594ZM500.372 487.176C498.901 487.176 497.782 486.748 497.015 485.893C496.253 485.031 495.872 483.798 495.872 482.192C495.872 480.558 496.271 479.301 497.067 478.422C497.87 477.543 499.027 477.104 500.539 477.104C501.564 477.104 502.487 477.294 503.308 477.675L502.684 479.336C501.811 478.996 501.09 478.826 500.521 478.826C498.84 478.826 497.999 479.942 497.999 482.175C497.999 483.265 498.207 484.085 498.623 484.636C499.045 485.181 499.66 485.453 500.469 485.453C501.389 485.453 502.259 485.225 503.079 484.768V486.569C502.71 486.786 502.314 486.941 501.893 487.035C501.477 487.129 500.97 487.176 500.372 487.176ZM509.284 487.176C507.813 487.176 506.694 486.748 505.927 485.893C505.165 485.031 504.784 483.798 504.784 482.192C504.784 480.558 505.183 479.301 505.979 478.422C506.782 477.543 507.939 477.104 509.451 477.104C510.477 477.104 511.399 477.294 512.22 477.675L511.596 479.336C510.723 478.996 510.002 478.826 509.434 478.826C507.752 478.826 506.911 479.942 506.911 482.175C506.911 483.265 507.119 484.085 507.535 484.636C507.957 485.181 508.572 485.453 509.381 485.453C510.301 485.453 511.171 485.225 511.991 484.768V486.569C511.622 486.786 511.227 486.941 510.805 487.035C510.389 487.129 509.882 487.176 509.284 487.176ZM516.342 481.164H518.311C519.67 481.164 520.675 481.398 521.325 481.867C521.976 482.336 522.301 483.039 522.301 483.977C522.301 484.979 521.961 485.734 521.281 486.244C520.607 486.748 519.617 487 518.311 487H514.276V477.279H516.342V481.164ZM520.253 484.029C520.253 483.543 520.071 483.203 519.708 483.01C519.351 482.816 518.835 482.72 518.161 482.72H516.342V485.471H517.897C518.729 485.471 519.33 485.354 519.699 485.119C520.068 484.885 520.253 484.521 520.253 484.029ZM525.904 487H523.83V477.279H525.904V487ZM536.855 487H534.772V478.896H532.092C531.928 480.982 531.705 482.611 531.424 483.783C531.148 484.955 530.785 485.811 530.334 486.35C529.889 486.889 529.309 487.158 528.594 487.158C528.143 487.158 527.765 487.094 527.46 486.965V485.348C527.677 485.43 527.894 485.471 528.11 485.471C528.708 485.471 529.177 484.8 529.517 483.458C529.862 482.11 530.132 480.051 530.325 477.279H536.855V487ZM545.847 477.279H548.114L544.098 481.964L548.457 487H546.084L541.883 482.069V487H539.817V477.279H541.883V481.999L545.847 477.279ZM552.043 477.279V482.263C552.043 482.843 551.996 483.695 551.902 484.82L556.78 477.279H559.303V487H557.316V482.104C557.316 481.835 557.331 481.398 557.36 480.795C557.396 480.191 557.425 479.752 557.448 479.477L552.588 487H550.065V477.279H552.043Z" fill="white"/>
<path d="M406.758 389.153C406.758 395.387 405.732 400.001 403.682 402.996C401.647 405.991 398.506 407.488 394.258 407.488C390.14 407.488 387.031 405.942 384.932 402.85C382.848 399.757 381.807 395.192 381.807 389.153C381.807 382.854 382.824 378.216 384.858 375.237C386.893 372.243 390.026 370.745 394.258 370.745C398.376 370.745 401.484 372.308 403.584 375.433C405.7 378.558 406.758 383.131 406.758 389.153ZM389.302 389.153C389.302 393.532 389.676 396.673 390.425 398.577C391.19 400.465 392.467 401.409 394.258 401.409C396.016 401.409 397.285 400.449 398.066 398.528C398.848 396.608 399.238 393.483 399.238 389.153C399.238 384.775 398.84 381.634 398.042 379.729C397.261 377.809 395.999 376.849 394.258 376.849C392.484 376.849 391.214 377.809 390.449 379.729C389.684 381.634 389.302 384.775 389.302 389.153ZM430.219 407H422.675V386.346L422.748 382.952L422.87 379.241C421.617 380.494 420.746 381.316 420.258 381.707L416.156 385.003L412.519 380.462L424.018 371.307H430.219V407Z" fill="url(#paint3_linear)"/>
<rect x="664.5" y="401.5" width="275" height="137" rx="11.5" stroke="url(#paint4_linear)" stroke-dasharray="7 7"/>
<path d="M752.358 457.558C752.358 459.649 751.834 461.275 750.785 462.436C749.742 463.596 748.263 464.176 746.347 464.176C744.407 464.176 742.916 463.602 741.873 462.453C740.836 461.299 740.317 459.661 740.317 457.54C740.317 455.419 740.839 453.79 741.882 452.653C742.931 451.517 744.425 450.948 746.364 450.948C748.274 450.948 749.751 451.525 750.794 452.68C751.837 453.834 752.358 455.46 752.358 457.558ZM742.55 457.558C742.55 459.14 742.869 460.341 743.508 461.161C744.146 461.976 745.093 462.383 746.347 462.383C747.595 462.383 748.535 461.979 749.168 461.17C749.807 460.361 750.126 459.157 750.126 457.558C750.126 455.981 749.81 454.786 749.177 453.972C748.55 453.157 747.612 452.75 746.364 452.75C745.104 452.75 744.152 453.157 743.508 453.972C742.869 454.786 742.55 455.981 742.55 457.558ZM763.397 454.279V464H761.323V455.914H756.964V464H754.898V454.279H763.397ZM774.349 464H772.266V455.896H769.585C769.421 457.982 769.198 459.611 768.917 460.783C768.642 461.955 768.278 462.811 767.827 463.35C767.382 463.889 766.802 464.158 766.087 464.158C765.636 464.158 765.258 464.094 764.953 463.965V462.348C765.17 462.43 765.387 462.471 765.604 462.471C766.201 462.471 766.67 461.8 767.01 460.458C767.355 459.11 767.625 457.051 767.818 454.279H774.349V464ZM783.393 464L782.979 462.646H782.909C782.44 463.238 781.969 463.643 781.494 463.859C781.02 464.07 780.41 464.176 779.666 464.176C778.711 464.176 777.964 463.918 777.425 463.402C776.892 462.887 776.625 462.157 776.625 461.214C776.625 460.212 776.997 459.456 777.741 458.946C778.485 458.437 779.619 458.158 781.143 458.111L782.821 458.059V457.54C782.821 456.919 782.675 456.456 782.382 456.151C782.095 455.841 781.646 455.686 781.037 455.686C780.539 455.686 780.062 455.759 779.604 455.905C779.147 456.052 778.708 456.225 778.286 456.424L777.618 454.947C778.146 454.672 778.723 454.464 779.35 454.323C779.977 454.177 780.568 454.104 781.125 454.104C782.361 454.104 783.293 454.373 783.92 454.912C784.553 455.451 784.869 456.298 784.869 457.452V464H783.393ZM780.316 462.594C781.066 462.594 781.667 462.386 782.118 461.97C782.575 461.548 782.804 460.959 782.804 460.203V459.359L781.556 459.412C780.583 459.447 779.874 459.611 779.429 459.904C778.989 460.191 778.77 460.634 778.77 461.231C778.77 461.665 778.898 462.002 779.156 462.242C779.414 462.477 779.801 462.594 780.316 462.594ZM789.571 454.279V457.83C789.571 458.826 790.087 459.324 791.118 459.324C791.616 459.324 792.103 459.257 792.577 459.122C793.052 458.981 793.562 458.759 794.106 458.454V454.279H796.172V464H794.106V459.878C793.538 460.229 792.987 460.49 792.454 460.66C791.927 460.824 791.35 460.906 790.723 460.906C789.709 460.906 788.918 460.646 788.35 460.124C787.781 459.597 787.497 458.861 787.497 457.918V454.279H789.571ZM801.103 454.279V459.263C801.103 459.843 801.056 460.695 800.962 461.82L805.84 454.279H808.362V464H806.376V459.104C806.376 458.835 806.391 458.398 806.42 457.795C806.455 457.191 806.484 456.752 806.508 456.477L801.647 464H799.125V454.279H801.103ZM819.744 456.767C819.744 457.915 819.073 458.609 817.731 458.85V458.92C818.481 459.008 819.056 459.245 819.454 459.632C819.853 460.019 820.052 460.52 820.052 461.135C820.052 462.055 819.7 462.764 818.997 463.262C818.3 463.754 817.283 464 815.947 464H811.307V454.279H815.93C818.473 454.279 819.744 455.108 819.744 456.767ZM817.934 461.012C817.934 460.543 817.752 460.212 817.389 460.019C817.025 459.819 816.48 459.72 815.754 459.72H813.372V462.471H815.807C817.225 462.471 817.934 461.984 817.934 461.012ZM817.679 456.942C817.679 456.556 817.526 456.277 817.222 456.107C816.923 455.932 816.475 455.844 815.877 455.844H813.372V458.182H815.569C816.261 458.182 816.785 458.094 817.143 457.918C817.5 457.736 817.679 457.411 817.679 456.942ZM828.27 464L827.856 462.646H827.786C827.317 463.238 826.846 463.643 826.371 463.859C825.896 464.07 825.287 464.176 824.543 464.176C823.588 464.176 822.841 463.918 822.302 463.402C821.769 462.887 821.502 462.157 821.502 461.214C821.502 460.212 821.874 459.456 822.618 458.946C823.362 458.437 824.496 458.158 826.02 458.111L827.698 458.059V457.54C827.698 456.919 827.552 456.456 827.259 456.151C826.972 455.841 826.523 455.686 825.914 455.686C825.416 455.686 824.938 455.759 824.481 455.905C824.024 456.052 823.585 456.225 823.163 456.424L822.495 454.947C823.022 454.672 823.6 454.464 824.227 454.323C824.854 454.177 825.445 454.104 826.002 454.104C827.238 454.104 828.17 454.373 828.797 454.912C829.43 455.451 829.746 456.298 829.746 457.452V464H828.27ZM825.193 462.594C825.943 462.594 826.544 462.386 826.995 461.97C827.452 461.548 827.681 460.959 827.681 460.203V459.359L826.433 459.412C825.46 459.447 824.751 459.611 824.306 459.904C823.866 460.191 823.646 460.634 823.646 461.231C823.646 461.665 823.775 462.002 824.033 462.242C824.291 462.477 824.678 462.594 825.193 462.594ZM836.874 464.176C835.362 464.176 834.179 463.736 833.323 462.857C832.474 461.973 832.049 460.757 832.049 459.21C832.049 457.622 832.444 456.374 833.235 455.466C834.026 454.558 835.113 454.104 836.496 454.104C837.779 454.104 838.793 454.493 839.537 455.272C840.281 456.052 840.653 457.124 840.653 458.489V459.605H834.176C834.205 460.549 834.46 461.275 834.94 461.785C835.421 462.289 836.098 462.541 836.971 462.541C837.545 462.541 838.078 462.488 838.57 462.383C839.068 462.271 839.602 462.09 840.17 461.838V463.517C839.666 463.757 839.156 463.927 838.641 464.026C838.125 464.126 837.536 464.176 836.874 464.176ZM836.496 455.668C835.84 455.668 835.312 455.876 834.914 456.292C834.521 456.708 834.287 457.314 834.211 458.111H838.623C838.611 457.309 838.418 456.702 838.043 456.292C837.668 455.876 837.152 455.668 836.496 455.668ZM850.304 454.279V455.896H847.14V464H845.065V455.896H841.901V454.279H850.304ZM856.421 464.176C854.909 464.176 853.726 463.736 852.87 462.857C852.021 461.973 851.596 460.757 851.596 459.21C851.596 457.622 851.991 456.374 852.782 455.466C853.573 454.558 854.66 454.104 856.043 454.104C857.326 454.104 858.34 454.493 859.084 455.272C859.828 456.052 860.2 457.124 860.2 458.489V459.605H853.723C853.752 460.549 854.007 461.275 854.487 461.785C854.968 462.289 855.645 462.541 856.518 462.541C857.092 462.541 857.625 462.488 858.117 462.383C858.615 462.271 859.148 462.09 859.717 461.838V463.517C859.213 463.757 858.703 463.927 858.188 464.026C857.672 464.126 857.083 464.176 856.421 464.176ZM856.043 455.668C855.387 455.668 854.859 455.876 854.461 456.292C854.068 456.708 853.834 457.314 853.758 458.111H858.17C858.158 457.309 857.965 456.702 857.59 456.292C857.215 455.876 856.699 455.668 856.043 455.668ZM760.629 480.279V490H758.555V481.914H754.195V490H752.13V480.279H760.629ZM769.673 490L769.26 488.646H769.189C768.721 489.238 768.249 489.643 767.774 489.859C767.3 490.07 766.69 490.176 765.946 490.176C764.991 490.176 764.244 489.918 763.705 489.402C763.172 488.887 762.905 488.157 762.905 487.214C762.905 486.212 763.277 485.456 764.021 484.946C764.766 484.437 765.899 484.158 767.423 484.111L769.102 484.059V483.54C769.102 482.919 768.955 482.456 768.662 482.151C768.375 481.841 767.927 481.686 767.317 481.686C766.819 481.686 766.342 481.759 765.885 481.905C765.428 482.052 764.988 482.225 764.566 482.424L763.898 480.947C764.426 480.672 765.003 480.464 765.63 480.323C766.257 480.177 766.849 480.104 767.405 480.104C768.642 480.104 769.573 480.373 770.2 480.912C770.833 481.451 771.149 482.298 771.149 483.452V490H769.673ZM766.597 488.594C767.347 488.594 767.947 488.386 768.398 487.97C768.855 487.548 769.084 486.959 769.084 486.203V485.359L767.836 485.412C766.863 485.447 766.154 485.611 765.709 485.904C765.27 486.191 765.05 486.634 765.05 487.231C765.05 487.665 765.179 488.002 765.437 488.242C765.694 488.477 766.081 488.594 766.597 488.594ZM780.062 480.279H782.329L778.312 484.964L782.672 490H780.299L776.098 485.069V490H774.032V480.279H776.098V484.999L780.062 480.279ZM788.525 490.176C787.014 490.176 785.83 489.736 784.975 488.857C784.125 487.973 783.7 486.757 783.7 485.21C783.7 483.622 784.096 482.374 784.887 481.466C785.678 480.558 786.765 480.104 788.147 480.104C789.431 480.104 790.444 480.493 791.188 481.272C791.933 482.052 792.305 483.124 792.305 484.489V485.605H785.827C785.856 486.549 786.111 487.275 786.592 487.785C787.072 488.289 787.749 488.541 788.622 488.541C789.196 488.541 789.729 488.488 790.222 488.383C790.72 488.271 791.253 488.09 791.821 487.838V489.517C791.317 489.757 790.808 489.927 790.292 490.026C789.776 490.126 789.188 490.176 788.525 490.176ZM788.147 481.668C787.491 481.668 786.964 481.876 786.565 482.292C786.173 482.708 785.938 483.314 785.862 484.111H790.274C790.263 483.309 790.069 482.702 789.694 482.292C789.319 481.876 788.804 481.668 788.147 481.668ZM801.955 480.279V481.896H798.791V490H796.717V481.896H793.553V480.279H801.955ZM807.026 480.279H809.276L811.254 485.79C811.553 486.575 811.752 487.313 811.852 488.005H811.922C811.975 487.683 812.071 487.293 812.212 486.836C812.353 486.373 813.097 484.188 814.444 480.279H816.677L812.52 491.292C811.764 493.313 810.504 494.324 808.74 494.324C808.283 494.324 807.838 494.274 807.404 494.175V492.54C807.715 492.61 808.069 492.646 808.468 492.646C809.464 492.646 810.164 492.068 810.568 490.914L810.929 490L807.026 480.279ZM822.073 490.176C820.603 490.176 819.483 489.748 818.716 488.893C817.954 488.031 817.573 486.798 817.573 485.192C817.573 483.558 817.972 482.301 818.769 481.422C819.571 480.543 820.729 480.104 822.24 480.104C823.266 480.104 824.188 480.294 825.009 480.675L824.385 482.336C823.512 481.996 822.791 481.826 822.223 481.826C820.541 481.826 819.7 482.942 819.7 485.175C819.7 486.265 819.908 487.085 820.324 487.636C820.746 488.181 821.361 488.453 822.17 488.453C823.09 488.453 823.96 488.225 824.78 487.768V489.569C824.411 489.786 824.016 489.941 823.594 490.035C823.178 490.129 822.671 490.176 822.073 490.176ZM835.055 490H832.972V481.896H830.291C830.127 483.982 829.904 485.611 829.623 486.783C829.348 487.955 828.984 488.811 828.533 489.35C828.088 489.889 827.508 490.158 826.793 490.158C826.342 490.158 825.964 490.094 825.659 489.965V488.348C825.876 488.43 826.093 488.471 826.31 488.471C826.907 488.471 827.376 487.8 827.716 486.458C828.062 485.11 828.331 483.051 828.524 480.279H835.055V490ZM836.54 480.279H838.79L840.768 485.79C841.066 486.575 841.266 487.313 841.365 488.005H841.436C841.488 487.683 841.585 487.293 841.726 486.836C841.866 486.373 842.61 484.188 843.958 480.279H846.19L842.033 491.292C841.277 493.313 840.018 494.324 838.254 494.324C837.797 494.324 837.352 494.274 836.918 494.175V492.54C837.229 492.61 837.583 492.646 837.981 492.646C838.978 492.646 839.678 492.068 840.082 490.914L840.442 490L836.54 480.279ZM853.951 480.279V481.896H849.732V490H847.667V480.279H853.951Z" fill="white"/>
<path d="M710.758 392.153C710.758 398.387 709.732 403.001 707.682 405.996C705.647 408.991 702.506 410.488 698.258 410.488C694.14 410.488 691.031 408.942 688.932 405.85C686.848 402.757 685.807 398.192 685.807 392.153C685.807 385.854 686.824 381.216 688.858 378.237C690.893 375.243 694.026 373.745 698.258 373.745C702.376 373.745 705.484 375.308 707.584 378.433C709.7 381.558 710.758 386.131 710.758 392.153ZM693.302 392.153C693.302 396.532 693.676 399.673 694.425 401.577C695.19 403.465 696.467 404.409 698.258 404.409C700.016 404.409 701.285 403.449 702.066 401.528C702.848 399.608 703.238 396.483 703.238 392.153C703.238 387.775 702.84 384.634 702.042 382.729C701.261 380.809 699.999 379.849 698.258 379.849C696.484 379.849 695.214 380.809 694.449 382.729C693.684 384.634 693.302 387.775 693.302 392.153ZM740.518 410H715.566V404.751L724.526 395.693C727.179 392.975 728.913 391.095 729.727 390.054C730.54 388.996 731.126 388.019 731.484 387.124C731.842 386.229 732.021 385.301 732.021 384.341C732.021 382.909 731.623 381.842 730.825 381.143C730.044 380.443 728.994 380.093 727.676 380.093C726.292 380.093 724.95 380.41 723.647 381.045C722.345 381.68 720.986 382.583 719.57 383.755L715.469 378.896C717.227 377.399 718.683 376.341 719.839 375.723C720.994 375.104 722.256 374.632 723.623 374.307C724.99 373.965 726.52 373.794 728.213 373.794C730.443 373.794 732.412 374.201 734.121 375.015C735.83 375.828 737.157 376.968 738.101 378.433C739.045 379.897 739.517 381.574 739.517 383.462C739.517 385.106 739.224 386.652 738.638 388.101C738.068 389.533 737.173 391.006 735.952 392.52C734.748 394.033 732.616 396.19 729.556 398.989L724.966 403.311V403.652H740.518V410Z" fill="url(#paint5_linear)"/>
<rect x="976.5" y="401.5" width="275" height="137" rx="11.5" stroke="url(#paint6_linear)" stroke-dasharray="7 7"/>
<path d="M1027.67 464L1023.95 453.269H1023.88C1023.98 454.862 1024.03 456.356 1024.03 457.751V464H1022.12V451.15H1025.08L1028.65 461.372H1028.7L1032.38 451.15H1035.35V464H1033.32V457.646C1033.32 457.007 1033.34 456.175 1033.37 455.149C1033.4 454.124 1033.43 453.503 1033.46 453.286H1033.39L1029.53 464H1027.67ZM1040.58 458.164H1042.54C1043.9 458.164 1044.91 458.398 1045.56 458.867C1046.21 459.336 1046.53 460.039 1046.53 460.977C1046.53 461.979 1046.19 462.734 1045.51 463.244C1044.84 463.748 1043.85 464 1042.54 464H1038.51V454.279H1040.58V458.164ZM1044.49 461.029C1044.49 460.543 1044.3 460.203 1043.94 460.01C1043.58 459.816 1043.07 459.72 1042.39 459.72H1040.58V462.471H1042.13C1042.96 462.471 1043.56 462.354 1043.93 462.119C1044.3 461.885 1044.49 461.521 1044.49 461.029ZM1050.14 464H1048.06V454.279H1050.14V464ZM1066.27 454.279V464H1064.2V455.914H1059.84V464H1057.78V454.279H1066.27ZM1077.86 459.122C1077.86 460.71 1077.45 461.949 1076.64 462.84C1075.82 463.73 1074.69 464.176 1073.24 464.176C1072.33 464.176 1071.52 463.971 1070.83 463.561C1070.13 463.15 1069.59 462.562 1069.22 461.794C1068.84 461.026 1068.66 460.136 1068.66 459.122C1068.66 457.546 1069.06 456.315 1069.87 455.431C1070.68 454.546 1071.82 454.104 1073.29 454.104C1074.69 454.104 1075.81 454.558 1076.63 455.466C1077.45 456.368 1077.86 457.587 1077.86 459.122ZM1070.78 459.122C1070.78 461.366 1071.61 462.488 1073.27 462.488C1074.91 462.488 1075.73 461.366 1075.73 459.122C1075.73 456.901 1074.91 455.791 1073.25 455.791C1072.39 455.791 1071.76 456.078 1071.36 456.652C1070.98 457.227 1070.78 458.05 1070.78 459.122ZM1089.57 467.437H1087.64V464H1080.98V467.437H1079.07V462.4H1079.86C1080.55 461.41 1081.1 460.215 1081.51 458.814C1081.92 457.408 1082.16 455.896 1082.24 454.279H1088.14V462.4H1089.57V467.437ZM1086.11 462.4V455.861H1084.02C1083.91 457.068 1083.67 458.258 1083.32 459.43C1082.96 460.602 1082.53 461.592 1082.02 462.4H1086.11ZM1097.65 454.279V455.896H1093.43V464H1091.37V454.279H1097.65ZM1108.15 459.122C1108.15 460.71 1107.74 461.949 1106.92 462.84C1106.11 463.73 1104.98 464.176 1103.52 464.176C1102.61 464.176 1101.81 463.971 1101.11 463.561C1100.42 463.15 1099.88 462.562 1099.51 461.794C1099.13 461.026 1098.94 460.136 1098.94 459.122C1098.94 457.546 1099.35 456.315 1100.16 455.431C1100.96 454.546 1102.1 454.104 1103.58 454.104C1104.98 454.104 1106.09 454.558 1106.92 455.466C1107.74 456.368 1108.15 457.587 1108.15 459.122ZM1101.07 459.122C1101.07 461.366 1101.9 462.488 1103.56 462.488C1105.2 462.488 1106.02 461.366 1106.02 459.122C1106.02 456.901 1105.19 455.791 1103.54 455.791C1102.67 455.791 1102.04 456.078 1101.65 456.652C1101.26 457.227 1101.07 458.05 1101.07 459.122ZM1117.83 454.279V455.896H1114.67V464H1112.59V455.896H1109.43V454.279H1117.83ZM1125.79 464L1125.37 462.646H1125.3C1124.83 463.238 1124.36 463.643 1123.89 463.859C1123.41 464.07 1122.8 464.176 1122.06 464.176C1121.1 464.176 1120.36 463.918 1119.82 463.402C1119.28 462.887 1119.02 462.157 1119.02 461.214C1119.02 460.212 1119.39 459.456 1120.13 458.946C1120.88 458.437 1122.01 458.158 1123.54 458.111L1125.21 458.059V457.54C1125.21 456.919 1125.07 456.456 1124.77 456.151C1124.49 455.841 1124.04 455.686 1123.43 455.686C1122.93 455.686 1122.45 455.759 1122 455.905C1121.54 456.052 1121.1 456.225 1120.68 456.424L1120.01 454.947C1120.54 454.672 1121.12 454.464 1121.74 454.323C1122.37 454.177 1122.96 454.104 1123.52 454.104C1124.75 454.104 1125.69 454.373 1126.31 454.912C1126.95 455.451 1127.26 456.298 1127.26 457.452V464H1125.79ZM1122.71 462.594C1123.46 462.594 1124.06 462.386 1124.51 461.97C1124.97 461.548 1125.2 460.959 1125.2 460.203V459.359L1123.95 459.412C1122.98 459.447 1122.27 459.611 1121.82 459.904C1121.38 460.191 1121.16 460.634 1121.16 461.231C1121.16 461.665 1121.29 462.002 1121.55 462.242C1121.81 462.477 1122.19 462.594 1122.71 462.594ZM1138.58 456.767C1138.58 457.915 1137.91 458.609 1136.57 458.85V458.92C1137.32 459.008 1137.89 459.245 1138.29 459.632C1138.69 460.019 1138.89 460.52 1138.89 461.135C1138.89 462.055 1138.54 462.764 1137.83 463.262C1137.14 463.754 1136.12 464 1134.79 464H1130.14V454.279H1134.77C1137.31 454.279 1138.58 455.108 1138.58 456.767ZM1136.77 461.012C1136.77 460.543 1136.59 460.212 1136.23 460.019C1135.86 459.819 1135.32 459.72 1134.59 459.72H1132.21V462.471H1134.64C1136.06 462.471 1136.77 461.984 1136.77 461.012ZM1136.52 456.942C1136.52 456.556 1136.36 456.277 1136.06 456.107C1135.76 455.932 1135.31 455.844 1134.71 455.844H1132.21V458.182H1134.41C1135.1 458.182 1135.62 458.094 1135.98 457.918C1136.34 457.736 1136.52 457.411 1136.52 456.942ZM1149.01 464H1146.93V455.896H1144.25C1144.09 457.982 1143.86 459.611 1143.58 460.783C1143.31 461.955 1142.94 462.811 1142.49 463.35C1142.05 463.889 1141.47 464.158 1140.75 464.158C1140.3 464.158 1139.92 464.094 1139.62 463.965V462.348C1139.84 462.43 1140.05 462.471 1140.27 462.471C1140.87 462.471 1141.34 461.8 1141.68 460.458C1142.02 459.11 1142.29 457.051 1142.48 454.279H1149.01V464ZM1153.95 454.279V459.263C1153.95 459.843 1153.91 460.695 1153.81 461.82L1158.69 454.279H1161.21V464H1159.23V459.104C1159.23 458.835 1159.24 458.398 1159.27 457.795C1159.31 457.191 1159.34 456.752 1159.36 456.477L1154.5 464H1151.98V454.279H1153.95ZM1172.6 456.767C1172.6 457.915 1171.92 458.609 1170.58 458.85V458.92C1171.33 459.008 1171.91 459.245 1172.31 459.632C1172.7 460.019 1172.9 460.52 1172.9 461.135C1172.9 462.055 1172.55 462.764 1171.85 463.262C1171.15 463.754 1170.13 464 1168.8 464H1164.16V454.279H1168.78C1171.32 454.279 1172.6 455.108 1172.6 456.767ZM1170.79 461.012C1170.79 460.543 1170.6 460.212 1170.24 460.019C1169.88 459.819 1169.33 459.72 1168.61 459.72H1166.22V462.471H1168.66C1170.08 462.471 1170.79 461.984 1170.79 461.012ZM1170.53 456.942C1170.53 456.556 1170.38 456.277 1170.07 456.107C1169.77 455.932 1169.33 455.844 1168.73 455.844H1166.22V458.182H1168.42C1169.11 458.182 1169.64 458.094 1169.99 457.918C1170.35 457.736 1170.53 457.411 1170.53 456.942ZM1181.12 464L1180.71 462.646H1180.64C1180.17 463.238 1179.7 463.643 1179.22 463.859C1178.75 464.07 1178.14 464.176 1177.39 464.176C1176.44 464.176 1175.69 463.918 1175.15 463.402C1174.62 462.887 1174.35 462.157 1174.35 461.214C1174.35 460.212 1174.73 459.456 1175.47 458.946C1176.21 458.437 1177.35 458.158 1178.87 458.111L1180.55 458.059V457.54C1180.55 456.919 1180.4 456.456 1180.11 456.151C1179.82 455.841 1179.38 455.686 1178.77 455.686C1178.27 455.686 1177.79 455.759 1177.33 455.905C1176.88 456.052 1176.44 456.225 1176.01 456.424L1175.35 454.947C1175.87 454.672 1176.45 454.464 1177.08 454.323C1177.71 454.177 1178.3 454.104 1178.85 454.104C1180.09 454.104 1181.02 454.373 1181.65 454.912C1182.28 455.451 1182.6 456.298 1182.6 457.452V464H1181.12ZM1178.04 462.594C1178.79 462.594 1179.4 462.386 1179.85 461.97C1180.3 461.548 1180.53 460.959 1180.53 460.203V459.359L1179.28 459.412C1178.31 459.447 1177.6 459.611 1177.16 459.904C1176.72 460.191 1176.5 460.634 1176.5 461.231C1176.5 461.665 1176.63 462.002 1176.88 462.242C1177.14 462.477 1177.53 462.594 1178.04 462.594ZM1189.73 464.176C1188.21 464.176 1187.03 463.736 1186.17 462.857C1185.33 461.973 1184.9 460.757 1184.9 459.21C1184.9 457.622 1185.3 456.374 1186.09 455.466C1186.88 454.558 1187.96 454.104 1189.35 454.104C1190.63 454.104 1191.64 454.493 1192.39 455.272C1193.13 456.052 1193.5 457.124 1193.5 458.489V459.605H1187.03C1187.06 460.549 1187.31 461.275 1187.79 461.785C1188.27 462.289 1188.95 462.541 1189.82 462.541C1190.4 462.541 1190.93 462.488 1191.42 462.383C1191.92 462.271 1192.45 462.09 1193.02 461.838V463.517C1192.52 463.757 1192.01 463.927 1191.49 464.026C1190.98 464.126 1190.39 464.176 1189.73 464.176ZM1189.35 455.668C1188.69 455.668 1188.16 455.876 1187.77 456.292C1187.37 456.708 1187.14 457.314 1187.06 458.111H1191.47C1191.46 457.309 1191.27 456.702 1190.89 456.292C1190.52 455.876 1190 455.668 1189.35 455.668ZM1201.43 462.022L1201.55 461.601C1201.79 460.728 1202 460.057 1202.17 459.588L1204.35 454.279H1207.1V464H1205.19V456.151L1205.04 456.679C1204.77 457.622 1204.55 458.316 1204.37 458.762L1202.24 464H1200.68L1198.55 458.727C1198.26 457.965 1197.99 457.106 1197.74 456.151V464H1195.85V454.279H1198.58L1200.69 459.43C1200.88 459.904 1201.13 460.769 1201.43 462.022ZM1057.97 488.022L1058.08 487.601C1058.32 486.728 1058.53 486.057 1058.71 485.588L1060.89 480.279H1063.64V490H1061.73V482.151L1061.57 482.679C1061.31 483.622 1061.09 484.316 1060.9 484.762L1058.78 490H1057.21L1055.09 484.727C1054.79 483.965 1054.52 483.106 1054.28 482.151V490H1052.39V480.279H1055.12L1057.23 485.43C1057.42 485.904 1057.66 486.769 1057.97 488.022ZM1072.67 490L1072.26 488.646H1072.19C1071.72 489.238 1071.25 489.643 1070.77 489.859C1070.3 490.07 1069.69 490.176 1068.95 490.176C1067.99 490.176 1067.24 489.918 1066.71 489.402C1066.17 488.887 1065.91 488.157 1065.91 487.214C1065.91 486.212 1066.28 485.456 1067.02 484.946C1067.77 484.437 1068.9 484.158 1070.42 484.111L1072.1 484.059V483.54C1072.1 482.919 1071.96 482.456 1071.66 482.151C1071.38 481.841 1070.93 481.686 1070.32 481.686C1069.82 481.686 1069.34 481.759 1068.88 481.905C1068.43 482.052 1067.99 482.225 1067.57 482.424L1066.9 480.947C1067.43 480.672 1068 480.464 1068.63 480.323C1069.26 480.177 1069.85 480.104 1070.41 480.104C1071.64 480.104 1072.57 480.373 1073.2 480.912C1073.83 481.451 1074.15 482.298 1074.15 483.452V490H1072.67ZM1069.6 488.594C1070.35 488.594 1070.95 488.386 1071.4 487.97C1071.86 487.548 1072.08 486.959 1072.08 486.203V485.359L1070.84 485.412C1069.86 485.447 1069.15 485.611 1068.71 485.904C1068.27 486.191 1068.05 486.634 1068.05 487.231C1068.05 487.665 1068.18 488.002 1068.44 488.242C1068.69 488.477 1069.08 488.594 1069.6 488.594ZM1083.06 480.279H1085.33L1081.31 484.964L1085.67 490H1083.3L1079.1 485.069V490H1077.03V480.279H1079.1V484.999L1083.06 480.279ZM1091.53 490.176C1090.01 490.176 1088.83 489.736 1087.97 488.857C1087.12 487.973 1086.7 486.757 1086.7 485.21C1086.7 483.622 1087.1 482.374 1087.89 481.466C1088.68 480.558 1089.76 480.104 1091.15 480.104C1092.43 480.104 1093.44 480.493 1094.19 481.272C1094.93 482.052 1095.3 483.124 1095.3 484.489V485.605H1088.83C1088.86 486.549 1089.11 487.275 1089.59 487.785C1090.07 488.289 1090.75 488.541 1091.62 488.541C1092.2 488.541 1092.73 488.488 1093.22 488.383C1093.72 488.271 1094.25 488.09 1094.82 487.838V489.517C1094.32 489.757 1093.81 489.927 1093.29 490.026C1092.78 490.126 1092.19 490.176 1091.53 490.176ZM1091.15 481.668C1090.49 481.668 1089.96 481.876 1089.57 482.292C1089.17 482.708 1088.94 483.314 1088.86 484.111H1093.27C1093.26 483.309 1093.07 482.702 1092.69 482.292C1092.32 481.876 1091.8 481.668 1091.15 481.668ZM1104.96 480.279V481.896H1101.79V490H1099.72V481.896H1096.55V480.279H1104.96ZM1120 480.279V490H1117.93V481.914H1113.57V490H1111.5V480.279H1120ZM1124.94 480.279V485.263C1124.94 485.843 1124.89 486.695 1124.8 487.82L1129.68 480.279H1132.2V490H1130.21V485.104C1130.21 484.835 1130.23 484.398 1130.26 483.795C1130.29 483.191 1130.32 482.752 1130.35 482.477L1125.49 490H1122.96V480.279H1124.94ZM1139.07 490.176C1137.59 490.176 1136.48 489.748 1135.71 488.893C1134.95 488.031 1134.57 486.798 1134.57 485.192C1134.57 483.558 1134.96 482.301 1135.76 481.422C1136.56 480.543 1137.72 480.104 1139.23 480.104C1140.26 480.104 1141.18 480.294 1142 480.675L1141.38 482.336C1140.5 481.996 1139.78 481.826 1139.21 481.826C1137.53 481.826 1136.69 482.942 1136.69 485.175C1136.69 486.265 1136.9 487.085 1137.32 487.636C1137.74 488.181 1138.35 488.453 1139.16 488.453C1140.08 488.453 1140.95 488.225 1141.77 487.768V489.569C1141.4 489.786 1141.01 489.941 1140.59 490.035C1140.17 490.129 1139.66 490.176 1139.07 490.176ZM1146.12 484.164H1148.56C1151.27 484.164 1152.63 485.102 1152.63 486.977C1152.63 487.967 1152.28 488.72 1151.59 489.235C1150.9 489.745 1149.89 490 1148.56 490H1144.06V480.279H1146.12V484.164ZM1150.55 487.029C1150.55 486.543 1150.37 486.203 1150 486.01C1149.63 485.816 1149.11 485.72 1148.43 485.72H1146.12V488.471H1148.47C1149.15 488.471 1149.67 488.348 1150.02 488.102C1150.37 487.855 1150.55 487.498 1150.55 487.029ZM1160.5 488.022L1160.62 487.601C1160.86 486.728 1161.06 486.057 1161.24 485.588L1163.42 480.279H1166.17V490H1164.26V482.151L1164.11 482.679C1163.84 483.622 1163.62 484.316 1163.44 484.762L1161.31 490H1159.75L1157.62 484.727C1157.33 483.965 1157.06 483.106 1156.81 482.151V490H1154.92V480.279H1157.65L1159.76 485.43C1159.95 485.904 1160.2 486.769 1160.5 488.022ZM1175.21 490L1174.79 488.646H1174.72C1174.25 489.238 1173.78 489.643 1173.31 489.859C1172.83 490.07 1172.22 490.176 1171.48 490.176C1170.52 490.176 1169.78 489.918 1169.24 489.402C1168.71 488.887 1168.44 488.157 1168.44 487.214C1168.44 486.212 1168.81 485.456 1169.55 484.946C1170.3 484.437 1171.43 484.158 1172.96 484.111L1174.63 484.059V483.54C1174.63 482.919 1174.49 482.456 1174.2 482.151C1173.91 481.841 1173.46 481.686 1172.85 481.686C1172.35 481.686 1171.88 481.759 1171.42 481.905C1170.96 482.052 1170.52 482.225 1170.1 482.424L1169.43 480.947C1169.96 480.672 1170.54 480.464 1171.16 480.323C1171.79 480.177 1172.38 480.104 1172.94 480.104C1174.17 480.104 1175.11 480.373 1175.73 480.912C1176.37 481.451 1176.68 482.298 1176.68 483.452V490H1175.21ZM1172.13 488.594C1172.88 488.594 1173.48 488.386 1173.93 487.97C1174.39 487.548 1174.62 486.959 1174.62 486.203V485.359L1173.37 485.412C1172.4 485.447 1171.69 485.611 1171.24 485.904C1170.8 486.191 1170.58 486.634 1170.58 487.231C1170.58 487.665 1170.71 488.002 1170.97 488.242C1171.23 488.477 1171.61 488.594 1172.13 488.594Z" fill="white"/>
<path d="M1022.76 392.153C1022.76 398.387 1021.73 403.001 1019.68 405.996C1017.65 408.991 1014.51 410.488 1010.26 410.488C1006.14 410.488 1003.03 408.942 1000.93 405.85C998.848 402.757 997.807 398.192 997.807 392.153C997.807 385.854 998.824 381.216 1000.86 378.237C1002.89 375.243 1006.03 373.745 1010.26 373.745C1014.38 373.745 1017.48 375.308 1019.58 378.433C1021.7 381.558 1022.76 386.131 1022.76 392.153ZM1005.3 392.153C1005.3 396.532 1005.68 399.673 1006.42 401.577C1007.19 403.465 1008.47 404.409 1010.26 404.409C1012.02 404.409 1013.29 403.449 1014.07 401.528C1014.85 399.608 1015.24 396.483 1015.24 392.153C1015.24 387.775 1014.84 384.634 1014.04 382.729C1013.26 380.809 1012 379.849 1010.26 379.849C1008.48 379.849 1007.21 380.809 1006.45 382.729C1005.68 384.634 1005.3 387.775 1005.3 392.153ZM1051.13 382.29C1051.13 384.52 1050.45 386.416 1049.1 387.979C1047.75 389.541 1045.85 390.615 1043.41 391.201V391.348C1046.29 391.706 1048.47 392.585 1049.95 393.984C1051.44 395.368 1052.18 397.24 1052.18 399.6C1052.18 403.034 1050.93 405.711 1048.44 407.632C1045.95 409.536 1042.39 410.488 1037.77 410.488C1033.9 410.488 1030.46 409.845 1027.47 408.56V402.139C1028.85 402.839 1030.37 403.408 1032.03 403.848C1033.69 404.287 1035.34 404.507 1036.97 404.507C1039.46 404.507 1041.3 404.084 1042.48 403.237C1043.67 402.391 1044.27 401.032 1044.27 399.16C1044.27 397.484 1043.58 396.296 1042.21 395.596C1040.85 394.896 1038.67 394.546 1035.67 394.546H1032.96V388.76H1035.72C1038.49 388.76 1040.51 388.402 1041.78 387.686C1043.06 386.953 1043.7 385.708 1043.7 383.95C1043.7 381.248 1042.01 379.897 1038.63 379.897C1037.45 379.897 1036.26 380.093 1035.04 380.483C1033.83 380.874 1032.49 381.549 1031.01 382.51L1027.52 377.31C1030.77 374.966 1034.65 373.794 1039.16 373.794C1042.86 373.794 1045.77 374.543 1047.9 376.04C1050.05 377.537 1051.13 379.621 1051.13 382.29Z" fill="url(#paint7_linear)"/>
<rect x="1284.5" y="400.5" width="275" height="137" rx="11.5" stroke="url(#paint8_linear)" stroke-dasharray="7 7"/>
<path d="M1343.11 474.198H1344.1C1344.95 472.646 1345.66 470.902 1346.23 468.969C1346.81 467.035 1347.18 465.096 1347.34 463.15H1353.98V474.198H1355.64V479.542H1353.62V476H1345.13V479.542H1343.11V474.198ZM1349.1 464.97C1348.97 466.3 1348.64 467.844 1348.12 469.602C1347.59 471.354 1346.99 472.886 1346.31 474.198H1351.88V464.97H1349.1ZM1361.75 476.176C1360.24 476.176 1359.05 475.736 1358.2 474.857C1357.35 473.973 1356.92 472.757 1356.92 471.21C1356.92 469.622 1357.32 468.374 1358.11 467.466C1358.9 466.558 1359.99 466.104 1361.37 466.104C1362.65 466.104 1363.67 466.493 1364.41 467.272C1365.15 468.052 1365.53 469.124 1365.53 470.489V471.605H1359.05C1359.08 472.549 1359.33 473.275 1359.81 473.785C1360.29 474.289 1360.97 474.541 1361.84 474.541C1362.42 474.541 1362.95 474.488 1363.44 474.383C1363.94 474.271 1364.47 474.09 1365.04 473.838V475.517C1364.54 475.757 1364.03 475.927 1363.51 476.026C1363 476.126 1362.41 476.176 1361.75 476.176ZM1361.37 467.668C1360.71 467.668 1360.19 467.876 1359.79 468.292C1359.39 468.708 1359.16 469.314 1359.08 470.111H1363.5C1363.48 469.309 1363.29 468.702 1362.92 468.292C1362.54 467.876 1362.03 467.668 1361.37 467.668ZM1375.86 476H1373.78V467.896H1371.1C1370.93 469.982 1370.71 471.611 1370.43 472.783C1370.16 473.955 1369.79 474.811 1369.34 475.35C1368.9 475.889 1368.32 476.158 1367.6 476.158C1367.15 476.158 1366.77 476.094 1366.47 475.965V474.348C1366.68 474.43 1366.9 474.471 1367.12 474.471C1367.71 474.471 1368.18 473.8 1368.52 472.458C1368.87 471.11 1369.14 469.051 1369.33 466.279H1375.86V476ZM1384.91 476L1384.49 474.646H1384.42C1383.95 475.238 1383.48 475.643 1383.01 475.859C1382.53 476.07 1381.92 476.176 1381.18 476.176C1380.22 476.176 1379.48 475.918 1378.94 475.402C1378.41 474.887 1378.14 474.157 1378.14 473.214C1378.14 472.212 1378.51 471.456 1379.25 470.946C1380 470.437 1381.13 470.158 1382.66 470.111L1384.33 470.059V469.54C1384.33 468.919 1384.19 468.456 1383.9 468.151C1383.61 467.841 1383.16 467.686 1382.55 467.686C1382.05 467.686 1381.58 467.759 1381.12 467.905C1380.66 468.052 1380.22 468.225 1379.8 468.424L1379.13 466.947C1379.66 466.672 1380.24 466.464 1380.86 466.323C1381.49 466.177 1382.08 466.104 1382.64 466.104C1383.88 466.104 1384.81 466.373 1385.43 466.912C1386.07 467.451 1386.38 468.298 1386.38 469.452V476H1384.91ZM1381.83 474.594C1382.58 474.594 1383.18 474.386 1383.63 473.97C1384.09 473.548 1384.32 472.959 1384.32 472.203V471.359L1383.07 471.412C1382.1 471.447 1381.39 471.611 1380.94 471.904C1380.5 472.191 1380.28 472.634 1380.28 473.231C1380.28 473.665 1380.41 474.002 1380.67 474.242C1380.93 474.477 1381.31 474.594 1381.83 474.594ZM1393.51 476.176C1392 476.176 1390.82 475.736 1389.96 474.857C1389.11 473.973 1388.69 472.757 1388.69 471.21C1388.69 469.622 1389.08 468.374 1389.87 467.466C1390.66 466.558 1391.75 466.104 1393.13 466.104C1394.42 466.104 1395.43 466.493 1396.17 467.272C1396.92 468.052 1397.29 469.124 1397.29 470.489V471.605H1390.81C1390.84 472.549 1391.1 473.275 1391.58 473.785C1392.06 474.289 1392.73 474.541 1393.61 474.541C1394.18 474.541 1394.71 474.488 1395.21 474.383C1395.71 474.271 1396.24 474.09 1396.81 473.838V475.517C1396.3 475.757 1395.79 475.927 1395.28 476.026C1394.76 476.126 1394.17 476.176 1393.51 476.176ZM1393.13 467.668C1392.48 467.668 1391.95 467.876 1391.55 468.292C1391.16 468.708 1390.92 469.314 1390.85 470.111H1395.26C1395.25 469.309 1395.05 468.702 1394.68 468.292C1394.3 467.876 1393.79 467.668 1393.13 467.668ZM1405.22 474.022L1405.33 473.601C1405.57 472.728 1405.78 472.057 1405.96 471.588L1408.14 466.279H1410.89V476H1408.98V468.151L1408.82 468.679C1408.56 469.622 1408.33 470.316 1408.15 470.762L1406.03 476H1404.46L1402.33 470.727C1402.04 469.965 1401.77 469.106 1401.53 468.151V476H1399.64V466.279H1402.37L1404.48 471.43C1404.67 471.904 1404.91 472.769 1405.22 474.022ZM1423.45 476.176C1422.22 476.176 1421.26 475.733 1420.58 474.849H1420.46C1420.54 475.669 1420.58 476.167 1420.58 476.343V480.324H1418.52V466.279H1420.19C1420.23 466.461 1420.33 466.895 1420.48 467.58H1420.58C1421.23 466.596 1422.19 466.104 1423.48 466.104C1424.69 466.104 1425.64 466.543 1426.31 467.422C1426.99 468.301 1427.33 469.534 1427.33 471.122C1427.33 472.71 1426.99 473.949 1426.29 474.84C1425.61 475.73 1424.66 476.176 1423.45 476.176ZM1422.95 467.791C1422.12 467.791 1421.52 468.031 1421.14 468.512C1420.77 468.992 1420.58 469.76 1420.58 470.814V471.122C1420.58 472.306 1420.77 473.164 1421.14 473.697C1421.52 474.225 1422.13 474.488 1422.98 474.488C1423.7 474.488 1424.25 474.195 1424.63 473.609C1425.02 473.023 1425.21 472.188 1425.21 471.104C1425.21 470.015 1425.02 469.191 1424.63 468.635C1424.25 468.072 1423.69 467.791 1422.95 467.791ZM1435.81 476L1435.4 474.646H1435.33C1434.86 475.238 1434.39 475.643 1433.91 475.859C1433.44 476.07 1432.83 476.176 1432.09 476.176C1431.13 476.176 1430.38 475.918 1429.84 475.402C1429.31 474.887 1429.04 474.157 1429.04 473.214C1429.04 472.212 1429.42 471.456 1430.16 470.946C1430.91 470.437 1432.04 470.158 1433.56 470.111L1435.24 470.059V469.54C1435.24 468.919 1435.09 468.456 1434.8 468.151C1434.51 467.841 1434.07 467.686 1433.46 467.686C1432.96 467.686 1432.48 467.759 1432.02 467.905C1431.57 468.052 1431.13 468.225 1430.71 468.424L1430.04 466.947C1430.57 466.672 1431.14 466.464 1431.77 466.323C1432.4 466.177 1432.99 466.104 1433.54 466.104C1434.78 466.104 1435.71 466.373 1436.34 466.912C1436.97 467.451 1437.29 468.298 1437.29 469.452V476H1435.81ZM1432.74 474.594C1433.49 474.594 1434.09 474.386 1434.54 473.97C1435 473.548 1435.22 472.959 1435.22 472.203V471.359L1433.98 471.412C1433 471.447 1432.29 471.611 1431.85 471.904C1431.41 472.191 1431.19 472.634 1431.19 473.231C1431.19 473.665 1431.32 474.002 1431.58 474.242C1431.83 474.477 1432.22 474.594 1432.74 474.594ZM1444.09 476.176C1442.62 476.176 1441.5 475.748 1440.73 474.893C1439.97 474.031 1439.59 472.798 1439.59 471.192C1439.59 469.558 1439.99 468.301 1440.79 467.422C1441.59 466.543 1442.75 466.104 1444.26 466.104C1445.28 466.104 1446.21 466.294 1447.03 466.675L1446.4 468.336C1445.53 467.996 1444.81 467.826 1444.24 467.826C1442.56 467.826 1441.72 468.942 1441.72 471.175C1441.72 472.265 1441.93 473.085 1442.34 473.636C1442.76 474.181 1443.38 474.453 1444.19 474.453C1445.11 474.453 1445.98 474.225 1446.8 473.768V475.569C1446.43 475.786 1446.03 475.941 1445.61 476.035C1445.2 476.129 1444.69 476.176 1444.09 476.176ZM1453 476.176C1451.53 476.176 1450.41 475.748 1449.65 474.893C1448.88 474.031 1448.5 472.798 1448.5 471.192C1448.5 469.558 1448.9 468.301 1449.7 467.422C1450.5 466.543 1451.66 466.104 1453.17 466.104C1454.2 466.104 1455.12 466.294 1455.94 466.675L1455.32 468.336C1454.44 467.996 1453.72 467.826 1453.15 467.826C1451.47 467.826 1450.63 468.942 1450.63 471.175C1450.63 472.265 1450.84 473.085 1451.25 473.636C1451.68 474.181 1452.29 474.453 1453.1 474.453C1454.02 474.453 1454.89 474.225 1455.71 473.768V475.569C1455.34 475.786 1454.95 475.941 1454.52 476.035C1454.11 476.129 1453.6 476.176 1453 476.176ZM1460.06 470.164H1462.03C1463.39 470.164 1464.39 470.398 1465.04 470.867C1465.7 471.336 1466.02 472.039 1466.02 472.977C1466.02 473.979 1465.68 474.734 1465 475.244C1464.33 475.748 1463.34 476 1462.03 476H1458V466.279H1460.06V470.164ZM1463.97 473.029C1463.97 472.543 1463.79 472.203 1463.43 472.01C1463.07 471.816 1462.55 471.72 1461.88 471.72H1460.06V474.471H1461.62C1462.45 474.471 1463.05 474.354 1463.42 474.119C1463.79 473.885 1463.97 473.521 1463.97 473.029ZM1469.62 476H1467.55V466.279H1469.62V476ZM1480.58 476H1478.49V467.896H1475.81C1475.65 469.982 1475.42 471.611 1475.14 472.783C1474.87 473.955 1474.5 474.811 1474.05 475.35C1473.61 475.889 1473.03 476.158 1472.31 476.158C1471.86 476.158 1471.48 476.094 1471.18 475.965V474.348C1471.4 474.43 1471.61 474.471 1471.83 474.471C1472.43 474.471 1472.9 473.8 1473.24 472.458C1473.58 471.11 1473.85 469.051 1474.04 466.279H1480.58V476ZM1489.57 466.279H1491.83L1487.82 470.964L1492.18 476H1489.8L1485.6 471.069V476H1483.54V466.279H1485.6V470.999L1489.57 466.279ZM1492.31 466.279H1494.56L1496.54 471.79C1496.83 472.575 1497.03 473.313 1497.13 474.005H1497.2C1497.26 473.683 1497.35 473.293 1497.49 472.836C1497.63 472.373 1498.38 470.188 1499.73 466.279H1501.96L1497.8 477.292C1497.05 479.313 1495.79 480.324 1494.02 480.324C1493.57 480.324 1493.12 480.274 1492.69 480.175V478.54C1493 478.61 1493.35 478.646 1493.75 478.646C1494.75 478.646 1495.45 478.068 1495.85 476.914L1496.21 476L1492.31 466.279Z" fill="white"/>
<path d="M1330.76 391.153C1330.76 397.387 1329.73 402.001 1327.68 404.996C1325.65 407.991 1322.51 409.488 1318.26 409.488C1314.14 409.488 1311.03 407.942 1308.93 404.85C1306.85 401.757 1305.81 397.192 1305.81 391.153C1305.81 384.854 1306.82 380.216 1308.86 377.237C1310.89 374.243 1314.03 372.745 1318.26 372.745C1322.38 372.745 1325.48 374.308 1327.58 377.433C1329.7 380.558 1330.76 385.131 1330.76 391.153ZM1313.3 391.153C1313.3 395.532 1313.68 398.673 1314.42 400.577C1315.19 402.465 1316.47 403.409 1318.26 403.409C1320.02 403.409 1321.29 402.449 1322.07 400.528C1322.85 398.608 1323.24 395.483 1323.24 391.153C1323.24 386.775 1322.84 383.634 1322.04 381.729C1321.26 379.809 1320 378.849 1318.26 378.849C1316.48 378.849 1315.21 379.809 1314.45 381.729C1313.68 383.634 1313.3 386.775 1313.3 391.153ZM1361.32 401.603H1357.03V409H1349.65V401.603H1334.42V396.354L1350.07 373.307H1357.03V395.743H1361.32V401.603ZM1349.65 395.743V389.688C1349.65 388.679 1349.69 387.215 1349.78 385.294C1349.86 383.373 1349.92 382.258 1349.97 381.949H1349.78C1349.17 383.284 1348.45 384.586 1347.6 385.855L1341.06 395.743H1349.65Z" fill="url(#paint9_linear)"/>
<defs>
<linearGradient id="paint0_linear" x1="375.093" y1="156" x2="424.323" y2="166.128" gradientUnits="userSpaceOnUse">
<stop stop-color="#1549D0"/>
<stop offset="1" stop-color="#17CDCD"/>
</linearGradient>
<linearGradient id="paint1_linear" x1="398.689" y1="168" x2="398.991" y2="178.384" gradientUnits="userSpaceOnUse">
<stop stop-color="#1549D0"/>
<stop offset="1" stop-color="#17CDCD"/>
</linearGradient>
<linearGradient id="paint2_linear" x1="349.57" y1="398" x2="854.241" y2="605.645" gradientUnits="userSpaceOnUse">
<stop stop-color="#1549D0"/>
<stop offset="1" stop-color="#17CDCD"/>
</linearGradient>
<linearGradient id="paint3_linear" x1="377.77" y1="359" x2="498.624" y2="384.291" gradientUnits="userSpaceOnUse">
<stop stop-color="#1549D0"/>
<stop offset="1" stop-color="#17CDCD"/>
</linearGradient>
<linearGradient id="paint4_linear" x1="653.57" y1="401" x2="1158.24" y2="608.645" gradientUnits="userSpaceOnUse">
<stop stop-color="#1549D0"/>
<stop offset="1" stop-color="#17CDCD"/>
</linearGradient>
<linearGradient id="paint5_linear" x1="681.77" y1="362" x2="802.624" y2="387.291" gradientUnits="userSpaceOnUse">
<stop stop-color="#1549D0"/>
<stop offset="1" stop-color="#17CDCD"/>
</linearGradient>
<linearGradient id="paint6_linear" x1="965.57" y1="401" x2="1470.24" y2="608.645" gradientUnits="userSpaceOnUse">
<stop stop-color="#1549D0"/>
<stop offset="1" stop-color="#17CDCD"/>
</linearGradient>
<linearGradient id="paint7_linear" x1="993.77" y1="362" x2="1114.62" y2="387.291" gradientUnits="userSpaceOnUse">
<stop stop-color="#1549D0"/>
<stop offset="1" stop-color="#17CDCD"/>
</linearGradient>
<linearGradient id="paint8_linear" x1="1273.57" y1="400" x2="1778.24" y2="607.645" gradientUnits="userSpaceOnUse">
<stop stop-color="#1549D0"/>
<stop offset="1" stop-color="#17CDCD"/>
</linearGradient>
<linearGradient id="paint9_linear" x1="1301.77" y1="361" x2="1422.62" y2="386.291" gradientUnits="userSpaceOnUse">
<stop stop-color="#1549D0"/>
<stop offset="1" stop-color="#17CDCD"/>
</linearGradient>
<clipPath id="clip0">
<rect width="1920" height="678" fill="white"/>
</clipPath>
</defs>
</svg>
