<svg width="1920" height="951" viewBox="0 0 1920 951" fill="none" xmlns="http://www.w3.org/2000/svg">
<g clip-path="url(#clip0)">
<rect width="1920" height="951" fill="#0F2441"/>
<path d="M1068.19 658.683C1074.85 655.562 1081.84 653.186 1089.03 651.598L1920 468V951H444L1068.19 658.683Z" fill="url(#paint0_linear)"/>
<rect x="1503.69" y="218" width="3.625" height="29" rx="1.8125" fill="#DD2265"/>
<rect x="1491" y="234.312" width="3.625" height="29" rx="1.8125" transform="rotate(-90 1491 234.312)" fill="#DD2265"/>
<rect x="1906.95" y="615.812" width="8.75" height="70" rx="4.375" transform="rotate(26.9233 1906.95 615.812)" fill="#172F50"/>
<rect x="1861.81" y="637.053" width="8.75" height="70" rx="4.375" transform="rotate(-63.0767 1861.81 637.053)" fill="#172F50"/>
<path d="M63.4836 652.19C93.1259 679.449 95.1918 725.708 67.8102 755.483C40.5512 785.125 -5.70819 787.191 -35.4837 759.81C-65.1259 732.551 -67.1911 686.291 -39.8095 656.516C-12.4273 626.74 33.7076 624.808 63.4836 652.19Z" stroke="#22DDDD"/>
</g>
<defs>
<linearGradient id="paint0_linear" x1="1207.76" y1="505.856" x2="1207.76" y2="951" gradientUnits="userSpaceOnUse">
<stop stop-color="#142A48"/>
<stop offset="1" stop-color="#0F2441" stop-opacity="0.35"/>
</linearGradient>
<clipPath id="clip0">
<rect width="1920" height="951" fill="white"/>
</clipPath>
</defs>
</svg>
