<svg width="1920" height="1048" viewBox="0 0 1920 1048" fill="none" xmlns="http://www.w3.org/2000/svg">
<g clip-path="url(#clip0)">
<rect width="1920" height="1048" fill="url(#paint0_linear)"/>
<path d="M1604 961.5C1604 1141.19 1530.35 1303.69 1411.58 1420.43C1295.46 1534.58 1136.2 1605 960.5 1605C605.105 1605 317 1316.9 317 961.5C317 606.105 605.105 318 960.5 318C1315.9 318 1604 606.105 1604 961.5Z" fill="url(#paint1_linear)"/>
<circle cx="611.659" cy="600.198" r="51.5659" transform="rotate(49.8975 611.659 600.198)" fill="url(#paint2_linear)"/>
<circle r="150.107" transform="matrix(-0.981051 0.193749 0.193749 0.981051 957.361 717.062)" fill="url(#paint3_linear)"/>
<circle r="51.7295" transform="matrix(-0.981051 0.193749 0.193749 0.981051 1352.77 953.772)" fill="url(#paint4_linear)"/>
</g>
<defs>
<linearGradient id="paint0_linear" x1="570.5" y1="163.507" x2="1760.73" y2="566.66" gradientUnits="userSpaceOnUse">
<stop stop-color="#2E2D44"/>
<stop offset="1" stop-color="#2C2B45"/>
</linearGradient>
<linearGradient id="paint1_linear" x1="1604" y1="586.5" x2="471.512" y2="888.418" gradientUnits="userSpaceOnUse">
<stop offset="0.0146048" stop-color="#2D2C44"/>
<stop offset="0.727493" stop-color="#3B3A53" stop-opacity="0.78"/>
</linearGradient>
<linearGradient id="paint2_linear" x1="560.093" y1="600.198" x2="663.225" y2="600.198" gradientUnits="userSpaceOnUse">
<stop stop-color="#4A4F78" stop-opacity="0.66"/>
<stop offset="1" stop-color="#34334C"/>
</linearGradient>
<linearGradient id="paint3_linear" x1="0" y1="150.107" x2="300.214" y2="150.107" gradientUnits="userSpaceOnUse">
<stop stop-color="#4A4F78" stop-opacity="0.66"/>
<stop offset="1" stop-color="#34334C"/>
</linearGradient>
<linearGradient id="paint4_linear" x1="0" y1="51.7295" x2="103.459" y2="51.7295" gradientUnits="userSpaceOnUse">
<stop stop-color="#4A4F78" stop-opacity="0.66"/>
<stop offset="1" stop-color="#34334C"/>
</linearGradient>
<clipPath id="clip0">
<rect width="1920" height="1048" fill="white"/>
</clipPath>
</defs>
</svg>
