<svg width="1920" height="1226" viewBox="0 0 1919 1226" fill="none" xmlns="http://www.w3.org/2000/svg">
    <g clip-path="url(#clip0)">
        <rect y="0.988281" width="1920" height="1226" fill="#0F2441" />
        <rect x="1503.69" y="232.988" width="3.625" height="29" rx="1.8125" fill="#22DDDD" />
        <rect x="1491" y="249.301" width="3.625" height="29" rx="1.8125" transform="rotate(-90 1491 249.301)" fill="#22DDDD" />
        <rect x="-19.087" y="661.913" width="19.5" height="156" rx="8" transform="rotate(-37.3652 -19.087 661.913)" fill="#1549D0" />
        <rect x="-20.0762" y="773.075" width="19.5" height="156" rx="8" transform="rotate(-127.365 -20.0762 773.075)" fill="#1549D0" />
        <path d="M1956.06 637.76C1991.45 670.297 1993.91 725.512 1961.23 761.053C1928.69 796.434 1873.48 798.9 1837.94 766.217C1802.55 733.68 1800.09 678.464 1832.77 642.923C1865.46 607.382 1920.52 605.076 1956.06 637.76Z" stroke="#29456C" />
    </g>
    <defs>
        <clipPath id="clip0">
            <rect width="1920" height="1226" fill="white" transform="translate(0 0.988281)" />
        </clipPath>
    </defs>
</svg>
