<svg width="124" height="144" viewBox="0 0 124 144" fill="none" xmlns="http://www.w3.org/2000/svg">
<path d="M8.98735 32C10.6442 32 11.9902 30.6568 11.9937 29C11.9972 27.3431 10.6569 26 9 26C7.34315 26 5.99717 27.3431 5.99367 29C5.99018 30.6568 7.33049 32 8.98735 32Z" fill="url(#paint0_linear)"/>
<path d="M16.1763 24.2774C17.3281 24.2774 18.2637 23.3437 18.2662 22.1919C18.2686 21.0401 17.3369 20.1064 16.1851 20.1064C15.0333 20.1064 14.0976 21.0401 14.0952 22.1919C14.0928 23.3437 15.0245 24.2774 16.1763 24.2774Z" fill="url(#paint1_linear)"/>
<path d="M116.971 49.9999C119.181 49.9999 120.978 48.2091 120.986 46C120.994 43.7908 119.209 42 117 42C114.791 42 112.994 43.7908 112.986 46C112.978 48.2091 114.762 49.9999 116.971 49.9999Z" fill="url(#paint2_linear)"/>
<path d="M118.986 32C120.09 32 120.989 31.1045 120.993 30C120.997 28.8954 120.105 28 119 28C117.895 28 116.997 28.8954 116.993 30C116.989 31.1045 117.881 32 118.986 32Z" fill="url(#paint3_linear)"/>
<g filter="url(#filter0_d)">
<path d="M101.141 35.6471L102 106.657C102 109.046 100.067 111 97.7043 111H29.2957C26.9331 111 25 109.046 25 106.657V15.3431C25 12.9544 26.9331 11 29.2957 11H78.9107L101.141 35.6471Z" fill="#474E61"/>
</g>
<path d="M58.1973 96.1021H55.7343C55.1989 96.1021 54.7705 95.6718 54.7705 95.1338C54.7705 94.5959 55.1989 94.1655 55.7343 94.1655H58.1973C58.7327 94.1655 59.1611 94.5959 59.1611 95.1338C59.1611 95.6718 58.7327 96.1021 58.1973 96.1021Z" fill="#242B37"/>
<path d="M51.237 96.1021H36.7802C36.2448 96.1021 35.8164 95.6718 35.8164 95.1338C35.8164 94.5959 36.2448 94.1655 36.7802 94.1655H51.237C51.7724 94.1655 52.2008 94.5959 52.2008 95.1338C52.3079 95.6718 51.8795 96.1021 51.237 96.1021Z" fill="#242B37"/>
<path d="M70.1915 25.7397H37.5298C36.7802 25.7397 36.1377 25.0942 36.1377 24.341C36.1377 23.5879 36.7802 22.9424 37.5298 22.9424H70.1915C70.9411 22.9424 71.5836 23.5879 71.5836 24.341C71.5836 25.0942 70.9411 25.7397 70.1915 25.7397Z" fill="#242B37"/>
<path d="M49.952 33.5932H37.5298C36.7802 33.5932 36.1377 32.9477 36.1377 32.1945C36.1377 31.4414 36.7802 30.7959 37.5298 30.7959H50.0591C50.8087 30.7959 51.4512 31.4414 51.4512 32.1945C51.4512 32.9477 50.7016 33.5932 49.952 33.5932Z" fill="#242B37"/>
<path d="M78.7578 11.1074V30.4733C78.7578 33.1631 81.1137 35.4224 83.7909 35.4224H100.925" fill="#354157"/>
<path d="M90.2164 48.333H73.1895C73.1895 48.333 73.1895 48.333 73.0824 48.333C72.9754 48.333 73.0825 48.333 72.9754 48.333H55.413C55.413 48.333 55.413 48.333 55.3059 48.333C55.1989 48.333 55.3059 48.333 55.1989 48.333H38.7074C36.8869 48.333 35.3877 49.8392 35.3877 51.7758V81.6854C35.3877 83.5144 36.8869 85.1283 38.7074 85.1283H90.1093C91.9298 85.1283 93.4291 83.622 93.4291 81.6854V51.7758C93.5361 49.9468 92.0369 48.333 90.2164 48.333ZM56.3768 74.7998V68.1293H72.1187V74.7998H56.3768ZM72.1187 76.8439V82.9765H56.3768V76.8439H72.1187ZM72.1187 59.307V65.9775H56.3768V59.307H72.1187ZM56.3768 57.2628V50.3772H72.1187V57.2628H56.3768ZM91.5015 66.0851H74.1533V59.4146H91.5015V66.0851ZM54.3422 66.0851H37.4224V59.4146H54.2351V66.0851H54.3422ZM37.4224 68.1293H54.2351V74.7998H37.4224V68.1293ZM74.1533 68.1293H91.5015V74.7998H74.1533V68.1293ZM91.5015 51.7758V57.2628H74.1533V50.3772H90.2164C90.859 50.3772 91.5015 51.0227 91.5015 51.7758ZM38.7074 50.3772H54.2351V57.2628H37.4224V51.7758C37.4224 51.0227 38.0649 50.3772 38.7074 50.3772ZM37.4224 81.6854V76.8439H54.2351V82.9765H38.7074C38.0649 82.9765 37.4224 82.4385 37.4224 81.6854ZM90.2164 82.9765H74.1533V76.8439H91.5015V81.6854C91.5015 82.4385 90.859 82.9765 90.2164 82.9765Z" fill="#242B37"/>
<path d="M9.59184 84.0816H9.18367C8.97959 84.0816 8.87755 83.8776 8.77551 83.7755C8.77551 83.6735 8.67347 83.5714 8.57143 83.3673C8.46939 83.1633 8.46939 82.9592 8.57143 82.8571L8.77551 82.551C8.87755 82.3469 8.87755 82.0408 8.77551 81.9388L8.16327 81.2245C7.95918 81.0204 7.7551 81.0204 7.55102 81.2245L7.2449 81.4286C7.14286 81.5306 6.93878 81.5306 6.73469 81.4286C6.63265 81.3265 6.53061 81.3265 6.32653 81.2245C6.12245 81.2245 6.02041 81.0204 6.02041 80.8163L5.91837 80.4082C5.91837 80.2041 5.71429 80 5.40816 80H4.4898C4.28571 80 4.08163 80.2041 3.97959 80.4082V80.8163C3.97959 81.0204 3.77551 81.1225 3.67347 81.2245C3.57143 81.2245 3.46939 81.3265 3.26531 81.4286C3.06122 81.5306 2.85714 81.5306 2.7551 81.4286L2.44898 81.2245C2.2449 81.1225 1.93878 81.1225 1.83673 81.2245L1.12245 81.8367C0.918367 82.0408 0.918367 82.2449 1.12245 82.449L1.32653 82.8571C1.42857 82.9592 1.42857 83.1633 1.32653 83.3673C1.22449 83.4694 1.22449 83.5714 1.12245 83.7755C1.12245 83.8776 1.02041 83.9796 0.816327 84.0816L0.408163 84.1837C0.204082 84.1837 0 84.3878 0 84.6939V85.6122C0 85.8163 0.204082 86.0204 0.408163 86.1224L0.816327 86.2245C1.02041 86.2245 1.12245 86.4286 1.22449 86.5306C1.22449 86.6327 1.32653 86.8367 1.42857 86.9388C1.53061 87.1429 1.53061 87.3469 1.42857 87.449L1.22449 87.7551C1.12245 87.9592 1.12245 88.2653 1.22449 88.3673L1.83673 88.9796C2.04082 89.1837 2.2449 89.1837 2.44898 88.9796L2.7551 88.7755C2.85714 88.6735 3.06122 88.6735 3.26531 88.7755C3.36735 88.8776 3.46939 88.8776 3.67347 88.9796C3.87755 89.0816 3.97959 89.1837 3.97959 89.3878L4.08163 89.5918C4.08163 89.898 4.28571 90 4.4898 90H5.40816C5.61225 90 5.81633 89.7959 5.91837 89.5918L6.02041 89.1837C6.02041 88.9796 6.22449 88.8776 6.32653 88.7755C6.42857 88.7755 6.53061 88.6735 6.73469 88.5714C6.93878 88.4694 7.14286 88.4694 7.2449 88.5714L7.55102 88.9796C7.7551 89.0816 8.06122 89.0816 8.16327 88.9796L8.77551 88.3673C8.97959 88.1633 8.97959 87.9592 8.77551 87.7551L8.57143 87.449C8.46939 87.3469 8.46939 87.1429 8.57143 86.9388C8.67347 86.8367 8.67347 86.7347 8.77551 86.5306C8.87755 86.3265 8.97959 86.2245 9.18367 86.2245L9.59184 86.1224C9.79592 86.1224 10 85.9184 10 85.6122V84.6939C10 84.2857 9.79592 84.0816 9.59184 84.0816ZM5 86.7347C4.08163 86.7347 3.26531 86.0204 3.26531 85C3.26531 84.0816 3.97959 83.2653 5 83.2653C5.91837 83.2653 6.73469 83.9796 6.73469 85C6.73469 86.0204 5.91837 86.7347 5 86.7347Z" fill="url(#paint4_linear)"/>
<path d="M108.962 7.45302L103.034 8.73608C102.727 8.83478 102.421 8.63738 102.318 8.34129L100.99 2.61686C100.887 2.12337 100.478 1.92598 99.9674 2.02467H99.8652C95.9811 3.40643 94.039 7.55171 95.47 11.3022C96.901 15.0527 101.194 16.9279 105.078 15.5462C108.247 14.4605 110.189 11.4009 109.984 8.24259C109.984 7.74911 109.575 7.45302 109.064 7.45302C108.962 7.35432 108.962 7.35432 108.962 7.45302Z" fill="url(#paint5_linear)"/>
<path d="M102.018 0.84306L103.25 6.48852C103.345 6.87786 103.629 7.07253 104.008 6.9752L109.502 5.70983C109.881 5.6125 110.07 5.32049 109.975 4.93115C109.123 1.91375 105.807 -0.422301 102.587 0.0643764C102.208 0.161712 101.924 0.453718 102.018 0.84306Z" fill="url(#paint6_linear)"/>
<path d="M109.559 102.985C109.34 104.196 109.011 105.296 108.573 106.396C105.943 112.998 100.026 117.62 93.2313 118.72C90.8204 119.16 88.4096 119.05 85.8891 118.61C75.1498 116.409 68.1363 105.736 70.4376 94.9535C72.7389 84.1707 83.259 77.1287 93.9983 79.4394C97.8338 80.2096 101.34 82.08 104.08 84.9408C108.902 89.452 110.984 96.3837 109.559 102.985Z" fill="url(#paint7_linear)"/>
<path d="M108.558 106.386C105.928 112.988 100.011 117.609 93.2164 118.709L91.463 116.949L81.71 106.606L82.2579 105.836L92.9972 106.056L85.8742 96.8136L91.9013 94.0629L88.1755 90.7621L92.1205 89.8818L108.558 106.386Z" fill="url(#paint8_linear)"/>
<path d="M89.329 102.06C89.6578 102.5 90.3153 102.61 90.7537 102.28C90.8632 102.28 90.8632 102.17 90.9728 102.06L94.9179 97.1085C95.2466 96.6684 95.137 96.0082 94.6987 95.6781C94.4795 95.5681 94.2604 95.4581 94.0412 95.4581H92.1782V92.4873C92.1782 92.2673 92.0687 92.1572 91.8495 92.1572H91.192H88.4524C88.2332 92.1572 88.1236 92.2673 88.1236 92.4873V95.4581H86.2607C85.7127 95.4581 85.2744 95.8982 85.2744 96.4484C85.2744 96.6684 85.384 96.8885 85.4936 97.1085L89.329 102.06Z" fill="url(#paint9_linear)"/>
<path d="M91.959 90.8376H88.4523C88.3427 90.8376 88.1235 90.7276 88.1235 90.5075V90.0674C88.1235 89.9574 88.2331 89.7373 88.4523 89.7373H91.959C92.0686 89.7373 92.2878 89.8473 92.2878 90.0674V90.5075C92.2878 90.7276 92.0686 90.8376 91.959 90.8376Z" fill="url(#paint10_linear)"/>
<path d="M83.5205 107.342C82.0959 107.342 81 106.242 81 104.921V100.96C81 100.3 81.5479 99.75 82.2054 99.75C82.8629 99.75 83.3013 100.3 83.3013 100.96V105.031H97.109V100.96C97.109 100.3 97.6569 99.86 98.2048 99.86C98.8623 99.86 99.4102 100.41 99.4102 100.96V104.921C99.4102 106.242 98.3144 107.342 96.8898 107.342H83.5205Z" fill="url(#paint11_linear)"/>
<defs>
<filter id="filter0_d" x="3" y="0" width="121" height="144" filterUnits="userSpaceOnUse" color-interpolation-filters="sRGB">
<feFlood flood-opacity="0" result="BackgroundImageFix"/>
<feColorMatrix in="SourceAlpha" type="matrix" values="0 0 0 0 0 0 0 0 0 0 0 0 0 0 0 0 0 0 127 0"/>
<feOffset dy="11"/>
<feGaussianBlur stdDeviation="11"/>
<feColorMatrix type="matrix" values="0 0 0 0 0.0763889 0 0 0 0 0.184583 0 0 0 0 0.208333 0 0 0 0.08 0"/>
<feBlend mode="normal" in2="BackgroundImageFix" result="effect1_dropShadow"/>
<feBlend mode="normal" in="SourceGraphic" in2="effect1_dropShadow" result="shape"/>
</filter>
<linearGradient id="paint0_linear" x1="5.96415" y1="28.9988" x2="11.9865" y2="29.0115" gradientUnits="userSpaceOnUse">
<stop stop-color="#83A6FF"/>
<stop offset="1" stop-color="#4D6DE2"/>
</linearGradient>
<linearGradient id="paint1_linear" x1="14.0747" y1="22.1911" x2="18.2612" y2="22.1999" gradientUnits="userSpaceOnUse">
<stop stop-color="#83A6FF"/>
<stop offset="1" stop-color="#4D6DE2"/>
</linearGradient>
<linearGradient id="paint2_linear" x1="112.946" y1="45.9984" x2="120.976" y2="46.0271" gradientUnits="userSpaceOnUse">
<stop stop-color="#83A6FF"/>
<stop offset="1" stop-color="#4D6DE2"/>
</linearGradient>
<linearGradient id="paint3_linear" x1="116.973" y1="29.9992" x2="120.988" y2="30.0135" gradientUnits="userSpaceOnUse">
<stop stop-color="#83A6FF"/>
<stop offset="1" stop-color="#4D6DE2"/>
</linearGradient>
<linearGradient id="paint4_linear" x1="0" y1="85" x2="10" y2="85" gradientUnits="userSpaceOnUse">
<stop stop-color="#16D9E3"/>
<stop offset="0.47" stop-color="#30C7EC"/>
<stop offset="1" stop-color="#46AEF7"/>
</linearGradient>
<linearGradient id="paint5_linear" x1="95" y1="9" x2="109.999" y2="9" gradientUnits="userSpaceOnUse">
<stop stop-color="#16D9E3"/>
<stop offset="0.47" stop-color="#30C7EC"/>
<stop offset="1" stop-color="#46AEF7"/>
</linearGradient>
<linearGradient id="paint6_linear" x1="103.047" y1="0.921184" x2="108.103" y2="6.71474" gradientUnits="userSpaceOnUse">
<stop stop-color="#2CF2E3"/>
<stop offset="1" stop-color="#23DE6C"/>
</linearGradient>
<linearGradient id="paint7_linear" x1="75.2363" y1="84.2639" x2="104.396" y2="113.502" gradientUnits="userSpaceOnUse">
<stop stop-color="#2CF2E3"/>
<stop offset="1" stop-color="#23DE6C"/>
</linearGradient>
<linearGradient id="paint8_linear" x1="86.8088" y1="98.3678" x2="103.119" y2="114.613" gradientUnits="userSpaceOnUse">
<stop stop-color="#34F3B1"/>
<stop offset="1" stop-color="#25E389"/>
</linearGradient>
<linearGradient id="paint9_linear" x1="99.9363" y1="106.386" x2="86.4393" y2="92.9437" gradientUnits="userSpaceOnUse">
<stop offset="0.0113208" stop-color="#C2D1FF"/>
<stop offset="1" stop-color="white"/>
</linearGradient>
<linearGradient id="paint10_linear" x1="93.9399" y1="94.0958" x2="88.7369" y2="88.9138" gradientUnits="userSpaceOnUse">
<stop offset="0.0113208" stop-color="#C2D1FF"/>
<stop offset="1" stop-color="white"/>
</linearGradient>
<linearGradient id="paint11_linear" x1="96.4611" y1="109.528" x2="82.4783" y2="95.6021" gradientUnits="userSpaceOnUse">
<stop offset="0.0113208" stop-color="#C2D1FF"/>
<stop offset="1" stop-color="white"/>
</linearGradient>
</defs>
</svg>
