<svg width="1920" height="1018" viewBox="0 0 1920 1018" fill="none" xmlns="http://www.w3.org/2000/svg">
    <g clip-path="url(#clip0)">
        <rect width="1920" height="1018" fill="#0F2441" />
        <rect x="1543.12" y="262" width="3.75" height="30" rx="1.875" fill="#1549D0" />
        <rect x="1530" y="278.875" width="3.75" height="30" rx="1.875" transform="rotate(-90 1530 278.875)" fill="#1549D0" />
        <path d="M65.4968 457.203C115.514 503.199 119 581.254 72.7973 631.496C26.8015 681.513 -51.2547 684.999 -101.497 638.797C-151.514 592.801 -154.999 514.745 -108.796 464.502C-62.5927 414.26 15.2541 411 65.4968 457.203Z" stroke="#22DDDD" />
        <path d="M1938.68 334.89C1962.16 356.476 1963.79 393.106 1942.11 416.684C1920.52 440.156 1883.89 441.792 1860.32 420.11C1836.84 398.524 1835.21 361.894 1856.89 338.316C1878.57 314.737 1915.11 313.208 1938.68 334.89Z" stroke="#1549D0" />
    </g>
    <defs>
        <clipPath id="clip0">
            <rect width="1920" height="1018" fill="white" />
        </clipPath>
    </defs>
</svg>
