<svg width="1920" height="397" viewBox="0 0 1920 397" fill="none" xmlns="http://www.w3.org/2000/svg">
<rect width="1921" height="397" fill="url(#paint0_linear)"/>
<rect x="1515" y="69" width="10" height="80" rx="4" fill="#4EC7FA"/>
<rect x="1480" y="114" width="10" height="80" rx="4" transform="rotate(-90 1480 114)" fill="#4EC7FA"/>
<rect x="478.688" y="54" width="7.625" height="61" rx="3.8125" fill="#3ADBF2"/>
<rect x="452" y="88.3125" width="7.625" height="61" rx="3.8125" transform="rotate(-90 452 88.3125)" fill="#3ADBF2"/>
<path d="M465 313V348C465 350.75 462.75 353 460 353H370C367.25 353 365 350.75 365 348V313" stroke="#3ADBF2" stroke-width="10"/>
<path d="M465 313V348C465 350.75 462.75 353 460 353H370C367.25 353 365 350.75 365 348V313" stroke="#3ADBF2" stroke-width="10" stroke-linecap="round" stroke-linejoin="round"/>
<path d="M415 253V328" stroke="#3ADBF2" stroke-width="10" stroke-linecap="round" stroke-linejoin="round"/>
<path d="M440 303L415 328L390 303" stroke="#3ADBF2" stroke-width="10" stroke-linecap="round" stroke-linejoin="round"/>
<path d="M1480 327V348C1480 349.65 1478.65 351 1477 351H1423C1421.35 351 1420 349.65 1420 348V327" stroke="#4EC7FA" stroke-width="7"/>
<path d="M1480 327V348C1480 349.65 1478.65 351 1477 351H1423C1421.35 351 1420 349.65 1420 348V327" stroke="#4EC7FA" stroke-width="7" stroke-linecap="round" stroke-linejoin="round"/>
<path d="M1450 291V336" stroke="#4EC7FA" stroke-width="7" stroke-linecap="round" stroke-linejoin="round"/>
<path d="M1465 321L1450 336L1435 321" stroke="#4EC7FA" stroke-width="7" stroke-linecap="round" stroke-linejoin="round"/>
<defs>
<linearGradient id="paint0_linear" x1="0" y1="198.5" x2="1921" y2="198.5" gradientUnits="userSpaceOnUse">
<stop stop-color="#16D9E3"/>
<stop offset="0.47" stop-color="#28BFE4"/>
<stop offset="1" stop-color="#46AEF7"/>
</linearGradient>
</defs>
</svg>
