<svg width="12" height="12" viewBox="0 0 12 12" fill="none" xmlns="http://www.w3.org/2000/svg">
<path d="M2.29095 10.4502C2.90119 10.4502 3.39858 9.95403 3.39858 9.34529C3.39858 9.06594 3.29409 8.80743 3.106 8.59896L3.99629 6.91033C4.0966 6.93952 4.19692 6.9562 4.29723 6.9562C4.55219 6.9562 4.79462 6.86864 4.99107 6.7102L6.19066 7.71504C6.12796 7.8568 6.0987 7.99856 6.0987 8.14866C6.0987 8.7574 6.59609 9.25356 7.20634 9.25356C7.81658 9.25356 8.31397 8.7574 8.31397 8.14866C8.31397 7.83595 8.18022 7.54409 7.94615 7.33562L9.31711 2.56577C9.92735 2.56577 10.4206 2.0696 10.4206 1.46086C10.4206 0.852122 9.92317 0.355957 9.31293 0.355957C8.70269 0.355957 8.2053 0.852122 8.2053 1.46086C8.2053 1.83194 8.39756 2.17801 8.71105 2.38231L7.36935 7.06043C7.31083 7.05209 7.25649 7.04792 7.20216 7.04792C6.98481 7.04792 6.77164 7.11464 6.58773 7.23972L5.34217 6.19736C5.37978 6.08478 5.3965 5.97221 5.3965 5.85963C5.3965 5.25089 4.89911 4.75473 4.28887 4.75473C3.67863 4.75473 3.18124 5.25089 3.18124 5.85963C3.18124 6.13065 3.27737 6.38498 3.45292 6.58512L2.55845 8.28625C2.4665 8.26123 2.37455 8.24873 2.28259 8.24873C1.67235 8.24873 1.17496 8.74489 1.17496 9.35363C1.17496 9.96237 1.68071 10.4502 2.29095 10.4502ZM1.81028 9.34946C1.81028 9.08679 2.02345 8.86997 2.29095 8.86997C2.55427 8.86997 2.77162 9.08262 2.77162 9.34946C2.77162 9.61214 2.55845 9.82895 2.29095 9.82895C2.02763 9.82478 1.81028 9.61214 1.81028 9.34946ZM3.81656 5.85546C3.81656 5.59279 4.02973 5.37598 4.29723 5.37598C4.56473 5.37598 4.7779 5.58862 4.7779 5.85546C4.7779 6.11814 4.56473 6.33495 4.29723 6.33495C4.02973 6.33495 3.81656 6.11814 3.81656 5.85546ZM6.72148 8.14866C6.72148 7.88598 6.93465 7.66917 7.20216 7.66917C7.46548 7.66917 7.68283 7.88181 7.68283 8.14866C7.68283 8.41133 7.46966 8.62815 7.20216 8.62815C6.93883 8.62815 6.72148 8.41133 6.72148 8.14866ZM8.83226 1.46086C8.83226 1.19819 9.04543 0.981375 9.31293 0.981375C9.58043 0.981375 9.7936 1.19402 9.7936 1.46086C9.7936 1.72771 9.58043 1.94035 9.31293 1.94035C9.04543 1.94035 8.83226 1.72354 8.83226 1.46086Z" fill="#CFD2D7"/>
<path d="M11.8955 10.9991H11.8286L9.93104 10.2486L9.78892 10.1902V10.3445V10.9991H0.626959V2.20566H1.34169H1.49634L1.43783 2.06389L0.626959 0.0958981V0.0125084L0.522466 0H0.518286H0.104493H0V0.104237V11.5203V11.6245H0.104493H11.8955H12V11.5203V11.1033V10.9991H11.8955Z" fill="#CFD2D7"/>
</svg>
