<svg width="320" height="568" viewBox="0 0 320 568" fill="none" xmlns="http://www.w3.org/2000/svg">
<rect width="320" height="568" fill="#2E2D44"/>
<path d="M622 894C622 1023.01 569.12 1139.67 483.853 1223.49C400.481 1305.44 286.144 1356 160 1356C-95.1556 1356 -302 1149.16 -302 894C-302 638.844 -95.1556 432 160 432C415.156 432 622 638.844 622 894Z" fill="url(#paint0_linear)"/>
<circle cx="31.0002" cy="103" r="19" fill="url(#paint1_linear)"/>
<circle r="62.5" transform="matrix(1 0 0 -1 137.5 250.5)" fill="url(#paint2_linear)"/>
<circle r="19" transform="matrix(1 9.37964e-09 9.37964e-09 -1 289 355)" fill="url(#paint3_linear)"/>
<defs>
<linearGradient id="paint0_linear" x1="337.5" y1="562.858" x2="-191.723" y2="844.998" gradientUnits="userSpaceOnUse">
<stop offset="0.0146048" stop-color="#27263D"/>
<stop offset="0.727493" stop-color="#2D2C45" stop-opacity="0.78"/>
</linearGradient>
<linearGradient id="paint1_linear" x1="12.0002" y1="103" x2="50.0002" y2="103" gradientUnits="userSpaceOnUse">
<stop stop-color="#4A4F78" stop-opacity="0.28"/>
<stop offset="1" stop-color="#34334C" stop-opacity="0.49"/>
</linearGradient>
<linearGradient id="paint2_linear" x1="0" y1="62.5" x2="125" y2="62.5" gradientUnits="userSpaceOnUse">
<stop stop-color="#4A4F78" stop-opacity="0.28"/>
<stop offset="1" stop-color="#34334C" stop-opacity="0.49"/>
</linearGradient>
<linearGradient id="paint3_linear" x1="0" y1="19" x2="38" y2="19" gradientUnits="userSpaceOnUse">
<stop stop-color="#4A4F78" stop-opacity="0.28"/>
<stop offset="1" stop-color="#34334C" stop-opacity="0.49"/>
</linearGradient>
</defs>
</svg>
