<svg width="208" height="162" viewBox="0 0 208 162" fill="none" xmlns="http://www.w3.org/2000/svg">
<path d="M140.288 158.934C128.268 159.252 113.875 158.934 103.753 158.775C93.6307 159.093 79.2381 159.252 67.2179 158.934C79.0799 152.1 83.1921 139.544 83.8247 131.28H123.523C124.472 139.544 128.584 152.259 140.288 158.934Z" fill="url(#paint0_linear)"/>
<path d="M68.4835 161H139.181C140.13 161 141.079 160.205 141.079 159.093C141.079 158.139 140.288 157.186 139.181 157.186H68.4835C67.5345 157.186 66.5856 157.98 66.5856 159.093C66.7437 160.205 67.5345 161 68.4835 161Z" fill="#353B4A"/>
<path d="M24.3568 160.206H185.839" stroke="#2B323C" stroke-width="2" stroke-miterlimit="10" stroke-linecap="round" stroke-linejoin="round"/>
<path d="M178.879 26.0654V130.008C178.879 132.551 176.823 134.458 174.451 134.458H33.8461C31.4737 134.458 29.4176 132.392 29.4176 130.008V26.0654C29.4176 23.6814 31.4737 21.6152 33.8461 21.6152H174.451C176.981 21.6152 178.879 23.5224 178.879 26.0654Z" fill="#353B4A"/>
<path d="M178.879 26.0654V115.545H29.4176V26.0654C29.4176 23.6814 31.4737 21.6152 33.8461 21.6152H174.451C176.981 21.6152 178.879 23.5224 178.879 26.0654Z" fill="#262A31"/>
<path d="M173.502 26.8601H34.7954V110.141H173.502V26.8601Z" fill="#474E61"/>
<path opacity="0.4" d="M169.864 37.1909C169.864 36.7141 169.548 36.3962 169.074 36.3962H159.109C158.635 36.3962 158.319 36.7141 158.319 37.1909V37.8266H71.1722V38.9392H158.319V39.7338C158.319 40.2106 158.635 40.5285 159.109 40.5285H169.074C169.548 40.5285 169.864 40.2106 169.864 39.7338V37.1909Z" fill="#1E242D"/>
<path opacity="0.4" d="M169.864 56.8989C169.864 56.4221 169.548 56.1042 169.074 56.1042H159.109C158.635 56.1042 158.319 56.4221 158.319 56.8989V57.5347H71.1722V58.8061H158.319V59.4419C158.319 59.9187 158.635 60.2365 159.109 60.2365H169.074C169.548 60.2365 169.864 59.9187 169.864 59.4419V56.8989Z" fill="#1E242D"/>
<path opacity="0.4" d="M169.864 76.6064C169.864 76.1296 169.548 75.8118 169.074 75.8118H159.109C158.635 75.8118 158.319 76.1296 158.319 76.6064V77.2422H71.1722V78.3547H158.319V78.9904C158.319 79.4672 158.635 79.7851 159.109 79.7851H169.074C169.548 79.7851 169.864 79.4672 169.864 78.9904V76.6064Z" fill="#1E242D"/>
<path opacity="0.4" d="M169.864 96.4729C169.864 95.9961 169.548 95.6782 169.074 95.6782H159.109C158.635 95.6782 158.319 95.9961 158.319 96.4729V97.1086H71.1722V98.2212H158.319V98.8569C158.319 99.3337 158.635 99.6516 159.109 99.6516H169.074C169.548 99.6516 169.864 99.3337 169.864 98.8569V96.4729Z" fill="#1E242D"/>
<path d="M63.8967 103.625H41.596C39.6981 103.625 38.2747 102.194 38.2747 100.287V37.6674C38.2747 35.7602 39.6981 34.3298 41.596 34.3298H63.8967C65.7946 34.3298 67.218 35.7602 67.218 37.6674V100.446C67.218 102.194 65.6364 103.625 63.8967 103.625Z" fill="#1E242D"/>
<path d="M52.8257 43.071C54.3979 43.071 55.6725 41.7901 55.6725 40.2102C55.6725 38.6302 54.3979 37.3494 52.8257 37.3494C51.2534 37.3494 49.9788 38.6302 49.9788 40.2102C49.9788 41.7901 51.2534 43.071 52.8257 43.071Z" fill="#474F61"/>
<path d="M61.8412 46.5679H43.6528C43.3364 46.5679 43.1783 46.4089 43.1783 46.0911C43.1783 45.7732 43.3364 45.6143 43.6528 45.6143H61.8412C62.1575 45.6143 62.3157 45.7732 62.3157 46.0911C62.4739 46.25 62.1575 46.5679 61.8412 46.5679Z" fill="#474F61"/>
<path d="M61.8412 50.3823H43.6528C43.3364 50.3823 43.1783 50.2234 43.1783 49.9055C43.1783 49.5876 43.3364 49.4287 43.6528 49.4287H61.8412C62.1575 49.4287 62.3157 49.5876 62.3157 49.9055C62.4739 50.2234 62.1575 50.3823 61.8412 50.3823Z" fill="#474F61"/>
<path d="M61.8412 57.0579H43.6528C43.3364 57.0579 43.1783 56.8989 43.1783 56.581C43.1783 56.2632 43.3364 56.1042 43.6528 56.1042H61.8412C62.1575 56.1042 62.3157 56.2632 62.3157 56.581C62.4739 56.74 62.1575 57.0579 61.8412 57.0579Z" fill="#474F61"/>
<path d="M50.1366 60.8718H43.4938C43.3357 60.8718 43.0193 60.7129 43.0193 60.395V60.2361C43.0193 60.0771 43.1775 59.7593 43.4938 59.7593H50.1366C50.2947 59.7593 50.6111 59.9182 50.6111 60.2361V60.395C50.6111 60.7129 50.4529 60.8718 50.1366 60.8718Z" fill="#474F61"/>
<path d="M61.8412 67.865H43.6528C43.3364 67.865 43.1783 67.706 43.1783 67.3882C43.1783 67.0703 43.3364 66.9114 43.6528 66.9114H61.8412C62.1575 66.9114 62.3157 67.0703 62.3157 67.3882C62.4739 67.5471 62.1575 67.865 61.8412 67.865Z" fill="#474F61"/>
<path d="M50.1366 71.6794H43.4938C43.3357 71.6794 43.0193 71.5205 43.0193 71.2026V71.0437C43.0193 70.8848 43.1775 70.5669 43.4938 70.5669H50.1366C50.2947 70.5669 50.6111 70.7258 50.6111 71.0437V71.2026C50.6111 71.5205 50.4529 71.6794 50.1366 71.6794Z" fill="#474F61"/>
<path d="M61.8412 78.5137H43.6528C43.3364 78.5137 43.1783 78.3547 43.1783 78.0369C43.1783 77.719 43.3364 77.5601 43.6528 77.5601H61.8412C62.1575 77.5601 62.3157 77.719 62.3157 78.0369C62.4739 78.3547 62.1575 78.5137 61.8412 78.5137Z" fill="#474F61"/>
<path d="M50.1366 82.4868H43.4938C43.3357 82.4868 43.0193 82.3279 43.0193 82.01V81.8511C43.0193 81.6921 43.1775 81.3743 43.4938 81.3743H50.1366C50.2947 81.3743 50.6111 81.5332 50.6111 81.8511V82.01C50.6111 82.3279 50.4529 82.4868 50.1366 82.4868Z" fill="url(#paint1_linear)"/>
<path d="M74.3356 83.9175H71.1724V87.414H74.3356V83.9175Z" fill="#506FE2"/>
<path d="M78.9222 73.5867H75.759V87.096H78.9222V73.5867Z" fill="url(#paint2_linear)"/>
<path d="M83.5089 68.1829H80.3456V73.5866H83.5089V68.1829Z" fill="url(#paint3_linear)"/>
<path d="M88.0955 68.1829H84.9323V71.5205H88.0955V68.1829Z" fill="#506FE2"/>
<path d="M92.6821 71.2024H89.5189V76.4472H92.6821V71.2024Z" fill="#506FE2"/>
<path d="M97.1107 68.5005H93.9474V76.6061H97.1107V68.5005Z" fill="url(#paint4_linear)"/>
<path d="M101.697 66.4348H98.5341V68.8188H101.697V66.4348Z" fill="#506FE2"/>
<path d="M106.284 58.9644H103.121V66.2753H106.284V58.9644Z" fill="url(#paint5_linear)"/>
<path d="M110.87 61.0305H107.707V66.4343H110.87V61.0305Z" fill="#506FE2"/>
<path d="M115.457 58.1697H112.294V60.5537H115.457V58.1697Z" fill="#506FE2"/>
<path d="M120.044 47.8389H116.881V58.4874H120.044V47.8389Z" fill="url(#paint6_linear)"/>
<path d="M124.472 47.8389H121.309V49.2693H124.472V47.8389Z" fill="#506FE2"/>
<path d="M129.059 49.2693H125.896V52.1301H129.059V49.2693Z" fill="url(#paint7_linear)"/>
<path d="M133.646 44.6604H130.482V52.1303H133.646V44.6604Z" fill="url(#paint8_linear)"/>
<path d="M138.232 44.6604H135.069V47.3623H138.232V44.6604Z" fill="#506FE2"/>
<path d="M142.819 44.6604H139.656V47.0444H142.819V44.6604Z" fill="url(#paint9_linear)"/>
<path d="M147.405 44.6604H144.242V57.693H147.405V44.6604Z" fill="url(#paint10_linear)"/>
<path d="M151.992 57.0574H148.829V70.0899H151.992V57.0574Z" fill="url(#paint11_linear)"/>
<path d="M156.421 71.52H153.257V74.5398H156.421V71.52Z" fill="#506FE2"/>
<path d="M161.007 66.4348H157.844V74.5404H161.007V66.4348Z" fill="url(#paint12_linear)"/>
<path d="M165.594 61.3484H162.431V66.5932H165.594V61.3484Z" fill="#506FE2"/>
<path d="M103.911 129.214C105.92 129.214 107.549 127.577 107.549 125.558C107.549 123.539 105.92 121.903 103.911 121.903C101.902 121.903 100.273 123.539 100.273 125.558C100.273 127.577 101.902 129.214 103.911 129.214Z" fill="#262A31"/>
<path d="M49.7953 18.2557C51.872 17.5774 53.0083 15.3358 52.3333 13.2489C51.6584 11.162 49.4276 10.0201 47.3509 10.6984C45.2742 11.3767 44.1378 13.6183 44.8128 15.7052C45.4878 17.7921 47.7185 18.934 49.7953 18.2557Z" fill="url(#paint13_linear)"/>
<path d="M57.5701 5.40374C59.0551 5.40374 60.2588 4.19407 60.2588 2.70187C60.2588 1.20967 59.0551 0 57.5701 0C56.0852 0 54.8814 1.20967 54.8814 2.70187C54.8814 4.19407 56.0852 5.40374 57.5701 5.40374Z" fill="#506FE2"/>
<path d="M203.305 58.7205C205.756 56.4703 205.927 52.6501 203.687 50.1879C201.448 47.7256 197.647 47.5536 195.196 49.8037C192.746 52.0539 192.575 55.8741 194.814 58.3363C197.053 60.7986 200.855 60.9706 203.305 58.7205Z" fill="url(#paint14_linear)"/>
<path d="M203.866 31.762C204.898 30.8145 204.97 29.206 204.027 28.1692C203.084 27.1325 201.484 27.06 200.452 28.0075C199.42 28.955 199.348 30.5635 200.291 31.6003C201.234 32.637 202.834 32.7094 203.866 31.762Z" fill="url(#paint15_linear)"/>
<path d="M188.211 26.5417C189.609 26.5417 190.741 25.4032 190.741 23.9987C190.741 22.5943 189.609 21.4558 188.211 21.4558C186.813 21.4558 185.68 22.5943 185.68 23.9987C185.68 25.4032 186.813 26.5417 188.211 26.5417Z" fill="#506FE2"/>
<path d="M40.8054 153.212C40.8054 156.232 38.433 158.616 35.428 158.616H5.37746C2.37241 158.616 0 156.232 0 153.212V82.8044C0 79.7846 2.37241 77.4006 5.37746 77.4006H35.2698C38.2748 77.4006 40.6473 79.7846 40.6473 82.8044V153.212H40.8054Z" fill="white"/>
<path d="M35.428 77.4006C38.433 77.4006 40.8054 79.7846 40.8054 82.8044V153.212C40.8054 156.232 38.433 158.616 35.428 158.616H5.37746C2.37241 158.616 0 156.232 0 153.212V82.8044C0 79.7846 2.37241 77.4006 5.37746 77.4006H35.428Z" fill="#262A31"/>
<path d="M38.117 82.8042V153.212C38.117 154.324 37.3262 155.437 36.3772 155.755C36.0609 155.914 35.7446 155.914 35.4282 155.914H35.2701H5.37774C5.37774 155.914 5.37774 155.914 5.21958 155.914C5.06142 155.914 4.7451 155.914 4.58694 155.755C3.47982 155.437 2.53085 154.324 2.53085 153.053V82.8042C2.53085 81.2148 3.79614 80.1023 5.21958 80.1023H9.48992C10.1226 80.1023 10.597 80.5791 10.597 81.2148C10.597 82.3274 11.546 83.281 12.6531 83.281H27.8365C28.9437 83.281 29.8926 82.3274 29.8926 81.2148C29.8926 80.5791 30.3671 80.1023 30.8416 80.1023H35.1119C36.8517 80.1023 38.117 81.3738 38.117 82.8042Z" fill="#474E61"/>
<path d="M22.9331 81.0561H18.9791C18.6628 81.0561 18.3465 80.7383 18.3465 80.4204C18.3465 80.1025 18.6628 79.7847 18.9791 79.7847H22.9331C23.2494 79.7847 23.5658 80.1025 23.5658 80.4204C23.5658 80.7383 23.2494 81.0561 22.9331 81.0561Z" fill="#474E61"/>
<path d="M16.7646 81.0561H16.4483C16.132 81.0561 15.8156 80.7383 15.8156 80.4204C15.8156 80.1025 16.132 79.7847 16.4483 79.7847H16.7646C17.0809 79.7847 17.3972 80.1025 17.3972 80.4204C17.3972 80.7383 17.0809 81.0561 16.7646 81.0561Z" fill="#474E61"/>
<path d="M203.582 134.806C203.424 135.282 203.424 135.918 203.266 136.395C202.949 137.508 202.633 138.461 202.317 139.574C202.159 140.209 201.842 140.686 201.684 141.321C198.363 148.791 192.195 154.354 184.761 157.215C184.128 157.533 183.337 157.691 182.705 158.009C182.23 158.168 181.756 158.328 181.439 158.328C177.169 159.44 172.582 159.599 167.996 158.646C151.705 155.308 141.109 139.097 144.588 122.727C147.91 106.356 164.042 95.7073 180.332 99.2039C186.184 100.475 191.404 103.336 195.516 107.469C202.475 114.462 205.638 124.793 203.582 134.806Z" fill="url(#paint16_linear)"/>
<path d="M202.136 139.557C201.978 140.193 201.662 140.67 201.504 141.147C198.182 148.617 192.014 154.179 184.581 157.04L158.484 130.816L169.239 123.982L179.361 135.902L189.8 127.161L202.136 139.557Z" fill="url(#paint17_linear)"/>
<path d="M176.988 139.239L169.713 125.889C169.555 125.571 169.08 125.412 168.764 125.571C168.606 125.571 168.606 125.73 168.606 125.73L164.81 130.657C164.652 130.975 164.177 131.134 163.861 131.134H158.958C158.484 131.134 158.009 130.657 158.009 130.18V127.319C158.009 126.842 158.484 126.366 158.958 126.366H161.647C161.963 126.366 162.279 126.207 162.596 125.889L168.764 117.942C169.238 117.306 170.187 117.147 170.82 117.624C170.978 117.783 171.136 117.942 171.136 118.101L178.254 131.292C178.412 131.61 178.886 131.769 179.203 131.61C179.361 131.61 179.361 131.451 179.361 131.451L182.84 126.683C182.998 126.366 183.473 126.207 183.789 126.207H188.85C189.325 126.207 189.799 126.683 189.799 127.16V130.021C189.799 130.498 189.325 130.975 188.85 130.975H186.162C185.845 130.975 185.529 131.134 185.213 131.451L179.361 139.239C178.886 139.875 177.937 140.034 177.305 139.557C177.147 139.557 177.147 139.398 176.988 139.239Z" fill="url(#paint18_linear)"/>
<path opacity="0.4" d="M36.3768 89.0027C36.3768 88.8438 36.2186 88.6849 36.0605 88.6849H32.8973C32.7391 88.6849 32.5809 88.8438 32.5809 89.0027V89.3206H4.74469V89.7974H32.7391V90.1153C32.7391 90.2742 32.8973 90.4331 33.0554 90.4331H36.2186C36.3768 90.4331 36.535 90.2742 36.535 90.1153V89.0027H36.3768Z" fill="#1E242D"/>
<path opacity="0.4" d="M36.3768 98.0621C36.3768 97.9031 36.2186 97.7442 36.0605 97.7442H32.8973C32.7391 97.7442 32.5809 97.9031 32.5809 98.0621V98.3799H4.74469V98.8567H32.7391V99.1746C32.7391 99.3335 32.8973 99.4925 33.0554 99.4925H36.2186C36.3768 99.4925 36.535 99.3335 36.535 99.1746V98.0621H36.3768Z" fill="#1E242D"/>
<path opacity="0.4" d="M36.3768 106.962C36.3768 106.804 36.2186 106.645 36.0605 106.645H32.8973C32.7391 106.645 32.5809 106.804 32.5809 106.962V107.28H4.74469V107.757H32.7391V108.075C32.7391 108.234 32.8973 108.393 33.0554 108.393H36.2186C36.3768 108.393 36.535 108.234 36.535 108.075V106.962H36.3768Z" fill="#1E242D"/>
<path opacity="0.4" d="M36.3768 116.022C36.3768 115.863 36.2186 115.704 36.0605 115.704H32.8973C32.7391 115.704 32.5809 115.863 32.5809 116.022V116.339H4.74469V116.816H32.7391V117.134C32.7391 117.293 32.8973 117.452 33.0554 117.452H36.2186C36.3768 117.452 36.535 117.293 36.535 117.134V116.022H36.3768Z" fill="#1E242D"/>
<path d="M6.64268 101.718H4.74475V102.989H6.64268V101.718Z" fill="url(#paint19_linear)"/>
<path d="M9.33158 95.6785H7.43365V101.877H9.33158V95.6785Z" fill="url(#paint20_linear)"/>
<path d="M12.0205 95.6785H10.1226V96.4731H12.0205V95.6785Z" fill="url(#paint21_linear)"/>
<path d="M14.7086 96.4731H12.8106V98.2214H14.7086V96.4731Z" fill="url(#paint22_linear)"/>
<path d="M17.3975 93.9299H15.4996V98.2211H17.3975V93.9299Z" fill="url(#paint23_linear)"/>
<path d="M20.0864 93.9299H18.1885V95.5193H20.0864V93.9299Z" fill="url(#paint24_linear)"/>
<path d="M22.7753 93.9299H20.8774V95.2014H22.7753V93.9299Z" fill="url(#paint25_linear)"/>
<path d="M25.6223 93.9299H23.7244V101.4H25.6223V93.9299Z" fill="url(#paint26_linear)"/>
<path d="M28.3104 101.082H26.4124V108.552H28.3104V101.082Z" fill="url(#paint27_linear)"/>
<path d="M30.9993 109.347H29.1013V111.095H30.9993V109.347Z" fill="url(#paint28_linear)"/>
<path d="M33.6882 106.327H31.7903V110.936H33.6882V106.327Z" fill="url(#paint29_linear)"/>
<path d="M36.3771 103.466H34.4792V106.486H36.3771V103.466Z" fill="url(#paint30_linear)"/>
<path d="M35.1116 132.074H5.85189C5.21925 132.074 4.58661 131.438 4.58661 130.802V123.968C4.58661 123.333 5.21925 122.697 5.85189 122.697H35.1116C35.7442 122.697 36.3769 123.333 36.3769 123.968V130.802C36.3769 131.438 35.9024 132.074 35.1116 132.074Z" fill="#373D4C"/>
<path d="M18.5046 126.67H6.64261V128.1H18.5046V126.67Z" fill="#1E242D"/>
<path d="M28.4689 130.166C28.1525 130.166 27.9944 129.849 28.1525 129.69C28.4689 128.1 30.0505 126.67 31.6321 126.67C31.7902 126.67 31.9484 126.67 32.1065 126.67C32.581 126.67 33.0555 126.67 33.3718 126.352C33.53 126.193 33.53 126.034 33.6881 125.716C33.8463 125.239 34.0045 124.763 34.6371 124.604C34.7953 124.604 35.1116 124.604 35.1116 124.922C35.1116 125.081 35.1116 125.398 34.7953 125.398C34.6371 125.398 34.479 125.716 34.3208 126.034C34.1626 126.352 34.1626 126.67 33.8463 126.988C33.3718 127.465 32.581 127.465 31.9484 127.465C31.7902 127.465 31.6321 127.465 31.4739 127.465C30.2086 127.465 28.9433 128.577 28.7852 129.849C28.7852 130.007 28.627 130.166 28.4689 130.166Z" fill="url(#paint31_linear)"/>
<path d="M35.1116 135.253H5.85189C5.21925 135.253 4.58661 135.888 4.58661 136.524V143.358C4.74477 143.994 5.21925 144.63 5.85189 144.63H35.1116C35.7442 144.63 36.3769 143.994 36.3769 143.358V136.524C36.3769 135.729 35.9024 135.253 35.1116 135.253Z" fill="#373D4C"/>
<path d="M18.5046 139.067H6.64261V140.497H18.5046V139.067Z" fill="#1E242D"/>
<path d="M28.4689 137.16C28.1525 137.16 27.9944 137.478 28.1525 137.637C28.4689 139.226 30.0505 140.656 31.6321 140.656C31.7902 140.656 31.9484 140.656 32.1065 140.656C32.581 140.656 33.0555 140.656 33.3718 140.974C33.53 141.133 33.53 141.292 33.6881 141.61C33.8463 142.087 34.0045 142.564 34.6371 142.723C34.7953 142.723 35.1116 142.723 35.1116 142.405C35.1116 142.246 35.1116 141.928 34.7953 141.928C34.6371 141.928 34.479 141.61 34.3208 141.292C34.1626 140.974 34.1626 140.656 33.8463 140.339C33.3718 139.862 32.7392 139.862 32.1065 139.862C31.9484 139.862 31.7902 139.862 31.6321 139.862C30.3668 139.862 29.1015 138.749 28.9433 137.478C28.7852 137.319 28.627 137.16 28.4689 137.16Z" fill="url(#paint32_linear)"/>
<path d="M36.3769 149.08V155.914C36.0606 156.073 35.7442 156.073 35.4279 156.073H35.2697H5.37741C5.37741 156.073 5.37741 156.073 5.21925 156.073C5.06109 156.073 4.74477 156.073 4.58661 155.914V149.08C4.58661 148.444 5.21925 147.808 5.85189 147.808H35.1116C35.9024 147.808 36.3769 148.444 36.3769 149.08Z" fill="#373D4C"/>
<path d="M18.5046 151.941H6.64261V153.371H18.5046V151.941Z" fill="#1E242D"/>
<path d="M28.4689 149.715C28.1525 149.715 27.9944 150.033 28.1525 150.192C28.4689 151.781 30.0505 153.212 31.6321 153.212C31.7902 153.212 31.9484 153.212 32.1065 153.212C32.581 153.212 33.0555 153.212 33.3718 153.529C33.53 153.688 33.53 153.847 33.6881 154.165C33.8463 154.642 34.0045 155.119 34.6371 155.278C34.7953 155.278 35.1116 155.278 35.1116 154.96C35.1116 154.801 35.1116 154.483 34.7953 154.483C34.6371 154.483 34.479 154.165 34.3208 153.847C34.1626 153.53 34.1626 153.212 33.8463 152.894C33.3718 152.417 32.581 152.417 31.9484 152.417C31.7902 152.417 31.6321 152.417 31.4739 152.417C30.2086 152.417 28.9433 151.304 28.7852 150.033C28.7852 149.874 28.627 149.715 28.4689 149.715Z" fill="url(#paint33_linear)"/>
<defs>
<linearGradient id="paint0_linear" x1="103.597" y1="158.391" x2="103.597" y2="133.521" gradientUnits="userSpaceOnUse">
<stop stop-color="#474755"/>
<stop offset="0.9913" stop-color="#2F3338"/>
</linearGradient>
<linearGradient id="paint1_linear" x1="43.1563" y1="81.9151" x2="50.5851" y2="81.9151" gradientUnits="userSpaceOnUse">
<stop stop-color="#FF66A9"/>
<stop offset="1" stop-color="#F53689"/>
</linearGradient>
<linearGradient id="paint2_linear" x1="75.759" y1="80.3413" x2="78.9222" y2="80.3413" gradientUnits="userSpaceOnUse">
<stop stop-color="#16D9E3"/>
<stop offset="0.47" stop-color="#30C7EC"/>
<stop offset="1" stop-color="#46AEF7"/>
</linearGradient>
<linearGradient id="paint3_linear" x1="80.3456" y1="70.8847" x2="83.5089" y2="70.8847" gradientUnits="userSpaceOnUse">
<stop stop-color="#16D9E3"/>
<stop offset="0.47" stop-color="#30C7EC"/>
<stop offset="1" stop-color="#46AEF7"/>
</linearGradient>
<linearGradient id="paint4_linear" x1="93.9474" y1="72.5533" x2="97.1107" y2="72.5533" gradientUnits="userSpaceOnUse">
<stop stop-color="#16D9E3"/>
<stop offset="0.47" stop-color="#30C7EC"/>
<stop offset="1" stop-color="#46AEF7"/>
</linearGradient>
<linearGradient id="paint5_linear" x1="103.121" y1="62.6198" x2="106.284" y2="62.6198" gradientUnits="userSpaceOnUse">
<stop stop-color="#16D9E3"/>
<stop offset="0.47" stop-color="#30C7EC"/>
<stop offset="1" stop-color="#46AEF7"/>
</linearGradient>
<linearGradient id="paint6_linear" x1="116.881" y1="53.1631" x2="120.044" y2="53.1631" gradientUnits="userSpaceOnUse">
<stop stop-color="#16D9E3"/>
<stop offset="0.47" stop-color="#30C7EC"/>
<stop offset="1" stop-color="#46AEF7"/>
</linearGradient>
<linearGradient id="paint7_linear" x1="125.896" y1="50.6997" x2="129.059" y2="50.6997" gradientUnits="userSpaceOnUse">
<stop stop-color="#16D9E3"/>
<stop offset="0.47" stop-color="#30C7EC"/>
<stop offset="1" stop-color="#46AEF7"/>
</linearGradient>
<linearGradient id="paint8_linear" x1="130.482" y1="48.3953" x2="133.646" y2="48.3953" gradientUnits="userSpaceOnUse">
<stop stop-color="#16D9E3"/>
<stop offset="0.47" stop-color="#30C7EC"/>
<stop offset="1" stop-color="#46AEF7"/>
</linearGradient>
<linearGradient id="paint9_linear" x1="139.656" y1="45.8524" x2="142.819" y2="45.8524" gradientUnits="userSpaceOnUse">
<stop stop-color="#16D9E3"/>
<stop offset="0.47" stop-color="#30C7EC"/>
<stop offset="1" stop-color="#46AEF7"/>
</linearGradient>
<linearGradient id="paint10_linear" x1="144.242" y1="51.1767" x2="147.405" y2="51.1767" gradientUnits="userSpaceOnUse">
<stop stop-color="#16D9E3"/>
<stop offset="0.47" stop-color="#30C7EC"/>
<stop offset="1" stop-color="#46AEF7"/>
</linearGradient>
<linearGradient id="paint11_linear" x1="148.829" y1="63.5736" x2="151.992" y2="63.5736" gradientUnits="userSpaceOnUse">
<stop stop-color="#16D9E3"/>
<stop offset="0.47" stop-color="#30C7EC"/>
<stop offset="1" stop-color="#46AEF7"/>
</linearGradient>
<linearGradient id="paint12_linear" x1="157.844" y1="70.4876" x2="161.007" y2="70.4876" gradientUnits="userSpaceOnUse">
<stop stop-color="#16D9E3"/>
<stop offset="0.47" stop-color="#30C7EC"/>
<stop offset="1" stop-color="#46AEF7"/>
</linearGradient>
<linearGradient id="paint13_linear" x1="44.8128" y1="15.7052" x2="52.3403" y2="13.2705" gradientUnits="userSpaceOnUse">
<stop stop-color="#16D9E3"/>
<stop offset="0.47" stop-color="#30C7EC"/>
<stop offset="1" stop-color="#46AEF7"/>
</linearGradient>
<linearGradient id="paint14_linear" x1="194.814" y1="58.3363" x2="203.727" y2="50.2312" gradientUnits="userSpaceOnUse">
<stop stop-color="#16D9E3"/>
<stop offset="0.47" stop-color="#30C7EC"/>
<stop offset="1" stop-color="#46AEF7"/>
</linearGradient>
<linearGradient id="paint15_linear" x1="200.291" y1="31.6003" x2="204.044" y2="28.1877" gradientUnits="userSpaceOnUse">
<stop stop-color="#16D9E3"/>
<stop offset="0.47" stop-color="#30C7EC"/>
<stop offset="1" stop-color="#46AEF7"/>
</linearGradient>
<linearGradient id="paint16_linear" x1="151.817" y1="106.531" x2="196.09" y2="150.589" gradientUnits="userSpaceOnUse">
<stop stop-color="#2CF2E3"/>
<stop offset="1" stop-color="#23DE6C"/>
</linearGradient>
<linearGradient id="paint17_linear" x1="176.772" y1="131.677" x2="193.099" y2="147.925" gradientUnits="userSpaceOnUse">
<stop stop-color="#21C29A"/>
<stop offset="1" stop-color="#19B33C" stop-opacity="0"/>
</linearGradient>
<linearGradient id="paint18_linear" x1="181.528" y1="136.128" x2="167.555" y2="122.639" gradientUnits="userSpaceOnUse">
<stop offset="0.0113208" stop-color="#B0FFD7"/>
<stop offset="1" stop-color="white"/>
</linearGradient>
<linearGradient id="paint19_linear" x1="4.74547" y1="102.33" x2="6.65027" y2="102.33" gradientUnits="userSpaceOnUse">
<stop stop-color="#FF66A9"/>
<stop offset="1" stop-color="#F53689"/>
</linearGradient>
<linearGradient id="paint20_linear" x1="7.43365" y1="98.7777" x2="9.33158" y2="98.7777" gradientUnits="userSpaceOnUse">
<stop stop-color="#16D9E3"/>
<stop offset="0.47" stop-color="#30C7EC"/>
<stop offset="1" stop-color="#46AEF7"/>
</linearGradient>
<linearGradient id="paint21_linear" x1="10.1233" y1="96.0616" x2="12.0281" y2="96.0616" gradientUnits="userSpaceOnUse">
<stop stop-color="#FF66A9"/>
<stop offset="1" stop-color="#F53689"/>
</linearGradient>
<linearGradient id="paint22_linear" x1="12.8114" y1="97.3159" x2="14.7162" y2="97.3159" gradientUnits="userSpaceOnUse">
<stop stop-color="#FF66A9"/>
<stop offset="1" stop-color="#F53689"/>
</linearGradient>
<linearGradient id="paint23_linear" x1="15.4996" y1="96.0755" x2="17.3975" y2="96.0755" gradientUnits="userSpaceOnUse">
<stop stop-color="#16D9E3"/>
<stop offset="0.47" stop-color="#30C7EC"/>
<stop offset="1" stop-color="#46AEF7"/>
</linearGradient>
<linearGradient id="paint24_linear" x1="18.1892" y1="94.6961" x2="20.094" y2="94.6961" gradientUnits="userSpaceOnUse">
<stop stop-color="#FF66A9"/>
<stop offset="1" stop-color="#F53689"/>
</linearGradient>
<linearGradient id="paint25_linear" x1="20.8774" y1="94.5657" x2="22.7753" y2="94.5657" gradientUnits="userSpaceOnUse">
<stop stop-color="#16D9E3"/>
<stop offset="0.47" stop-color="#30C7EC"/>
<stop offset="1" stop-color="#46AEF7"/>
</linearGradient>
<linearGradient id="paint26_linear" x1="23.7244" y1="97.6649" x2="25.6223" y2="97.6649" gradientUnits="userSpaceOnUse">
<stop stop-color="#16D9E3"/>
<stop offset="0.47" stop-color="#30C7EC"/>
<stop offset="1" stop-color="#46AEF7"/>
</linearGradient>
<linearGradient id="paint27_linear" x1="26.4124" y1="104.817" x2="28.3104" y2="104.817" gradientUnits="userSpaceOnUse">
<stop stop-color="#16D9E3"/>
<stop offset="0.47" stop-color="#30C7EC"/>
<stop offset="1" stop-color="#46AEF7"/>
</linearGradient>
<linearGradient id="paint28_linear" x1="29.1021" y1="110.189" x2="31.0069" y2="110.189" gradientUnits="userSpaceOnUse">
<stop stop-color="#FF66A9"/>
<stop offset="1" stop-color="#F53689"/>
</linearGradient>
<linearGradient id="paint29_linear" x1="31.7903" y1="108.632" x2="33.6882" y2="108.632" gradientUnits="userSpaceOnUse">
<stop stop-color="#16D9E3"/>
<stop offset="0.47" stop-color="#30C7EC"/>
<stop offset="1" stop-color="#46AEF7"/>
</linearGradient>
<linearGradient id="paint30_linear" x1="34.4799" y1="104.922" x2="36.3847" y2="104.922" gradientUnits="userSpaceOnUse">
<stop stop-color="#FF66A9"/>
<stop offset="1" stop-color="#F53689"/>
</linearGradient>
<linearGradient id="paint31_linear" x1="28.0905" y1="127.385" x2="35.1116" y2="127.385" gradientUnits="userSpaceOnUse">
<stop stop-color="#16D9E3"/>
<stop offset="0.47" stop-color="#30C7EC"/>
<stop offset="1" stop-color="#46AEF7"/>
</linearGradient>
<linearGradient id="paint32_linear" x1="28.0931" y1="139.842" x2="35.1397" y2="139.842" gradientUnits="userSpaceOnUse">
<stop stop-color="#FF66A9"/>
<stop offset="1" stop-color="#F53689"/>
</linearGradient>
<linearGradient id="paint33_linear" x1="28.0931" y1="152.397" x2="35.1397" y2="152.397" gradientUnits="userSpaceOnUse">
<stop stop-color="#FF66A9"/>
<stop offset="1" stop-color="#F53689"/>
</linearGradient>
</defs>
</svg>
