<svg width="48" height="48" viewBox="0 0 48 48" fill="none" xmlns="http://www.w3.org/2000/svg">
<path d="M11 8H4V15H11V8Z" stroke="#1549D0" stroke-width="2" stroke-miterlimit="10" stroke-linecap="round" stroke-linejoin="round"/>
<path d="M40 10H18V13H40V10Z" stroke="#22DDDD" stroke-width="2" stroke-miterlimit="10" stroke-linecap="round" stroke-linejoin="round"/>
<path d="M11 37H4V44H11V37Z" stroke="#1549D0" stroke-width="2" stroke-miterlimit="10" stroke-linecap="round" stroke-linejoin="round"/>
<path d="M40 39H18V42H40V39Z" stroke="#22DDDD" stroke-width="2" stroke-miterlimit="10" stroke-linecap="round" stroke-linejoin="round"/>
<path d="M11 22H4V30H11V22Z" stroke="#1549D0" stroke-width="2" stroke-miterlimit="10" stroke-linecap="round" stroke-linejoin="round"/>
<path d="M11 8H4V15H11V8Z" fill="url(#paint0_linear)"/>
<path d="M11 37H4V44H11V37Z" fill="url(#paint1_linear)"/>
<path d="M11 22H4V30H11V22Z" fill="url(#paint2_linear)"/>
<path d="M40 24H18V28H40V24Z" stroke="#22DDDD" stroke-width="2" stroke-miterlimit="10" stroke-linecap="round" stroke-linejoin="round"/>
<defs>
<linearGradient id="paint0_linear" x1="7.5" y1="8" x2="7.5" y2="15" gradientUnits="userSpaceOnUse">
<stop stop-color="#081AFF" stop-opacity="0.67"/>
<stop offset="1" stop-color="#081AFF" stop-opacity="0"/>
</linearGradient>
<linearGradient id="paint1_linear" x1="7.5" y1="37" x2="7.5" y2="44" gradientUnits="userSpaceOnUse">
<stop stop-color="#081AFF" stop-opacity="0.67"/>
<stop offset="1" stop-color="#081AFF" stop-opacity="0"/>
</linearGradient>
<linearGradient id="paint2_linear" x1="7.5" y1="22" x2="7.5" y2="30" gradientUnits="userSpaceOnUse">
<stop stop-color="#081AFF" stop-opacity="0.67"/>
<stop offset="1" stop-color="#081AFF" stop-opacity="0"/>
</linearGradient>
</defs>
</svg>
