<svg width="80" height="80" viewBox="0 0 80 80" fill="none" xmlns="http://www.w3.org/2000/svg">
    <g filter="">
        <path d="M54.9518 36.399C54.4236 35.589 53.673 34.779 52.7 34.266C51.9216 33.888 51.4212 33.267 50.9763 32.538C49.5585 30.216 50.3925 27.165 52.7556 25.788C55.5356 24.249 56.4252 20.82 54.8128 18.147L52.9502 14.961C51.3656 12.288 47.8905 11.343 45.1383 12.909C42.6918 14.205 39.5504 13.341 38.1325 11.046C37.6877 10.29 37.4375 9.48 37.4931 8.67C37.5765 7.617 37.2429 6.618 36.7425 5.808C35.7139 4.134 33.8513 3 31.794 3H27.8742C25.8448 3.054 23.9821 4.134 22.9535 5.808C22.4253 6.618 22.1195 7.617 22.1751 8.67C22.2307 9.48 21.9805 10.29 21.5357 11.046C20.1179 13.341 16.9764 14.205 14.5578 12.909C11.7777 11.343 8.33048 12.288 6.71806 14.961L4.85543 18.147C3.2708 20.82 4.16042 24.249 6.91266 25.788C9.2757 27.165 10.1097 30.216 8.71969 32.538C8.24708 33.267 7.74667 33.888 6.96826 34.266C6.02304 34.779 5.18903 35.589 4.74422 36.399C3.71561 38.073 3.77121 40.179 4.79983 41.934L6.71806 45.174C7.74667 46.902 9.6649 47.982 11.6665 47.982C12.6117 47.982 13.7238 47.712 14.6134 47.172C15.3084 46.713 16.1424 46.551 17.0598 46.551C19.8121 46.551 22.1195 48.792 22.1751 51.465C22.1751 54.57 24.7327 57 27.9576 57H31.7384C34.9355 57 37.4931 54.57 37.4931 51.465C37.5765 48.792 39.884 46.551 42.6362 46.551C43.5258 46.551 44.3598 46.713 45.0827 47.172C45.9723 47.712 47.0565 47.982 48.0295 47.982C50.0033 47.982 51.9216 46.902 52.9502 45.174L54.8962 41.934C55.897 40.125 55.9804 38.073 54.9518 36.399Z" fill="url(#paint0_linear)" />
    </g>
    <g opacity="0.5" filter="">
        <path d="M42.9656 33.4455C42.6932 33.0286 42.3062 32.6117 41.8045 32.3477C41.4031 32.1531 41.1451 31.8335 40.9157 31.4583C40.1847 30.2631 40.6147 28.6927 41.8331 27.984C43.2666 27.1919 43.7253 25.4269 42.8939 24.0511L41.9335 22.4113C41.1164 21.0355 39.3246 20.5491 37.9055 21.3551C36.644 22.0222 35.0242 21.5775 34.2931 20.3962C34.0638 20.0071 33.9348 19.5902 33.9635 19.1733C34.0065 18.6313 33.8344 18.1171 33.5764 17.7002C33.046 16.8386 32.0856 16.2549 31.0249 16.2549H29.0037C27.9573 16.2827 26.9968 16.8386 26.4665 17.7002C26.1941 18.1171 26.0364 18.6313 26.0651 19.1733C26.0938 19.5902 25.9647 20.0071 25.7354 20.3962C25.0043 21.5775 23.3845 22.0222 22.1374 21.3551C20.704 20.5491 18.9265 21.0355 18.0951 22.4113L17.1346 24.0511C16.3176 25.4269 16.7763 27.1919 18.1954 27.984C19.4138 28.6927 19.8439 30.2631 19.1271 31.4583C18.8835 31.8335 18.6254 32.1531 18.2241 32.3477C17.7367 32.6117 17.3067 33.0286 17.0773 33.4455C16.5469 34.3072 16.5756 35.3911 17.106 36.2944L18.0951 37.9621C18.6254 38.8515 19.6145 39.4074 20.6466 39.4074C21.134 39.4074 21.7074 39.2684 22.1661 38.9905C22.5244 38.7542 22.9545 38.6708 23.4275 38.6708C24.8467 38.6708 26.0364 39.8243 26.0651 41.2001C26.0651 42.7983 27.3839 44.049 29.0467 44.049H30.9962C32.6447 44.049 33.9635 42.7983 33.9635 41.2001C34.0065 39.8243 35.1962 38.6708 36.6154 38.6708C37.0741 38.6708 37.5041 38.7542 37.8768 38.9905C38.3355 39.2684 38.8946 39.4074 39.3963 39.4074C40.414 39.4074 41.4031 38.8515 41.9335 37.9621L42.9369 36.2944C43.453 35.3633 43.496 34.3072 42.9656 33.4455Z" fill="url(#paint1_linear)" />
    </g>
    <g filter="">
        <path d="M78.1478 55.347C77.5346 54.417 76.6633 53.487 75.5337 52.898C74.6301 52.464 74.0492 51.751 73.5328 50.914C71.8869 48.248 72.8551 44.745 75.5983 43.164C78.8255 41.397 79.8582 37.46 77.9864 34.391L75.8242 30.733C73.9846 27.664 69.9506 26.579 66.7556 28.377C63.9157 29.865 60.2689 28.873 58.623 26.238C58.1067 25.37 57.8162 24.44 57.8808 23.51C57.9776 22.301 57.5903 21.154 57.0094 20.224C55.8153 18.302 53.6531 17 51.2649 17H46.7145C44.3586 17.062 42.1964 18.302 41.0023 20.224C40.3891 21.154 40.0342 22.301 40.0987 23.51C40.1632 24.44 39.8728 25.37 39.3564 26.238C37.7105 28.873 34.0638 29.865 31.2561 28.377C28.0288 26.579 24.0271 27.664 22.1553 30.733L19.993 34.391C18.1535 37.46 19.1862 41.397 22.3812 43.164C25.1243 44.745 26.0925 48.248 24.4789 50.914C23.9303 51.751 23.3494 52.464 22.4457 52.898C21.3485 53.487 20.3803 54.417 19.8639 55.347C18.6699 57.269 18.7344 59.687 19.9285 61.702L22.1553 65.422C23.3494 67.406 25.5761 68.646 27.8998 68.646C28.997 68.646 30.2879 68.336 31.3206 67.716C32.1274 67.189 33.0956 67.003 34.1606 67.003C37.3555 67.003 40.0342 69.576 40.0987 72.645C40.0987 76.21 43.0678 79 46.8113 79H51.2004C54.9117 79 57.8808 76.21 57.8808 72.645C57.9776 69.576 60.6562 67.003 63.8511 67.003C64.8839 67.003 65.852 67.189 66.6911 67.716C67.7238 68.336 68.9824 68.646 70.112 68.646C72.4033 68.646 74.6301 67.406 75.8242 65.422L78.0832 61.702C79.245 59.625 79.3419 57.269 78.1478 55.347Z" fill="url(#paint2_linear)" />
        <path d="M78.5726 55.083L78.5725 55.0831C79.8789 57.186 79.754 59.7393 78.5196 61.9461C78.5167 61.9513 78.5137 61.9564 78.5106 61.9615L76.2526 65.6798C76.2524 65.6801 76.2522 65.6804 76.252 65.6807C74.9665 67.816 72.5766 69.146 70.112 69.146C68.8998 69.146 67.5508 68.8153 66.4337 68.1447L66.4251 68.1395L66.4252 68.1394C65.6919 67.6789 64.8263 67.503 63.8511 67.503C60.9195 67.503 58.4729 69.8666 58.3807 72.6532C58.3762 76.5154 55.1594 79.5 51.2004 79.5H46.8113C42.8207 79.5 39.6017 76.5154 39.5987 72.6505C39.5373 69.868 37.0943 67.503 34.1606 67.503C33.1489 67.503 32.2893 67.6805 31.5941 68.1346C31.5888 68.1381 31.5834 68.1414 31.578 68.1447C30.46 68.8159 29.0785 69.146 27.8998 69.146C25.4038 69.146 23.013 67.8167 21.7269 65.6798L21.7263 65.6788L19.4995 61.9588L19.4983 61.9569C18.2215 59.8023 18.1369 57.1885 19.4328 55.0935C20.0028 54.0731 21.0427 53.0836 22.2092 52.4575C22.2158 52.4539 22.2225 52.4505 22.2293 52.4473C23.0049 52.0748 23.5232 51.4589 24.0557 50.6475C25.5101 48.2349 24.6418 45.0466 22.1352 43.5993C18.6963 41.6946 17.5802 37.4455 19.5634 34.1352C19.5637 34.1348 19.5639 34.1344 19.5642 34.1339L21.7248 30.4786L21.7284 30.4726L21.7284 30.4726C23.7394 27.1755 28.0342 26.0129 31.4947 27.9376C34.07 29.2993 37.4231 28.3838 38.9295 25.9777C39.4078 25.1721 39.6554 24.3446 39.5999 23.5446L39.5993 23.5367L39.5994 23.5367C39.5289 22.2152 39.9161 20.9656 40.5812 19.9544C41.8667 17.8897 44.1834 16.5664 46.7014 16.5002L46.7145 16.4998V16.5H51.2649C53.8349 16.5 56.1531 17.899 57.4335 19.9591L78.5726 55.083ZM78.5726 55.083L78.5652 55.0718M78.5726 55.083L78.5652 55.0718M78.5652 55.0718C77.9197 54.0927 76.9901 53.0935 75.7649 52.4547L75.7502 52.4473M78.5652 55.0718L75.7502 52.4473M75.7502 52.4473C74.9734 52.0742 74.455 51.4565 73.9584 50.6515L73.9583 50.6513M75.7502 52.4473L73.9583 50.6513M73.9583 50.6513C72.4694 48.2397 73.3348 45.0489 75.8433 43.5998C79.3143 41.696 80.4329 37.4459 78.4152 34.1338C78.4146 34.1328 78.4139 34.1317 78.4133 34.1307L76.2546 30.4786L76.253 30.4759M73.9583 50.6513L76.253 30.4759M76.253 30.4759C74.2745 27.175 69.9452 26.013 66.5172 27.9375M76.253 30.4759L66.5172 27.9375M66.5172 27.9375C63.9073 29.3006 60.555 28.3816 59.0499 25.9777C58.5722 25.173 58.3246 24.3464 58.3794 23.5474C58.3794 23.5464 58.3795 23.5455 58.3796 23.5446L57.8808 23.51M66.5172 27.9375L57.4341 19.9601L57.0094 20.224C57.5903 21.154 57.9776 22.301 57.8808 23.51M57.8808 23.51C57.8162 24.44 58.1067 25.37 58.623 26.238L57.8808 23.51Z" stroke="url(#paint3_linear)" stroke-linecap="round" stroke-linejoin="round" />
    </g>
    <g filter="">
        <path d="M49.0467 56.5311C43.9799 56.5311 39.8813 52.6561 39.8813 47.7891C39.8813 42.9221 43.9799 39.0161 49.0467 39.0161C54.1134 39.0161 58.1152 42.9221 58.1152 47.7891C58.1152 52.6561 54.1134 56.5311 49.0467 56.5311Z" fill="url(#paint4_linear)" />
        <path d="M49.0467 56.3311C44.0808 56.3311 40.0813 52.5363 40.0813 47.7891C40.0813 43.041 44.0818 39.2161 49.0467 39.2161C54.0088 39.2161 57.9152 43.0383 57.9152 47.7891C57.9152 52.5391 54.0097 56.3311 49.0467 56.3311Z" stroke="url(#paint5_linear)" stroke-width="0.4" />
    </g>
    <defs>
        <filter id="filter0_b" x="-9" y="-10" width="77.6859" height="80" filterUnits="userSpaceOnUse" color-interpolation-filters="sRGB">
            <feFlood flood-opacity="0" result="BackgroundImageFix" />
            <feGaussianBlur in="BackgroundImage" stdDeviation="6.5" />
            <feComposite in2="SourceAlpha" operator="in" result="effect1_backgroundBlur" />
            <feBlend mode="normal" in="SourceGraphic" in2="effect1_backgroundBlur" result="shape" />
        </filter>
        <filter id="filter1_f" x="0.693558" y="0.254883" width="58.6506" height="59.7941" filterUnits="userSpaceOnUse" color-interpolation-filters="sRGB">
            <feFlood flood-opacity="0" result="BackgroundImageFix" />
            <feBlend mode="normal" in="SourceGraphic" in2="BackgroundImageFix" result="shape" />
            <feGaussianBlur stdDeviation="8" result="effect1_foregroundBlur" />
        </filter>
        <filter id="filter2_b" x="-6.00005" y="-8" width="110" height="112" filterUnits="userSpaceOnUse" color-interpolation-filters="sRGB">
            <feFlood flood-opacity="0" result="BackgroundImageFix" />
            <feGaussianBlur in="BackgroundImage" stdDeviation="12" />
            <feComposite in2="SourceAlpha" operator="in" result="effect1_backgroundBlur" />
            <feBlend mode="normal" in="SourceGraphic" in2="effect1_backgroundBlur" result="shape" />
        </filter>
        <filter id="filter3_b" x="24.8813" y="24.0161" width="48.2339" height="47.515" filterUnits="userSpaceOnUse" color-interpolation-filters="sRGB">
            <feFlood flood-opacity="0" result="BackgroundImageFix" />
            <feGaussianBlur in="BackgroundImage" stdDeviation="7.5" />
            <feComposite in2="SourceAlpha" operator="in" result="effect1_backgroundBlur" />
            <feBlend mode="normal" in="SourceGraphic" in2="effect1_backgroundBlur" result="shape" />
        </filter>
        <linearGradient id="paint0_linear" x1="4" y1="30" x2="55.6859" y2="30" gradientUnits="userSpaceOnUse">
            <stop stop-color="#16D9E3" />
            <stop offset="0.47" stop-color="#30C7EC" />
            <stop offset="1" stop-color="#46AEF7" />
        </linearGradient>
        <linearGradient id="paint1_linear" x1="16.6936" y1="30.1519" x2="43.3441" y2="30.1519" gradientUnits="userSpaceOnUse">
            <stop stop-color="#16D9E3" />
            <stop offset="0.47" stop-color="#30C7EC" />
            <stop offset="1" stop-color="#46AEF7" />
        </linearGradient>
        <linearGradient id="paint2_linear" x1="18.7047" y1="47.9877" x2="78.929" y2="47.9877" gradientUnits="userSpaceOnUse">
            <stop stop-color="#83A6FF" />
            <stop offset="1" stop-color="#4D6DE2" />
        </linearGradient>
        <linearGradient id="paint3_linear" x1="28.551" y1="24.2231" x2="68.3541" y2="71.9299" gradientUnits="userSpaceOnUse">
            <stop stop-color="white" stop-opacity="0.25" />
            <stop offset="1" stop-color="white" stop-opacity="0" />
        </linearGradient>
        <linearGradient id="paint4_linear" x1="56.8224" y1="42.179" x2="36.5135" y2="42.8683" gradientUnits="userSpaceOnUse">
            <stop stop-color="white" />
            <stop offset="1" stop-color="white" stop-opacity="0.2" />
        </linearGradient>
        <linearGradient id="paint5_linear" x1="42.7839" y1="41.0566" x2="53.8538" y2="55.3297" gradientUnits="userSpaceOnUse">
            <stop stop-color="white" stop-opacity="0.25" />
            <stop offset="1" stop-color="white" stop-opacity="0" />
        </linearGradient>
    </defs>
</svg>
