<svg width="91" height="94" viewBox="0 0 91 94" fill="none" xmlns="http://www.w3.org/2000/svg">
    <path d="M50.9766 16.6293L26.8479 22.9541C18.0958 25.2482 14.3731 31.5972 16.726 40.1873L24.6947 69.2811C27.0861 78.012 33.5242 81.5769 42.2763 79.2827L66.405 72.9579C75.2982 70.6267 78.9078 64.4281 76.5163 55.6972L68.5476 26.6035C66.1948 18.0133 59.8698 14.2981 50.9766 16.6293Z" fill="url(#paint0_linear)" />
    <g filter="url(#filter0_f)">
        <rect width="37.7124" height="32.5485" rx="14" transform="matrix(-0.26417 -0.964476 0.967319 -0.253561 34.4652 69.1331)" fill="url(#paint1_linear)" />
    </g>
    <g filter="">
        <path d="M73.6666 31.6843H48.6867C39.6259 31.6843 34.3503 36.8744 34.3503 45.7676V75.8876C34.3503 84.9265 39.6259 90 48.6867 90H73.6666C82.8735 90 88 84.9265 88 75.8876V45.7676C88 36.8744 82.8735 31.6843 73.6666 31.6843Z" fill="url(#paint2_linear)" />
        <path d="M73.6666 31.1843H48.6867C44.0621 31.1843 40.3386 32.5103 37.7702 35.0344C35.2007 37.5596 33.8503 41.222 33.8503 45.7676V75.8876C33.8503 80.5042 35.1996 84.1752 37.771 86.6908C40.3409 89.2048 44.0651 90.5 48.6867 90.5H73.6666C78.3594 90.5 82.0847 89.2058 84.6369 86.6895C87.1902 84.1721 88.5 80.5003 88.5 75.8876V45.7676C88.5 41.2258 87.1891 37.5627 84.6377 35.0358C82.0869 32.5094 78.3624 31.1843 73.6666 31.1843Z" stroke="url(#paint3_linear)" stroke-linecap="round" stroke-linejoin="round" />
    </g>
    <g filter="">
        <mask id="path-5-inside-1" fill="white">
            <path fill-rule="evenodd" clip-rule="evenodd" d="M49.4913 45.2439V45.2731C48.2067 45.2731 47.1665 46.2936 47.1665 47.5474C47.1665 48.8012 48.2067 49.8217 49.4913 49.8217H58.4001C59.6847 49.8217 60.7279 48.8012 60.7279 47.5153C60.7279 46.2644 59.6847 45.2439 58.4001 45.2439H49.4913ZM72.8587 63.0015H49.4913C48.2067 63.0015 47.1665 61.981 47.1665 60.7272C47.1665 59.4734 48.2067 58.45 49.4913 58.45H72.8587C74.1403 58.45 75.1835 59.4734 75.1835 60.7272C75.1835 61.981 74.1403 63.0015 72.8587 63.0015ZM72.8589 76.3265H49.4915C48.5974 76.4431 47.733 76.0057 47.2561 75.2768C46.7792 74.5187 46.7792 73.5565 47.2561 72.8275C47.733 72.0694 48.5974 71.6612 49.4915 71.7487H72.8589C74.0482 71.8653 74.9453 72.8567 74.9453 74.0522C74.9453 75.2156 74.0482 76.2098 72.8589 76.3265Z" />
        </mask>
        <path fill-rule="evenodd" clip-rule="evenodd" d="M49.4913 45.2439V45.2731C48.2067 45.2731 47.1665 46.2936 47.1665 47.5474C47.1665 48.8012 48.2067 49.8217 49.4913 49.8217H58.4001C59.6847 49.8217 60.7279 48.8012 60.7279 47.5153C60.7279 46.2644 59.6847 45.2439 58.4001 45.2439H49.4913ZM72.8587 63.0015H49.4913C48.2067 63.0015 47.1665 61.981 47.1665 60.7272C47.1665 59.4734 48.2067 58.45 49.4913 58.45H72.8587C74.1403 58.45 75.1835 59.4734 75.1835 60.7272C75.1835 61.981 74.1403 63.0015 72.8587 63.0015ZM72.8589 76.3265H49.4915C48.5974 76.4431 47.733 76.0057 47.2561 75.2768C46.7792 74.5187 46.7792 73.5565 47.2561 72.8275C47.733 72.0694 48.5974 71.6612 49.4915 71.7487H72.8589C74.0482 71.8653 74.9453 72.8567 74.9453 74.0522C74.9453 75.2156 74.0482 76.2098 72.8589 76.3265Z" fill="url(#paint4_linear)" />
        <path d="M49.4913 45.2731V45.6731H49.8913V45.2731H49.4913ZM49.4913 45.2439V44.8439H49.0913V45.2439H49.4913ZM49.4915 76.3265V75.9265H49.4655L49.4398 75.9298L49.4915 76.3265ZM72.8589 76.3265V76.7265H72.8785L72.898 76.7246L72.8589 76.3265ZM47.2561 75.2768L46.9175 75.4898L46.9214 75.4958L47.2561 75.2768ZM47.2561 72.8275L47.5909 73.0466L47.5947 73.0405L47.2561 72.8275ZM49.4915 71.7487L49.4526 72.1468L49.472 72.1487H49.4915V71.7487ZM72.8589 71.7487L72.898 71.3506L72.8785 71.3487H72.8589V71.7487ZM49.8913 45.2731V45.2439H49.0913V45.2731H49.8913ZM47.5665 47.5474C47.5665 46.5224 48.4196 45.6731 49.4913 45.6731V44.8731C47.9937 44.8731 46.7665 46.0648 46.7665 47.5474H47.5665ZM49.4913 49.4217C48.4196 49.4217 47.5665 48.5723 47.5665 47.5474H46.7665C46.7665 49.03 47.9937 50.2217 49.4913 50.2217V49.4217ZM58.4001 49.4217H49.4913V50.2217H58.4001V49.4217ZM60.3279 47.5153C60.3279 48.5753 59.4688 49.4217 58.4001 49.4217V50.2217C59.9007 50.2217 61.1279 49.027 61.1279 47.5153H60.3279ZM58.4001 45.6439C59.4728 45.6439 60.3279 46.4942 60.3279 47.5153H61.1279C61.1279 46.0346 59.8966 44.8439 58.4001 44.8439V45.6439ZM49.4913 45.6439H58.4001V44.8439H49.4913V45.6439ZM49.4913 63.4015H72.8587V62.6015H49.4913V63.4015ZM46.7665 60.7272C46.7665 62.2098 47.9937 63.4015 49.4913 63.4015V62.6015C48.4196 62.6015 47.5665 61.7522 47.5665 60.7272H46.7665ZM49.4913 58.05C47.9931 58.05 46.7665 59.2453 46.7665 60.7272H47.5665C47.5665 59.7016 48.4203 58.85 49.4913 58.85V58.05ZM72.8587 58.05H49.4913V58.85H72.8587V58.05ZM75.5835 60.7272C75.5835 59.2449 74.3536 58.05 72.8587 58.05V58.85C73.9271 58.85 74.7835 59.7019 74.7835 60.7272H75.5835ZM72.8587 63.4015C74.3529 63.4015 75.5835 62.2102 75.5835 60.7272H74.7835C74.7835 61.7519 73.9277 62.6015 72.8587 62.6015V63.4015ZM49.4915 76.7265H72.8589V75.9265H49.4915V76.7265ZM46.9214 75.4958C47.4766 76.3444 48.4867 76.8609 49.5433 76.7231L49.4398 75.9298C48.708 76.0253 47.9894 75.667 47.5908 75.0578L46.9214 75.4958ZM46.9214 72.6085C46.3558 73.473 46.3604 74.6041 46.9175 75.4898L47.5947 75.0638C47.198 74.4333 47.2026 73.6399 47.5908 73.0465L46.9214 72.6085ZM49.5305 71.3506C48.491 71.2489 47.4779 71.7237 46.9175 72.6145L47.5947 73.0405C47.9881 72.4151 48.7038 72.0735 49.4526 72.1468L49.5305 71.3506ZM72.8589 71.3487H49.4915V72.1487H72.8589V71.3487ZM75.3453 74.0522C75.3453 72.6514 74.2925 71.4874 72.898 71.3506L72.8199 72.1468C73.8038 72.2433 74.5453 73.062 74.5453 74.0522H75.3453ZM72.898 76.7246C74.2896 76.5881 75.3453 75.4237 75.3453 74.0522H74.5453C74.5453 75.0074 73.8067 75.8316 72.8199 75.9284L72.898 76.7246Z" fill="url(#paint5_linear)" mask="url(#path-5-inside-1)" />
    </g>
    <defs>
        <filter id="filter0_f" x="0.701691" y="0.594971" width="89.0494" height="92.4506" filterUnits="userSpaceOnUse" color-interpolation-filters="sRGB">
            <feFlood flood-opacity="0" result="BackgroundImageFix" />
            <feBlend mode="normal" in="SourceGraphic" in2="BackgroundImageFix" result="shape" />
            <feGaussianBlur stdDeviation="13.5" result="effect1_foregroundBlur" />
        </filter>
        <filter id="filter1_b" x="9.35031" y="6.68433" width="103.65" height="108.316" filterUnits="userSpaceOnUse" color-interpolation-filters="sRGB">
            <feFlood flood-opacity="0" result="BackgroundImageFix" />
            <feGaussianBlur in="BackgroundImage" stdDeviation="12" />
            <feComposite in2="SourceAlpha" operator="in" result="effect1_backgroundBlur" />
            <feBlend mode="normal" in="SourceGraphic" in2="effect1_backgroundBlur" result="shape" />
        </filter>
        <filter id="filter2_bd" x="31.8985" y="30.2439" width="58.2851" height="61.1013" filterUnits="userSpaceOnUse" color-interpolation-filters="sRGB">
            <feFlood flood-opacity="0" result="BackgroundImageFix" />
            <feGaussianBlur in="BackgroundImage" stdDeviation="7.5" />
            <feComposite in2="SourceAlpha" operator="in" result="effect1_backgroundBlur" />
            <feColorMatrix in="SourceAlpha" type="matrix" values="0 0 0 0 0 0 0 0 0 0 0 0 0 0 0 0 0 0 127 0" />
            <feOffset dx="5" dy="5" />
            <feGaussianBlur stdDeviation="5" />
            <feColorMatrix type="matrix" values="0 0 0 0 0.577356 0 0 0 0 0.359375 0 0 0 0 0.9375 0 0 0 0.5 0" />
            <feBlend mode="normal" in2="effect1_backgroundBlur" result="effect2_dropShadow" />
            <feBlend mode="normal" in="SourceGraphic" in2="effect2_dropShadow" result="shape" />
        </filter>
        <linearGradient id="paint0_linear" x1="20.7142" y1="54.7483" x2="72.3804" y2="40.5969" gradientUnits="userSpaceOnUse">
            <stop stop-color="#16D9E3" />
            <stop offset="0.47" stop-color="#30C7EC" />
            <stop offset="1" stop-color="#46AEF7" />
        </linearGradient>
        <linearGradient id="paint1_linear" x1="0" y1="16.2743" x2="37.7124" y2="16.2743" gradientUnits="userSpaceOnUse">
            <stop stop-color="#16D9E3" />
            <stop offset="0.47" stop-color="#30C7EC" />
            <stop offset="1" stop-color="#46AEF7" />
        </linearGradient>
        <linearGradient id="paint2_linear" x1="34.0863" y1="60.8306" x2="87.9365" y2="60.8306" gradientUnits="userSpaceOnUse">
            <stop stop-color="#83A6FF" />
            <stop offset="1" stop-color="#4D6DE2" />
        </linearGradient>
        <linearGradient id="paint3_linear" x1="42.8905" y1="38.4782" x2="80.6222" y2="81.4707" gradientUnits="userSpaceOnUse">
            <stop stop-color="white" stop-opacity="0.25" />
            <stop offset="1" stop-color="white" stop-opacity="0" />
        </linearGradient>
        <linearGradient id="paint4_linear" x1="73.1781" y1="50.8602" x2="41.6655" y2="51.7946" gradientUnits="userSpaceOnUse">
            <stop stop-color="white" />
            <stop offset="1" stop-color="white" stop-opacity="0.2" />
        </linearGradient>
        <linearGradient id="paint5_linear" x1="51.401" y1="48.8672" x2="71.5531" y2="71.5661" gradientUnits="userSpaceOnUse">
            <stop stop-color="white" stop-opacity="0.25" />
            <stop offset="1" stop-color="white" stop-opacity="0" />
        </linearGradient>
    </defs>
</svg>
