<svg width="110" height="113" viewBox="0 0 110 113" fill="none" xmlns="http://www.w3.org/2000/svg">
<g filter="url(#filter0_ddii)">
<path d="M20 35.6347C22.5837 37.0669 24.6507 40.6052 24.6507 43.5538V56.4014L33.3493 61.2877C35.933 62.7199 38 66.2582 38 69.1647C38 72.0712 35.933 73.2506 33.3493 71.8184L24.6507 66.89V79.7376C24.6507 82.6441 22.5837 83.8235 20 82.3913C17.4163 80.9591 15.3493 77.4208 15.3493 74.5143V61.6668L6.65072 56.7805C4.06698 55.3483 2 51.81 2 48.9035C2 45.997 4.06698 44.8175 6.65072 46.2497L15.3493 51.136V38.2885C15.3062 35.3398 17.4163 34.1604 20 35.6347Z" fill="#DD2265"/>
</g>
<g filter="url(#filter1_biiii)">
<path fill-rule="evenodd" clip-rule="evenodd" d="M53.2716 6.08746C54.7272 6.92791 55.9073 8.97184 55.9073 10.6527L55.9092 68.4774L105.986 97.3913C107.442 98.2318 108.622 100.276 108.622 101.957C108.622 103.637 107.442 104.319 105.986 103.478L53.2737 73.0424C51.8181 72.2019 50.6381 70.1581 50.638 68.4772L50.6361 7.60908C50.636 5.92827 51.816 5.24701 53.2716 6.08746Z" fill="url(#paint0_linear)"/>
<path d="M63.8144 30.4346C62.3588 29.5942 61.1788 30.2754 61.1789 31.9562L61.1798 62.3903C61.1799 64.0712 62.36 66.1151 63.8156 66.9555L69.0868 69.9991C70.5424 70.8395 71.7224 70.1583 71.7223 68.4775L71.7213 38.0434C71.7213 36.3626 70.5412 34.3187 69.0856 33.4782L63.8144 30.4346Z" fill="url(#paint1_linear)"/>
<path d="M79.6276 21.305C78.1719 20.4645 76.992 21.1458 76.992 22.8266L76.9936 71.5211C76.9936 73.202 78.1737 75.2458 79.6293 76.0863L84.9005 79.1299C86.3562 79.9704 87.5361 79.2891 87.5361 77.6083L87.5345 28.9138C87.5345 27.2329 86.3545 25.189 84.8988 24.3486L79.6276 21.305Z" fill="url(#paint2_linear)"/>
<path d="M95.4422 60.8697C93.9865 60.0292 92.8066 60.7104 92.8067 62.3913L92.8073 80.6518C92.8073 82.3326 93.9873 84.3765 95.443 85.2169L100.714 88.2605C102.17 89.101 103.35 88.4198 103.35 86.7389L103.349 68.4785C103.349 66.7976 102.169 64.7537 100.713 63.9133L95.4422 60.8697Z" fill="url(#paint3_linear)"/>
<mask id="mask0" mask-type="alpha" maskUnits="userSpaceOnUse" x="48" y="0" width="3" height="5">
<path d="M50.6359 1.52193L48 0L48.0001 3.0437L50.636 4.56563L50.6359 1.52193Z" fill="white"/>
</mask>
<g mask="url(#mask0)">
</g>
</g>
<defs>
<filter id="filter0_ddii" x="0.414493" y="33.4145" width="55.0261" height="71.7826" filterUnits="userSpaceOnUse" color-interpolation-filters="sRGB">
<feFlood flood-opacity="0" result="BackgroundImageFix"/>
<feColorMatrix in="SourceAlpha" type="matrix" values="0 0 0 0 0 0 0 0 0 0 0 0 0 0 0 0 0 0 127 0"/>
<feOffset dx="7.92754" dy="12.6841"/>
<feGaussianBlur stdDeviation="4.75652"/>
<feColorMatrix type="matrix" values="0 0 0 0 0 0 0 0 0 0 0 0 0 0 0 0 0 0 0.06 0"/>
<feBlend mode="normal" in2="BackgroundImageFix" result="effect1_dropShadow"/>
<feColorMatrix in="SourceAlpha" type="matrix" values="0 0 0 0 0 0 0 0 0 0 0 0 0 0 0 0 0 0 127 0"/>
<feOffset dx="7.92754" dy="12.6841"/>
<feGaussianBlur stdDeviation="1.58551"/>
<feColorMatrix type="matrix" values="0 0 0 0 0 0 0 0 0 0 0 0 0 0 0 0 0 0 0.04 0"/>
<feBlend mode="normal" in2="effect1_dropShadow" result="effect2_dropShadow"/>
<feBlend mode="normal" in="SourceGraphic" in2="effect2_dropShadow" result="shape"/>
<feColorMatrix in="SourceAlpha" type="matrix" values="0 0 0 0 0 0 0 0 0 0 0 0 0 0 0 0 0 0 127 0" result="hardAlpha"/>
<feOffset dx="-2.37826" dy="1.74406"/>
<feGaussianBlur stdDeviation="0.792754"/>
<feComposite in2="hardAlpha" operator="arithmetic" k2="-1" k3="1"/>
<feColorMatrix type="matrix" values="0 0 0 0 1 0 0 0 0 1 0 0 0 0 1 0 0 0 0.2 0"/>
<feBlend mode="normal" in2="shape" result="effect3_innerShadow"/>
<feColorMatrix in="SourceAlpha" type="matrix" values="0 0 0 0 0 0 0 0 0 0 0 0 0 0 0 0 0 0 127 0" result="hardAlpha"/>
<feOffset dy="-1.58551"/>
<feGaussianBlur stdDeviation="0.792754"/>
<feComposite in2="hardAlpha" operator="arithmetic" k2="-1" k3="1"/>
<feColorMatrix type="matrix" values="0 0 0 0 0 0 0 0 0 0 0 0 0 0 0 0 0 0 0.3 0"/>
<feBlend mode="normal" in2="effect3_innerShadow" result="effect4_innerShadow"/>
</filter>
<filter id="filter1_biiii" x="44.2941" y="-0.614551" width="70.6696" height="110.795" filterUnits="userSpaceOnUse" color-interpolation-filters="sRGB">
<feFlood flood-opacity="0" result="BackgroundImageFix"/>
<feGaussianBlur in="BackgroundImage" stdDeviation="3.17101"/>
<feComposite in2="SourceAlpha" operator="in" result="effect1_backgroundBlur"/>
<feBlend mode="normal" in="SourceGraphic" in2="effect1_backgroundBlur" result="shape"/>
<feColorMatrix in="SourceAlpha" type="matrix" values="0 0 0 0 0 0 0 0 0 0 0 0 0 0 0 0 0 0 127 0" result="hardAlpha"/>
<feOffset dx="-2.37826"/>
<feComposite in2="hardAlpha" operator="arithmetic" k2="-1" k3="1"/>
<feColorMatrix type="matrix" values="0 0 0 0 0.0823529 0 0 0 0 0.286275 0 0 0 0 0.815686 0 0 0 1 0"/>
<feBlend mode="normal" in2="shape" result="effect2_innerShadow"/>
<feColorMatrix in="SourceAlpha" type="matrix" values="0 0 0 0 0 0 0 0 0 0 0 0 0 0 0 0 0 0 127 0" result="hardAlpha"/>
<feOffset dx="1.58551"/>
<feComposite in2="hardAlpha" operator="arithmetic" k2="-1" k3="1"/>
<feColorMatrix type="matrix" values="0 0 0 0 0.0823529 0 0 0 0 0.286274 0 0 0 0 0.815686 0 0 0 0.21 0"/>
<feBlend mode="normal" in2="effect2_innerShadow" result="effect3_innerShadow"/>
<feColorMatrix in="SourceAlpha" type="matrix" values="0 0 0 0 0 0 0 0 0 0 0 0 0 0 0 0 0 0 127 0" result="hardAlpha"/>
<feOffset dx="0.713478"/>
<feGaussianBlur stdDeviation="0.541292"/>
<feComposite in2="hardAlpha" operator="arithmetic" k2="-1" k3="1"/>
<feColorMatrix type="matrix" values="0 0 0 0 1 0 0 0 0 1 0 0 0 0 1 0 0 0 0.3 0"/>
<feBlend mode="normal" in2="effect3_innerShadow" result="effect4_innerShadow"/>
<feColorMatrix in="SourceAlpha" type="matrix" values="0 0 0 0 0 0 0 0 0 0 0 0 0 0 0 0 0 0 127 0" result="hardAlpha"/>
<feOffset dx="-0.428087"/>
<feGaussianBlur stdDeviation="0.216517"/>
<feComposite in2="hardAlpha" operator="arithmetic" k2="-1" k3="1"/>
<feColorMatrix type="matrix" values="0 0 0 0 0.0823529 0 0 0 0 0.286275 0 0 0 0 0.815686 0 0 0 1 0"/>
<feBlend mode="normal" in2="effect4_innerShadow" result="effect5_innerShadow"/>
</filter>
<linearGradient id="paint0_linear" x1="79.6278" y1="21.3053" x2="50.6349" y2="71.5188" gradientUnits="userSpaceOnUse">
<stop stop-color="#235DF4" stop-opacity="0.32"/>
<stop offset="1" stop-color="#1549D0" stop-opacity="0"/>
</linearGradient>
<linearGradient id="paint1_linear" x1="66.45" y1="31.9564" x2="50.6357" y2="59.3456" gradientUnits="userSpaceOnUse">
<stop stop-color="#235DF4" stop-opacity="0.32"/>
<stop offset="1" stop-color="#1549D0" stop-opacity="0"/>
</linearGradient>
<linearGradient id="paint2_linear" x1="82.2632" y1="22.8268" x2="58.5417" y2="63.9105" gradientUnits="userSpaceOnUse">
<stop stop-color="#235DF4" stop-opacity="0.32"/>
<stop offset="1" stop-color="#1549D0" stop-opacity="0"/>
</linearGradient>
<linearGradient id="paint3_linear" x1="98.0778" y1="62.3915" x2="87.535" y2="80.6509" gradientUnits="userSpaceOnUse">
<stop stop-color="#235DF4" stop-opacity="0.32"/>
<stop offset="1" stop-color="#1549D0" stop-opacity="0"/>
</linearGradient>
</defs>
</svg>
