<svg width="190" height="150" viewBox="0 0 190 150" fill="none" xmlns="http://www.w3.org/2000/svg">
<path d="M32.7178 18.4744C34.6937 17.8127 35.7748 15.6259 35.1326 13.5902C34.4904 11.5544 32.368 10.4404 30.3921 11.1021C28.4162 11.7638 27.335 13.9505 27.9772 15.9863C28.6195 18.0221 30.7419 19.136 32.7178 18.4744Z" fill="#2A2E39"/>
<path d="M40.9298 5.82783C42.2735 5.37788 43.0086 3.8909 42.5719 2.50656C42.1352 1.12222 40.692 0.364741 39.3484 0.81469C38.0048 1.26464 37.2696 2.75162 37.7063 4.13597C38.143 5.52031 39.5862 6.27778 40.9298 5.82783Z" fill="url(#paint0_linear)"/>
<path d="M6.55816 89.3542C7.97099 89.3542 9.11632 88.1742 9.11632 86.7185C9.11632 85.2628 7.97099 84.0828 6.55816 84.0828C5.14533 84.0828 4 85.2628 4 86.7185C4 88.1742 5.14533 89.3542 6.55816 89.3542Z" fill="#506FE2"/>
<path d="M184.869 63.2805C187.2 61.0854 187.363 57.3588 185.232 54.9568C183.102 52.5549 179.485 52.3871 177.154 54.5821C174.822 56.7772 174.659 60.5038 176.79 62.9057C178.92 65.3077 182.537 65.4755 184.869 63.2805Z" fill="url(#paint1_linear)"/>
<path d="M142.742 44.0818H39.6631V58.3457H142.742V44.0818Z" fill="#1D242E"/>
<path d="M142.742 51.5237H39.6631V47.8027L142.742 36.3296V51.5237Z" fill="#1D242E"/>
<path d="M24.1636 48.7331V44.0818H127.242V58.3457H24.1636V53.3843" fill="#232A32"/>
<path d="M127.242 46.7175H24.1636V51.5238H127.242V46.7175Z" fill="#364151"/>
<path d="M141.388 47.4928H24.9165C22.0573 47.4928 19.6497 45.0121 19.6497 42.0663V17.1045C19.6497 14.1587 22.0573 11.678 24.9165 11.678H141.539C144.398 11.678 146.805 14.1587 146.805 17.1045V42.0663C146.655 45.1671 144.398 47.4928 141.388 47.4928Z" fill="#2E3746"/>
<path d="M34.5472 11.678H124.986C127.092 11.678 128.748 13.3834 128.748 15.554V43.7718C128.748 45.9423 127.092 47.6478 124.986 47.6478H23.4117C21.3049 47.6478 19.6497 45.9423 19.6497 43.7718V15.554C19.6497 13.3834 21.3049 11.678 23.4117 11.678H25.9698" fill="#545D71"/>
<path d="M63.6124 24.8341C64.2001 24.2286 64.2001 23.247 63.6124 22.6415C63.0248 22.036 62.072 22.036 61.4843 22.6415C60.8967 23.247 60.8967 24.2286 61.4843 24.8341C62.072 25.4396 63.0248 25.4396 63.6124 24.8341Z" fill="#2A2E33"/>
<path d="M63.6332 31.6468C64.2209 31.0414 64.2209 30.0597 63.6332 29.4542C63.0456 28.8488 62.0928 28.8488 61.5051 29.4542C60.9175 30.0597 60.9175 31.0414 61.5051 31.6468C62.0928 32.2523 63.0456 32.2523 63.6332 31.6468Z" fill="#2A2E33"/>
<path d="M63.5483 38.35C64.1359 37.7445 64.1359 36.7628 63.5483 36.1574C62.9606 35.5519 62.0078 35.5519 61.4202 36.1574C60.8325 36.7628 60.8325 37.7445 61.4202 38.35C62.0078 38.9554 62.9606 38.9554 63.5483 38.35Z" fill="#2A2E33"/>
<path d="M70.2362 28.5284C70.8239 27.923 70.8239 26.9413 70.2362 26.3358C69.6486 25.7303 68.6958 25.7303 68.1082 26.3358C67.5205 26.9413 67.5205 27.923 68.1082 28.5284C68.6958 29.1339 69.6486 29.1339 70.2362 28.5284Z" fill="#394651"/>
<path d="M70.1512 35.2311C70.7389 34.6256 70.7389 33.6439 70.1512 33.0385C69.5636 32.433 68.6108 32.433 68.0231 33.0385C67.4355 33.6439 67.4355 34.6256 68.0231 35.2311C68.6108 35.8366 69.5636 35.8366 70.1512 35.2311Z" fill="#2A2E33"/>
<path d="M76.7297 24.8998C77.3173 24.2943 77.3173 23.3126 76.7297 22.7072C76.142 22.1017 75.1892 22.1017 74.6016 22.7072C74.0139 23.3126 74.0139 24.2943 74.6016 24.8998C75.1892 25.5053 76.142 25.5053 76.7297 24.8998Z" fill="#2A2E33"/>
<path d="M76.7517 31.7124C77.3394 31.1069 77.3394 30.1253 76.7517 29.5198C76.164 28.9144 75.2112 28.9144 74.6235 29.5198C74.0359 30.1253 74.0359 31.1069 74.6235 31.7124C75.2112 32.3178 76.164 32.3178 76.7517 31.7124Z" fill="#2A2E33"/>
<path d="M75.6276 38.8103C76.4587 38.8103 77.1324 38.1162 77.1324 37.2599C77.1324 36.4036 76.4587 35.7095 75.6276 35.7095C74.7965 35.7095 74.1228 36.4036 74.1228 37.2599C74.1228 38.1162 74.7965 38.8103 75.6276 38.8103Z" fill="url(#paint2_linear)"/>
<path d="M83.354 28.5939C83.9417 27.9884 83.9417 27.0067 83.354 26.4012C82.7664 25.7958 81.8136 25.7958 81.226 26.4012C80.6383 27.0067 80.6383 27.9884 81.226 28.5939C81.8136 29.1993 82.7664 29.1993 83.354 28.5939Z" fill="#394651"/>
<path d="M83.2691 35.2968C83.8567 34.6913 83.8567 33.7096 83.2691 33.1041C82.6814 32.4986 81.7286 32.4986 81.141 33.1041C80.5533 33.7096 80.5533 34.6913 81.141 35.2968C81.7286 35.9022 82.6814 35.9022 83.2691 35.2968Z" fill="#2A2E33"/>
<path d="M89.9549 24.8558C90.5426 24.2504 90.5426 23.2687 89.9549 22.6632C89.3673 22.0577 88.4145 22.0577 87.8268 22.6632C87.2392 23.2687 87.2392 24.2504 87.8268 24.8558C88.4145 25.4613 89.3673 25.4613 89.9549 24.8558Z" fill="#394651"/>
<path d="M89.9757 31.6683C90.5634 31.0629 90.5634 30.0812 89.9757 29.4757C89.3881 28.8702 88.4353 28.8702 87.8477 29.4757C87.26 30.0812 87.26 31.0629 87.8477 31.6683C88.4353 32.2738 89.3881 32.2738 89.9757 31.6683Z" fill="#2A2E33"/>
<path d="M89.8908 38.3715C90.4784 37.766 90.4784 36.7843 89.8908 36.1788C89.3031 35.5734 88.3504 35.5734 87.7627 36.1788C87.1751 36.7843 87.1751 37.766 87.7627 38.3715C88.3504 38.9769 89.3031 38.9769 89.8908 38.3715Z" fill="#2A2E33"/>
<path d="M96.5777 28.5499C97.1653 27.9444 97.1653 26.9628 96.5777 26.3573C95.99 25.7518 95.0372 25.7518 94.4496 26.3573C93.8619 26.9628 93.8619 27.9444 94.4496 28.5499C95.0372 29.1554 95.99 29.1554 96.5777 28.5499Z" fill="#2A2E33"/>
<path d="M96.4932 35.2528C97.0809 34.6473 97.0809 33.6657 96.4932 33.0602C95.9056 32.4547 94.9528 32.4547 94.3652 33.0602C93.7775 33.6657 93.7775 34.6473 94.3652 35.2528C94.9528 35.8583 95.9056 35.8583 96.4932 35.2528Z" fill="#2A2E33"/>
<path d="M103.179 24.8116C103.767 24.2062 103.767 23.2245 103.179 22.619C102.591 22.0135 101.639 22.0135 101.051 22.619C100.463 23.2245 100.463 24.2062 101.051 24.8116C101.639 25.4171 102.591 25.4171 103.179 24.8116Z" fill="#2A2E33"/>
<path d="M103.2 31.6244C103.788 31.0189 103.788 30.0372 103.2 29.4318C102.612 28.8263 101.66 28.8263 101.072 29.4318C100.484 30.0372 100.484 31.0189 101.072 31.6244C101.66 32.2299 102.612 32.2299 103.2 31.6244Z" fill="#394651"/>
<path d="M103.115 38.3275C103.703 37.722 103.703 36.7404 103.115 36.1349C102.527 35.5294 101.575 35.5294 100.987 36.1349C100.399 36.7404 100.399 37.722 100.987 38.3275C101.575 38.933 102.527 38.933 103.115 38.3275Z" fill="#2A2E33"/>
<path d="M109.697 28.6154C110.284 28.01 110.284 27.0284 109.697 26.4229C109.109 25.8174 108.156 25.8174 107.569 26.4229C106.981 27.0284 106.981 28.01 107.569 28.6154C108.156 29.2209 109.109 29.2209 109.697 28.6154Z" fill="#2A2E33"/>
<path d="M109.612 35.3185C110.199 34.713 110.199 33.7313 109.612 33.1258C109.024 32.5204 108.071 32.5204 107.484 33.1258C106.896 33.7313 106.896 34.713 107.484 35.3185C108.071 35.924 109.024 35.924 109.612 35.3185Z" fill="#2A2E33"/>
<path d="M116.297 24.8773C116.885 24.2718 116.885 23.2902 116.297 22.6847C115.709 22.0792 114.756 22.0792 114.169 22.6847C113.581 23.2902 113.581 24.2718 114.169 24.8773C114.756 25.4828 115.709 25.4828 116.297 24.8773Z" fill="#2A2E33"/>
<path d="M116.318 31.6899C116.906 31.0844 116.906 30.1028 116.318 29.4974C115.731 28.8919 114.778 28.8919 114.19 29.4974C113.603 30.1028 113.603 31.0844 114.19 31.6899C114.778 32.2953 115.731 32.2953 116.318 31.6899Z" fill="#394651"/>
<path d="M116.233 38.3932C116.821 37.7877 116.821 36.806 116.233 36.2006C115.646 35.5951 114.693 35.5951 114.105 36.2006C113.518 36.806 113.518 37.7877 114.105 38.3932C114.693 38.9987 115.646 38.9987 116.233 38.3932Z" fill="#2A2E33"/>
<path d="M45.6825 31.2133C45.6825 34.9343 43.1244 37.8801 39.6633 38.5003C39.2119 38.6553 38.9109 38.6553 38.4595 38.6553C34.547 38.6553 31.2365 35.3994 31.2365 31.2133C31.2365 27.1822 34.3965 23.7712 38.4595 23.7712C38.9109 23.7712 39.2119 23.7712 39.6633 23.9263C43.1244 24.3914 45.6825 27.4923 45.6825 31.2133Z" fill="#273850"/>
<path d="M142.742 89.8193H39.6631V104.083H142.742V89.8193Z" fill="#25303F"/>
<path d="M142.742 97.2614H39.6631V93.5404L142.742 92.3V97.2614Z" fill="#273850"/>
<path d="M24.1636 94.4706V89.8193H127.242V103.928H24.1636V99.1219" fill="#232A32"/>
<path d="M127.242 91.835H24.1636V97.2614H127.242V91.835Z" fill="#364151"/>
<path d="M141.388 93.2303H24.9162C22.0571 93.2303 19.6494 90.7496 19.6494 87.8038V62.842C19.6494 59.8962 22.0571 57.4155 24.9162 57.4155H141.538C144.397 57.4155 146.805 59.8962 146.805 62.842V87.8038C146.655 90.7496 144.397 93.2303 141.388 93.2303Z" fill="#2E3746"/>
<path d="M34.5469 57.4155H124.985C127.092 57.4155 128.747 59.121 128.747 61.2916V89.5093C128.747 91.6799 127.092 93.3854 124.985 93.3854H23.4114C21.3047 93.3854 19.6494 91.6799 19.6494 89.5093V61.1366C19.6494 58.966 21.3047 57.2605 23.4114 57.2605H25.9696" fill="#545D71"/>
<path d="M63.5435 70.4454C64.1311 69.84 64.1311 68.8583 63.5435 68.2528C62.9558 67.6473 62.0031 67.6473 61.4154 68.2528C60.8278 68.8583 60.8278 69.84 61.4154 70.4454C62.0031 71.0509 62.9558 71.0509 63.5435 70.4454Z" fill="#2A2E33"/>
<path d="M63.5654 77.2582C64.1531 76.6527 64.1531 75.671 63.5654 75.0656C62.9778 74.4601 62.025 74.4601 61.4373 75.0656C60.8497 75.671 60.8497 76.6527 61.4373 77.2582C62.025 77.8637 62.9778 77.8637 63.5654 77.2582Z" fill="#2A2E33"/>
<path d="M62.5361 84.5479C63.3671 84.5479 64.0409 83.8537 64.0409 82.9974C64.0409 82.1412 63.3671 81.447 62.5361 81.447C61.705 81.447 61.0312 82.1412 61.0312 82.9974C61.0312 83.8537 61.705 84.5479 62.5361 84.5479Z" fill="url(#paint3_linear)"/>
<path d="M70.1673 74.1395C70.755 73.534 70.755 72.5524 70.1673 71.9469C69.5797 71.3414 68.6269 71.3414 68.0393 71.9469C67.4516 72.5524 67.4516 73.534 68.0393 74.1395C68.6269 74.745 69.5797 74.745 70.1673 74.1395Z" fill="#2A2E33"/>
<path d="M70.1882 80.9523C70.7759 80.3468 70.7759 79.3651 70.1882 78.7596C69.6006 78.1542 68.6478 78.1542 68.0601 78.7596C67.4725 79.3651 67.4725 80.3468 68.0601 80.9523C68.6478 81.5577 69.6006 81.5577 70.1882 80.9523Z" fill="#405872"/>
<path d="M76.6618 70.5111C77.2495 69.9056 77.2495 68.924 76.6618 68.3185C76.0742 67.713 75.1214 67.713 74.5338 68.3185C73.9461 68.924 73.9461 69.9056 74.5338 70.5111C75.1214 71.1166 76.0742 71.1166 76.6618 70.5111Z" fill="#2A2E33"/>
<path d="M76.6827 77.3238C77.2704 76.7184 77.2704 75.7367 76.6827 75.1312C76.0951 74.5258 75.1423 74.5258 74.5546 75.1312C73.967 75.7367 73.967 76.7184 74.5546 77.3238C75.1423 77.9293 76.0951 77.9293 76.6827 77.3238Z" fill="#394651"/>
<path d="M76.7046 84.1366C77.2923 83.5311 77.2923 82.5494 76.7046 81.944C76.117 81.3385 75.1642 81.3385 74.5766 81.944C73.9889 82.5494 73.9889 83.5311 74.5766 84.1366C75.1642 84.7421 76.117 84.7421 76.7046 84.1366Z" fill="#2A2E33"/>
<path d="M83.2853 74.2053C83.873 73.5998 83.873 72.6182 83.2853 72.0127C82.6977 71.4073 81.7448 71.4073 81.1572 72.0127C80.5695 72.6182 80.5695 73.5998 81.1572 74.2053C81.7448 74.8107 82.6977 74.8107 83.2853 74.2053Z" fill="#2A2E33"/>
<path d="M83.3066 81.0179C83.8942 80.4125 83.8942 79.4308 83.3066 78.8253C82.7189 78.2198 81.7661 78.2198 81.1785 78.8253C80.5908 79.4308 80.5908 80.4125 81.1785 81.0179C81.7661 81.6234 82.7189 81.6234 83.3066 81.0179Z" fill="#2A2E33"/>
<path d="M89.886 70.4669C90.4737 69.8614 90.4737 68.8798 89.886 68.2743C89.2984 67.6688 88.3456 67.6688 87.7579 68.2743C87.1703 68.8798 87.1703 69.8614 87.7579 70.4669C88.3456 71.0724 89.2984 71.0724 89.886 70.4669Z" fill="#2A2E33"/>
<path d="M89.907 77.2797C90.4947 76.6743 90.4947 75.6927 89.907 75.0872C89.3194 74.4818 88.3665 74.4818 87.7789 75.0872C87.1912 75.6927 87.1912 76.6743 87.7789 77.2797C88.3665 77.8852 89.3194 77.8852 89.907 77.2797Z" fill="#2A2E33"/>
<path d="M89.9288 84.0926C90.5165 83.4872 90.5165 82.5055 89.9288 81.9C89.3412 81.2946 88.3884 81.2946 87.8007 81.9C87.2131 82.5055 87.2131 83.4872 87.8007 84.0926C88.3884 84.6981 89.3412 84.6981 89.9288 84.0926Z" fill="#2A2E33"/>
<path d="M96.5099 74.1613C97.0975 73.5558 97.0975 72.5741 96.5099 71.9686C95.9222 71.3632 94.9694 71.3632 94.3818 71.9686C93.7941 72.5741 93.7941 73.5558 94.3818 74.1613C94.9694 74.7667 95.9222 74.7667 96.5099 74.1613Z" fill="#2A2E33"/>
<path d="M96.5319 80.9738C97.1196 80.3684 97.1196 79.3867 96.5319 78.7813C95.9442 78.1758 94.9914 78.1758 94.4037 78.7813C93.8161 79.3867 93.8161 80.3684 94.4037 80.9738C94.9914 81.5793 95.9442 81.5793 96.5319 80.9738Z" fill="#2A2E33"/>
<path d="M102.113 70.9041C102.944 70.9041 103.618 70.2099 103.618 69.3536C103.618 68.4974 102.944 67.8032 102.113 67.8032C101.282 67.8032 100.608 68.4974 100.608 69.3536C100.608 70.2099 101.282 70.9041 102.113 70.9041Z" fill="url(#paint4_linear)"/>
<path d="M103.132 77.236C103.72 76.6305 103.72 75.6488 103.132 75.0433C102.544 74.4379 101.592 74.4379 101.004 75.0433C100.416 75.6488 100.416 76.6305 101.004 77.236C101.592 77.8414 102.544 77.8414 103.132 77.236Z" fill="#394651"/>
<path d="M103.153 84.0485C103.741 83.443 103.741 82.4613 103.153 81.8558C102.565 81.2504 101.613 81.2504 101.025 81.8558C100.437 82.4613 100.437 83.443 101.025 84.0485C101.613 84.6539 102.565 84.6539 103.153 84.0485Z" fill="#2A2E33"/>
<path d="M109.628 74.2267C110.215 73.6212 110.215 72.6395 109.628 72.0341C109.04 71.4286 108.087 71.4286 107.5 72.0341C106.912 72.6395 106.912 73.6212 107.5 74.2267C108.087 74.8322 109.04 74.8322 109.628 74.2267Z" fill="#2A2E33"/>
<path d="M109.649 81.0397C110.237 80.4342 110.237 79.4525 109.649 78.847C109.061 78.2416 108.109 78.2416 107.521 78.847C106.933 79.4525 106.933 80.4342 107.521 81.0397C108.109 81.6451 109.061 81.6451 109.649 81.0397Z" fill="#2A2E33"/>
<path d="M116.229 70.4889C116.816 69.8834 116.816 68.9017 116.229 68.2963C115.641 67.6908 114.688 67.6908 114.1 68.2963C113.513 68.9017 113.513 69.8834 114.1 70.4889C114.688 71.0944 115.641 71.0944 116.229 70.4889Z" fill="#2A2E33"/>
<path d="M116.249 77.3014C116.837 76.6959 116.837 75.7142 116.249 75.1088C115.662 74.5033 114.709 74.5033 114.121 75.1088C113.534 75.7142 113.534 76.6959 114.121 77.3014C114.709 77.9069 115.662 77.9069 116.249 77.3014Z" fill="#2A2E33"/>
<path d="M116.271 84.1141C116.859 83.5087 116.859 82.527 116.271 81.9215C115.684 81.316 114.731 81.316 114.143 81.9215C113.556 82.527 113.556 83.5087 114.143 84.1141C114.731 84.7196 115.684 84.7196 116.271 84.1141Z" fill="#2A2E33"/>
<path d="M45.6825 76.7958C45.6825 80.5168 43.1244 83.4626 39.6633 84.0828C39.2119 84.2378 38.9109 84.2378 38.4595 84.2378C34.547 84.2378 31.2365 80.9819 31.2365 76.7958C31.2365 72.7647 34.3965 69.3538 38.4595 69.3538C38.9109 69.3538 39.2119 69.3538 39.6633 69.5088C43.1244 70.129 45.6825 73.2298 45.6825 76.7958Z" fill="#273850"/>
<path d="M142.742 135.402H39.6631V149.666H142.742V135.402Z" fill="#25303F"/>
<path d="M142.742 142.844H39.6631V139.123L142.742 127.65V142.844Z" fill="#273850"/>
<path d="M24.1636 140.208V135.402H127.242V149.666H24.1636V144.859" fill="#232A32"/>
<path d="M127.242 135.557H24.1636V142.844H127.242V135.557Z" fill="#364151"/>
<path d="M141.388 138.813H24.9162C22.0571 138.813 19.6494 136.332 19.6494 133.386V108.424C19.6494 105.478 22.0571 102.998 24.9162 102.998H141.538C144.397 102.998 146.805 105.478 146.805 108.424V133.386C146.655 136.487 144.397 138.813 141.388 138.813Z" fill="#2E3746"/>
<path d="M34.5469 102.998H124.985C127.092 102.998 128.747 104.703 128.747 106.874V135.092C128.747 137.262 127.092 138.968 124.985 138.968H23.4114C21.3047 138.968 19.6494 137.262 19.6494 135.092V106.874C19.6494 104.703 21.3047 102.998 23.4114 102.998H25.9696" fill="#545D71"/>
<path d="M63.5802 116.167C64.1678 115.561 64.1678 114.58 63.5802 113.974C62.9925 113.369 62.0397 113.369 61.4521 113.974C60.8644 114.58 60.8644 115.561 61.4521 116.167C62.0397 116.772 62.9925 116.772 63.5802 116.167Z" fill="#2A2E33"/>
<path d="M63.601 122.98C64.1886 122.374 64.1886 121.392 63.601 120.787C63.0133 120.182 62.0606 120.182 61.4729 120.787C60.8853 121.392 60.8853 122.374 61.4729 122.98C62.0606 123.585 63.0133 123.585 63.601 122.98Z" fill="#2A2E33"/>
<path d="M63.6226 129.792C64.2102 129.187 64.2102 128.205 63.6226 127.6C63.0349 126.994 62.0821 126.994 61.4944 127.6C60.9067 128.205 60.9067 129.187 61.4944 129.792C62.0821 130.398 63.0349 130.398 63.6226 129.792Z" fill="#394651"/>
<path d="M69.157 120.363C69.9881 120.363 70.6618 119.669 70.6618 118.812C70.6618 117.956 69.9881 117.262 69.157 117.262C68.3259 117.262 67.6522 117.956 67.6522 118.812C67.6522 119.669 68.3259 120.363 69.157 120.363Z" fill="url(#paint5_linear)"/>
<path d="M70.2249 126.673C70.8125 126.068 70.8125 125.086 70.2249 124.481C69.6372 123.875 68.6844 123.875 68.0968 124.481C67.5091 125.086 67.5091 126.068 68.0968 126.673C68.6844 127.279 69.6372 127.279 70.2249 126.673Z" fill="#2A2E33"/>
<path d="M76.6985 116.233C77.2862 115.627 77.2862 114.645 76.6985 114.04C76.1109 113.434 75.1581 113.434 74.5704 114.04C73.9828 114.645 73.9828 115.627 74.5704 116.233C75.1581 116.838 76.1109 116.838 76.6985 116.233Z" fill="#2A2E33"/>
<path d="M76.7193 123.045C77.307 122.44 77.307 121.458 76.7193 120.852C76.1317 120.247 75.1789 120.247 74.5913 120.852C74.0036 121.458 74.0036 122.44 74.5913 123.045C75.1789 123.651 76.1317 123.651 76.7193 123.045Z" fill="#394651"/>
<path d="M76.7402 129.858C77.3278 129.253 77.3278 128.271 76.7402 127.665C76.1525 127.06 75.1998 127.06 74.6121 127.665C74.0245 128.271 74.0245 129.253 74.6121 129.858C75.1998 130.464 76.1525 130.464 76.7402 129.858Z" fill="#394651"/>
<path d="M83.3224 119.926C83.91 119.321 83.91 118.339 83.3224 117.734C82.7347 117.128 81.7819 117.128 81.1943 117.734C80.6066 118.339 80.6066 119.321 81.1943 119.926C81.7819 120.532 82.7347 120.532 83.3224 119.926Z" fill="#394651"/>
<path d="M83.3437 126.739C83.9314 126.134 83.9314 125.152 83.3437 124.547C82.7561 123.941 81.8033 123.941 81.2156 124.547C80.628 125.152 80.628 126.134 81.2156 126.739C81.8033 127.345 82.7561 127.345 83.3437 126.739Z" fill="#2A2E33"/>
<path d="M89.9227 116.189C90.5104 115.583 90.5104 114.601 89.9227 113.996C89.3351 113.39 88.3823 113.39 87.7946 113.996C87.207 114.601 87.207 115.583 87.7946 116.189C88.3823 116.794 89.3351 116.794 89.9227 116.189Z" fill="#394651"/>
<path d="M89.9435 123.001C90.5312 122.396 90.5312 121.414 89.9435 120.808C89.3559 120.203 88.4031 120.203 87.8154 120.808C87.2278 121.414 87.2278 122.396 87.8154 123.001C88.4031 123.607 89.3559 123.607 89.9435 123.001Z" fill="#2A2E33"/>
<path d="M89.9655 129.814C90.5531 129.208 90.5531 128.227 89.9655 127.621C89.3778 127.016 88.425 127.016 87.8374 127.621C87.2497 128.227 87.2497 129.208 87.8374 129.814C88.425 130.419 89.3778 130.419 89.9655 129.814Z" fill="#2A2E33"/>
<path d="M96.5465 119.882C97.1342 119.277 97.1342 118.295 96.5465 117.69C95.9589 117.084 95.0061 117.084 94.4185 117.69C93.8308 118.295 93.8308 119.277 94.4185 119.882C95.0061 120.488 95.9589 120.488 96.5465 119.882Z" fill="#2A2E33"/>
<path d="M96.5674 126.695C97.155 126.09 97.155 125.108 96.5674 124.503C95.9797 123.897 95.0269 123.897 94.4393 124.503C93.8516 125.108 93.8516 126.09 94.4393 126.695C95.0269 127.301 95.9797 127.301 96.5674 126.695Z" fill="#394651"/>
<path d="M103.147 116.144C103.735 115.539 103.735 114.557 103.147 113.952C102.559 113.346 101.606 113.346 101.019 113.952C100.431 114.557 100.431 115.539 101.019 116.144C101.606 116.75 102.559 116.75 103.147 116.144Z" fill="#2A2E33"/>
<path d="M103.168 122.957C103.755 122.352 103.755 121.37 103.168 120.765C102.58 120.159 101.627 120.159 101.04 120.765C100.452 121.37 100.452 122.352 101.04 122.957C101.627 123.563 102.58 123.563 103.168 122.957Z" fill="#2A2E33"/>
<path d="M102.113 130.285C102.944 130.285 103.618 129.591 103.618 128.735C103.618 127.879 102.944 127.185 102.113 127.185C101.282 127.185 100.608 127.879 100.608 128.735C100.608 129.591 101.282 130.285 102.113 130.285Z" fill="url(#paint6_linear)"/>
<path d="M109.664 119.948C110.252 119.343 110.252 118.361 109.664 117.756C109.077 117.15 108.124 117.15 107.536 117.756C106.949 118.361 106.949 119.343 107.536 119.948C108.124 120.554 109.077 120.554 109.664 119.948Z" fill="#394651"/>
<path d="M109.686 126.761C110.273 126.155 110.273 125.174 109.686 124.568C109.098 123.963 108.145 123.963 107.558 124.568C106.97 125.174 106.97 126.155 107.558 126.761C108.145 127.366 109.098 127.366 109.686 126.761Z" fill="#2A2E33"/>
<path d="M116.265 116.21C116.853 115.605 116.853 114.623 116.265 114.018C115.678 113.412 114.725 113.412 114.137 114.018C113.55 114.623 113.55 115.605 114.137 116.21C114.725 116.816 115.678 116.816 116.265 116.21Z" fill="#2A2E33"/>
<path d="M116.286 123.023C116.874 122.417 116.874 121.436 116.286 120.83C115.699 120.225 114.746 120.225 114.158 120.83C113.57 121.436 113.57 122.417 114.158 123.023C114.746 123.628 115.699 123.628 116.286 123.023Z" fill="#394651"/>
<path d="M116.308 129.836C116.896 129.23 116.896 128.248 116.308 127.643C115.72 127.037 114.768 127.037 114.18 127.643C113.592 128.248 113.592 129.23 114.18 129.836C114.768 130.441 115.72 130.441 116.308 129.836Z" fill="#2A2E33"/>
<path d="M45.6825 122.533C45.6825 126.254 43.1244 129.2 39.6633 129.82C39.2119 129.975 38.9109 129.975 38.4595 129.975C34.547 129.975 31.2365 126.719 31.2365 122.533C31.2365 118.502 34.3965 115.091 38.4595 115.091C38.9109 115.091 39.2119 115.091 39.6633 115.246C43.1244 115.867 45.6825 118.812 45.6825 122.533Z" fill="#273850"/>
<path d="M45.6827 31.2133C45.6827 34.9343 43.1245 37.8801 39.6635 38.5003C36.2024 37.8801 33.6443 34.9343 33.6443 31.2133C33.6443 27.4922 36.2024 24.5464 39.6635 23.9263C43.1245 24.3914 45.6827 27.4922 45.6827 31.2133Z" fill="#364151"/>
<path d="M45.6827 76.796C45.6827 80.517 43.1245 83.4628 39.6635 84.083C36.2024 83.4628 33.6443 80.517 33.6443 76.796C33.6443 73.075 36.2024 70.1292 39.6635 69.509C43.1245 70.1292 45.6827 73.23 45.6827 76.796Z" fill="#364151"/>
<path d="M45.6827 122.533C45.6827 126.254 43.1245 129.2 39.6635 129.82C36.2024 129.2 33.6443 126.254 33.6443 122.533C33.6443 118.812 36.2024 115.867 39.6635 115.246C43.1245 115.867 45.6827 118.812 45.6827 122.533Z" fill="#364151"/>
<path d="M184.748 106.579C184.597 107.045 184.598 107.665 184.447 108.13C183.996 109.68 183.544 111.076 182.942 112.316C182.792 112.781 182.641 113.091 182.491 113.556C179.933 118.673 175.87 122.859 170.904 125.34C170.302 125.65 169.7 125.96 169.248 126.115C168.797 126.27 168.195 126.58 167.744 126.735C163.38 128.285 158.565 128.751 153.599 127.665C139.303 124.565 130.124 110.146 133.133 95.4168C136.143 80.6878 150.138 71.2301 164.433 74.3309C169.549 75.4162 174.064 78.0516 177.826 81.7727C183.845 88.1294 186.554 97.587 184.748 106.579Z" fill="url(#paint7_linear)"/>
<path d="M184.275 108.114C183.824 109.665 183.372 110.905 182.77 112.301C182.62 112.766 182.469 113.076 182.319 113.541C179.761 118.657 175.698 122.844 170.732 125.324C170.13 125.634 169.528 125.944 168.926 126.099C168.475 126.254 167.873 126.565 167.421 126.72L151.17 109.82L152.674 107.804L145.451 100.052L152.072 94.9359L160.198 90.9048L165.315 92.3002L168.776 92.4552L184.275 108.114Z" fill="url(#paint8_linear)"/>
<path d="M160.048 88.269C154.48 88.269 149.665 92.1451 148.16 97.7266C146.354 97.7266 146.053 97.7266 145.753 98.1918C145.151 98.8119 145.151 99.5871 145.753 100.207L148.913 103.463C149.515 104.083 150.267 104.083 150.869 103.463L154.029 100.207C154.631 99.5871 154.631 98.8119 154.029 98.1918C153.728 97.8817 153.427 97.7266 153.126 97.7266C152.675 97.7266 152.374 97.7266 152.073 97.7266C153.728 93.0754 158.844 90.7497 163.359 92.4552C167.873 94.1607 170.13 99.4321 168.475 104.083C167.121 107.494 163.961 109.82 160.349 109.82C157.941 109.82 155.684 108.89 154.029 107.029C153.277 106.254 152.223 106.254 151.471 107.029C150.718 107.804 150.718 108.89 151.471 109.665C156.136 114.781 163.961 114.936 168.926 110.13C173.892 105.324 174.043 97.2615 169.378 92.1451C166.519 89.6644 163.359 88.269 160.048 88.269Z" fill="url(#paint9_linear)"/>
<path d="M1 149H162.482" stroke="#2B323C" stroke-width="2" stroke-miterlimit="10" stroke-linecap="round" stroke-linejoin="round"/>
<defs>
<linearGradient id="paint0_linear" x1="37.7063" y1="4.13597" x2="42.599" y2="2.5925" gradientUnits="userSpaceOnUse">
<stop stop-color="#16D9E3"/>
<stop offset="0.47" stop-color="#30C7EC"/>
<stop offset="1" stop-color="#46AEF7"/>
</linearGradient>
<linearGradient id="paint1_linear" x1="176.79" y1="62.9057" x2="185.461" y2="55.2147" gradientUnits="userSpaceOnUse">
<stop stop-color="#16D9E3"/>
<stop offset="0.47" stop-color="#30C7EC"/>
<stop offset="1" stop-color="#46AEF7"/>
</linearGradient>
<linearGradient id="paint2_linear" x1="74.1863" y1="37.3201" x2="77.1822" y2="37.3201" gradientUnits="userSpaceOnUse">
<stop stop-color="#FF66A9"/>
<stop offset="1" stop-color="#F53689"/>
</linearGradient>
<linearGradient id="paint3_linear" x1="61.0049" y1="83.0029" x2="64.0007" y2="83.0029" gradientUnits="userSpaceOnUse">
<stop stop-color="#FF66A9"/>
<stop offset="1" stop-color="#F53689"/>
</linearGradient>
<linearGradient id="paint4_linear" x1="100.551" y1="69.4214" x2="103.546" y2="69.4214" gradientUnits="userSpaceOnUse">
<stop stop-color="#FF66A9"/>
<stop offset="1" stop-color="#F53689"/>
</linearGradient>
<linearGradient id="paint5_linear" x1="67.5955" y1="118.809" x2="70.5914" y2="118.809" gradientUnits="userSpaceOnUse">
<stop stop-color="#FF66A9"/>
<stop offset="1" stop-color="#F53689"/>
</linearGradient>
<linearGradient id="paint6_linear" x1="100.55" y1="128.686" x2="103.546" y2="128.686" gradientUnits="userSpaceOnUse">
<stop stop-color="#FF66A9"/>
<stop offset="1" stop-color="#F53689"/>
</linearGradient>
<linearGradient id="paint7_linear" x1="132.302" y1="100.989" x2="185.237" y2="100.989" gradientUnits="userSpaceOnUse">
<stop stop-color="#83A6FF"/>
<stop offset="1" stop-color="#4D6DE2"/>
</linearGradient>
<linearGradient id="paint8_linear" x1="156.936" y1="97.8792" x2="175.499" y2="115.896" gradientUnits="userSpaceOnUse">
<stop stop-color="#4F6AFF"/>
<stop offset="1" stop-color="#657EFF" stop-opacity="0"/>
</linearGradient>
<linearGradient id="paint9_linear" x1="169.148" y1="110.429" x2="151.156" y2="92.9666" gradientUnits="userSpaceOnUse">
<stop offset="0.0113208" stop-color="#C2D1FF"/>
<stop offset="1" stop-color="white"/>
</linearGradient>
</defs>
</svg>
