<svg width="200" height="175" viewBox="0 0 200 175" fill="none" xmlns="http://www.w3.org/2000/svg">
<path d="M23.0305 40.1255C24.9672 39.4924 26.0269 37.4 25.3974 35.4521C24.768 33.5041 22.6876 32.4383 20.7509 33.0714C18.8142 33.7045 17.7545 35.7969 18.384 37.7448C19.0135 39.6928 21.0938 40.7586 23.0305 40.1255Z" fill="url(#paint0_linear)"/>
<path d="M31.0797 28.0246C32.3967 27.5941 33.1173 26.1712 32.6892 24.8466C32.2612 23.522 30.8466 22.7973 29.5296 23.2278C28.2126 23.6583 27.492 25.0811 27.9201 26.4057C28.3481 27.7303 29.7627 28.4551 31.0797 28.0246Z" fill="url(#paint1_linear)"/>
<path d="M180.577 52.6857C182.862 50.5854 183.022 47.0196 180.934 44.7212C178.845 42.4229 175.3 42.2624 173.015 44.3627C170.73 46.463 170.57 50.0288 172.659 52.3272C174.747 54.6255 178.292 54.786 180.577 52.6857Z" fill="url(#paint2_linear)"/>
<path d="M181 27.4123C181.962 26.528 182.029 25.0266 181.15 24.0589C180.271 23.0912 178.778 23.0236 177.816 23.9079C176.854 24.7923 176.787 26.2936 177.666 27.2614C178.545 28.2291 180.038 28.2967 181 27.4123Z" fill="url(#paint3_linear)"/>
<path d="M57.5931 57.234V65.245V129.333C57.5931 132.3 59.9531 134.674 62.7555 134.674H166.003C168.953 134.674 171.166 132.3 171.166 129.333V65.245V57.5307C171.166 54.4153 168.658 51.8933 165.561 51.8933H62.7555L57.5931 57.234Z" fill="#3D4457"/>
<g filter="url(#filter0_d)">
<path d="M28.3884 50.1131V59.6076V135.267C28.3884 138.679 31.1909 141.498 34.5833 141.498H156.563C159.955 141.498 162.758 138.679 162.758 135.267V59.6076V50.4098C162.758 46.701 159.808 43.8823 156.268 43.8823H34.5833L28.3884 50.1131Z" fill="#474E61"/>
</g>
<path d="M122.786 56.6406H28.3884V50.1131C28.3884 46.701 31.1909 43.8823 34.5833 43.8823H156.563C159.955 43.8823 162.758 46.701 162.758 50.1131V56.6406H141.961H122.786Z" fill="url(#paint4_linear)"/>
<path d="M36.3538 52.6353C37.4942 52.6353 38.4187 51.7054 38.4187 50.5584C38.4187 49.4113 37.4942 48.4814 36.3538 48.4814C35.2133 48.4814 34.2888 49.4113 34.2888 50.5584C34.2888 51.7054 35.2133 52.6353 36.3538 52.6353Z" fill="white"/>
<path opacity="0.6" d="M42.2532 52.6353C43.3936 52.6353 44.3181 51.7054 44.3181 50.5584C44.3181 49.4113 43.3936 48.4814 42.2532 48.4814C41.1127 48.4814 40.1882 49.4113 40.1882 50.5584C40.1882 51.7054 41.1127 52.6353 42.2532 52.6353Z" fill="white"/>
<path opacity="0.4" d="M48.3003 52.6353C49.4407 52.6353 50.3653 51.7054 50.3653 50.5584C50.3653 49.4113 49.4407 48.4814 48.3003 48.4814C47.1599 48.4814 46.2354 49.4113 46.2354 50.5584C46.2354 51.7054 47.1599 52.6353 48.3003 52.6353Z" fill="white"/>
<path d="M89.8949 93.2835L65.853 93.1351C64.8205 93.1351 64.083 92.245 64.083 91.3549C64.083 90.3165 64.968 89.5747 65.853 89.5747L89.8949 89.7231C90.9274 89.7231 91.6649 90.6132 91.6649 91.5033C91.6649 92.3934 90.9274 93.2835 89.8949 93.2835Z" fill="#242B37"/>
<path d="M146.977 93.2835L119.247 93.1351C118.215 93.1351 117.477 92.245 117.477 91.3549C117.477 90.3165 118.362 89.5747 119.247 89.5747L146.829 89.7231C147.862 89.7231 148.599 90.6132 148.599 91.5033C148.747 92.3934 148.009 93.2835 146.977 93.2835Z" fill="#242B37"/>
<path d="M128.539 128.146L100.81 127.998C99.7775 127.998 99.04 127.108 99.04 126.218C99.04 125.179 99.925 124.438 100.81 124.438L128.539 124.586C129.572 124.586 130.309 125.476 130.309 126.366C130.309 127.405 129.424 128.146 128.539 128.146Z" fill="url(#paint5_linear)"/>
<path d="M111.429 93.1353L98.0073 92.987C96.9748 92.987 96.2373 92.0968 96.2373 91.2067C96.2373 90.1683 97.1223 89.4265 98.0073 89.4265L111.429 89.5749C112.462 89.5749 113.199 90.465 113.199 91.3551C113.347 92.3935 112.462 93.1353 111.429 93.1353Z" fill="url(#paint6_linear)"/>
<path d="M56.2658 92.987H46.3835C45.351 92.987 44.6135 92.0968 44.6135 91.2067C44.6135 90.1683 45.351 89.4265 46.3835 89.4265H56.2658C57.2982 89.4265 58.0357 90.3166 58.0357 91.2067C58.0357 92.2452 57.2982 92.987 56.2658 92.987Z" fill="url(#paint7_linear)"/>
<path d="M94.6151 104.855L80.1605 104.707C79.128 104.707 78.3905 103.817 78.3905 102.926C78.3905 101.888 79.2755 101.146 80.1605 101.146L94.6151 101.295C95.6476 101.295 96.3851 102.185 96.3851 103.075C96.5326 103.965 95.6476 104.855 94.6151 104.855Z" fill="url(#paint8_linear)"/>
<path d="M139.454 105.152L102.727 104.707C101.695 104.707 100.958 103.817 100.958 102.926C100.958 101.888 101.842 101.146 102.727 101.146L139.454 101.591C140.487 101.591 141.224 102.481 141.224 103.372C141.224 104.262 140.339 105.152 139.454 105.152Z" fill="#242B37"/>
<path d="M70.5729 104.707H46.3835C45.351 104.707 44.6135 103.817 44.6135 102.926C44.6135 101.888 45.4985 101.146 46.3835 101.146H70.5729C71.6054 101.146 72.3429 102.036 72.3429 102.926C72.3429 103.817 71.6054 104.707 70.5729 104.707Z" fill="#242B37"/>
<path d="M113.642 116.427L80.1605 116.278C79.128 116.278 78.3905 115.388 78.3905 114.498C78.3905 113.46 79.2755 112.718 80.1605 112.718L113.79 112.866C114.822 112.866 115.56 113.756 115.56 114.646C115.56 115.685 114.675 116.427 113.642 116.427Z" fill="url(#paint9_linear)"/>
<path d="M70.5729 116.278H46.3835C45.351 116.278 44.6135 115.388 44.6135 114.498C44.6135 113.46 45.4985 112.718 46.3835 112.718H70.5729C71.6054 112.718 72.3429 113.608 72.3429 114.498C72.3429 115.388 71.6054 116.278 70.5729 116.278Z" fill="#242B37"/>
<path d="M91.5173 127.998L73.0803 127.849C72.0478 127.849 71.3103 126.959 71.3103 126.069C71.3103 125.031 72.1953 124.289 73.0803 124.289L91.5173 124.437C92.5498 124.437 93.2873 125.328 93.2873 126.218C93.2873 127.256 92.5498 127.998 91.5173 127.998Z" fill="#242B37"/>
<path d="M61.2806 127.849H46.3835C45.351 127.849 44.6135 126.959 44.6135 126.069C44.6135 125.031 45.4985 124.289 46.3835 124.289H61.2806C62.3131 124.289 63.0506 125.179 63.0506 126.069C63.1981 127.108 62.3131 127.849 61.2806 127.849Z" fill="url(#paint10_linear)"/>
<path d="M114.232 75.333L46.3835 75.0363C45.351 75.0363 44.6135 74.1462 44.6135 73.2561C44.6135 72.2176 45.4985 71.4758 46.3835 71.4758L114.232 71.7725C115.264 71.7725 116.002 72.6626 116.002 73.5528C116.002 74.5912 115.264 75.333 114.232 75.333Z" fill="#242B37"/>
<path d="M3.98241 67.4999C4.2774 67.7966 4.4249 68.0933 4.4249 68.5383C2.94993 72.8405 2.50744 72.9889 4.4249 73.7306C4.5724 73.7306 4.71989 74.0273 4.57239 74.1757C4.1299 75.3625 3.98241 76.2526 3.53992 76.1043C-3.39243 73.5823 3.68741 68.835 0.147494 67.4999C-2.25282e-06 67.4999 0 67.3515 0 67.2032L0.737483 64.9779C0.737483 64.8295 0.884975 64.8295 1.03247 64.8295C2.80243 65.4229 2.94993 64.0878 3.53992 62.4559C4.2774 60.0823 6.19485 59.3405 8.4073 60.0823C8.84979 60.2306 9.29228 60.379 9.14479 60.6757C8.4073 62.901 8.5548 62.7526 7.66982 62.4559C5.45737 61.7141 6.04736 67.6482 3.98241 67.4999Z" fill="url(#paint11_linear)"/>
<path d="M194.4 67.9449C194.253 67.9449 194.253 68.0933 194.4 67.9449C194.695 68.2416 194.843 68.5383 194.843 68.9834C193.368 73.2856 192.925 73.4339 194.843 74.1757C194.99 74.1757 195.138 74.4724 194.99 74.6208C194.548 75.8076 194.4 76.6977 193.958 76.5493C187.025 74.0274 194.105 69.2801 190.565 67.9449C190.418 67.9449 190.418 67.7966 190.418 67.6482L191.155 65.423C191.155 65.2746 191.303 65.2746 191.45 65.2746C193.22 65.868 193.368 64.5328 193.958 62.901C194.695 60.5273 196.613 59.7856 198.825 60.5273C199.268 60.6757 199.71 60.8241 199.563 61.1208C198.825 63.346 198.973 63.1977 198.088 62.901C195.728 62.3076 196.465 68.0933 194.4 67.9449Z" fill="url(#paint12_linear)"/>
<path d="M108.262 3.85714C108.115 3.70879 108.115 3.70879 108.262 3.85714C107.967 4.15385 107.672 4.45055 107.377 4.45055C102.952 3.70879 102.657 3.26374 102.215 5.19231C102.215 5.34066 102.067 5.48901 101.772 5.48901C100.445 5.19231 99.7074 5.34066 99.7074 4.74726C101.035 -2.67033 106.935 3.70879 107.525 0.148351C107.525 -8.51086e-07 107.672 0 107.82 0L110.032 0.445054C110.18 0.445054 110.18 0.593407 110.18 0.741759C109.885 2.52198 111.065 2.52198 112.982 2.81868C115.342 3.26374 116.522 4.89561 116.08 7.26924C115.932 7.71429 115.932 8.15935 115.637 8.15935C113.425 7.71429 113.425 8.01099 113.72 6.97253C114.015 4.3022 108.262 5.93407 108.262 3.85714Z" fill="url(#paint13_linear)"/>
<path d="M63.1978 14.0639C62.1653 15.1023 62.0178 16.8825 63.0503 17.921C63.6403 18.6628 64.6728 18.9595 65.7052 18.6628C66.1477 19.2562 66.1477 19.9979 65.8527 20.5913L64.2303 22.965C64.0828 23.1133 63.9353 23.41 63.9353 23.5584L62.3128 21.7782C62.7553 20.2946 62.0178 18.8111 60.5428 18.3661C59.0679 17.921 57.5929 18.6628 57.1504 20.1463C56.7079 21.6298 57.4454 23.1133 58.9204 23.5584C59.3629 23.7067 59.9529 23.7067 60.3953 23.5584L64.6728 28.1573C64.2303 29.6408 64.9677 31.1243 66.4427 31.5694C67.9177 32.0144 69.3926 31.2727 69.8351 29.7891C69.8351 29.6408 69.8351 29.6408 69.9826 29.4924C69.9826 29.1957 69.9826 28.899 69.9826 28.7507C69.8351 27.2672 68.5077 26.0803 66.8852 26.3771C66.7377 26.3771 66.7377 26.3771 66.5902 26.3771C66.1477 25.7836 66.0002 25.0419 66.4427 24.4485L68.0652 22.0749C69.0977 20.443 68.9502 18.3661 67.7702 16.8825C67.7702 16.7342 67.7702 16.5858 67.9177 16.5858C67.9177 16.2891 67.9177 15.9924 67.9177 15.8441C67.7702 14.3606 66.4427 13.3221 64.9677 13.4705C64.0828 13.4705 63.6403 13.6188 63.1978 14.0639ZM59.0679 20.2946C59.5104 19.9979 59.9529 19.9979 60.3953 20.2946C60.6903 20.7397 60.6903 21.1847 60.3953 21.6298C59.9529 21.9265 59.5104 21.9265 59.0679 21.6298C58.6254 21.3331 58.6254 20.7397 59.0679 20.2946ZM67.9177 28.6023C68.0652 28.7507 68.0652 28.899 68.0652 29.0474C68.0652 29.4924 67.6227 29.9375 67.0327 29.9375C66.5902 29.9375 66.1477 29.4924 66.1477 28.899C66.1477 28.7507 66.2952 28.454 66.2952 28.3056C66.4427 28.0089 66.7377 28.0089 67.0327 28.0089C67.4752 28.1573 67.7702 28.3056 67.9177 28.6023ZM64.2303 15.399C64.5253 14.954 65.1152 14.954 65.5577 15.2507C65.7052 15.2507 65.7052 15.399 65.7052 15.5474C65.7052 15.6957 65.7052 15.6957 65.8527 15.8441C65.8527 15.9924 65.8527 15.9924 65.8527 16.1408C65.8527 16.2891 65.8527 16.2891 65.8527 16.2891C65.7052 16.4375 65.5577 16.5858 65.4102 16.7342C64.9677 17.0309 64.3778 16.7342 64.2303 16.2891C64.0828 16.1408 64.0828 15.6957 64.2303 15.399Z" fill="#635BDF"/>
<path d="M134.144 22.6682L131.931 23.8551C129.719 21.6298 126.326 21.6298 124.114 23.8551C122.934 25.0419 122.344 26.8221 122.639 28.6023L120.279 29.6408C119.837 29.7891 119.689 30.3825 119.984 30.6792L120.869 32.4595C121.017 32.9045 121.607 33.0529 121.902 32.7562L124.114 31.5693C126.326 33.7946 129.719 33.7946 131.931 31.5693C133.111 30.3825 133.701 28.6023 133.406 26.8221L135.619 25.6353C136.061 25.4869 136.209 24.8935 135.914 24.5968L135.029 22.8166C135.029 22.6682 134.439 22.5199 134.144 22.6682ZM129.276 30.2342C127.949 30.9759 126.326 30.3825 125.589 29.0474C124.851 27.7122 125.441 26.0803 126.769 25.3386C128.096 24.5968 129.719 25.1902 130.456 26.5254C131.046 27.8605 130.604 29.4924 129.276 30.2342Z" fill="#635BDF"/>
<path d="M19.9124 120.147L17.5525 115.845C16.6675 114.213 14.7501 113.62 13.1276 114.51L12.6851 114.658L12.2426 113.916C12.0951 113.62 11.8001 113.62 11.5051 113.768C11.3576 113.768 11.3576 113.916 11.2101 114.065L10.0302 117.032C9.88266 117.329 10.0302 117.625 10.3252 117.774C10.3252 117.774 10.3252 117.774 10.4726 117.774L13.5701 118.367C13.8651 118.367 14.1601 118.219 14.1601 117.922C14.1601 117.774 14.1601 117.625 14.1601 117.625L13.7176 116.883L14.1601 116.587C14.6026 116.29 15.34 116.438 15.4875 117.032L17.8475 121.334C17.405 122.076 17.405 122.966 17.8475 123.708C18.4375 124.894 19.7649 125.191 20.9449 124.598C21.3874 124.301 21.6824 124.004 21.9774 123.559C22.1249 123.411 22.1249 123.114 22.1249 122.966C22.2724 121.631 21.3874 120.444 20.0599 120.296C20.0599 120.147 19.9124 120.147 19.9124 120.147ZM19.6174 123.114C19.4699 123.114 19.4699 123.114 19.6174 123.114C19.1749 122.818 19.0275 122.373 19.3224 121.927C19.4699 121.631 19.7649 121.482 20.0599 121.482C20.2074 121.482 20.5024 121.631 20.6499 121.779C20.9449 122.076 20.9449 122.521 20.6499 122.818C20.2074 123.263 19.9124 123.263 19.6174 123.114Z" fill="#635BDF"/>
<path d="M6.93256 116.29C5.90008 116.883 5.45759 118.367 6.04758 119.405C6.49007 120.147 7.22756 120.592 8.11254 120.592L12.2424 128.01C12.5374 128.603 13.1274 128.752 13.7174 128.455C14.3074 128.158 14.4549 127.565 14.1599 126.971L10.03 119.554C10.4725 118.812 10.4725 117.922 10.03 117.18C9.44 116.142 7.96504 115.697 6.93256 116.29ZM8.40753 118.96C7.96504 119.109 7.52255 119.109 7.37505 118.664C7.22756 118.219 7.22755 117.773 7.67004 117.625C8.11253 117.477 8.55503 117.477 8.70253 117.922C8.85002 118.367 8.70252 118.812 8.40753 118.96Z" fill="#635BDF"/>
<path d="M182.817 96.3989L182.965 96.1022C183.407 95.2121 183.407 94.322 182.965 93.4319L181.637 90.6132C181.49 90.4649 181.49 90.1682 181.637 90.0198L182.08 88.9813L182.817 89.4264C183.112 89.5748 183.407 89.4264 183.555 89.1297C183.555 88.9813 183.555 88.833 183.555 88.833L182.965 85.5693C182.965 85.2726 182.67 85.1242 182.375 85.1242H182.227L179.277 86.4594C178.982 86.6077 178.835 86.9044 178.982 87.2011C178.982 87.3495 179.13 87.3495 179.277 87.4978L180.015 87.9429L179.572 88.9813C179.425 89.1297 179.277 89.2781 179.13 89.2781L176.032 89.7231C175.147 89.8715 174.263 90.4649 173.968 91.2066L173.82 91.5033C172.493 91.5033 171.46 92.5418 171.46 93.877C171.46 95.2121 172.493 96.2506 173.82 96.2506C175.147 96.2506 176.18 95.2121 176.18 93.877C176.18 93.4319 176.032 92.9868 175.737 92.6901L175.885 92.3934C176.032 92.2451 176.18 92.0967 176.327 92.0967L178.982 91.6517C179.277 91.6517 179.572 91.8 179.72 92.0967L180.9 94.6187C181.047 94.7671 181.047 95.0638 180.9 95.2121L180.752 95.5088C179.425 95.5088 178.392 96.6956 178.54 97.8825C178.54 99.2176 179.72 100.256 180.9 100.108C182.227 100.108 183.26 98.9209 183.112 97.7341C183.26 97.289 183.112 96.844 182.817 96.3989ZM173.525 94.7671C173.083 94.6187 172.935 94.0253 173.23 93.7286C173.378 93.2836 173.968 93.1352 174.263 93.4319C174.705 93.5803 174.853 94.1737 174.558 94.4704C174.41 94.7671 173.82 94.9154 173.525 94.7671ZM180.457 98.4759C180.015 98.3275 179.867 97.7341 180.162 97.4374C180.31 96.9923 180.9 96.844 181.195 97.1407C181.49 97.4374 181.785 97.8824 181.49 98.1792C181.342 98.4759 180.9 98.6242 180.457 98.4759Z" fill="#635BDF"/>
<path d="M177.381 138.101C174.431 152.64 160.124 162.133 145.669 159.018C131.214 156.051 121.774 141.661 124.872 127.122C127.822 112.584 142.129 103.09 156.584 106.205C161.746 107.244 166.466 109.766 170.153 113.623C176.496 120.002 179.298 129.2 177.381 138.101Z" fill="url(#paint14_linear)"/>
<path d="M174.643 134.614C174.509 135.545 174.509 136.321 174.241 137.097C172.366 147.188 165.537 154.639 157.235 156.347C151.209 149.361 142.209 133.061 142.209 133.061L144.782 129.18L155.226 127.317L152.189 121.418L174.643 134.614Z" fill="url(#paint15_linear)"/>
<path d="M86.0598 153.069C85.1748 153.218 84.4373 153.811 84.1423 154.701C81.7824 155.146 79.8649 153.366 79.4224 152.476C80.3074 151.437 80.1599 149.954 79.1274 149.064C78.095 148.174 76.62 148.322 75.735 149.36C74.85 150.399 74.9975 151.882 76.03 152.773C76.325 152.921 76.62 153.218 76.915 153.218L77.9475 158.707C76.915 159.597 76.7675 161.08 77.6525 162.119C78.5375 163.157 80.0124 163.306 81.0449 162.415C81.1924 162.415 81.1924 162.267 81.3399 162.267C81.4874 162.119 81.6349 161.97 81.7824 161.674C82.3724 160.487 81.9299 159.003 80.6024 158.41C80.4549 158.41 80.4549 158.262 80.3074 158.262L79.8649 156.185C81.1924 157.075 82.8149 157.371 84.4373 157.223H84.5848C85.4698 158.262 86.9448 158.41 87.9772 157.52C88.1247 157.52 88.1247 157.371 88.1247 157.371C88.2722 157.223 88.4197 157.075 88.5672 156.778C89.1572 155.591 88.7147 154.108 87.5348 153.514C87.0923 153.069 86.5023 152.921 86.0598 153.069ZM77.505 149.954C77.9475 149.806 78.39 150.102 78.5375 150.696C78.685 151.141 78.39 151.586 77.8 151.734C77.3575 151.882 76.915 151.586 76.7675 150.992C76.7675 150.547 77.0625 150.102 77.505 149.954ZM79.8649 161.229C79.5699 161.525 78.98 161.377 78.685 161.08C78.39 160.784 78.5375 160.19 78.8325 159.893C78.8325 159.893 78.9799 159.745 79.1274 159.745C79.2749 159.597 79.5699 159.745 79.7174 159.745C80.1599 160.042 80.3074 160.487 80.0124 160.932C80.1599 161.08 80.0124 161.08 79.8649 161.229ZM86.5023 156.333C86.0598 156.333 85.7648 155.888 85.7648 155.443C85.7648 155.146 86.0598 154.849 86.3548 154.701C86.5023 154.701 86.7973 154.701 86.9448 154.701C87.3873 154.849 87.5348 155.443 87.3873 155.888C87.0923 156.185 86.7973 156.333 86.5023 156.333Z" fill="#635BDF"/>
<path d="M153.108 122.254C152.441 121.361 151.106 121.138 150.217 121.808C149.994 121.808 149.994 122.031 149.772 122.254L141.766 132.298C141.098 133.191 141.321 134.53 142.21 135.2C142.655 135.423 143.1 135.646 143.545 135.646H147.326V141.672C147.326 142.119 147.548 142.342 147.993 142.342H149.327H154.887C155.332 142.342 155.554 142.119 155.554 141.672V135.646H159.335C160.447 135.646 161.337 134.753 161.337 133.637C161.337 133.191 161.114 132.744 160.892 132.298L153.108 122.254Z" fill="url(#paint16_linear)"/>
<path d="M147.77 145.02H154.887C155.11 145.02 155.554 145.243 155.554 145.69V146.583C155.554 146.806 155.332 147.252 154.887 147.252H147.77C147.548 147.252 147.103 147.029 147.103 146.583V145.69C147.103 145.243 147.548 145.02 147.77 145.02Z" fill="url(#paint17_linear)"/>
<defs>
<filter id="filter0_d" x="6.38843" y="32.8823" width="178.369" height="141.615" filterUnits="userSpaceOnUse" color-interpolation-filters="sRGB">
<feFlood flood-opacity="0" result="BackgroundImageFix"/>
<feColorMatrix in="SourceAlpha" type="matrix" values="0 0 0 0 0 0 0 0 0 0 0 0 0 0 0 0 0 0 127 0"/>
<feOffset dy="11"/>
<feGaussianBlur stdDeviation="11"/>
<feColorMatrix type="matrix" values="0 0 0 0 0 0 0 0 0 0 0 0 0 0 0 0 0 0 0.18 0"/>
<feBlend mode="normal" in2="BackgroundImageFix" result="effect1_dropShadow"/>
<feBlend mode="normal" in="SourceGraphic" in2="effect1_dropShadow" result="shape"/>
</filter>
<linearGradient id="paint0_linear" x1="18.384" y1="37.7448" x2="25.4052" y2="35.4759" gradientUnits="userSpaceOnUse">
<stop stop-color="#16D9E3"/>
<stop offset="0.47" stop-color="#30C7EC"/>
<stop offset="1" stop-color="#46AEF7"/>
</linearGradient>
<linearGradient id="paint1_linear" x1="27.9201" y1="26.4057" x2="32.6945" y2="24.8629" gradientUnits="userSpaceOnUse">
<stop stop-color="#16D9E3"/>
<stop offset="0.47" stop-color="#30C7EC"/>
<stop offset="1" stop-color="#46AEF7"/>
</linearGradient>
<linearGradient id="paint2_linear" x1="172.659" y1="52.3272" x2="180.977" y2="44.7691" gradientUnits="userSpaceOnUse">
<stop stop-color="#16D9E3"/>
<stop offset="0.47" stop-color="#30C7EC"/>
<stop offset="1" stop-color="#46AEF7"/>
</linearGradient>
<linearGradient id="paint3_linear" x1="177.666" y1="27.2614" x2="181.168" y2="24.079" gradientUnits="userSpaceOnUse">
<stop stop-color="#16D9E3"/>
<stop offset="0.47" stop-color="#30C7EC"/>
<stop offset="1" stop-color="#46AEF7"/>
</linearGradient>
<linearGradient id="paint4_linear" x1="27.7272" y1="50.2589" x2="162.599" y2="50.2589" gradientUnits="userSpaceOnUse">
<stop stop-color="#83A6FF"/>
<stop offset="1" stop-color="#4D6DE2"/>
</linearGradient>
<linearGradient id="paint5_linear" x1="99.0325" y1="126.248" x2="130.31" y2="126.248" gradientUnits="userSpaceOnUse">
<stop stop-color="#FF66A9"/>
<stop offset="1" stop-color="#F53689"/>
</linearGradient>
<linearGradient id="paint6_linear" x1="96.2543" y1="91.2974" x2="113.294" y2="91.2974" gradientUnits="userSpaceOnUse">
<stop stop-color="#83A6FF"/>
<stop offset="1" stop-color="#5A78FF"/>
</linearGradient>
<linearGradient id="paint7_linear" x1="44.5886" y1="91.153" x2="58.0876" y2="91.153" gradientUnits="userSpaceOnUse">
<stop stop-color="#83A6FF"/>
<stop offset="1" stop-color="#5A78FF"/>
</linearGradient>
<linearGradient id="paint8_linear" x1="78.3973" y1="102.934" x2="96.4733" y2="102.934" gradientUnits="userSpaceOnUse">
<stop stop-color="#FF66A9"/>
<stop offset="1" stop-color="#F53689"/>
</linearGradient>
<linearGradient id="paint9_linear" x1="78.4004" y1="114.56" x2="115.523" y2="114.56" gradientUnits="userSpaceOnUse">
<stop stop-color="#83A6FF"/>
<stop offset="1" stop-color="#5A78FF"/>
</linearGradient>
<linearGradient id="paint10_linear" x1="44.5988" y1="126.015" x2="63.1426" y2="126.015" gradientUnits="userSpaceOnUse">
<stop stop-color="#FF66A9"/>
<stop offset="1" stop-color="#F53689"/>
</linearGradient>
<linearGradient id="paint11_linear" x1="0.00345584" y1="67.6711" x2="9.21042" y2="67.6711" gradientUnits="userSpaceOnUse">
<stop stop-color="#FF66A9"/>
<stop offset="1" stop-color="#F53689"/>
</linearGradient>
<linearGradient id="paint12_linear" x1="190.515" y1="68.5137" x2="199.682" y2="68.5137" gradientUnits="userSpaceOnUse">
<stop stop-color="#83A6FF"/>
<stop offset="1" stop-color="#5A78FF"/>
</linearGradient>
<linearGradient id="paint13_linear" x1="99.6941" y1="4.00461" x2="116.121" y2="4.00461" gradientUnits="userSpaceOnUse">
<stop stop-color="#83A6FF"/>
<stop offset="1" stop-color="#5A78FF"/>
</linearGradient>
<linearGradient id="paint14_linear" x1="124.303" y1="131.644" x2="178.19" y2="131.644" gradientUnits="userSpaceOnUse">
<stop stop-color="#FF66A9"/>
<stop offset="1" stop-color="#F53689"/>
</linearGradient>
<linearGradient id="paint15_linear" x1="151.568" y1="128.846" x2="168.489" y2="148.99" gradientUnits="userSpaceOnUse">
<stop stop-color="#FF72AF"/>
<stop offset="1" stop-color="#FE5FA4" stop-opacity="0"/>
</linearGradient>
<linearGradient id="paint16_linear" x1="131.581" y1="113.478" x2="158.96" y2="140.759" gradientUnits="userSpaceOnUse">
<stop offset="0.0113208" stop-color="#C2D1FF"/>
<stop offset="1" stop-color="white"/>
</linearGradient>
<linearGradient id="paint17_linear" x1="143.75" y1="138.411" x2="154.305" y2="148.928" gradientUnits="userSpaceOnUse">
<stop offset="0.0113208" stop-color="#C2D1FF"/>
<stop offset="1" stop-color="white"/>
</linearGradient>
</defs>
</svg>
