<svg width="98" height="108" viewBox="0 0 98 108" fill="none" xmlns="http://www.w3.org/2000/svg">
<g filter="url(#filter0_biiii)">
<path d="M72.4477 0.650146C66.4303 1.81745 52.8988 3.32461 47 0C47.0445 23.5235 52.8247 56.9026 71.7215 84.4304C90.9147 78.387 97.2136 51.8344 97.6582 28.5917C91.7595 25.2523 78.3909 8.57011 72.4477 0.650146Z" fill="url(#paint0_linear)"/>
</g>
<g opacity="0.2">
<path d="M26.959 42.8542L11.4322 33.8812V28.6499L26.959 37.623C28.2287 38.3495 30.0789 39.839 31.6388 42.1277C33.3439 44.5616 34.541 47.6495 34.541 50.9917C34.541 54.6972 33.5978 56.8042 31.8202 57.3855C30.1514 57.9304 28.1562 56.9859 26.959 56.2956L20.5741 52.5902L20.5379 52.5538C19.9937 52.2269 19.123 51.8999 18.4338 52.1179C17.8533 52.2995 17.2366 52.8445 17.2366 54.9152C17.2366 56.9859 17.8896 58.221 18.3975 58.9839C19.0505 59.9285 19.9211 60.5824 20.4653 60.873L20.5379 60.9093L40.0552 72.2074V77.4387L20.6467 66.2132C19.3044 65.523 17.3817 64.0336 15.7129 61.7086C13.899 59.1293 12.6656 55.896 12.6656 52.2995C12.6656 48.7031 13.899 46.8866 15.6766 46.3781C17.3454 45.9058 19.2681 46.596 20.6104 47.3952L26.9227 51.0281C27.8297 51.573 28.5189 51.791 28.9906 51.6456C29.3533 51.5367 30.0063 51.0281 30.0063 48.3761C30.0063 46.6324 29.4622 45.5062 28.918 44.7796C28.3013 43.8351 27.4669 43.1448 26.959 42.8542Z" fill="#3980EA"/>
<path d="M26.959 42.8542L11.4322 33.8812V28.6499L26.959 37.623C28.2287 38.3495 30.0789 39.839 31.6388 42.1277C33.3439 44.5616 34.541 47.6495 34.541 50.9917C34.541 54.6972 33.5978 56.8042 31.8202 57.3855C30.1514 57.9304 28.1562 56.9859 26.959 56.2956L20.5741 52.5902L20.5379 52.5538C19.9937 52.2269 19.123 51.8999 18.4338 52.1179C17.8533 52.2995 17.2366 52.8445 17.2366 54.9152C17.2366 56.9859 17.8896 58.221 18.3975 58.9839C19.0505 59.9285 19.9211 60.5824 20.4653 60.873L20.5379 60.9093L40.0552 72.2074V77.4387L20.6467 66.2132C19.3044 65.523 17.3817 64.0336 15.7129 61.7086C13.899 59.1293 12.6656 55.896 12.6656 52.2995C12.6656 48.7031 13.899 46.8866 15.6766 46.3781C17.3454 45.9058 19.2681 46.596 20.6104 47.3952L26.9227 51.0281C27.8297 51.573 28.5189 51.791 28.9906 51.6456C29.3533 51.5367 30.0063 51.0281 30.0063 48.3761C30.0063 46.6324 29.4622 45.5062 28.918 44.7796C28.3013 43.8351 27.4669 43.1448 26.959 42.8542Z" fill="url(#paint1_linear)" fill-opacity="0.1"/>
</g>
<g filter="url(#filter1_ddii)">
<path d="M14.2619 32.7549C14.2619 37.4413 11.5048 39.6573 8.13093 37.7319C4.7571 35.7702 2 30.3936 2 25.6709C2 20.9846 4.7571 18.7686 8.13093 20.694C11.5048 22.6557 14.2619 28.0686 14.2619 32.7549Z" fill="#DD2265"/>
</g>
<g filter="url(#filter2_ddii)">
<path d="M48 79.2549C48 83.9412 45.2429 86.1573 41.8691 84.2319C38.4953 82.2702 35.7382 76.8936 35.7382 72.1709C35.7382 67.4846 38.4953 65.2686 41.8691 67.1939C45.2429 69.1557 48 74.5686 48 79.2549Z" fill="#DD2265"/>
</g>
<defs>
<filter id="filter0_biiii" x="40.658" y="-6.34203" width="63.3423" height="97.1144" filterUnits="userSpaceOnUse" color-interpolation-filters="sRGB">
<feFlood flood-opacity="0" result="BackgroundImageFix"/>
<feGaussianBlur in="BackgroundImage" stdDeviation="3.17101"/>
<feComposite in2="SourceAlpha" operator="in" result="effect1_backgroundBlur"/>
<feBlend mode="normal" in="SourceGraphic" in2="effect1_backgroundBlur" result="shape"/>
<feColorMatrix in="SourceAlpha" type="matrix" values="0 0 0 0 0 0 0 0 0 0 0 0 0 0 0 0 0 0 127 0" result="hardAlpha"/>
<feOffset dx="-2.37826"/>
<feComposite in2="hardAlpha" operator="arithmetic" k2="-1" k3="1"/>
<feColorMatrix type="matrix" values="0 0 0 0 0.0823529 0 0 0 0 0.286275 0 0 0 0 0.815686 0 0 0 1 0"/>
<feBlend mode="normal" in2="shape" result="effect2_innerShadow"/>
<feColorMatrix in="SourceAlpha" type="matrix" values="0 0 0 0 0 0 0 0 0 0 0 0 0 0 0 0 0 0 127 0" result="hardAlpha"/>
<feOffset dx="1.58551"/>
<feComposite in2="hardAlpha" operator="arithmetic" k2="-1" k3="1"/>
<feColorMatrix type="matrix" values="0 0 0 0 0.0823529 0 0 0 0 0.286274 0 0 0 0 0.815686 0 0 0 0.21 0"/>
<feBlend mode="normal" in2="effect2_innerShadow" result="effect3_innerShadow"/>
<feColorMatrix in="SourceAlpha" type="matrix" values="0 0 0 0 0 0 0 0 0 0 0 0 0 0 0 0 0 0 127 0" result="hardAlpha"/>
<feOffset dx="0.713478"/>
<feGaussianBlur stdDeviation="0.541292"/>
<feComposite in2="hardAlpha" operator="arithmetic" k2="-1" k3="1"/>
<feColorMatrix type="matrix" values="0 0 0 0 1 0 0 0 0 1 0 0 0 0 1 0 0 0 0.3 0"/>
<feBlend mode="normal" in2="effect3_innerShadow" result="effect4_innerShadow"/>
<feColorMatrix in="SourceAlpha" type="matrix" values="0 0 0 0 0 0 0 0 0 0 0 0 0 0 0 0 0 0 127 0" result="hardAlpha"/>
<feOffset dx="-0.428087"/>
<feGaussianBlur stdDeviation="0.216517"/>
<feComposite in2="hardAlpha" operator="arithmetic" k2="-1" k3="1"/>
<feColorMatrix type="matrix" values="0 0 0 0 0.0823529 0 0 0 0 0.286275 0 0 0 0 0.815686 0 0 0 1 0"/>
<feBlend mode="normal" in2="effect4_innerShadow" result="effect5_innerShadow"/>
</filter>
<filter id="filter1_ddii" x="0.414493" y="18.4145" width="31.2879" height="42.2085" filterUnits="userSpaceOnUse" color-interpolation-filters="sRGB">
<feFlood flood-opacity="0" result="BackgroundImageFix"/>
<feColorMatrix in="SourceAlpha" type="matrix" values="0 0 0 0 0 0 0 0 0 0 0 0 0 0 0 0 0 0 127 0"/>
<feOffset dx="7.92754" dy="12.6841"/>
<feGaussianBlur stdDeviation="4.75652"/>
<feColorMatrix type="matrix" values="0 0 0 0 0 0 0 0 0 0 0 0 0 0 0 0 0 0 0.06 0"/>
<feBlend mode="normal" in2="BackgroundImageFix" result="effect1_dropShadow"/>
<feColorMatrix in="SourceAlpha" type="matrix" values="0 0 0 0 0 0 0 0 0 0 0 0 0 0 0 0 0 0 127 0"/>
<feOffset dx="7.92754" dy="12.6841"/>
<feGaussianBlur stdDeviation="1.58551"/>
<feColorMatrix type="matrix" values="0 0 0 0 0 0 0 0 0 0 0 0 0 0 0 0 0 0 0.04 0"/>
<feBlend mode="normal" in2="effect1_dropShadow" result="effect2_dropShadow"/>
<feBlend mode="normal" in="SourceGraphic" in2="effect2_dropShadow" result="shape"/>
<feColorMatrix in="SourceAlpha" type="matrix" values="0 0 0 0 0 0 0 0 0 0 0 0 0 0 0 0 0 0 127 0" result="hardAlpha"/>
<feOffset dx="-2.37826" dy="1.74406"/>
<feGaussianBlur stdDeviation="0.792754"/>
<feComposite in2="hardAlpha" operator="arithmetic" k2="-1" k3="1"/>
<feColorMatrix type="matrix" values="0 0 0 0 1 0 0 0 0 1 0 0 0 0 1 0 0 0 0.2 0"/>
<feBlend mode="normal" in2="shape" result="effect3_innerShadow"/>
<feColorMatrix in="SourceAlpha" type="matrix" values="0 0 0 0 0 0 0 0 0 0 0 0 0 0 0 0 0 0 127 0" result="hardAlpha"/>
<feOffset dy="-1.58551"/>
<feGaussianBlur stdDeviation="0.792754"/>
<feComposite in2="hardAlpha" operator="arithmetic" k2="-1" k3="1"/>
<feColorMatrix type="matrix" values="0 0 0 0 0 0 0 0 0 0 0 0 0 0 0 0 0 0 0.3 0"/>
<feBlend mode="normal" in2="effect3_innerShadow" result="effect4_innerShadow"/>
</filter>
<filter id="filter2_ddii" x="34.1527" y="64.9145" width="31.2879" height="42.2085" filterUnits="userSpaceOnUse" color-interpolation-filters="sRGB">
<feFlood flood-opacity="0" result="BackgroundImageFix"/>
<feColorMatrix in="SourceAlpha" type="matrix" values="0 0 0 0 0 0 0 0 0 0 0 0 0 0 0 0 0 0 127 0"/>
<feOffset dx="7.92754" dy="12.6841"/>
<feGaussianBlur stdDeviation="4.75652"/>
<feColorMatrix type="matrix" values="0 0 0 0 0 0 0 0 0 0 0 0 0 0 0 0 0 0 0.06 0"/>
<feBlend mode="normal" in2="BackgroundImageFix" result="effect1_dropShadow"/>
<feColorMatrix in="SourceAlpha" type="matrix" values="0 0 0 0 0 0 0 0 0 0 0 0 0 0 0 0 0 0 127 0"/>
<feOffset dx="7.92754" dy="12.6841"/>
<feGaussianBlur stdDeviation="1.58551"/>
<feColorMatrix type="matrix" values="0 0 0 0 0 0 0 0 0 0 0 0 0 0 0 0 0 0 0.04 0"/>
<feBlend mode="normal" in2="effect1_dropShadow" result="effect2_dropShadow"/>
<feBlend mode="normal" in="SourceGraphic" in2="effect2_dropShadow" result="shape"/>
<feColorMatrix in="SourceAlpha" type="matrix" values="0 0 0 0 0 0 0 0 0 0 0 0 0 0 0 0 0 0 127 0" result="hardAlpha"/>
<feOffset dx="-2.37826" dy="1.74406"/>
<feGaussianBlur stdDeviation="0.792754"/>
<feComposite in2="hardAlpha" operator="arithmetic" k2="-1" k3="1"/>
<feColorMatrix type="matrix" values="0 0 0 0 1 0 0 0 0 1 0 0 0 0 1 0 0 0 0.2 0"/>
<feBlend mode="normal" in2="shape" result="effect3_innerShadow"/>
<feColorMatrix in="SourceAlpha" type="matrix" values="0 0 0 0 0 0 0 0 0 0 0 0 0 0 0 0 0 0 127 0" result="hardAlpha"/>
<feOffset dy="-1.58551"/>
<feGaussianBlur stdDeviation="0.792754"/>
<feComposite in2="hardAlpha" operator="arithmetic" k2="-1" k3="1"/>
<feColorMatrix type="matrix" values="0 0 0 0 0 0 0 0 0 0 0 0 0 0 0 0 0 0 0.3 0"/>
<feBlend mode="normal" in2="effect3_innerShadow" result="effect4_innerShadow"/>
</filter>
<linearGradient id="paint0_linear" x1="72.3291" y1="0" x2="72.3291" y2="84.4304" gradientUnits="userSpaceOnUse">
<stop stop-color="#235DF4" stop-opacity="0.32"/>
<stop offset="1" stop-color="#1549D0" stop-opacity="0"/>
</linearGradient>
<linearGradient id="paint1_linear" x1="14.4537" y1="7.20378" x2="61.4416" y2="24.4684" gradientUnits="userSpaceOnUse">
<stop stop-color="white" stop-opacity="0.51"/>
<stop offset="0.372802" stop-color="white"/>
<stop offset="0.388381" stop-color="white" stop-opacity="0"/>
</linearGradient>
</defs>
</svg>
