<svg width="1920" height="1297" viewBox="0 0 1920 1297" fill="none" xmlns="http://www.w3.org/2000/svg">
<g clip-path="url(#clip0)">
<rect width="1920" height="1297" fill="#0F2441"/>
<rect x="1269.5" y="226" width="5" height="40" rx="2.5" fill="#DD2265"/>
<rect x="1252" y="248.5" width="5" height="40" rx="2.5" transform="rotate(-90 1252 248.5)" fill="#DD2265"/>
<rect x="-27.9579" y="686.863" width="17.125" height="137" rx="8" transform="rotate(-31.89 -27.9579 686.863)" fill="#22DDDD"/>
<rect x="-38.1373" y="783.958" width="17.125" height="137" rx="8" transform="rotate(-121.89 -38.1373 783.958)" fill="#22DDDD"/>
<path d="M1944.79 569.992C1973.71 596.592 1975.73 641.731 1949.01 670.786C1922.41 699.71 1877.27 701.726 1848.21 675.007C1819.29 648.408 1817.27 603.268 1843.99 574.213C1870.71 545.158 1915.73 543.273 1944.79 569.992Z" stroke="#273F60"/>
</g>
<defs>
<clipPath id="clip0">
<rect width="1920" height="1297" fill="white"/>
</clipPath>
</defs>
</svg>
