<svg width="24" height="24" viewBox="0 0 24 24" fill="none" xmlns="http://www.w3.org/2000/svg">
<path d="M19.1999 4.8C17.4699 3.07 15.0799 2 12.4499 2C9.81994 2 7.41994 3.07 5.69994 4.8C3.96994 6.53 2.89994 8.92 2.89994 11.56C2.89994 13.65 3.57994 15.59 4.71994 17.16L1.99994 22L8.69994 20.32C9.00994 20.45 9.32994 20.58 9.64994 20.68C10.5399 20.96 11.4699 21.1 12.4499 21.1C15.0899 21.1 17.4799 20.03 19.2099 18.3C20.9399 16.57 22.0099 14.19 22.0099 11.56C21.9999 8.92 20.9299 6.53 19.1999 4.8Z" fill="url(#paint0_linear)"/>
<path d="M9.30992 14.69C11.8199 17.2 14.8799 18.22 16.1299 16.96L17.4899 15.6L14.7599 12.87L13.3999 14.23L9.76992 10.59L11.1299 9.23L8.39992 6.5L7.03992 7.86C5.77992 9.12 6.79992 12.18 9.30992 14.69Z" fill="white"/>
<defs>
<linearGradient id="paint0_linear" x1="1.90146" y1="11.996" x2="21.9863" y2="11.996" gradientUnits="userSpaceOnUse">
<stop stop-color="#83A6FF"/>
<stop offset="1" stop-color="#4D6DE2"/>
</linearGradient>
</defs>
</svg>
