<svg width="24" height="24" viewBox="0 0 24 24" fill="none" xmlns="http://www.w3.org/2000/svg">
<rect x="0.5" y="0.500244" width="23" height="23" rx="11.5" stroke="#1549D0"/>
<path d="M12.5 9.00024C12.5 8.7241 12.2761 8.50024 12 8.50024C11.7239 8.50024 11.5 8.7241 11.5 9.00024L12.5 9.00024ZM11.5 15.0002C11.5 15.2764 11.7239 15.5002 12 15.5002C12.2761 15.5002 12.5 15.2764 12.5 15.0002L11.5 15.0002ZM11.5 9.00024L11.5 15.0002L12.5 15.0002L12.5 9.00024L11.5 9.00024Z" fill="#1549D0"/>
<path d="M9 11.5002C8.72386 11.5002 8.5 11.7241 8.5 12.0002C8.5 12.2764 8.72386 12.5002 9 12.5002V11.5002ZM15 12.5002C15.2761 12.5002 15.5 12.2764 15.5 12.0002C15.5 11.7241 15.2761 11.5002 15 11.5002V12.5002ZM9 12.5002H15V11.5002H9V12.5002Z" fill="#1549D0"/>
</svg>
