<svg width="16" height="16" viewBox="0 0 16 16" fill="none" xmlns="http://www.w3.org/2000/svg">
<path fill-rule="evenodd" clip-rule="evenodd" d="M0.861932 8.02203C1.12229 7.7617 1.54439 7.7617 1.80475 8.02203L5.89141 12.1087C6.15176 12.369 6.15176 12.7912 5.89141 13.0515C5.63106 13.3118 5.20895 13.3118 4.9486 13.0515L0.861932 8.96483C0.601585 8.7045 0.601585 8.28237 0.861932 8.02203Z" fill="#22DDDD"/>
<path fill-rule="evenodd" clip-rule="evenodd" d="M15.1382 2.86189C15.3986 3.12224 15.3986 3.54435 15.1382 3.8047L5.89157 13.0514C5.63122 13.3117 5.20911 13.3117 4.94876 13.0514C4.68841 12.791 4.68841 12.3689 4.94876 12.1086L14.1954 2.86189C14.4558 2.60154 14.8779 2.60154 15.1382 2.86189Z" fill="#22DDDD"/>
<mask id="mask0" mask-type="alpha" maskUnits="userSpaceOnUse" x="0" y="0" width="1" height="1">
<path d="M0.666667 0H0V0.666667H0.666667V0Z" fill="white"/>
</mask>
<g mask="url(#mask0)">
</g>
</svg>
