<svg width="139" height="41" viewBox="0 0 139 41" fill="none" xmlns="http://www.w3.org/2000/svg">
<path d="M63.6421 25.7913C63.6421 21.3813 57.6721 19.7013 53.7721 18.3813C50.3821 17.2413 49.8721 16.8813 49.8721 15.9213C49.8721 14.8413 51.2221 14.3613 53.3821 14.3613C55.9921 14.3613 57.9721 15.0813 57.9721 17.6613H62.7721C62.7721 13.4613 59.8621 10.1613 53.3821 10.1613C47.9221 10.1613 45.0721 12.1413 45.0721 15.7413C45.0721 19.8813 48.7021 21.0813 53.1721 22.5813C56.2621 23.6313 58.8421 24.3213 58.8421 25.8513C58.8421 26.9913 57.8221 27.7113 54.7321 27.7113C50.5321 27.7113 48.9121 26.6913 48.9121 23.4513H44.1121C44.1121 28.7913 46.9621 31.9113 54.5821 31.9113C61.0921 31.9113 63.6421 29.4213 63.6421 25.7913ZM67.8473 31.6113H72.6473V14.6613L71.7473 11.6613H72.9473L76.3373 31.6113H85.6373L89.0273 11.6613H90.2273L89.3273 14.6613V31.6113H94.1273V10.4613H84.6773L81.5873 30.4113H80.3873L77.2973 10.4613H67.8473V31.6113ZM116.674 10.4613H98.0441V14.6613H104.974V31.6113H109.774V14.6613H116.674V10.4613ZM128.168 10.4613H120.578V31.6113H125.378V25.3113H128.168C133.508 25.3113 137.588 24.2913 137.588 17.8713C137.588 11.4813 133.508 10.4613 128.168 10.4613ZM128.468 21.1113H125.378V14.6613H128.468C131.318 14.6613 132.788 14.9613 132.788 17.8713C132.788 20.8113 131.318 21.1113 128.468 21.1113Z" fill="white"/>
<path d="M14.5254 20.9024L13.914 29.4296C14.243 29.4317 14.568 29.3588 14.8641 29.2165C15.1601 29.0743 15.4192 28.8666 15.6214 28.6094L19.7224 24.7227L28.2374 30.8927C29.7883 31.7572 30.8844 31.3065 31.3094 29.4739L36.8941 3.52294C37.3862 1.23967 36.0888 0.323405 34.5379 0.899765L1.73045 13.3506C-0.536249 14.2373 -0.484055 15.4787 1.35018 16.0477L9.74592 18.6339L28.6326 7.70525C29.5497 7.09195 29.7063 8.03038 29.7063 8.03038L14.5254 20.9024Z" fill="url(#paint0_linear)"/>
<path d="M14.5 28.8501V28.8501C12.5471 34.3895 16.6568 40.196 22.5304 40.196H137" stroke="url(#paint1_linear)" stroke-linecap="round" stroke-linejoin="round" stroke-dasharray="8 8"/>
<defs>
<linearGradient id="paint0_linear" x1="-0.182088" y1="16.0182" x2="36.9562" y2="16.0182" gradientUnits="userSpaceOnUse">
<stop stop-color="#83A6FF"/>
<stop offset="1" stop-color="#4D6DE2"/>
</linearGradient>
<linearGradient id="paint1_linear" x1="9.87746" y1="34.5208" x2="136.85" y2="34.5208" gradientUnits="userSpaceOnUse">
<stop stop-color="#83A6FF"/>
<stop offset="1" stop-color="#4D6DE2"/>
</linearGradient>
</defs>
</svg>
