<svg width="122" height="144" viewBox="0 0 122 144" fill="none" xmlns="http://www.w3.org/2000/svg">
<path d="M5.00841 30.0016C6.66526 30.0016 8.00642 28.6581 8.00396 27.0008C8.0015 25.3435 6.65637 24 4.99951 24C3.34266 24 2.0015 25.3435 2.00396 27.0008C2.00642 28.6581 3.35155 30.0016 5.00841 30.0016Z" fill="url(#paint0_linear)"/>
<path d="M11.0126 22.0011C12.1172 22.0011 13.0098 21.1054 13.0063 20.0005C13.0028 18.8957 12.1046 18 11 18C9.89543 18 9.00283 18.8957 9.00632 20.0005C9.00982 21.1054 9.90808 22.0011 11.0126 22.0011Z" fill="url(#paint1_linear)"/>
<path d="M116.043 48.9999C118.252 48.9999 120.033 47.2091 120.021 44.9999C120.01 42.7908 118.209 41 116 41C113.791 41 112.01 42.7908 112.021 44.9999C112.033 47.2091 113.834 48.9999 116.043 48.9999Z" fill="url(#paint2_linear)"/>
<path d="M118.021 30.9999C119.126 30.9999 120.017 30.1045 120.011 29C120.005 27.8954 119.105 27 118 27C116.895 27 116.005 27.8954 116.011 29C116.017 30.1045 116.917 30.9999 118.021 30.9999Z" fill="url(#paint3_linear)"/>
<path d="M97 15C98.1046 15 99 14.1046 99 13C99 11.8954 98.1046 11 97 11C95.8954 11 95 11.8954 95 13C95 14.1046 95.8954 15 97 15Z" fill="url(#paint4_linear)"/>
<path d="M10 90C11.1046 90 12 89.1046 12 88C12 86.8954 11.1046 86 10 86C8.89543 86 8 86.8954 8 88C8 89.1046 8.89543 90 10 90Z" fill="url(#paint5_linear)"/>
<g filter="url(#filter0_d)">
<path d="M99.1268 35.6187L99.9995 106.643C99.9995 109.039 98.0359 111 95.6359 111H26.3631C23.9631 111 21.9995 109.039 21.9995 106.643V15.3573C21.9995 12.9608 23.9631 11 26.3631 11H76.545L99.1268 35.6187Z" fill="#474E61"/>
</g>
<path d="M87.1268 79.6275H45.6722C45.1268 79.6275 44.6904 79.0828 44.6904 78.4292C44.6904 77.7756 45.1268 77.231 45.6722 77.231H87.1268C87.6723 77.231 88.1086 77.7756 88.1086 78.4292C88.1086 79.0828 87.6723 79.6275 87.1268 79.6275Z" fill="#363E4B"/>
<path d="M40.5443 79.6275H33.2352C32.6898 79.6275 32.2534 79.0828 32.2534 78.4292C32.2534 77.7756 32.6898 77.231 33.2352 77.231H40.5443C41.0898 77.231 41.5261 77.7756 41.5261 78.4292C41.5261 79.0828 41.0898 79.6275 40.5443 79.6275Z" fill="#242B37"/>
<path d="M87.018 70.9131H68.4725C67.9271 70.9131 67.4907 70.3685 67.4907 69.7149C67.4907 69.0613 67.9271 68.5166 68.4725 68.5166H87.018C87.5635 68.5166 87.9998 69.0613 87.9998 69.7149C87.9998 70.3685 87.5635 70.9131 87.018 70.9131Z" fill="#242B37"/>
<path d="M60.6179 70.9131H33.5634C33.0179 70.9131 32.5815 70.3685 32.5815 69.7149C32.5815 69.0613 33.0179 68.5166 33.5634 68.5166H60.6179C61.1634 68.5166 61.5997 69.0613 61.5997 69.7149C61.7088 70.3685 61.1634 70.9131 60.6179 70.9131Z" fill="#363E4B"/>
<path d="M80.3632 44.6597H87.7813C88.3268 44.6597 88.7632 44.115 88.7632 43.4614C88.7632 42.8078 88.3268 42.2632 87.7813 42.2632H80.3632C79.8177 42.2632 79.3813 42.8078 79.3813 43.4614C79.3813 44.224 79.8177 44.6597 80.3632 44.6597Z" fill="#363E4B"/>
<path d="M87.3449 62.0894H80.1449C79.5995 62.0894 79.1631 61.5447 79.1631 60.8911C79.1631 60.2375 79.5995 59.6929 80.1449 59.6929H87.3449C87.8904 59.6929 88.3267 60.2375 88.3267 60.8911C88.3267 61.5447 87.8904 62.0894 87.3449 62.0894Z" fill="#363E4B"/>
<path d="M73.4892 62.0894H54.1801C53.6346 62.0894 53.1982 61.5447 53.1982 60.8911C53.1982 60.2375 53.6346 59.6929 54.1801 59.6929H73.5982C74.1437 59.6929 74.5801 60.2375 74.5801 60.8911C74.5801 61.5447 74.1437 62.0894 73.4892 62.0894Z" fill="#242B37"/>
<path d="M55.7087 96.8389H53.1996C52.6541 96.8389 52.2178 96.2942 52.2178 95.6406C52.2178 94.987 52.6541 94.4424 53.1996 94.4424H55.7087C56.2541 94.4424 56.6905 94.987 56.6905 95.6406C56.6905 96.4032 56.2541 96.8389 55.7087 96.8389Z" fill="#242B37"/>
<path d="M48.7267 96.8389H33.9994C33.4539 96.8389 33.0176 96.2942 33.0176 95.6406C33.0176 94.987 33.4539 94.4424 33.9994 94.4424H48.7267C49.2721 94.4424 49.7085 94.987 49.7085 95.6406C49.7085 96.4032 49.2721 96.8389 48.7267 96.8389Z" fill="#363E4B"/>
<path d="M87.6711 53.375H73.162C72.6165 53.375 72.1802 52.8304 72.1802 52.1768C72.1802 51.5232 72.6165 50.9785 73.162 50.9785H87.7802C88.3256 50.9785 88.762 51.5232 88.762 52.1768C88.762 52.8304 88.3256 53.375 87.6711 53.375Z" fill="#242B37"/>
<path d="M54.0707 44.6597H73.707C74.2525 44.6597 74.6889 44.115 74.6889 43.4614C74.6889 42.8078 74.2525 42.2632 73.707 42.2632H54.0707C53.5252 42.2632 53.0889 42.8078 53.0889 43.4614C53.0889 44.224 53.5252 44.6597 54.0707 44.6597Z" fill="#242B37"/>
<path d="M67.0532 53.3745H53.9623C53.4168 53.3745 52.9805 52.8299 52.9805 52.1763C52.9805 51.5227 53.4168 50.978 53.9623 50.978H67.0532C67.5987 50.978 68.035 51.5227 68.035 52.1763C68.1441 52.8299 67.7077 53.3745 67.0532 53.3745Z" fill="#363E4B"/>
<path d="M67.5813 25.0918H34.4177C33.6541 25.0918 32.9995 24.6303 32.9995 24.0918C32.9995 23.5533 33.6541 23.0918 34.4177 23.0918H67.5813C68.345 23.0918 68.9995 23.5533 68.9995 24.0918C68.9995 24.6303 68.345 25.0918 67.5813 25.0918Z" fill="#242B37"/>
<path d="M46.7319 33H34.3728C33.6333 33 32.9995 32.5385 32.9995 32C32.9995 31.4615 33.6333 31 34.3728 31H46.6263C47.3657 31 47.9995 31.4615 47.9995 32C47.9995 32.5385 47.3657 33 46.7319 33Z" fill="#242B37"/>
<path d="M76.9995 11V30.115C76.9995 32.7699 79.3377 35 81.9947 35H98.9995" fill="#354157"/>
<path d="M107.6 106.066C105.399 116.836 94.7295 123.869 83.9494 121.561C73.1694 119.363 66.1292 108.704 68.4392 97.934C70.7492 87.1644 81.3093 80.131 92.0893 82.4388C95.9393 83.2081 99.4593 85.0763 102.209 87.9335C106.939 92.659 108.92 99.4724 107.6 106.066Z" fill="url(#paint6_linear)"/>
<path d="M105.605 101.549C105.605 102.319 105.605 103.088 105.495 103.857C105.385 104.407 105.385 105.066 105.165 105.615C103.845 112.759 98.1248 118.034 91.4147 119.132C90.0947 119.352 88.7747 119.462 87.4547 119.352L80.3047 112.209L86.6847 102.978L93.5047 97.813L98.3448 94.2964L105.605 101.549Z" fill="url(#paint7_linear)"/>
<path d="M97.6223 94.0598C94.5909 93.2062 91.4513 93.3129 88.5281 94.3798C88.3116 94.4865 88.0951 94.5932 87.9868 94.8066C87.4455 95.3401 87.0125 95.8735 86.5794 96.5137C86.5794 96.1936 86.5794 95.8735 86.5794 95.5535C86.5794 95.4468 86.4711 95.4468 86.4711 95.4468C86.4711 95.4468 86.4711 95.4468 86.3629 95.4468C85.2802 95.9802 84.4141 96.7271 83.548 97.5806C83.3315 97.794 83.2232 98.0074 83.2232 98.2208C83.0067 98.7542 82.8984 99.2877 82.7902 99.7145C82.6819 99.5011 82.6819 99.2877 82.5736 99.0743C82.5736 98.9676 82.4654 98.9676 82.4654 98.9676C82.4654 98.9676 82.4654 98.9676 82.3571 98.9676C81.2745 100.675 80.5166 102.595 80.3001 104.622C80.3001 105.049 80.3001 105.583 80.3001 106.009L80.4084 106.756C80.4084 106.863 80.4084 106.863 80.5166 106.863C80.6249 106.863 80.6249 106.863 80.6249 106.756C83.2232 101.955 86.3629 97.794 91.9926 95.7668C92.3174 95.6601 92.6422 95.7668 92.7504 96.0869C92.8587 96.407 92.7504 96.7271 92.4257 96.8338C85.8216 99.181 82.7902 104.836 80.0836 110.704C79.9753 111.024 80.0836 111.344 80.4084 111.451C80.7331 111.557 81.0579 111.451 81.1662 111.131C81.5993 110.17 82.0323 109.21 82.4654 108.357C82.6819 107.93 83.115 107.503 83.6563 107.396C87.5538 106.65 91.0182 104.622 93.4 101.422C93.7248 100.995 94.0496 100.568 94.3744 100.035C94.4827 99.9279 94.3744 99.7145 94.2661 99.7145C94.2661 99.7145 94.2661 99.7145 94.1579 99.7145L92.1009 99.2877C94.2661 98.6476 94.8075 98.9676 95.6736 97.5806C96.3232 96.5137 97.081 95.4468 97.7306 94.4865C98.1636 94.2731 98.1636 94.1664 97.6223 94.0598Z" fill="url(#paint8_linear)"/>
<path d="M46.1976 62C45.9821 62 45.7665 61.8929 45.6588 61.5714L44.4734 58.0357H36.2832L35.0978 61.5714C34.99 61.7857 34.7745 62 34.5589 62H32.4036C32.2959 62 32.1881 61.8929 32.0803 61.8929C31.9726 61.7857 31.9726 61.6786 32.0803 61.5714L38.3307 44.6429C38.4385 44.2143 38.8696 44 39.1929 44H41.887C42.3181 44 42.6414 44.2143 42.7491 44.6429L48.9995 61.8929L48.8917 62H46.1976ZM37.2531 55.4643H43.5035L40.3783 46.3571L37.2531 55.4643Z" fill="url(#paint9_linear)"/>
<defs>
<filter id="filter0_d" x="-0.000488281" y="0" width="122" height="144" filterUnits="userSpaceOnUse" color-interpolation-filters="sRGB">
<feFlood flood-opacity="0" result="BackgroundImageFix"/>
<feColorMatrix in="SourceAlpha" type="matrix" values="0 0 0 0 0 0 0 0 0 0 0 0 0 0 0 0 0 0 127 0"/>
<feOffset dy="11"/>
<feGaussianBlur stdDeviation="11"/>
<feColorMatrix type="matrix" values="0 0 0 0 0.0616146 0 0 0 0 0.150394 0 0 0 0 0.1625 0 0 0 0.1 0"/>
<feBlend mode="normal" in2="BackgroundImageFix" result="effect1_dropShadow"/>
<feBlend mode="normal" in="SourceGraphic" in2="effect1_dropShadow" result="shape"/>
</filter>
<linearGradient id="paint0_linear" x1="2.00606" y1="26.8933" x2="8.02779" y2="26.8843" gradientUnits="userSpaceOnUse">
<stop stop-color="#FF66A9"/>
<stop offset="1" stop-color="#F53689"/>
</linearGradient>
<linearGradient id="paint1_linear" x1="9.0076" y1="19.9288" x2="13.0221" y2="19.9162" gradientUnits="userSpaceOnUse">
<stop stop-color="#FF66A9"/>
<stop offset="1" stop-color="#F53689"/>
</linearGradient>
<linearGradient id="paint2_linear" x1="111.982" y1="44.9984" x2="120.012" y2="44.9554" gradientUnits="userSpaceOnUse">
<stop stop-color="#83A6FF"/>
<stop offset="1" stop-color="#4D6DE2"/>
</linearGradient>
<linearGradient id="paint3_linear" x1="115.991" y1="28.9992" x2="120.006" y2="28.9777" gradientUnits="userSpaceOnUse">
<stop stop-color="#83A6FF"/>
<stop offset="1" stop-color="#4D6DE2"/>
</linearGradient>
<linearGradient id="paint4_linear" x1="95.1014" y1="12.9714" x2="98.9817" y2="12.9714" gradientUnits="userSpaceOnUse">
<stop stop-color="#FF66A9"/>
<stop offset="1" stop-color="#F53689"/>
</linearGradient>
<linearGradient id="paint5_linear" x1="8.09925" y1="87.9889" x2="11.9796" y2="87.9889" gradientUnits="userSpaceOnUse">
<stop stop-color="#FF66A9"/>
<stop offset="1" stop-color="#F53689"/>
</linearGradient>
<linearGradient id="paint6_linear" x1="67.9159" y1="102.002" x2="107.99" y2="102.002" gradientUnits="userSpaceOnUse">
<stop stop-color="#83A6FF"/>
<stop offset="1" stop-color="#5A78FF"/>
</linearGradient>
<linearGradient id="paint7_linear" x1="88.0555" y1="101.998" x2="96.2882" y2="110.238" gradientUnits="userSpaceOnUse">
<stop stop-color="#4F6AFF"/>
<stop offset="1" stop-color="#657EFF" stop-opacity="0"/>
</linearGradient>
<linearGradient id="paint8_linear" x1="90.0238" y1="104.221" x2="84.0473" y2="95.9291" gradientUnits="userSpaceOnUse">
<stop offset="0.0113208" stop-color="#C2D1FF"/>
<stop offset="1" stop-color="white"/>
</linearGradient>
<linearGradient id="paint9_linear" x1="31.9158" y1="52.9964" x2="48.9794" y2="52.9964" gradientUnits="userSpaceOnUse">
<stop stop-color="#83A6FF"/>
<stop offset="1" stop-color="#4D6DE2"/>
</linearGradient>
</defs>
</svg>
