<svg width="76" height="76" viewBox="0 0 76 76" fill="none" xmlns="http://www.w3.org/2000/svg">
<g clip-path="url(#clip0)">
<path fill-rule="evenodd" clip-rule="evenodd" d="M36.75 17.2351H37.284C44.3031 17.2351 49.9998 22.387 49.9998 28.7067V41.346C49.9998 47.6657 44.3031 52.7947 37.284 52.7947H13.175C6.15588 52.7947 0.459229 47.6657 0.459229 41.346V28.7067C0.459229 22.387 6.15588 17.2351 13.175 17.2351H13.709C13.7599 14.4874 14.9552 11.9229 17.1168 9.99955C19.304 8.05328 22.1014 7.06869 25.2549 7C31.5619 7 36.6737 11.5795 36.75 17.2351ZM19.7883 12.4486C18.3641 13.7308 17.5757 15.4252 17.5249 17.2341H32.9364C32.8601 13.4789 29.4522 10.4336 25.256 10.4336C23.2978 10.4336 21.2633 11.1434 19.7883 12.4486Z" fill="url(#paint0_linear)"/>
<g filter="url(#filter0_b)">
<path d="M53.6161 34.3197C53.6253 34.5474 53.5048 39.1879 53.4115 39.396H49.1917C49.11 39.1844 49.0667 33.834 49.0638 33.6073C49.0638 27.9769 44.4837 23.4126 38.8339 23.4126C33.1841 23.4126 28.604 27.9769 28.604 33.6073C28.6428 33.8265 28.6428 39.1768 28.6041 39.396H24.282C24.2433 39.1768 24.2432 33.8265 24.2819 33.6073C24.6103 25.772 31.0798 19.5884 38.949 19.5884C46.8182 19.5884 53.2877 25.772 53.6161 33.6073V34.3197Z" fill="url(#paint1_linear)"/>
<path d="M53.516 34.3197H53.5161V33.6094C53.1889 25.8289 46.7642 19.6884 38.949 19.6884C31.1331 19.6884 24.708 25.83 24.3818 33.6115L24.3813 33.6249L24.3804 33.6247C24.3804 33.6245 24.3801 33.6263 24.3796 33.6312L24.3782 33.6494C24.3771 33.6647 24.3761 33.685 24.375 33.7102C24.373 33.7605 24.371 33.8286 24.3692 33.9122C24.3656 34.0792 24.3626 34.3066 24.3602 34.5744C24.3553 35.1098 24.3529 35.8057 24.3529 36.5017C24.3529 37.1977 24.3553 37.8935 24.3602 38.429C24.3626 38.6967 24.3656 38.9241 24.3692 39.0912C24.371 39.1748 24.373 39.2428 24.3751 39.2932C24.3751 39.2941 24.3752 39.2951 24.3752 39.296H28.5109C28.5109 39.2951 28.5109 39.2941 28.511 39.2932C28.5131 39.2428 28.515 39.1748 28.5168 39.0912C28.5204 38.9241 28.5234 38.6967 28.5259 38.429C28.5307 37.8935 28.5331 37.1977 28.5331 36.5017C28.5331 35.8057 28.5307 35.1098 28.5258 34.5744C28.5234 34.3066 28.5204 34.0792 28.5168 33.9122C28.515 33.8286 28.513 33.7605 28.5109 33.7102C28.5099 33.685 28.5088 33.6647 28.5078 33.6494L28.5063 33.6312C28.5059 33.627 28.5056 33.6251 28.5056 33.6248L28.5056 33.6247L28.504 33.6161V33.6073C28.504 27.9214 33.1292 23.3126 38.8339 23.3126C44.5384 23.3126 49.1635 27.921 49.1638 33.6067M53.516 34.3197L49.0638 33.6073M53.516 34.3197L53.5162 34.3237C53.5206 34.4328 53.493 35.6446 53.4523 36.8619C53.432 37.4689 53.4085 38.0749 53.3843 38.5419C53.3722 38.7755 53.3599 38.9735 53.3478 39.1192C53.3418 39.1922 53.3358 39.251 53.3301 39.2941C53.3301 39.2947 53.33 39.2954 53.3299 39.296M53.516 34.3197L53.3299 39.296M49.1638 33.6067C49.1638 33.6069 49.1638 33.6071 49.1638 33.6073H49.0638M49.1638 33.6067C49.1638 33.6065 49.1638 33.6063 49.1638 33.6061L49.0638 33.6073M49.1638 33.6067C49.1641 33.6269 49.1646 33.6842 49.1654 33.7723C49.1695 34.2001 49.1804 35.3532 49.1982 36.5058C49.2089 37.2019 49.222 37.897 49.2376 38.4312C49.2454 38.6984 49.2537 38.9247 49.2627 39.0904C49.2672 39.1734 49.2717 39.2403 49.2764 39.2892C49.2766 39.2915 49.2768 39.2938 49.277 39.296M49.0638 33.6073C49.0641 33.6268 49.0646 33.684 49.0654 33.7726C49.0744 34.7151 49.117 39.2026 49.1917 39.396M49.277 39.296H49.1917V39.396M49.277 39.296H53.3299M49.277 39.296C49.2791 39.3173 49.2811 39.334 49.283 39.3464C49.2846 39.3568 49.2857 39.3614 49.2858 39.3621C49.2859 39.3625 49.2856 39.3617 49.285 39.36L49.1917 39.396M49.1917 39.396L53.3299 39.296" stroke="url(#paint2_linear)" stroke-opacity="0.5" stroke-width="0.2"/>
</g>
<g filter="url(#filter1_b)">
<path d="M7.99976 50.4264C7.99976 43.7171 15.1384 38.2476 23.9343 38.2476H54.1462C62.9421 38.2476 70.0808 43.7171 70.0808 50.4264V63.845C70.0808 70.5543 62.9421 75.9995 54.1462 75.9995H23.9343C15.1384 75.9995 7.99976 70.5543 7.99976 63.845V50.4264Z" fill="url(#paint3_linear)"/>
<path d="M23.9343 37.7476C19.436 37.7476 15.3434 39.1456 12.3648 41.4238C9.38601 43.7023 7.49976 46.8828 7.49976 50.4264V63.845C7.49976 67.3889 9.38626 70.5634 12.3653 72.8358C15.3441 75.1079 19.4365 76.4995 23.9343 76.4995H54.1462C58.644 76.4995 62.7365 75.1079 65.7152 72.8358C68.6943 70.5634 70.5808 67.3889 70.5808 63.845V50.4264C70.5808 46.8828 68.6946 43.7023 65.7158 41.4238C62.7372 39.1456 58.6446 37.7476 54.1462 37.7476H23.9343Z" stroke="url(#paint4_linear)" stroke-linecap="round" stroke-linejoin="round"/>
</g>
<g filter="url(#filter2_bd)">
<mask id="path-6-inside-1" fill="white">
<path fill-rule="evenodd" clip-rule="evenodd" d="M26.8796 47.2906C28.2109 47.2906 29.2568 46.1857 29.2568 44.8534V41.0837C29.2568 39.7514 28.2109 38.6465 26.8796 38.6465C25.5801 38.6465 24.5024 39.7514 24.5024 41.0837V44.8534C24.5024 46.1857 25.5801 47.2906 26.8796 47.2906ZM51.2549 47.291C52.5861 47.291 53.6321 46.1861 53.6321 44.8537V41.0841C53.6321 39.7517 52.5861 38.6468 51.2549 38.6468C49.9554 38.6468 48.8777 39.7517 48.8777 41.0841V44.8537C48.8777 46.1861 49.9554 47.291 51.2549 47.291Z"/>
</mask>
<path fill-rule="evenodd" clip-rule="evenodd" d="M26.8796 47.2906C28.2109 47.2906 29.2568 46.1857 29.2568 44.8534V41.0837C29.2568 39.7514 28.2109 38.6465 26.8796 38.6465C25.5801 38.6465 24.5024 39.7514 24.5024 41.0837V44.8534C24.5024 46.1857 25.5801 47.2906 26.8796 47.2906ZM51.2549 47.291C52.5861 47.291 53.6321 46.1861 53.6321 44.8537V41.0841C53.6321 39.7517 52.5861 38.6468 51.2549 38.6468C49.9554 38.6468 48.8777 39.7517 48.8777 41.0841V44.8537C48.8777 46.1861 49.9554 47.291 51.2549 47.291Z" fill="url(#paint5_linear)"/>
<path d="M29.0568 44.8534C29.0568 46.0818 28.094 47.0906 26.8796 47.0906V47.4906C28.3277 47.4906 29.4568 46.2897 29.4568 44.8534H29.0568ZM29.0568 41.0837V44.8534H29.4568V41.0837H29.0568ZM26.8796 38.8465C28.094 38.8465 29.0568 39.8553 29.0568 41.0837H29.4568C29.4568 39.6474 28.3277 38.4465 26.8796 38.4465V38.8465ZM24.7024 41.0837C24.7024 39.8571 25.6952 38.8465 26.8796 38.8465V38.4465C25.465 38.4465 24.3024 39.6457 24.3024 41.0837H24.7024ZM24.7024 44.8534V41.0837H24.3024V44.8534H24.7024ZM26.8796 47.0906C25.6952 47.0906 24.7024 46.08 24.7024 44.8534H24.3024C24.3024 46.2915 25.465 47.4906 26.8796 47.4906V47.0906ZM53.4321 44.8537C53.4321 46.0821 52.4693 47.091 51.2549 47.091V47.491C52.703 47.491 53.8321 46.2901 53.8321 44.8537H53.4321ZM53.4321 41.0841V44.8537H53.8321V41.0841H53.4321ZM51.2549 38.8468C52.4693 38.8468 53.4321 39.8557 53.4321 41.0841H53.8321C53.8321 39.6478 52.703 38.4468 51.2549 38.4468V38.8468ZM49.0777 41.0841C49.0777 39.8575 50.0705 38.8468 51.2549 38.8468V38.4468C49.8402 38.4468 48.6777 39.646 48.6777 41.0841H49.0777ZM49.0777 44.8537V41.0841H48.6777V44.8537H49.0777ZM51.2549 47.091C50.0705 47.091 49.0777 46.0804 49.0777 44.8537H48.6777C48.6777 46.2918 49.8402 47.491 51.2549 47.491V47.091Z" fill="url(#paint6_linear)" fill-opacity="0.5" mask="url(#path-6-inside-1)"/>
</g>
</g>
<defs>
<filter id="filter0_b" x="9.25293" y="4.58838" width="59.3637" height="49.8076" filterUnits="userSpaceOnUse" color-interpolation-filters="sRGB">
<feFlood flood-opacity="0" result="BackgroundImageFix"/>
<feGaussianBlur in="BackgroundImage" stdDeviation="7.5"/>
<feComposite in2="SourceAlpha" operator="in" result="effect1_backgroundBlur"/>
<feBlend mode="normal" in="SourceGraphic" in2="effect1_backgroundBlur" result="shape"/>
</filter>
<filter id="filter1_b" x="-8.00024" y="22.2476" width="94.0811" height="69.752" filterUnits="userSpaceOnUse" color-interpolation-filters="sRGB">
<feFlood flood-opacity="0" result="BackgroundImageFix"/>
<feGaussianBlur in="BackgroundImage" stdDeviation="7.5"/>
<feComposite in2="SourceAlpha" operator="in" result="effect1_backgroundBlur"/>
<feBlend mode="normal" in="SourceGraphic" in2="effect1_backgroundBlur" result="shape"/>
</filter>
<filter id="filter2_bd" x="9.50244" y="23.6465" width="59.1297" height="38.6445" filterUnits="userSpaceOnUse" color-interpolation-filters="sRGB">
<feFlood flood-opacity="0" result="BackgroundImageFix"/>
<feGaussianBlur in="BackgroundImage" stdDeviation="7.5"/>
<feComposite in2="SourceAlpha" operator="in" result="effect1_backgroundBlur"/>
<feColorMatrix in="SourceAlpha" type="matrix" values="0 0 0 0 0 0 0 0 0 0 0 0 0 0 0 0 0 0 127 0"/>
<feOffset dx="5" dy="5"/>
<feGaussianBlur stdDeviation="5"/>
<feColorMatrix type="matrix" values="0 0 0 0 1 0 0 0 0 0.447059 0 0 0 0 0.368627 0 0 0 0.5 0"/>
<feBlend mode="normal" in2="effect1_backgroundBlur" result="effect2_dropShadow"/>
<feBlend mode="normal" in="SourceGraphic" in2="effect2_dropShadow" result="shape"/>
</filter>
<linearGradient id="paint0_linear" x1="0.459229" y1="29.8973" x2="49.9998" y2="29.8973" gradientUnits="userSpaceOnUse">
<stop stop-color="#16D9E3"/>
<stop offset="0.47" stop-color="#30C7EC"/>
<stop offset="1" stop-color="#46AEF7"/>
</linearGradient>
<linearGradient id="paint1_linear" x1="51.5347" y1="23.1652" x2="18.8679" y2="24.7442" gradientUnits="userSpaceOnUse">
<stop stop-color="white"/>
<stop offset="1" stop-color="white" stop-opacity="0.2"/>
</linearGradient>
<linearGradient id="paint2_linear" x1="52.3585" y1="29.9112" x2="23.8696" y2="31.6706" gradientUnits="userSpaceOnUse">
<stop stop-color="white"/>
<stop offset="1" stop-color="white" stop-opacity="0"/>
</linearGradient>
<linearGradient id="paint3_linear" x1="7.69424" y1="57.1161" x2="70.0073" y2="57.1161" gradientUnits="userSpaceOnUse">
<stop stop-color="#83A6FF"/>
<stop offset="1" stop-color="#4D6DE2"/>
</linearGradient>
<linearGradient id="paint4_linear" x1="17.882" y1="42.6457" x2="37.3741" y2="82.345" gradientUnits="userSpaceOnUse">
<stop stop-color="white" stop-opacity="0.25"/>
<stop offset="1" stop-color="white" stop-opacity="0"/>
</linearGradient>
<linearGradient id="paint5_linear" x1="51.5668" y1="40.2075" x2="19.4721" y2="43.7337" gradientUnits="userSpaceOnUse">
<stop stop-color="white"/>
<stop offset="1" stop-color="white" stop-opacity="0.2"/>
</linearGradient>
<linearGradient id="paint6_linear" x1="52.384" y1="43.1516" x2="24.5626" y2="47.0572" gradientUnits="userSpaceOnUse">
<stop stop-color="white"/>
<stop offset="1" stop-color="white" stop-opacity="0"/>
</linearGradient>
<clipPath id="clip0">
<rect width="76" height="76" fill="white"/>
</clipPath>
</defs>
</svg>
