<svg width="475" height="449" viewBox="0 0 475 449" fill="none" xmlns="http://www.w3.org/2000/svg">
<circle r="196" transform="matrix(-1 0 0 1 279 219)" fill="url(#paint0_linear)"/>
<g opacity="0.8" filter="url(#filter0_biii)">
<rect width="259.494" height="259.494" rx="23.1237" transform="matrix(-0.866756 0.498732 0.866756 0.498732 221.918 155.66)" fill="#ACAFCF"/>
<rect width="259.494" height="259.494" rx="23.1237" transform="matrix(-0.866756 0.498732 0.866756 0.498732 221.918 155.66)" fill="white" fill-opacity="0.4"/>
<rect y="0.498732" width="258.494" height="258.494" rx="22.6237" transform="matrix(-0.866756 0.498732 0.866756 0.498732 221.486 155.91)" stroke="url(#paint1_linear)"/>
</g>
<g opacity="0.7">
<rect width="259.494" height="259.494" rx="23.1237" transform="matrix(-0.866756 0.498732 0.866756 0.498732 221.918 145.595)" fill="white"/>
<rect width="259.494" height="259.494" rx="23.1237" transform="matrix(-0.866756 0.498732 0.866756 0.498732 221.918 145.595)" fill="url(#paint2_linear)" fill-opacity="0.6"/>
</g>
<path d="M356.97 280.985C356.97 280.985 358.13 270.815 363.19 262.925C368.25 255.035 375.19 250.115 381.67 249.605C388.15 249.095 393.39 255.055 386.46 259.145C379.53 263.235 367.2 267.425 361.53 282.745L356.97 280.985Z" fill="url(#paint3_linear)"/>
<path opacity="0.1" d="M356.97 280.985C356.97 280.985 358.13 270.815 363.19 262.925C368.25 255.035 375.19 250.115 381.67 249.605C388.15 249.095 393.39 255.055 386.46 259.145C379.53 263.235 367.2 267.425 361.53 282.745L356.97 280.985Z" fill="black"/>
<path d="M358.86 278.345H358.79C358.747 278.329 358.709 278.304 358.676 278.272C358.643 278.24 358.617 278.202 358.6 278.16C358.582 278.118 358.573 278.073 358.573 278.028C358.573 277.982 358.582 277.937 358.6 277.895C365.44 261.045 378.46 254.005 384.39 252.645C384.434 252.635 384.479 252.633 384.524 252.64C384.569 252.647 384.612 252.663 384.65 252.687C384.689 252.71 384.722 252.741 384.749 252.778C384.775 252.815 384.794 252.856 384.805 252.9C384.815 252.944 384.817 252.99 384.81 253.034C384.803 253.079 384.787 253.122 384.763 253.16C384.74 253.199 384.709 253.233 384.672 253.259C384.635 253.286 384.594 253.305 384.55 253.315C378.74 254.655 365.97 261.565 359.24 278.155C359.206 278.224 359.151 278.28 359.082 278.314C359.013 278.349 358.935 278.36 358.86 278.345Z" fill="white"/>
<path d="M393.51 278.545C392.92 279.865 391.51 280.545 390.13 281.095C388.75 281.645 387.33 282.215 386.6 283.475C385.14 285.995 387.54 289.555 385.97 292.015C385.602 292.506 385.138 292.918 384.607 293.225C384.076 293.533 383.489 293.73 382.88 293.805C381.88 293.995 380.88 293.985 379.88 294.075C379.398 294.064 378.917 294.027 378.44 293.965C377.036 293.651 375.568 293.805 374.26 294.405C372.26 295.535 371.63 298.075 370.41 300.025C369.657 301.182 368.661 302.161 367.492 302.895C366.323 303.629 365.009 304.1 363.64 304.275C362.474 304.513 361.265 304.434 360.14 304.045L359.95 303.925C359.822 303.792 359.702 303.651 359.59 303.505V303.445C359.23 302.135 359.81 300.765 359.84 299.445C359.845 299.365 359.845 299.285 359.84 299.205C359.79 297.625 359.74 296.065 359.71 294.495C359.63 291.605 359.6 288.705 359.62 285.815C359.62 283.945 359.41 281.885 360.21 280.115C361.09 278.175 363.28 278.115 364.1 276.225C364.43 275.455 364.61 274.645 364.93 273.875C365.426 272.747 366.223 271.777 367.234 271.072C368.245 270.366 369.43 269.952 370.66 269.875C374.48 269.685 377.9 272.775 381.72 272.495C382.702 272.358 383.677 272.171 384.64 271.935C387.73 271.355 391.31 272.235 393.05 274.855C393.42 275.387 393.655 276.001 393.735 276.643C393.815 277.286 393.738 277.939 393.51 278.545Z" fill="url(#paint4_linear)"/>
<path d="M359.19 297.405C359.148 297.395 359.109 297.376 359.074 297.35C359.04 297.324 359.011 297.292 358.99 297.254C358.968 297.217 358.954 297.175 358.949 297.133C358.944 297.09 358.948 297.047 358.96 297.005C364.23 277.205 385.09 274.345 389.96 274.695C390.003 274.698 390.045 274.709 390.083 274.728C390.122 274.747 390.156 274.774 390.184 274.806C390.212 274.839 390.233 274.877 390.246 274.918C390.259 274.959 390.264 275.002 390.26 275.045C390.259 275.088 390.249 275.13 390.231 275.168C390.213 275.207 390.187 275.241 390.155 275.269C390.123 275.297 390.086 275.319 390.045 275.332C390.005 275.345 389.962 275.349 389.92 275.345C385.14 275.005 364.74 277.805 359.58 297.175C359.556 297.256 359.503 297.325 359.43 297.368C359.358 297.41 359.272 297.424 359.19 297.405Z" fill="white"/>
<path d="M382.37 287.375C382.305 287.363 382.246 287.332 382.2 287.285C380.272 285.616 378 284.393 375.546 283.702C373.092 283.01 370.515 282.868 368 283.285C367.958 283.292 367.915 283.291 367.873 283.281C367.832 283.271 367.792 283.253 367.758 283.228C367.723 283.203 367.694 283.171 367.672 283.135C367.65 283.098 367.636 283.057 367.63 283.015C367.618 282.929 367.641 282.842 367.694 282.773C367.746 282.703 367.824 282.658 367.91 282.645C370.525 282.213 373.202 282.364 375.752 283.086C378.302 283.809 380.661 285.086 382.66 286.825C382.706 286.875 382.735 286.938 382.744 287.006C382.753 287.074 382.741 287.142 382.709 287.202C382.677 287.263 382.627 287.312 382.567 287.343C382.506 287.373 382.437 287.385 382.37 287.375Z" fill="white"/>
<path d="M220.18 186.875V196.875L47.61 296.485L42.3 299.485C41.0945 298.667 40.0987 297.575 39.3934 296.3C38.688 295.025 38.2929 293.602 38.24 292.145V124.395C38.2516 124.096 38.3375 123.803 38.49 123.545C38.6401 123.281 38.8531 123.058 39.11 122.895L78.44 100.185C78.92 99.9152 81.72 101.085 82.18 101.365L82.48 101.535C82.74 101.702 82.9728 101.908 83.17 102.145C83.3903 102.386 83.5602 102.668 83.67 102.975L87.23 113.255L215.23 36.9953C215.493 36.8734 215.78 36.8103 216.07 36.8103C216.36 36.8103 216.647 36.8734 216.91 36.9953L219.29 38.3753C219.544 38.5342 219.753 38.7543 219.9 39.0153C220.057 39.2752 220.143 39.5717 220.15 39.8753V186.875H220.18Z" fill="#648BF1"/>
<path d="M220.18 196.835L42.3 299.485V125.735L83.17 102.145C83.3903 102.386 83.5603 102.668 83.67 102.975L87.23 113.255L87.91 115.205L219.91 38.9851C220.067 39.245 220.153 39.5415 220.16 39.8451L220.18 196.835Z" fill="url(#paint5_linear)"/>
<path d="M83.17 102.145L42.3 125.735L38.49 123.545C38.6401 123.281 38.8531 123.058 39.11 122.895L78.44 100.185C78.7045 100.049 78.9976 99.9783 79.295 99.9783C79.5924 99.9783 79.8855 100.049 80.15 100.185L82.48 101.525C82.7407 101.695 82.9735 101.904 83.17 102.145Z" fill="#648BF1"/>
<path d="M219.92 38.9853L87.92 115.205L87.24 113.255L215.24 36.9953C215.503 36.8734 215.79 36.8103 216.08 36.8103C216.37 36.8103 216.657 36.8734 216.92 36.9953L219.3 38.3753C219.554 38.5245 219.767 38.734 219.92 38.9853Z" fill="#455A64"/>
<path d="M96.9501 228.855C96.4011 228.485 95.9474 227.991 95.6259 227.412C95.3043 226.833 95.1242 226.187 95.1001 225.525V60.2651C95.1396 59.5803 95.3416 58.9148 95.6894 58.3235C96.0372 57.7323 96.5207 57.2324 97.1001 56.8651L194.72 0.565134C195.288 0.208362 195.943 0.0132031 196.613 0.000646646C197.284 -0.0119099 197.946 0.158609 198.527 0.493868C199.108 0.829127 199.586 1.31644 199.911 1.9034C200.236 2.49036 200.395 3.15475 200.37 3.82513V169.085C200.329 169.77 200.126 170.434 199.779 171.025C199.431 171.616 198.948 172.117 198.37 172.485L100.76 228.785C100.176 229.096 99.5256 229.265 98.8635 229.277C98.2013 229.289 97.5457 229.145 96.9501 228.855Z" fill="#FAFAFA"/>
<path d="M100.76 228.785L198.38 172.485C198.958 172.117 199.441 171.617 199.789 171.026C200.136 170.435 200.339 169.77 200.38 169.085V3.8252C200.38 2.5752 199.5 2.0652 198.38 2.6852L100.75 58.9952C100.172 59.3637 99.689 59.8639 99.3414 60.4549C98.9938 61.0458 98.7911 61.7108 98.75 62.3952V227.655C98.79 228.905 99.67 229.415 100.76 228.785Z" fill="#F0F0F0"/>
<path d="M111.45 65.5551L185.17 22.9951C186.12 22.4451 186.9 22.8851 186.9 23.9951V24.6851C186.866 25.2855 186.692 25.8696 186.392 26.3906C186.091 26.9115 185.673 27.3549 185.17 27.6851L111.45 70.2451C110.45 70.7951 109.72 70.3451 109.72 69.2451V68.5551C109.753 67.9543 109.926 67.3696 110.227 66.8484C110.527 66.3272 110.946 65.8841 111.45 65.5551Z" fill="#E0E0E0"/>
<path d="M111.45 77.2652L185.17 34.7052C186.12 34.1552 186.9 34.6052 186.9 35.7052V36.3952C186.868 36.996 186.694 37.5807 186.394 38.1019C186.093 38.6231 185.674 39.0662 185.17 39.3952L111.45 81.9552C110.45 82.5052 109.72 82.0552 109.72 80.9552V80.2652C109.754 79.6648 109.928 79.0807 110.229 78.5597C110.529 78.0387 110.948 77.5954 111.45 77.2652Z" fill="#E0E0E0"/>
<path d="M111.45 88.9752L185.17 46.4152C186.12 45.8652 186.9 46.3152 186.9 47.4152V48.1052C186.868 48.7059 186.694 49.2906 186.394 49.8119C186.093 50.3331 185.674 50.7761 185.17 51.1052L111.45 93.6651C110.45 94.2252 109.72 93.7752 109.72 92.6651V91.9752C109.754 91.3747 109.928 90.7906 110.229 90.2697C110.529 89.7487 110.948 89.3054 111.45 88.9752Z" fill="#E0E0E0"/>
<path d="M111.45 100.685L185.17 58.1352C186.12 57.5752 186.9 58.0252 186.9 59.1352V59.8252C186.865 60.4254 186.691 61.0093 186.391 61.5301C186.09 62.051 185.672 62.4944 185.17 62.8252L111.45 105.385C110.45 105.935 109.72 105.485 109.72 104.385V103.685C109.755 103.085 109.93 102.501 110.23 101.98C110.53 101.459 110.948 101.016 111.45 100.685Z" fill="#E0E0E0"/>
<path d="M111.45 112.405L185.17 69.8452C186.12 69.2952 186.9 69.7352 186.9 70.8452V71.5352C186.866 72.1356 186.692 72.7197 186.392 73.2407C186.091 73.7616 185.673 74.205 185.17 74.5352L111.45 117.095C110.45 117.645 109.72 117.195 109.72 116.095V115.405C109.753 114.804 109.926 114.22 110.227 113.698C110.527 113.177 110.946 112.734 111.45 112.405Z" fill="#E0E0E0"/>
<path d="M111.45 124.205L185.17 81.6452C186.12 81.0852 186.9 81.5352 186.9 82.6452V83.3352C186.865 83.9355 186.691 84.5193 186.391 85.0401C186.09 85.561 185.672 86.0045 185.17 86.3352L111.45 128.895C110.45 129.445 109.72 128.995 109.72 127.895V127.205C109.753 126.604 109.926 126.02 110.227 125.499C110.527 124.977 110.946 124.534 111.45 124.205Z" fill="#E0E0E0"/>
<path d="M111.45 135.915L185.17 93.3552C186.12 92.8052 186.9 93.2452 186.9 94.3552V95.0452C186.866 95.6456 186.692 96.2297 186.392 96.7507C186.091 97.2716 185.673 97.715 185.17 98.0452L111.45 140.605C110.45 141.155 109.72 140.705 109.72 139.605V138.915C109.753 138.314 109.926 137.73 110.227 137.208C110.527 136.687 110.946 136.244 111.45 135.915Z" fill="#E0E0E0"/>
<path d="M111.45 147.625L185.17 105.065C186.12 104.515 186.9 104.965 186.9 106.065V106.755C186.868 107.356 186.694 107.941 186.394 108.462C186.093 108.983 185.674 109.426 185.17 109.755L111.45 152.315C110.45 152.865 109.72 152.425 109.72 151.315V150.625C109.754 150.025 109.928 149.441 110.229 148.92C110.529 148.399 110.948 147.955 111.45 147.625Z" fill="#E0E0E0"/>
<path d="M111.45 159.335L185.17 116.775C186.12 116.225 186.9 116.675 186.9 117.775V118.485C186.868 119.086 186.694 119.671 186.394 120.192C186.093 120.713 185.674 121.156 185.17 121.485L111.45 164.045C110.45 164.605 109.72 164.155 109.72 163.045V162.355C109.752 161.751 109.925 161.164 110.226 160.639C110.526 160.114 110.946 159.668 111.45 159.335Z" fill="#E0E0E0"/>
<path d="M111.45 171.055L185.17 128.485C186.12 127.925 186.9 128.375 186.9 129.485V130.175C186.865 130.775 186.691 131.359 186.391 131.88C186.09 132.401 185.672 132.844 185.17 133.175L111.45 175.735C110.45 176.285 109.72 175.835 109.72 174.735V174.045C109.754 173.446 109.928 172.863 110.229 172.344C110.529 171.825 110.948 171.383 111.45 171.055Z" fill="#E0E0E0"/>
<path d="M111.45 182.815L185.17 140.255C186.12 139.705 186.9 140.155 186.9 141.255V141.945C186.866 142.546 186.692 143.13 186.392 143.651C186.091 144.172 185.673 144.615 185.17 144.945L111.45 187.485C110.45 188.035 109.72 187.585 109.72 186.485V185.795C109.756 185.198 109.931 184.617 110.231 184.1C110.532 183.582 110.949 183.142 111.45 182.815Z" fill="#E0E0E0"/>
<path d="M111.45 194.485L185.17 151.925C186.12 151.375 186.9 151.825 186.9 152.925V153.615C186.868 154.216 186.694 154.801 186.394 155.322C186.093 155.843 185.674 156.286 185.17 156.615L111.45 199.175C110.45 199.725 109.72 199.285 109.72 198.175V197.485C109.754 196.885 109.928 196.301 110.229 195.78C110.529 195.259 110.948 194.815 111.45 194.485Z" fill="#E0E0E0"/>
<path d="M111.45 206.235L185.17 163.675C186.12 163.125 186.9 163.575 186.9 164.675V165.375C186.865 165.975 186.691 166.559 186.391 167.08C186.09 167.601 185.672 168.044 185.17 168.375L111.45 210.925C110.45 211.485 109.72 211.035 109.72 209.925V209.235C109.755 208.635 109.93 208.051 110.23 207.53C110.53 207.009 110.948 206.566 111.45 206.235Z" fill="#E0E0E0"/>
<path d="M100.5 228.915C99.9296 229.219 99.2892 229.366 98.6435 229.342C97.9979 229.319 97.3699 229.125 96.823 228.781C96.2762 228.438 95.8298 227.955 95.529 227.384C95.2282 226.812 95.0836 226.171 95.11 225.525V60.2752C95.1342 59.591 95.3302 58.9238 95.68 58.3352L99.37 60.4652C99.0151 61.0485 98.8154 61.7129 98.79 62.3952V227.655C98.79 228.805 99.54 229.325 100.5 228.915Z" fill="#E0E0E0"/>
<g filter="url(#filter1_ddii)">
<path d="M110.77 236.695C110.221 236.325 109.767 235.831 109.446 235.252C109.124 234.673 108.944 234.027 108.92 233.365V68.1052C108.959 67.4204 109.161 66.7549 109.509 66.1636C109.857 65.5724 110.341 65.0725 110.92 64.7052L208.54 8.40522C209.108 8.04845 209.763 7.85329 210.433 7.84073C211.104 7.82818 211.765 7.9987 212.347 8.33396C212.928 8.66922 213.406 9.15652 213.731 9.74348C214.056 10.3304 214.214 10.9948 214.19 11.6652V176.925C214.149 177.61 213.946 178.275 213.599 178.866C213.251 179.457 212.768 179.957 212.19 180.325L114.57 236.625C113.987 236.935 113.339 237.102 112.678 237.115C112.018 237.127 111.364 236.983 110.77 236.695Z" fill="#FAFAFA"/>
<path d="M114.58 236.625L212.2 180.325C212.778 179.957 213.261 179.457 213.608 178.866C213.956 178.275 214.159 177.61 214.2 176.925V11.6653C214.2 10.4153 213.32 9.90529 212.2 10.5253L114.57 66.8353C113.992 67.2037 113.509 67.7039 113.161 68.2949C112.814 68.8859 112.611 69.5509 112.57 70.2353V235.485C112.61 236.745 113.49 237.255 114.58 236.625Z" fill="#F0F0F0"/>
<path d="M125.27 73.3952L198.99 30.8352C199.99 30.2852 200.72 30.7252 200.72 31.8352V32.4852C200.686 33.0856 200.512 33.6697 200.211 34.1907C199.911 34.7116 199.493 35.155 198.99 35.4852L125.27 78.0852C124.27 78.6352 123.54 78.1852 123.54 77.0852V76.3952C123.572 75.7944 123.746 75.2097 124.047 74.6885C124.347 74.1673 124.766 73.7242 125.27 73.3952Z" fill="#E0E0E0"/>
<path d="M125.27 85.1053L198.99 42.5453C199.99 41.9953 200.72 42.4453 200.72 43.5453V44.2353C200.688 44.8361 200.514 45.4208 200.213 45.942C199.913 46.4632 199.494 46.9063 198.99 47.2353L125.27 89.7953C124.27 90.3453 123.54 89.9053 123.54 88.7953V88.1053C123.574 87.5049 123.748 86.9208 124.049 86.3998C124.349 85.8788 124.767 85.4355 125.27 85.1053Z" fill="#E0E0E0"/>
<path d="M125.27 96.8153L198.99 54.2552C199.99 53.7052 200.72 54.1552 200.72 55.2552V55.9452C200.688 56.546 200.514 57.1307 200.213 57.6519C199.913 58.1732 199.494 58.6162 198.99 58.9452L125.27 101.485C124.27 102.045 123.54 101.595 123.54 100.485V99.7952C123.577 99.1983 123.753 98.6182 124.053 98.1009C124.353 97.5836 124.77 97.1435 125.27 96.8153Z" fill="#E0E0E0"/>
<path d="M125.27 108.535L198.99 65.9753C199.99 65.4153 200.72 65.8653 200.72 66.9753V67.6653C200.685 68.2655 200.511 68.8494 200.21 69.3702C199.91 69.8911 199.492 70.3345 198.99 70.6653L125.27 113.225C124.27 113.775 123.54 113.325 123.54 112.225V111.535C123.572 110.935 123.746 110.35 124.047 109.829C124.347 109.307 124.766 108.864 125.27 108.535Z" fill="#E0E0E0"/>
<path d="M125.27 120.245L198.99 77.6853C199.99 77.1353 200.72 77.5753 200.72 78.6853V79.3753C200.686 79.9757 200.512 80.5598 200.211 81.0808C199.911 81.6017 199.493 82.0451 198.99 82.3753L125.27 124.935C124.27 125.485 123.54 125.035 123.54 123.935V123.245C123.572 122.644 123.746 122.06 124.047 121.539C124.347 121.017 124.766 120.574 125.27 120.245Z" fill="#E0E0E0"/>
<path d="M125.27 132.045L198.99 89.4853C199.99 88.9253 200.72 89.3753 200.72 90.4853V91.1753C200.685 91.7756 200.511 92.3594 200.21 92.8802C199.91 93.4011 199.492 93.8445 198.99 94.1753L125.27 136.735C124.27 137.285 123.54 136.835 123.54 135.735V135.045C123.572 134.445 123.746 133.86 124.047 133.339C124.347 132.817 124.766 132.374 125.27 132.045Z" fill="#E0E0E0"/>
<path d="M125.27 143.755L198.99 101.195C199.99 100.645 200.72 101.085 200.72 102.195V102.885C200.686 103.486 200.512 104.07 200.211 104.591C199.911 105.112 199.493 105.555 198.99 105.885L125.27 148.485C124.27 149.035 123.54 148.585 123.54 147.485V146.795C123.566 146.188 123.737 145.595 124.038 145.066C124.339 144.538 124.761 144.088 125.27 143.755Z" fill="#E0E0E0"/>
<path d="M125.27 155.485L198.99 112.925C199.99 112.375 200.72 112.825 200.72 113.925V114.615C200.688 115.216 200.514 115.801 200.213 116.322C199.913 116.843 199.494 117.286 198.99 117.615L125.27 160.175C124.27 160.725 123.54 160.285 123.54 159.175V158.485C123.574 157.885 123.748 157.301 124.049 156.78C124.349 156.259 124.767 155.815 125.27 155.485Z" fill="#E0E0E0"/>
<path d="M125.27 167.175L198.99 124.615C199.99 124.065 200.72 124.515 200.72 125.615V126.305C200.688 126.906 200.514 127.491 200.213 128.012C199.913 128.533 199.494 128.976 198.99 129.305L125.27 171.865C124.27 172.425 123.54 171.975 123.54 170.865V170.175C123.575 169.575 123.749 168.991 124.05 168.47C124.35 167.949 124.768 167.506 125.27 167.175Z" fill="#E0E0E0"/>
<path d="M125.27 178.895L198.99 136.335C199.99 135.775 200.72 136.225 200.72 137.335V138.025C200.685 138.625 200.511 139.209 200.21 139.73C199.91 140.251 199.492 140.694 198.99 141.025L125.27 183.585C124.27 184.135 123.54 183.685 123.54 182.585V181.895C123.572 181.294 123.746 180.71 124.047 180.188C124.347 179.667 124.766 179.224 125.27 178.895Z" fill="#E0E0E0"/>
<path d="M125.27 190.655L198.99 148.095C199.99 147.545 200.72 147.995 200.72 149.095V149.785C200.688 150.386 200.514 150.971 200.213 151.492C199.913 152.013 199.494 152.456 198.99 152.785L125.27 195.345C124.27 195.895 123.54 195.445 123.54 194.345V193.655C123.572 193.054 123.746 192.47 124.047 191.948C124.347 191.427 124.766 190.984 125.27 190.655Z" fill="#E0E0E0"/>
<path d="M125.27 202.365L198.99 159.805C199.99 159.255 200.72 159.705 200.72 160.805V161.485C200.688 162.086 200.514 162.671 200.213 163.192C199.913 163.713 199.494 164.156 198.99 164.485L125.27 207.045C124.27 207.595 123.54 207.155 123.54 206.045V205.355C123.576 204.757 123.751 204.174 124.051 203.655C124.351 203.136 124.769 202.694 125.27 202.365Z" fill="#E0E0E0"/>
<path d="M125.27 214.075L198.99 171.485C199.99 170.935 200.72 171.385 200.72 172.485V173.185C200.685 173.785 200.511 174.369 200.21 174.89C199.91 175.411 199.492 175.854 198.99 176.185L125.27 218.735C124.27 219.295 123.54 218.845 123.54 217.735V217.045C123.579 216.45 123.756 215.872 124.056 215.357C124.356 214.842 124.772 214.403 125.27 214.075Z" fill="#E0E0E0"/>
<path d="M114.32 236.755C113.749 237.059 113.109 237.206 112.463 237.182C111.818 237.159 111.19 236.966 110.643 236.622C110.096 236.278 109.65 235.795 109.349 235.224C109.048 234.652 108.903 234.011 108.93 233.365V68.1153C108.954 67.431 109.15 66.7639 109.5 66.1753L113.19 68.3053C112.835 68.8886 112.635 69.553 112.61 70.2353V235.485C112.61 236.645 113.36 237.165 114.32 236.755Z" fill="#E0E0E0"/>
</g>
<path d="M256.51 59.4852L227.99 182.985L225.36 194.345C224.488 197.377 222.553 199.993 219.91 201.715L50.69 299.375C49.4598 300.042 48.0891 300.409 46.69 300.445C45.1697 300.551 43.6498 300.233 42.3 299.525L43.17 295.755L43.26 295.385L44.21 291.255L48.35 273.335L74.57 159.795C74.6057 159.649 74.6595 159.508 74.73 159.375C74.8 159.245 74.88 159.115 74.96 158.995V158.935C75.1411 158.691 75.3647 158.481 75.62 158.315L220.17 74.8852L251.8 56.6252C252.069 56.4874 252.368 56.4155 252.67 56.4155C252.973 56.4155 253.271 56.4874 253.54 56.6252L255.87 57.9652C256.117 58.1255 256.309 58.356 256.423 58.627C256.537 58.8979 256.568 59.1969 256.51 59.4852Z" fill="url(#paint6_linear)"/>
<path d="M256.54 59.1952C256.54 58.8452 256.26 58.7352 255.87 58.9652L79.72 160.665C79.4604 160.825 79.2359 161.036 79.06 161.285L75 158.935C75.1811 158.691 75.4046 158.481 75.66 158.315L251.8 56.6252C252.069 56.4874 252.367 56.4155 252.67 56.4155C252.973 56.4155 253.271 56.4874 253.54 56.6252L255.87 57.9652C256.074 58.0996 256.242 58.2821 256.359 58.4965C256.475 58.711 256.538 58.9509 256.54 59.1952Z" fill="#496AE0"/>
<path d="M79.06 161.285C78.9457 161.439 78.8453 161.603 78.76 161.775C78.7067 161.891 78.6632 162.012 78.63 162.135L53.56 270.715L48.28 293.595L47.61 296.485L46.69 300.485C45.1697 300.591 43.6498 300.273 42.3 299.565L43.17 295.795L43.26 295.425L44.21 291.295L48.35 273.375L74.57 159.835C74.6057 159.689 74.6595 159.548 74.73 159.415C74.8 159.285 74.88 159.155 74.96 159.035V158.975L79.06 161.285Z" fill="#496AE0"/>
<path d="M48.5001 289.045C48.7098 289.165 48.8755 289.35 48.9727 289.571C49.0699 289.793 49.0935 290.039 49.0401 290.275L47.6101 296.485L46.8601 299.575C46.7994 299.833 46.6501 300.062 46.438 300.221C46.226 300.38 45.9647 300.459 45.7001 300.445C44.4995 300.418 43.3231 300.102 42.2701 299.525C41.0645 298.706 40.0688 297.615 39.3634 296.34C38.6581 295.065 38.263 293.641 38.2101 292.185V285.065C38.2036 284.865 38.2511 284.666 38.3477 284.49C38.4443 284.314 38.5864 284.167 38.7591 284.065C38.9319 283.963 39.1289 283.909 39.3296 283.909C39.5303 283.909 39.7273 283.963 39.9001 284.065L41.7101 285.065C41.8827 285.168 42.0252 285.315 42.1235 285.49C42.2218 285.666 42.2723 285.864 42.2701 286.065V289.605C42.259 289.888 42.3553 290.164 42.5397 290.379C42.724 290.593 42.9827 290.73 43.2639 290.762C43.545 290.794 43.8277 290.718 44.0551 290.549C44.2826 290.381 44.438 290.133 44.4901 289.855L44.7901 288.545C44.8306 288.374 44.9105 288.215 45.0233 288.081C45.1361 287.946 45.2787 287.84 45.4398 287.77C45.6009 287.7 45.7761 287.668 45.9515 287.678C46.1269 287.688 46.2976 287.738 46.4501 287.825L48.5001 289.045Z" fill="#263238"/>
<g filter="url(#filter2_ddii)">
<path d="M85.86 262.655L76.23 257.095L76.13 257.035C71.34 254.325 64.77 254.725 57.5 258.925C50.69 262.845 44.5 269.395 39.81 276.925C34.4 285.645 31 295.745 31 304.795C31 313.235 34 319.165 38.73 321.935L48.51 327.515C53.34 330.595 60.16 330.325 67.72 325.955C82.36 317.505 94.23 296.955 94.23 280.045C94.23 271.325 91.01 265.265 85.86 262.655Z" fill="url(#paint7_linear)"/>
</g>
<path opacity="0.1" d="M48.32 327.485L38.73 322.005C33.95 319.235 31 313.305 31 304.865C31 295.815 34.4 285.725 39.81 277.005L50.04 282.905C44.63 291.625 41.24 301.705 41.24 310.745C41.21 318.805 43.91 324.575 48.32 327.485Z" fill="black"/>
<path opacity="0.4" d="M85.66 262.545C80.94 260.255 74.66 260.835 67.72 264.825C60.78 268.815 54.72 275.315 50.01 282.895L39.78 276.995C44.46 269.415 50.67 262.875 57.47 258.995C64.74 254.795 71.31 254.395 76.1 257.095L76.2 257.155L85.66 262.545Z" fill="white"/>
<path d="M71.3799 298.155V307.485C71.38 307.96 71.2705 308.429 71.0599 308.855C70.9142 309.261 70.6449 309.611 70.2899 309.855L65.1799 312.805C65.0658 312.89 64.9252 312.93 64.7838 312.919C64.6423 312.908 64.5096 312.846 64.4099 312.745C64.293 312.608 64.2045 312.449 64.1495 312.277C64.0946 312.106 64.0743 311.925 64.0899 311.745V302.455L57.7999 306.075C57.6878 306.163 57.5474 306.206 57.4054 306.197C57.2634 306.188 57.1298 306.127 57.0299 306.025C56.913 305.888 56.8245 305.729 56.7695 305.557C56.7146 305.386 56.6943 305.205 56.7099 305.025V298.725C56.7158 298.248 56.8249 297.777 57.0299 297.345C57.1909 296.964 57.4582 296.638 57.7999 296.405L64.0899 292.775V283.485C64.0958 283.008 64.2049 282.537 64.4099 282.105C64.5673 281.722 64.8354 281.395 65.1799 281.165L70.2899 278.165C70.4037 278.082 70.5432 278.041 70.684 278.05C70.8249 278.059 70.958 278.118 71.0599 278.215C71.1778 278.352 71.267 278.511 71.322 278.683C71.3769 278.854 71.3967 279.036 71.3799 279.215V288.485L77.6299 284.885C77.7421 284.798 77.8825 284.754 78.0245 284.764C78.1664 284.773 78.3001 284.834 78.3999 284.935C78.5169 285.072 78.6054 285.231 78.6603 285.403C78.7153 285.575 78.7355 285.756 78.7199 285.935V292.235C78.7141 292.713 78.6049 293.184 78.3999 293.615C78.239 293.996 77.9716 294.323 77.6299 294.555L71.3799 298.155Z" fill="white"/>
<g filter="url(#filter3_ddii)">
<path d="M328.42 153.675L316.73 153.345C315.95 152.675 303.68 138.825 303.68 138.825C303.68 138.825 299.26 145.825 299.19 146.235C299.12 146.645 311.19 159.625 312.42 160.935C312.757 161.37 313.189 161.722 313.683 161.964C314.177 162.207 314.72 162.334 315.27 162.335C318.44 162.525 330.27 163.335 330.27 163.335L328.42 153.675Z" fill="#FEC6A6"/>
</g>
<g filter="url(#filter4_ddii)">
<path d="M203.65 329.195C203.103 328.824 202.652 328.329 202.332 327.75C202.013 327.171 201.834 326.526 201.81 325.865V170.485C201.851 169.801 202.054 169.136 202.401 168.545C202.749 167.954 203.232 167.454 203.81 167.085L301.43 110.775C302.016 110.469 302.665 110.303 303.327 110.291C303.988 110.278 304.643 110.42 305.24 110.705C305.788 111.078 306.24 111.575 306.56 112.155C306.88 112.735 307.058 113.383 307.08 114.045V269.415C307.041 270.101 306.839 270.768 306.491 271.361C306.143 271.954 305.66 272.456 305.08 272.825L207.46 329.125C206.875 329.434 206.225 329.601 205.563 329.614C204.902 329.626 204.246 329.482 203.65 329.195Z" fill="white"/>
<path d="M206.91 329.345L207.11 329.285C207.068 329.315 207.021 329.336 206.97 329.345C206.853 329.393 206.733 329.433 206.61 329.465H206.41C206.262 329.498 206.111 329.522 205.96 329.535C205.787 329.545 205.613 329.545 205.44 329.535C204.817 329.549 204.201 329.405 203.65 329.115C203.249 328.857 202.908 328.516 202.65 328.115C202.152 327.434 201.869 326.619 201.84 325.775V170.485C201.839 170.146 201.889 169.809 201.99 169.485C202.04 169.318 202.1 169.154 202.17 168.995C202.24 168.83 202.32 168.67 202.41 168.515L206.09 170.645L206 170.795C205.7 171.342 205.532 171.952 205.51 172.575V327.995C205.509 328.195 205.536 328.393 205.59 328.585C205.654 328.818 205.787 329.027 205.97 329.185C206.09 329.274 206.226 329.339 206.37 329.375H206.6C206.69 329.39 206.781 329.39 206.87 329.375C206.887 329.37 206.901 329.36 206.91 329.345Z" fill="#E0E0E0"/>
<path opacity="0.3" d="M307.01 113.625C306.85 112.625 306.01 112.295 305.08 112.855L207.45 169.155C206.874 169.524 206.396 170.029 206.06 170.625L202.38 168.485C202.708 167.885 203.187 167.382 203.77 167.025L301.39 110.715C301.976 110.409 302.626 110.243 303.287 110.23C303.948 110.218 304.603 110.36 305.2 110.645C305.698 110.983 306.117 111.424 306.43 111.938C306.742 112.452 306.94 113.028 307.01 113.625Z" fill="white"/>
<path d="M218.16 175.725L291.86 133.165C292.86 132.605 293.59 133.055 293.59 134.165V134.855C293.557 135.456 293.383 136.04 293.083 136.561C292.782 137.082 292.363 137.526 291.86 137.855L218.14 180.415C217.14 180.965 216.41 180.515 216.41 179.415V178.725C216.444 178.122 216.62 177.536 216.924 177.015C217.229 176.493 217.652 176.051 218.16 175.725Z" fill="#E6F0F4"/>
<path d="M218.16 190.055L291.86 147.485C292.86 146.925 293.59 147.375 293.59 148.485V149.175C293.559 149.776 293.385 150.361 293.085 150.883C292.784 151.404 292.364 151.847 291.86 152.175L218.14 194.735C217.14 195.285 216.41 194.835 216.41 193.735V193.045C216.446 192.444 216.623 191.86 216.927 191.341C217.231 190.821 217.653 190.381 218.16 190.055Z" fill="#E6F0F4"/>
<path d="M218.16 204.385L291.86 161.825C292.86 161.275 293.59 161.715 293.59 162.825V163.485C293.559 164.086 293.385 164.671 293.085 165.192C292.784 165.714 292.364 166.157 291.86 166.485L218.14 209.045C217.14 209.595 216.41 209.145 216.41 208.045V207.355C216.449 206.758 216.627 206.177 216.931 205.662C217.235 205.146 217.656 204.708 218.16 204.385Z" fill="#E6F0F4"/>
<path d="M218.16 218.715L291.86 176.155C292.86 175.605 293.59 176.045 293.59 177.155V177.845C293.559 178.446 293.385 179.031 293.085 179.553C292.784 180.074 292.364 180.517 291.86 180.845L218.14 223.405C217.14 223.955 216.41 223.505 216.41 222.405V221.715C216.444 221.112 216.62 220.526 216.924 220.005C217.229 219.483 217.652 219.041 218.16 218.715Z" fill="#E6F0F4"/>
<path d="M218.16 233.045L291.86 190.485C292.86 189.935 293.59 190.375 293.59 191.485V192.175C293.559 192.776 293.385 193.361 293.085 193.883C292.784 194.404 292.364 194.847 291.86 195.175L218.14 237.735C217.14 238.285 216.41 237.835 216.41 236.735V236.045C216.444 235.443 216.62 234.856 216.924 234.335C217.229 233.813 217.652 233.372 218.16 233.045Z" fill="#E6F0F4"/>
<path d="M218.16 247.375L291.86 204.815C292.86 204.265 293.59 204.705 293.59 205.815V206.485C293.559 207.086 293.385 207.671 293.085 208.192C292.784 208.714 292.364 209.157 291.86 209.485L218.14 252.045C217.14 252.595 216.41 252.145 216.41 251.045V250.355C216.447 249.756 216.625 249.174 216.929 248.656C217.233 248.138 217.655 247.699 218.16 247.375Z" fill="#E6F0F4"/>
<path d="M218.16 261.705L291.86 219.145C292.86 218.595 293.59 219.035 293.59 220.145V220.835C293.559 221.436 293.385 222.021 293.085 222.543C292.784 223.064 292.364 223.507 291.86 223.835L218.14 266.395C217.14 266.945 216.41 266.495 216.41 265.395V264.705C216.444 264.102 216.62 263.516 216.924 262.995C217.229 262.473 217.652 262.031 218.16 261.705Z" fill="#E6F0F4"/>
<path d="M218.16 276.035L291.86 233.485C292.86 232.935 293.59 233.385 293.59 234.485V235.175C293.559 235.776 293.385 236.361 293.085 236.883C292.784 237.404 292.364 237.847 291.86 238.175L218.14 280.735C217.14 281.285 216.41 280.835 216.41 279.735V279.045C216.442 278.441 216.618 277.853 216.922 277.329C217.227 276.806 217.651 276.362 218.16 276.035Z" fill="#E6F0F4"/>
<path d="M218.16 290.365L291.86 247.805C292.86 247.255 293.59 247.705 293.59 248.805V249.485C293.559 250.086 293.386 250.672 293.086 251.193C292.785 251.715 292.365 252.157 291.86 252.485L218.14 295.045C217.14 295.595 216.41 295.145 216.41 294.045V293.355C216.446 292.754 216.623 292.17 216.927 291.65C217.231 291.131 217.653 290.691 218.16 290.365Z" fill="#E6F0F4"/>
<path d="M218.16 304.695L291.86 262.135C292.86 261.585 293.59 262.035 293.59 263.135V263.825C293.559 264.426 293.386 265.012 293.086 265.533C292.785 266.055 292.365 266.497 291.86 266.825L218.15 309.385C217.15 309.935 216.42 309.485 216.42 308.385V307.695C216.454 307.093 216.629 306.508 216.931 305.987C217.233 305.466 217.655 305.023 218.16 304.695Z" fill="#E6F0F4"/>
</g>
<g filter="url(#filter5_ddii)">
<path d="M330.59 151.645H344.47C349.228 151.645 353.791 149.755 357.156 146.391C360.52 143.026 362.41 138.463 362.41 133.705C362.41 129.486 360.734 125.439 357.75 122.455C354.766 119.471 350.72 117.795 346.5 117.795C342.28 117.795 338.234 119.471 335.25 122.455C332.266 125.439 330.59 129.486 330.59 133.705V151.645Z" fill="#263238"/>
</g>
<g filter="url(#filter6_ddii)">
<path d="M344.86 164.875L325.53 164.045C323.86 161.695 323.86 155.485 325.62 153.485L347.01 154.065L344.86 164.875Z" fill="url(#paint8_linear)"/>
</g>
<path d="M333.11 284.795C333.229 286.088 333.282 287.387 333.27 288.685V296.295H339.86V291.835C339.863 289.825 340.03 287.818 340.36 285.835L333.11 284.795Z" fill="#FEC6A6"/>
<g filter="url(#filter7_ddii)">
<path d="M333.26 293.035V292.085C333.08 293.525 328.96 298.945 326.34 301.335C324.25 303.245 321.4 305.445 320.67 307.575C319.94 309.705 324.04 310.655 326.74 310.385C329.363 310.06 331.778 308.795 333.54 306.825C334.632 305.453 335.612 303.995 336.47 302.465C337.27 301.385 340.87 299.165 341.31 297.905C341.435 296.735 341.305 295.551 340.93 294.435C340.62 293.265 340.29 291.975 339.93 292.085V292.805C338.987 293.545 337.819 293.94 336.62 293.925C335.61 293.965 333.26 293.775 333.26 293.035Z" fill="#263238"/>
</g>
<path d="M339.86 292.805C338.917 293.545 337.749 293.94 336.55 293.925C335.55 293.925 333.23 293.775 333.23 293.035V292.085C333.05 293.525 328.93 298.945 326.31 301.335C325.81 301.795 325.26 302.265 324.71 302.755C323.6 303.995 323.92 305.075 326.53 305.295C329.14 305.515 331.44 303.945 333.42 301.515C335.4 299.085 339.86 292.805 339.86 292.805Z" fill="#FEC6A6"/>
<path d="M353.34 296.015C353.47 297.615 353.47 299.285 353.5 300.015V307.625H360.12V303.165C360.12 301.155 360.284 299.148 360.61 297.165L353.34 296.015Z" fill="#FEC6A6"/>
<g filter="url(#filter8_ddii)">
<path d="M353.49 304.355V303.405C353.3 304.845 349.19 310.265 346.56 312.655C344.47 314.565 341.62 316.765 340.9 318.885C340.18 321.005 344.26 321.975 346.97 321.705C349.59 321.38 352.002 320.115 353.76 318.145C354.854 316.772 355.838 315.314 356.7 313.785C357.5 312.705 361.1 310.485 361.53 309.225C361.665 308.055 361.535 306.869 361.15 305.755C360.85 304.585 360.51 303.295 360.15 303.405V304.125C359.207 304.865 358.039 305.26 356.84 305.245C355.86 305.285 353.48 305.095 353.49 304.355Z" fill="#263238"/>
</g>
<path d="M360.11 304.125C359.167 304.865 357.999 305.26 356.8 305.245C355.8 305.245 353.48 305.095 353.49 304.355V303.405C353.3 304.845 349.19 310.265 346.56 312.655C346.06 313.115 345.56 313.585 344.97 314.075C343.86 315.315 344.18 316.395 346.79 316.615C349.4 316.835 351.69 315.265 353.67 312.835C355.65 310.405 360.11 304.125 360.11 304.125Z" fill="#FEC6A6"/>
<g filter="url(#filter9_ddii)">
<path d="M333.11 287.935C331.69 276.265 329.37 256.085 328.69 251.675C328.06 247.595 329.64 212.675 330.61 201.555L365.11 199.705C367.73 210.945 365.17 226.105 364.28 235.575C363.4 244.785 362.28 255.575 362.28 255.575C362.28 255.575 364.97 264.965 364.28 272.435C363.82 277.145 361.71 291.355 360.71 297.435C359.534 298.031 358.231 298.334 356.913 298.316C355.594 298.299 354.3 297.962 353.14 297.335C353.25 298.625 351.91 281.595 351.14 274.715C350.04 265.165 349.62 258.205 348.64 252.625C347.41 245.625 346.99 218.405 346.99 218.405L342.99 249.335C343.423 252.651 343.634 255.992 343.62 259.335C343.62 266.245 341.07 281.945 340.27 287.815C338.54 289.045 335.02 289.415 333.11 287.935Z" fill="#455A64"/>
</g>
<path d="M346.98 218.385C346.98 218.385 340.67 216.175 337.08 212.875C338.886 215.684 341.447 217.927 344.47 219.345L344.53 237.445L346.98 218.385Z" fill="#37474F"/>
<g filter="url(#filter10_ddii)">
<path d="M352 154.225C352 154.225 361.37 155.305 362.49 155.805C356.78 162.055 362.86 167.235 362.86 167.235L358.51 186.375C362.26 191.165 364.4 194.865 365.3 200.575C361.3 207.655 338.73 208.635 330.46 203.365C331.18 193.495 332.79 186.425 332.25 183.455C328.32 171.335 329.54 168.795 329.91 166.025C330.63 160.615 336 155.905 339.07 153.925H341.93L352 154.225Z" fill="#F0F0F0"/>
</g>
<path d="M335.86 125.585C334.18 126.585 332.1 130.805 332.31 139.665C332.48 147.175 334.92 149.025 336.14 149.565C337.36 150.105 339.72 149.775 342.01 149.385V153.895C342.01 153.895 338.84 157.575 339.01 159.645C339.18 161.715 343.58 162.195 346.55 160.175C348.692 158.514 350.538 156.502 352.01 154.225L351.96 143.865C351.96 143.865 353.3 145.175 355.59 143.175C357.48 141.525 358.11 138.735 356.59 137.245C356.211 136.89 355.754 136.629 355.255 136.484C354.756 136.339 354.23 136.315 353.72 136.412C353.21 136.51 352.73 136.727 352.32 137.045C351.91 137.364 351.581 137.775 351.36 138.245C351.36 138.245 350.09 134.715 344.81 132.985C340.08 131.485 337.49 129.675 335.86 125.585Z" fill="#FEC6A6"/>
<path d="M341.16 137.775C341.159 138.022 341.249 138.261 341.413 138.446C341.577 138.631 341.804 138.748 342.05 138.775C342.305 138.776 342.551 138.678 342.737 138.504C342.923 138.329 343.035 138.09 343.05 137.835C343.068 137.704 343.059 137.571 343.023 137.444C342.987 137.317 342.925 137.199 342.84 137.097C342.756 136.996 342.652 136.913 342.534 136.854C342.415 136.795 342.286 136.761 342.154 136.755C342.022 136.749 341.891 136.77 341.768 136.817C341.644 136.865 341.532 136.938 341.439 137.031C341.345 137.124 341.272 137.236 341.224 137.359C341.176 137.482 341.154 137.613 341.16 137.745V137.775Z" fill="#263238"/>
<path d="M340.91 144.145L338.72 144.845C338.759 144.992 338.827 145.129 338.92 145.248C339.014 145.367 339.13 145.466 339.263 145.539C339.396 145.612 339.542 145.657 339.693 145.672C339.843 145.687 339.996 145.671 340.14 145.625C340.435 145.527 340.681 145.317 340.824 145.041C340.968 144.765 340.999 144.444 340.91 144.145Z" fill="#F0B391"/>
<path d="M333.42 134.875L335.33 133.555C335.25 133.426 335.144 133.315 335.02 133.228C334.895 133.141 334.755 133.08 334.606 133.049C334.457 133.018 334.304 133.018 334.155 133.048C334.006 133.078 333.865 133.139 333.74 133.225C333.487 133.408 333.314 133.681 333.254 133.987C333.195 134.293 333.254 134.611 333.42 134.875Z" fill="#263238"/>
<path d="M343.91 135.575L342 134.255C342.08 134.126 342.186 134.015 342.31 133.928C342.435 133.841 342.575 133.78 342.724 133.749C342.873 133.718 343.026 133.718 343.175 133.748C343.324 133.778 343.465 133.839 343.59 133.925C343.843 134.108 344.016 134.381 344.076 134.687C344.135 134.993 344.076 135.311 343.91 135.575Z" fill="#263238"/>
<path d="M333.86 137.095C333.859 137.342 333.949 137.581 334.113 137.766C334.277 137.951 334.504 138.068 334.75 138.095C335.004 138.096 335.248 138 335.433 137.827C335.619 137.655 335.732 137.418 335.75 137.165C335.768 137.034 335.759 136.901 335.723 136.774C335.687 136.647 335.625 136.529 335.54 136.428C335.456 136.326 335.352 136.243 335.233 136.184C335.115 136.125 334.986 136.091 334.854 136.085C334.722 136.079 334.591 136.1 334.467 136.148C334.344 136.195 334.232 136.268 334.139 136.361C334.045 136.454 333.972 136.566 333.924 136.689C333.876 136.812 333.854 136.943 333.86 137.075V137.095Z" fill="#263238"/>
<path d="M338.31 136.555L338.16 142.235L335.17 141.315L338.31 136.555Z" fill="#F0B391"/>
<path d="M341.97 149.385C344.38 149.075 349.35 147.645 350.13 145.685C349.817 146.678 349.206 147.551 348.38 148.185C346.9 149.455 341.97 150.895 341.97 150.895V149.385Z" fill="#F0B391"/>
<path d="M360.45 177.825L352.46 189.495L358.51 186.375L360.45 177.825Z" fill="#E0E0E0"/>
<g filter="url(#filter11_ddii)">
<path d="M356.75 158.355L338 177.745C338 177.745 319.59 175.935 313.34 174.145C311.34 173.575 309.78 170.875 309.34 168.605C309.284 168.01 309.043 167.448 308.65 166.997C308.257 166.547 307.732 166.231 307.15 166.095V170.645C306.99 171.795 306.43 172.385 304.79 172.425C298.47 172.565 295.54 170.645 294.79 174.075C294.3 176.265 295.25 178.755 299.42 179.905C305.28 181.505 308.52 180.705 312.08 181.595C314.83 182.275 334.02 185.925 337.79 186.745C339.79 187.185 341.3 187.045 343.47 184.905C345.64 182.765 361.86 167.565 361.86 167.565C366.86 162.565 365.38 157.435 362.6 155.905C360.86 154.955 358.96 156.075 356.75 158.355Z" fill="#FEC6A6"/>
</g>
<g filter="url(#filter12_ddii)">
<path d="M362.49 155.805C363.7 156.295 365.18 157.585 365.3 160.925C365.42 164.265 362.95 167.305 360.04 170.785C357.13 174.265 356.25 175.185 356.25 175.185C356.25 175.185 348.89 172.505 347.64 167.035C347.64 167.035 353.19 161.155 354.85 159.275C356.51 157.395 359.57 154.485 362.49 155.805Z" fill="url(#paint9_linear)"/>
</g>
<defs>
<filter id="filter0_biii" x="4.11599" y="157.791" width="435.604" height="254.574" filterUnits="userSpaceOnUse" color-interpolation-filters="sRGB">
<feFlood flood-opacity="0" result="BackgroundImageFix"/>
<feGaussianBlur in="BackgroundImage" stdDeviation="2.31237"/>
<feComposite in2="SourceAlpha" operator="in" result="effect1_backgroundBlur"/>
<feBlend mode="normal" in="SourceGraphic" in2="effect1_backgroundBlur" result="shape"/>
<feColorMatrix in="SourceAlpha" type="matrix" values="0 0 0 0 0 0 0 0 0 0 0 0 0 0 0 0 0 0 127 0" result="hardAlpha"/>
<feOffset dx="1.15618" dy="-1.15618"/>
<feComposite in2="hardAlpha" operator="arithmetic" k2="-1" k3="1"/>
<feColorMatrix type="matrix" values="0 0 0 0 0.529412 0 0 0 0 0.603922 0 0 0 0 0.639216 0 0 0 0.3 0"/>
<feBlend mode="normal" in2="shape" result="effect2_innerShadow"/>
<feColorMatrix in="SourceAlpha" type="matrix" values="0 0 0 0 0 0 0 0 0 0 0 0 0 0 0 0 0 0 127 0" result="hardAlpha"/>
<feOffset dx="0.520283" dy="-0.635901"/>
<feGaussianBlur stdDeviation="0.394721"/>
<feComposite in2="hardAlpha" operator="arithmetic" k2="-1" k3="1"/>
<feColorMatrix type="matrix" values="0 0 0 0 1 0 0 0 0 1 0 0 0 0 1 0 0 0 0.3 0"/>
<feBlend mode="normal" in2="effect2_innerShadow" result="effect3_innerShadow"/>
<feColorMatrix in="SourceAlpha" type="matrix" values="0 0 0 0 0 0 0 0 0 0 0 0 0 0 0 0 0 0 127 0" result="hardAlpha"/>
<feOffset dx="-0.31217" dy="-0.31217"/>
<feGaussianBlur stdDeviation="0.157888"/>
<feComposite in2="hardAlpha" operator="arithmetic" k2="-1" k3="1"/>
<feColorMatrix type="matrix" values="0 0 0 0 0.53125 0 0 0 0 0.605625 0 0 0 0 0.6375 0 0 0 1 0"/>
<feBlend mode="normal" in2="effect3_innerShadow" result="effect4_innerShadow"/>
</filter>
<filter id="filter1_ddii" x="107.334" y="6.25458" width="124.306" height="253.127" filterUnits="userSpaceOnUse" color-interpolation-filters="sRGB">
<feFlood flood-opacity="0" result="BackgroundImageFix"/>
<feColorMatrix in="SourceAlpha" type="matrix" values="0 0 0 0 0 0 0 0 0 0 0 0 0 0 0 0 0 0 127 0"/>
<feOffset dx="7.92754" dy="12.6841"/>
<feGaussianBlur stdDeviation="4.75652"/>
<feColorMatrix type="matrix" values="0 0 0 0 0 0 0 0 0 0 0 0 0 0 0 0 0 0 0.06 0"/>
<feBlend mode="normal" in2="BackgroundImageFix" result="effect1_dropShadow"/>
<feColorMatrix in="SourceAlpha" type="matrix" values="0 0 0 0 0 0 0 0 0 0 0 0 0 0 0 0 0 0 127 0"/>
<feOffset dx="7.92754" dy="12.6841"/>
<feGaussianBlur stdDeviation="1.58551"/>
<feColorMatrix type="matrix" values="0 0 0 0 0 0 0 0 0 0 0 0 0 0 0 0 0 0 0.04 0"/>
<feBlend mode="normal" in2="effect1_dropShadow" result="effect2_dropShadow"/>
<feBlend mode="normal" in="SourceGraphic" in2="effect2_dropShadow" result="shape"/>
<feColorMatrix in="SourceAlpha" type="matrix" values="0 0 0 0 0 0 0 0 0 0 0 0 0 0 0 0 0 0 127 0" result="hardAlpha"/>
<feOffset dx="-2.37826" dy="1.74406"/>
<feGaussianBlur stdDeviation="0.792754"/>
<feComposite in2="hardAlpha" operator="arithmetic" k2="-1" k3="1"/>
<feColorMatrix type="matrix" values="0 0 0 0 1 0 0 0 0 1 0 0 0 0 1 0 0 0 0.2 0"/>
<feBlend mode="normal" in2="shape" result="effect3_innerShadow"/>
<feColorMatrix in="SourceAlpha" type="matrix" values="0 0 0 0 0 0 0 0 0 0 0 0 0 0 0 0 0 0 127 0" result="hardAlpha"/>
<feOffset dy="-1.58551"/>
<feGaussianBlur stdDeviation="0.792754"/>
<feComposite in2="hardAlpha" operator="arithmetic" k2="-1" k3="1"/>
<feColorMatrix type="matrix" values="0 0 0 0 0 0 0 0 0 0 0 0 0 0 0 0 0 0 0.3 0"/>
<feBlend mode="normal" in2="effect3_innerShadow" result="effect4_innerShadow"/>
</filter>
<filter id="filter2_ddii" x="29.4145" y="253.732" width="82.2561" height="98.0365" filterUnits="userSpaceOnUse" color-interpolation-filters="sRGB">
<feFlood flood-opacity="0" result="BackgroundImageFix"/>
<feColorMatrix in="SourceAlpha" type="matrix" values="0 0 0 0 0 0 0 0 0 0 0 0 0 0 0 0 0 0 127 0"/>
<feOffset dx="7.92754" dy="12.6841"/>
<feGaussianBlur stdDeviation="4.75652"/>
<feColorMatrix type="matrix" values="0 0 0 0 0 0 0 0 0 0 0 0 0 0 0 0 0 0 0.06 0"/>
<feBlend mode="normal" in2="BackgroundImageFix" result="effect1_dropShadow"/>
<feColorMatrix in="SourceAlpha" type="matrix" values="0 0 0 0 0 0 0 0 0 0 0 0 0 0 0 0 0 0 127 0"/>
<feOffset dx="7.92754" dy="12.6841"/>
<feGaussianBlur stdDeviation="1.58551"/>
<feColorMatrix type="matrix" values="0 0 0 0 0 0 0 0 0 0 0 0 0 0 0 0 0 0 0.04 0"/>
<feBlend mode="normal" in2="effect1_dropShadow" result="effect2_dropShadow"/>
<feBlend mode="normal" in="SourceGraphic" in2="effect2_dropShadow" result="shape"/>
<feColorMatrix in="SourceAlpha" type="matrix" values="0 0 0 0 0 0 0 0 0 0 0 0 0 0 0 0 0 0 127 0" result="hardAlpha"/>
<feOffset dx="-2.37826" dy="1.74406"/>
<feGaussianBlur stdDeviation="0.792754"/>
<feComposite in2="hardAlpha" operator="arithmetic" k2="-1" k3="1"/>
<feColorMatrix type="matrix" values="0 0 0 0 1 0 0 0 0 1 0 0 0 0 1 0 0 0 0.2 0"/>
<feBlend mode="normal" in2="shape" result="effect3_innerShadow"/>
<feColorMatrix in="SourceAlpha" type="matrix" values="0 0 0 0 0 0 0 0 0 0 0 0 0 0 0 0 0 0 127 0" result="hardAlpha"/>
<feOffset dy="-1.58551"/>
<feGaussianBlur stdDeviation="0.792754"/>
<feComposite in2="hardAlpha" operator="arithmetic" k2="-1" k3="1"/>
<feColorMatrix type="matrix" values="0 0 0 0 0 0 0 0 0 0 0 0 0 0 0 0 0 0 0.3 0"/>
<feBlend mode="normal" in2="effect3_innerShadow" result="effect4_innerShadow"/>
</filter>
<filter id="filter3_ddii" x="298.422" y="138.057" width="40.2927" height="36.0255" filterUnits="userSpaceOnUse" color-interpolation-filters="sRGB">
<feFlood flood-opacity="0" result="BackgroundImageFix"/>
<feColorMatrix in="SourceAlpha" type="matrix" values="0 0 0 0 0 0 0 0 0 0 0 0 0 0 0 0 0 0 127 0"/>
<feOffset dx="3.83849" dy="6.14159"/>
<feGaussianBlur stdDeviation="2.3031"/>
<feColorMatrix type="matrix" values="0 0 0 0 0 0 0 0 0 0 0 0 0 0 0 0 0 0 0.06 0"/>
<feBlend mode="normal" in2="BackgroundImageFix" result="effect1_dropShadow"/>
<feColorMatrix in="SourceAlpha" type="matrix" values="0 0 0 0 0 0 0 0 0 0 0 0 0 0 0 0 0 0 127 0"/>
<feOffset dx="3.83849" dy="6.14159"/>
<feGaussianBlur stdDeviation="0.767699"/>
<feColorMatrix type="matrix" values="0 0 0 0 0 0 0 0 0 0 0 0 0 0 0 0 0 0 0.04 0"/>
<feBlend mode="normal" in2="effect1_dropShadow" result="effect2_dropShadow"/>
<feBlend mode="normal" in="SourceGraphic" in2="effect2_dropShadow" result="shape"/>
<feColorMatrix in="SourceAlpha" type="matrix" values="0 0 0 0 0 0 0 0 0 0 0 0 0 0 0 0 0 0 127 0" result="hardAlpha"/>
<feOffset dx="-1.15155" dy="0.844469"/>
<feGaussianBlur stdDeviation="0.383849"/>
<feComposite in2="hardAlpha" operator="arithmetic" k2="-1" k3="1"/>
<feColorMatrix type="matrix" values="0 0 0 0 1 0 0 0 0 1 0 0 0 0 1 0 0 0 0.2 0"/>
<feBlend mode="normal" in2="shape" result="effect3_innerShadow"/>
<feColorMatrix in="SourceAlpha" type="matrix" values="0 0 0 0 0 0 0 0 0 0 0 0 0 0 0 0 0 0 127 0" result="hardAlpha"/>
<feOffset dy="-0.767699"/>
<feGaussianBlur stdDeviation="0.383849"/>
<feComposite in2="hardAlpha" operator="arithmetic" k2="-1" k3="1"/>
<feColorMatrix type="matrix" values="0 0 0 0 0 0 0 0 0 0 0 0 0 0 0 0 0 0 0.3 0"/>
<feBlend mode="normal" in2="effect3_innerShadow" result="effect4_innerShadow"/>
</filter>
<filter id="filter4_ddii" x="200.225" y="108.644" width="124.296" height="243.167" filterUnits="userSpaceOnUse" color-interpolation-filters="sRGB">
<feFlood flood-opacity="0" result="BackgroundImageFix"/>
<feColorMatrix in="SourceAlpha" type="matrix" values="0 0 0 0 0 0 0 0 0 0 0 0 0 0 0 0 0 0 127 0"/>
<feOffset dx="7.92754" dy="12.6841"/>
<feGaussianBlur stdDeviation="4.75652"/>
<feColorMatrix type="matrix" values="0 0 0 0 0 0 0 0 0 0 0 0 0 0 0 0 0 0 0.06 0"/>
<feBlend mode="normal" in2="BackgroundImageFix" result="effect1_dropShadow"/>
<feColorMatrix in="SourceAlpha" type="matrix" values="0 0 0 0 0 0 0 0 0 0 0 0 0 0 0 0 0 0 127 0"/>
<feOffset dx="7.92754" dy="12.6841"/>
<feGaussianBlur stdDeviation="1.58551"/>
<feColorMatrix type="matrix" values="0 0 0 0 0 0 0 0 0 0 0 0 0 0 0 0 0 0 0.04 0"/>
<feBlend mode="normal" in2="effect1_dropShadow" result="effect2_dropShadow"/>
<feBlend mode="normal" in="SourceGraphic" in2="effect2_dropShadow" result="shape"/>
<feColorMatrix in="SourceAlpha" type="matrix" values="0 0 0 0 0 0 0 0 0 0 0 0 0 0 0 0 0 0 127 0" result="hardAlpha"/>
<feOffset dx="-2.37826" dy="1.74406"/>
<feGaussianBlur stdDeviation="0.792754"/>
<feComposite in2="hardAlpha" operator="arithmetic" k2="-1" k3="1"/>
<feColorMatrix type="matrix" values="0 0 0 0 1 0 0 0 0 1 0 0 0 0 1 0 0 0 0.2 0"/>
<feBlend mode="normal" in2="shape" result="effect3_innerShadow"/>
<feColorMatrix in="SourceAlpha" type="matrix" values="0 0 0 0 0 0 0 0 0 0 0 0 0 0 0 0 0 0 127 0" result="hardAlpha"/>
<feOffset dy="-1.58551"/>
<feGaussianBlur stdDeviation="0.792754"/>
<feComposite in2="hardAlpha" operator="arithmetic" k2="-1" k3="1"/>
<feColorMatrix type="matrix" values="0 0 0 0 0 0 0 0 0 0 0 0 0 0 0 0 0 0 0.3 0"/>
<feBlend mode="normal" in2="effect3_innerShadow" result="effect4_innerShadow"/>
</filter>
<filter id="filter5_ddii" x="329.822" y="117.027" width="41.0324" height="45.3655" filterUnits="userSpaceOnUse" color-interpolation-filters="sRGB">
<feFlood flood-opacity="0" result="BackgroundImageFix"/>
<feColorMatrix in="SourceAlpha" type="matrix" values="0 0 0 0 0 0 0 0 0 0 0 0 0 0 0 0 0 0 127 0"/>
<feOffset dx="3.83849" dy="6.14159"/>
<feGaussianBlur stdDeviation="2.3031"/>
<feColorMatrix type="matrix" values="0 0 0 0 0 0 0 0 0 0 0 0 0 0 0 0 0 0 0.06 0"/>
<feBlend mode="normal" in2="BackgroundImageFix" result="effect1_dropShadow"/>
<feColorMatrix in="SourceAlpha" type="matrix" values="0 0 0 0 0 0 0 0 0 0 0 0 0 0 0 0 0 0 127 0"/>
<feOffset dx="3.83849" dy="6.14159"/>
<feGaussianBlur stdDeviation="0.767699"/>
<feColorMatrix type="matrix" values="0 0 0 0 0 0 0 0 0 0 0 0 0 0 0 0 0 0 0.04 0"/>
<feBlend mode="normal" in2="effect1_dropShadow" result="effect2_dropShadow"/>
<feBlend mode="normal" in="SourceGraphic" in2="effect2_dropShadow" result="shape"/>
<feColorMatrix in="SourceAlpha" type="matrix" values="0 0 0 0 0 0 0 0 0 0 0 0 0 0 0 0 0 0 127 0" result="hardAlpha"/>
<feOffset dx="-1.15155" dy="0.844469"/>
<feGaussianBlur stdDeviation="0.383849"/>
<feComposite in2="hardAlpha" operator="arithmetic" k2="-1" k3="1"/>
<feColorMatrix type="matrix" values="0 0 0 0 1 0 0 0 0 1 0 0 0 0 1 0 0 0 0.2 0"/>
<feBlend mode="normal" in2="shape" result="effect3_innerShadow"/>
<feColorMatrix in="SourceAlpha" type="matrix" values="0 0 0 0 0 0 0 0 0 0 0 0 0 0 0 0 0 0 127 0" result="hardAlpha"/>
<feOffset dy="-0.767699"/>
<feGaussianBlur stdDeviation="0.383849"/>
<feComposite in2="hardAlpha" operator="arithmetic" k2="-1" k3="1"/>
<feColorMatrix type="matrix" values="0 0 0 0 0 0 0 0 0 0 0 0 0 0 0 0 0 0 0.3 0"/>
<feBlend mode="normal" in2="effect3_innerShadow" result="effect4_innerShadow"/>
</filter>
<filter id="filter6_ddii" x="322.703" y="151.9" width="41.7475" height="35.1726" filterUnits="userSpaceOnUse" color-interpolation-filters="sRGB">
<feFlood flood-opacity="0" result="BackgroundImageFix"/>
<feColorMatrix in="SourceAlpha" type="matrix" values="0 0 0 0 0 0 0 0 0 0 0 0 0 0 0 0 0 0 127 0"/>
<feOffset dx="7.92754" dy="12.6841"/>
<feGaussianBlur stdDeviation="4.75652"/>
<feColorMatrix type="matrix" values="0 0 0 0 0 0 0 0 0 0 0 0 0 0 0 0 0 0 0.06 0"/>
<feBlend mode="normal" in2="BackgroundImageFix" result="effect1_dropShadow"/>
<feColorMatrix in="SourceAlpha" type="matrix" values="0 0 0 0 0 0 0 0 0 0 0 0 0 0 0 0 0 0 127 0"/>
<feOffset dx="7.92754" dy="12.6841"/>
<feGaussianBlur stdDeviation="1.58551"/>
<feColorMatrix type="matrix" values="0 0 0 0 0 0 0 0 0 0 0 0 0 0 0 0 0 0 0.04 0"/>
<feBlend mode="normal" in2="effect1_dropShadow" result="effect2_dropShadow"/>
<feBlend mode="normal" in="SourceGraphic" in2="effect2_dropShadow" result="shape"/>
<feColorMatrix in="SourceAlpha" type="matrix" values="0 0 0 0 0 0 0 0 0 0 0 0 0 0 0 0 0 0 127 0" result="hardAlpha"/>
<feOffset dx="-2.37826" dy="1.74406"/>
<feGaussianBlur stdDeviation="0.792754"/>
<feComposite in2="hardAlpha" operator="arithmetic" k2="-1" k3="1"/>
<feColorMatrix type="matrix" values="0 0 0 0 1 0 0 0 0 1 0 0 0 0 1 0 0 0 0.2 0"/>
<feBlend mode="normal" in2="shape" result="effect3_innerShadow"/>
<feColorMatrix in="SourceAlpha" type="matrix" values="0 0 0 0 0 0 0 0 0 0 0 0 0 0 0 0 0 0 127 0" result="hardAlpha"/>
<feOffset dy="-1.58551"/>
<feGaussianBlur stdDeviation="0.792754"/>
<feComposite in2="hardAlpha" operator="arithmetic" k2="-1" k3="1"/>
<feColorMatrix type="matrix" values="0 0 0 0 0 0 0 0 0 0 0 0 0 0 0 0 0 0 0.3 0"/>
<feBlend mode="normal" in2="effect3_innerShadow" result="effect4_innerShadow"/>
</filter>
<filter id="filter7_ddii" x="318.999" y="290.493" width="39.7978" height="42.134" filterUnits="userSpaceOnUse" color-interpolation-filters="sRGB">
<feFlood flood-opacity="0" result="BackgroundImageFix"/>
<feColorMatrix in="SourceAlpha" type="matrix" values="0 0 0 0 0 0 0 0 0 0 0 0 0 0 0 0 0 0 127 0"/>
<feOffset dx="7.92754" dy="12.6841"/>
<feGaussianBlur stdDeviation="4.75652"/>
<feColorMatrix type="matrix" values="0 0 0 0 0 0 0 0 0 0 0 0 0 0 0 0 0 0 0.06 0"/>
<feBlend mode="normal" in2="BackgroundImageFix" result="effect1_dropShadow"/>
<feColorMatrix in="SourceAlpha" type="matrix" values="0 0 0 0 0 0 0 0 0 0 0 0 0 0 0 0 0 0 127 0"/>
<feOffset dx="7.92754" dy="12.6841"/>
<feGaussianBlur stdDeviation="1.58551"/>
<feColorMatrix type="matrix" values="0 0 0 0 0 0 0 0 0 0 0 0 0 0 0 0 0 0 0.04 0"/>
<feBlend mode="normal" in2="effect1_dropShadow" result="effect2_dropShadow"/>
<feBlend mode="normal" in="SourceGraphic" in2="effect2_dropShadow" result="shape"/>
<feColorMatrix in="SourceAlpha" type="matrix" values="0 0 0 0 0 0 0 0 0 0 0 0 0 0 0 0 0 0 127 0" result="hardAlpha"/>
<feOffset dx="-2.37826" dy="1.74406"/>
<feGaussianBlur stdDeviation="0.792754"/>
<feComposite in2="hardAlpha" operator="arithmetic" k2="-1" k3="1"/>
<feColorMatrix type="matrix" values="0 0 0 0 1 0 0 0 0 1 0 0 0 0 1 0 0 0 0.2 0"/>
<feBlend mode="normal" in2="shape" result="effect3_innerShadow"/>
<feColorMatrix in="SourceAlpha" type="matrix" values="0 0 0 0 0 0 0 0 0 0 0 0 0 0 0 0 0 0 127 0" result="hardAlpha"/>
<feOffset dy="-1.58551"/>
<feGaussianBlur stdDeviation="0.792754"/>
<feComposite in2="hardAlpha" operator="arithmetic" k2="-1" k3="1"/>
<feColorMatrix type="matrix" values="0 0 0 0 0 0 0 0 0 0 0 0 0 0 0 0 0 0 0.3 0"/>
<feBlend mode="normal" in2="effect3_innerShadow" result="effect4_innerShadow"/>
</filter>
<filter id="filter8_ddii" x="339.231" y="301.813" width="39.7917" height="42.1334" filterUnits="userSpaceOnUse" color-interpolation-filters="sRGB">
<feFlood flood-opacity="0" result="BackgroundImageFix"/>
<feColorMatrix in="SourceAlpha" type="matrix" values="0 0 0 0 0 0 0 0 0 0 0 0 0 0 0 0 0 0 127 0"/>
<feOffset dx="7.92754" dy="12.6841"/>
<feGaussianBlur stdDeviation="4.75652"/>
<feColorMatrix type="matrix" values="0 0 0 0 0 0 0 0 0 0 0 0 0 0 0 0 0 0 0.06 0"/>
<feBlend mode="normal" in2="BackgroundImageFix" result="effect1_dropShadow"/>
<feColorMatrix in="SourceAlpha" type="matrix" values="0 0 0 0 0 0 0 0 0 0 0 0 0 0 0 0 0 0 127 0"/>
<feOffset dx="7.92754" dy="12.6841"/>
<feGaussianBlur stdDeviation="1.58551"/>
<feColorMatrix type="matrix" values="0 0 0 0 0 0 0 0 0 0 0 0 0 0 0 0 0 0 0.04 0"/>
<feBlend mode="normal" in2="effect1_dropShadow" result="effect2_dropShadow"/>
<feBlend mode="normal" in="SourceGraphic" in2="effect2_dropShadow" result="shape"/>
<feColorMatrix in="SourceAlpha" type="matrix" values="0 0 0 0 0 0 0 0 0 0 0 0 0 0 0 0 0 0 127 0" result="hardAlpha"/>
<feOffset dx="-2.37826" dy="1.74406"/>
<feGaussianBlur stdDeviation="0.792754"/>
<feComposite in2="hardAlpha" operator="arithmetic" k2="-1" k3="1"/>
<feColorMatrix type="matrix" values="0 0 0 0 1 0 0 0 0 1 0 0 0 0 1 0 0 0 0.2 0"/>
<feBlend mode="normal" in2="shape" result="effect3_innerShadow"/>
<feColorMatrix in="SourceAlpha" type="matrix" values="0 0 0 0 0 0 0 0 0 0 0 0 0 0 0 0 0 0 127 0" result="hardAlpha"/>
<feOffset dy="-1.58551"/>
<feGaussianBlur stdDeviation="0.792754"/>
<feComposite in2="hardAlpha" operator="arithmetic" k2="-1" k3="1"/>
<feColorMatrix type="matrix" values="0 0 0 0 0 0 0 0 0 0 0 0 0 0 0 0 0 0 0.3 0"/>
<feBlend mode="normal" in2="effect3_innerShadow" result="effect4_innerShadow"/>
</filter>
<filter id="filter9_ddii" x="327.778" y="198.938" width="46.925" height="110.127" filterUnits="userSpaceOnUse" color-interpolation-filters="sRGB">
<feFlood flood-opacity="0" result="BackgroundImageFix"/>
<feColorMatrix in="SourceAlpha" type="matrix" values="0 0 0 0 0 0 0 0 0 0 0 0 0 0 0 0 0 0 127 0"/>
<feOffset dx="3.83849" dy="6.14159"/>
<feGaussianBlur stdDeviation="2.3031"/>
<feColorMatrix type="matrix" values="0 0 0 0 0 0 0 0 0 0 0 0 0 0 0 0 0 0 0.06 0"/>
<feBlend mode="normal" in2="BackgroundImageFix" result="effect1_dropShadow"/>
<feColorMatrix in="SourceAlpha" type="matrix" values="0 0 0 0 0 0 0 0 0 0 0 0 0 0 0 0 0 0 127 0"/>
<feOffset dx="3.83849" dy="6.14159"/>
<feGaussianBlur stdDeviation="0.767699"/>
<feColorMatrix type="matrix" values="0 0 0 0 0 0 0 0 0 0 0 0 0 0 0 0 0 0 0.04 0"/>
<feBlend mode="normal" in2="effect1_dropShadow" result="effect2_dropShadow"/>
<feBlend mode="normal" in="SourceGraphic" in2="effect2_dropShadow" result="shape"/>
<feColorMatrix in="SourceAlpha" type="matrix" values="0 0 0 0 0 0 0 0 0 0 0 0 0 0 0 0 0 0 127 0" result="hardAlpha"/>
<feOffset dx="-1.15155" dy="0.844469"/>
<feGaussianBlur stdDeviation="0.383849"/>
<feComposite in2="hardAlpha" operator="arithmetic" k2="-1" k3="1"/>
<feColorMatrix type="matrix" values="0 0 0 0 1 0 0 0 0 1 0 0 0 0 1 0 0 0 0.2 0"/>
<feBlend mode="normal" in2="shape" result="effect3_innerShadow"/>
<feColorMatrix in="SourceAlpha" type="matrix" values="0 0 0 0 0 0 0 0 0 0 0 0 0 0 0 0 0 0 127 0" result="hardAlpha"/>
<feOffset dy="-0.767699"/>
<feGaussianBlur stdDeviation="0.383849"/>
<feComposite in2="hardAlpha" operator="arithmetic" k2="-1" k3="1"/>
<feColorMatrix type="matrix" values="0 0 0 0 0 0 0 0 0 0 0 0 0 0 0 0 0 0 0.3 0"/>
<feBlend mode="normal" in2="effect3_innerShadow" result="effect4_innerShadow"/>
</filter>
<filter id="filter10_ddii" x="328.671" y="153.158" width="45.0742" height="64.2996" filterUnits="userSpaceOnUse" color-interpolation-filters="sRGB">
<feFlood flood-opacity="0" result="BackgroundImageFix"/>
<feColorMatrix in="SourceAlpha" type="matrix" values="0 0 0 0 0 0 0 0 0 0 0 0 0 0 0 0 0 0 127 0"/>
<feOffset dx="3.83849" dy="6.14159"/>
<feGaussianBlur stdDeviation="2.3031"/>
<feColorMatrix type="matrix" values="0 0 0 0 0 0 0 0 0 0 0 0 0 0 0 0 0 0 0.06 0"/>
<feBlend mode="normal" in2="BackgroundImageFix" result="effect1_dropShadow"/>
<feColorMatrix in="SourceAlpha" type="matrix" values="0 0 0 0 0 0 0 0 0 0 0 0 0 0 0 0 0 0 127 0"/>
<feOffset dx="3.83849" dy="6.14159"/>
<feGaussianBlur stdDeviation="0.767699"/>
<feColorMatrix type="matrix" values="0 0 0 0 0 0 0 0 0 0 0 0 0 0 0 0 0 0 0.04 0"/>
<feBlend mode="normal" in2="effect1_dropShadow" result="effect2_dropShadow"/>
<feBlend mode="normal" in="SourceGraphic" in2="effect2_dropShadow" result="shape"/>
<feColorMatrix in="SourceAlpha" type="matrix" values="0 0 0 0 0 0 0 0 0 0 0 0 0 0 0 0 0 0 127 0" result="hardAlpha"/>
<feOffset dx="-1.15155" dy="0.844469"/>
<feGaussianBlur stdDeviation="0.383849"/>
<feComposite in2="hardAlpha" operator="arithmetic" k2="-1" k3="1"/>
<feColorMatrix type="matrix" values="0 0 0 0 1 0 0 0 0 1 0 0 0 0 1 0 0 0 0.2 0"/>
<feBlend mode="normal" in2="shape" result="effect3_innerShadow"/>
<feColorMatrix in="SourceAlpha" type="matrix" values="0 0 0 0 0 0 0 0 0 0 0 0 0 0 0 0 0 0 127 0" result="hardAlpha"/>
<feOffset dy="-0.767699"/>
<feGaussianBlur stdDeviation="0.383849"/>
<feComposite in2="hardAlpha" operator="arithmetic" k2="-1" k3="1"/>
<feColorMatrix type="matrix" values="0 0 0 0 0 0 0 0 0 0 0 0 0 0 0 0 0 0 0.3 0"/>
<feBlend mode="normal" in2="effect3_innerShadow" result="effect4_innerShadow"/>
</filter>
<filter id="filter11_ddii" x="293.087" y="153.981" width="89.5076" height="55.1635" filterUnits="userSpaceOnUse" color-interpolation-filters="sRGB">
<feFlood flood-opacity="0" result="BackgroundImageFix"/>
<feColorMatrix in="SourceAlpha" type="matrix" values="0 0 0 0 0 0 0 0 0 0 0 0 0 0 0 0 0 0 127 0"/>
<feOffset dx="7.92754" dy="12.6841"/>
<feGaussianBlur stdDeviation="4.75652"/>
<feColorMatrix type="matrix" values="0 0 0 0 0 0 0 0 0 0 0 0 0 0 0 0 0 0 0.06 0"/>
<feBlend mode="normal" in2="BackgroundImageFix" result="effect1_dropShadow"/>
<feColorMatrix in="SourceAlpha" type="matrix" values="0 0 0 0 0 0 0 0 0 0 0 0 0 0 0 0 0 0 127 0"/>
<feOffset dx="7.92754" dy="12.6841"/>
<feGaussianBlur stdDeviation="1.58551"/>
<feColorMatrix type="matrix" values="0 0 0 0 0 0 0 0 0 0 0 0 0 0 0 0 0 0 0.04 0"/>
<feBlend mode="normal" in2="effect1_dropShadow" result="effect2_dropShadow"/>
<feBlend mode="normal" in="SourceGraphic" in2="effect2_dropShadow" result="shape"/>
<feColorMatrix in="SourceAlpha" type="matrix" values="0 0 0 0 0 0 0 0 0 0 0 0 0 0 0 0 0 0 127 0" result="hardAlpha"/>
<feOffset dx="-2.37826" dy="1.74406"/>
<feGaussianBlur stdDeviation="0.792754"/>
<feComposite in2="hardAlpha" operator="arithmetic" k2="-1" k3="1"/>
<feColorMatrix type="matrix" values="0 0 0 0 1 0 0 0 0 1 0 0 0 0 1 0 0 0 0.2 0"/>
<feBlend mode="normal" in2="shape" result="effect3_innerShadow"/>
<feColorMatrix in="SourceAlpha" type="matrix" values="0 0 0 0 0 0 0 0 0 0 0 0 0 0 0 0 0 0 127 0" result="hardAlpha"/>
<feOffset dy="-1.58551"/>
<feGaussianBlur stdDeviation="0.792754"/>
<feComposite in2="hardAlpha" operator="arithmetic" k2="-1" k3="1"/>
<feColorMatrix type="matrix" values="0 0 0 0 0 0 0 0 0 0 0 0 0 0 0 0 0 0 0.3 0"/>
<feBlend mode="normal" in2="effect3_innerShadow" result="effect4_innerShadow"/>
</filter>
<filter id="filter12_ddii" x="346.055" y="153.887" width="36.6903" height="43.4952" filterUnits="userSpaceOnUse" color-interpolation-filters="sRGB">
<feFlood flood-opacity="0" result="BackgroundImageFix"/>
<feColorMatrix in="SourceAlpha" type="matrix" values="0 0 0 0 0 0 0 0 0 0 0 0 0 0 0 0 0 0 127 0"/>
<feOffset dx="7.92754" dy="12.6841"/>
<feGaussianBlur stdDeviation="4.75652"/>
<feColorMatrix type="matrix" values="0 0 0 0 0 0 0 0 0 0 0 0 0 0 0 0 0 0 0.06 0"/>
<feBlend mode="normal" in2="BackgroundImageFix" result="effect1_dropShadow"/>
<feColorMatrix in="SourceAlpha" type="matrix" values="0 0 0 0 0 0 0 0 0 0 0 0 0 0 0 0 0 0 127 0"/>
<feOffset dx="7.92754" dy="12.6841"/>
<feGaussianBlur stdDeviation="1.58551"/>
<feColorMatrix type="matrix" values="0 0 0 0 0 0 0 0 0 0 0 0 0 0 0 0 0 0 0.04 0"/>
<feBlend mode="normal" in2="effect1_dropShadow" result="effect2_dropShadow"/>
<feBlend mode="normal" in="SourceGraphic" in2="effect2_dropShadow" result="shape"/>
<feColorMatrix in="SourceAlpha" type="matrix" values="0 0 0 0 0 0 0 0 0 0 0 0 0 0 0 0 0 0 127 0" result="hardAlpha"/>
<feOffset dx="-2.37826" dy="1.74406"/>
<feGaussianBlur stdDeviation="0.792754"/>
<feComposite in2="hardAlpha" operator="arithmetic" k2="-1" k3="1"/>
<feColorMatrix type="matrix" values="0 0 0 0 1 0 0 0 0 1 0 0 0 0 1 0 0 0 0.2 0"/>
<feBlend mode="normal" in2="shape" result="effect3_innerShadow"/>
<feColorMatrix in="SourceAlpha" type="matrix" values="0 0 0 0 0 0 0 0 0 0 0 0 0 0 0 0 0 0 127 0" result="hardAlpha"/>
<feOffset dy="-1.58551"/>
<feGaussianBlur stdDeviation="0.792754"/>
<feComposite in2="hardAlpha" operator="arithmetic" k2="-1" k3="1"/>
<feColorMatrix type="matrix" values="0 0 0 0 0 0 0 0 0 0 0 0 0 0 0 0 0 0 0.3 0"/>
<feBlend mode="normal" in2="effect3_innerShadow" result="effect4_innerShadow"/>
</filter>
<linearGradient id="paint0_linear" x1="0" y1="196" x2="392" y2="196" gradientUnits="userSpaceOnUse">
<stop stop-color="#16D9E3"/>
<stop offset="0.47" stop-color="#30C7EC"/>
<stop offset="1" stop-color="#46AEF7"/>
</linearGradient>
<linearGradient id="paint1_linear" x1="346.581" y1="68.7244" x2="122.818" y2="354.74" gradientUnits="userSpaceOnUse">
<stop stop-color="white"/>
<stop offset="1" stop-color="#8192BD" stop-opacity="0.21"/>
</linearGradient>
<linearGradient id="paint2_linear" x1="-106.868" y1="106.868" x2="139.259" y2="-7.43689" gradientUnits="userSpaceOnUse">
<stop stop-color="white" stop-opacity="0.78"/>
<stop offset="0.958333" stop-color="#D6D7E1"/>
</linearGradient>
<linearGradient id="paint3_linear" x1="356.97" y1="266.16" x2="389.738" y2="266.16" gradientUnits="userSpaceOnUse">
<stop stop-color="#16D9E3"/>
<stop offset="0.47" stop-color="#30C7EC"/>
<stop offset="1" stop-color="#46AEF7"/>
</linearGradient>
<linearGradient id="paint4_linear" x1="359.472" y1="287.138" x2="393.765" y2="287.138" gradientUnits="userSpaceOnUse">
<stop stop-color="#16D9E3"/>
<stop offset="0.47" stop-color="#30C7EC"/>
<stop offset="1" stop-color="#46AEF7"/>
</linearGradient>
<linearGradient id="paint5_linear" x1="41.4247" y1="169.183" x2="219.97" y2="169.183" gradientUnits="userSpaceOnUse">
<stop stop-color="#83A6FF"/>
<stop offset="1" stop-color="#4D6DE2"/>
</linearGradient>
<linearGradient id="paint6_linear" x1="41.2457" y1="178.392" x2="256.285" y2="178.392" gradientUnits="userSpaceOnUse">
<stop stop-color="#83A6FF"/>
<stop offset="1" stop-color="#4D6DE2"/>
</linearGradient>
<linearGradient id="paint7_linear" x1="31.0238" y1="291.114" x2="94.483" y2="291.114" gradientUnits="userSpaceOnUse">
<stop stop-color="#FF66A9"/>
<stop offset="1" stop-color="#F53689"/>
</linearGradient>
<linearGradient id="paint8_linear" x1="324.297" y1="158.976" x2="347.101" y2="158.976" gradientUnits="userSpaceOnUse">
<stop stop-color="#FF66A9"/>
<stop offset="1" stop-color="#F53689"/>
</linearGradient>
<linearGradient id="paint9_linear" x1="347.647" y1="164.976" x2="365.375" y2="164.976" gradientUnits="userSpaceOnUse">
<stop stop-color="#FF66A9"/>
<stop offset="1" stop-color="#F53689"/>
</linearGradient>
</defs>
</svg>
