<svg width="48" height="48" viewBox="0 0 48 48" fill="none" xmlns="http://www.w3.org/2000/svg">
<path d="M24 22C14.06 22 6 30.06 6 40C6.02 40 42 40 42 40C42 30.06 33.94 22 24 22Z" stroke="#1549D0" stroke-width="2" stroke-miterlimit="10" stroke-linecap="round" stroke-linejoin="round"/>
<path d="M24 22C28.9706 22 33 17.9706 33 13C33 8.02944 28.9706 4 24 4C19.0294 4 15 8.02944 15 13C15 17.9706 19.0294 22 24 22Z" stroke="#1549D0" stroke-width="2" stroke-miterlimit="10" stroke-linecap="round" stroke-linejoin="round"/>
<path d="M24 22C14.06 22 6 30.06 6 40C6.02 40 42 40 42 40C42 30.06 33.94 22 24 22Z" fill="url(#paint0_linear)"/>
<path d="M24 22C28.9706 22 33 17.9706 33 13C33 8.02944 28.9706 4 24 4C19.0294 4 15 8.02944 15 13C15 17.9706 19.0294 22 24 22Z" fill="url(#paint1_linear)"/>
<path d="M12.46 4L35.54 44" stroke="#22DDDD" stroke-width="2" stroke-miterlimit="10" stroke-linecap="round" stroke-linejoin="round"/>
<defs>
<linearGradient id="paint0_linear" x1="24" y1="22" x2="24" y2="40" gradientUnits="userSpaceOnUse">
<stop stop-color="#081AFF" stop-opacity="0.37"/>
<stop offset="1" stop-color="#081AFF" stop-opacity="0"/>
</linearGradient>
<linearGradient id="paint1_linear" x1="24" y1="4" x2="24" y2="22" gradientUnits="userSpaceOnUse">
<stop stop-color="#081AFF" stop-opacity="0.37"/>
<stop offset="1" stop-color="#081AFF" stop-opacity="0"/>
</linearGradient>
</defs>
</svg>
