<svg width="48" height="48" viewBox="0 0 48 48" fill="none" xmlns="http://www.w3.org/2000/svg">
<path d="M4 42C5 38.2 7.94 38.98 8.94 35.18C9.94 31.38 7 30.6 8 26.82C9 23.02 11.94 23.78 12.94 20C13.94 16.18 11 15.42 12 11.6C12.88 8.28 15.24 8.46 16.48 6" stroke="#22DDDD" stroke-width="2" stroke-miterlimit="10" stroke-linecap="round" stroke-linejoin="round"/>
<path d="M43.42 14.7001L41.3 12.5801C40.52 11.8001 39.26 11.8001 38.48 12.5801L16.48 34.5801L14 42.0001L21.42 39.5201L43.42 17.5201C44.2 16.7401 44.2 15.4801 43.42 14.7001Z" stroke="#1549D0" stroke-width="2" stroke-miterlimit="10" stroke-linecap="round" stroke-linejoin="round"/>
<path d="M43.42 14.7001L41.3 12.5801C40.52 11.8001 39.26 11.8001 38.48 12.5801L16.48 34.5801L14 42.0001L21.42 39.5201L43.42 17.5201C44.2 16.7401 44.2 15.4801 43.42 14.7001Z" fill="url(#paint0_linear)"/>
<path d="M39.88 21.0601L34.94 16.1201L38.46 12.6001C39.24 11.8201 40.5 11.8201 41.28 12.6001L43.4 14.7201C44.18 15.5001 44.18 16.7601 43.4 17.5401L39.88 21.0601Z" stroke="#1549D0" stroke-width="2" stroke-miterlimit="10" stroke-linecap="round" stroke-linejoin="round"/>
<defs>
<linearGradient id="paint0_linear" x1="34" y1="10.5001" x2="29.0025" y2="42.0001" gradientUnits="userSpaceOnUse">
<stop stop-color="#081AFF" stop-opacity="0.71"/>
<stop offset="1" stop-color="#081AFF" stop-opacity="0"/>
</linearGradient>
</defs>
</svg>
