<svg width="76" height="76" viewBox="0 0 76 76" fill="none" xmlns="http://www.w3.org/2000/svg" xmlns:xlink="http://www.w3.org/1999/xlink">
    <g clip-path="url(#clip0)">
        <path fill-rule="evenodd" clip-rule="evenodd" d="M33.6717 11.9665L34.5446 15.7926C39.2233 16.2649 43.2968 19.5222 44.357 24.169L47.1675 36.4876C48.48 42.2403 44.6917 47.8689 38.7093 49.0579L17.2229 53.3284C11.238 54.518 5.32145 50.8183 4.00896 45.0656L1.19844 32.747C0.13827 28.1002 2.43917 23.576 6.50314 21.3659L5.63023 17.5399C3.95885 10.096 8.85283 2.82461 16.5404 1.29668C24.3311 -0.251766 31.9745 4.52773 33.6717 11.9665ZM17.7079 5.70875C22.9657 4.66313 28.1765 7.92334 29.3295 12.98L30.0827 16.2831L10.9941 20.0792L10.2296 16.7264C9.10811 11.6895 12.4502 6.75437 17.7079 5.70875ZM26.971 36.8357C27.2464 38.0467 26.4659 39.2098 25.2098 39.4602C23.9793 39.7055 22.7602 38.941 22.4847 37.73L21.2367 32.2437C20.9668 31.0575 21.7473 29.8944 22.9778 29.6491C24.234 29.3987 25.453 30.1632 25.7229 31.3494L26.971 36.8357Z" fill="url(#paint0_linear)" />
        <g opacity="0.5" filter="url(#filter0_f)">
            <rect width="25.9699" height="17.5122" rx="5" transform="matrix(0.979533 -0.201287 0.223915 0.974736 9.33051 27.8359)" fill="#8237FF" />
        </g>
        <g filter="url(#filter1_b)">
            <path d="M62.2012 32.6564L59.2436 42.6776C58.2057 42.0691 57.0578 41.5978 55.8321 41.2721L53.7356 40.7151L56.5566 31.1566C58.4051 24.8934 54.5855 18.3885 48.0378 16.6488C41.4901 14.9091 34.6747 18.555 32.803 24.7788L29.9638 34.399L27.8995 33.8505C26.6415 33.5162 25.4026 33.3534 24.1735 33.3929L27.1402 23.3408C29.9042 14.0933 39.9549 8.67849 49.5668 11.2324C59.3078 13.8205 64.933 23.4004 62.2012 32.6564Z" fill="url(#paint1_linear)" />
            <path d="M62.0079 32.605L59.1238 42.3771C58.13 41.8213 57.0428 41.3869 55.8888 41.0803L53.9855 40.5746L56.7499 31.208C58.6316 24.8322 54.7422 18.2233 48.0944 16.457C41.4475 14.6909 34.5154 18.3903 32.61 24.7265L32.6097 24.7275L29.8271 34.1558L27.9561 33.6586C26.7739 33.3445 25.6048 33.179 24.4421 33.1889L27.3334 23.3925C30.0643 14.2566 39.999 8.89709 49.5102 11.4242C59.1516 13.9859 64.7063 23.462 62.0079 32.605Z" stroke="url(#paint2_linear)" stroke-width="0.4" />
        </g>
        <g filter="url(#filter2_b)">
            <mask id="path-5-outside-1" maskUnits="userSpaceOnUse" x="3.83032" y="22.1517" width="69.2116" height="58.879" fill="black">
                <rect fill="white" x="3.83032" y="22.1517" width="69.2116" height="58.879" />
                <path d="M57.9027 33.9783L31.1467 26.9545C23.693 24.9978 15.9071 29.2469 13.7576 36.4444L9.15478 51.8569C7.00531 59.0544 11.3058 66.4763 18.7594 68.433L45.5154 75.4569C52.9691 77.4136 60.7551 73.1645 62.9045 65.967L67.5074 50.5545C69.6568 43.357 65.3563 35.935 57.9027 33.9783Z" />
            </mask>
            <path d="M57.9027 33.9783L31.1467 26.9545C23.693 24.9978 15.9071 29.2469 13.7576 36.4444L9.15478 51.8569C7.00531 59.0544 11.3058 66.4763 18.7594 68.433L45.5154 75.4569C52.9691 77.4136 60.7551 73.1645 62.9045 65.967L67.5074 50.5545C69.6568 43.357 65.3563 35.935 57.9027 33.9783Z" fill="url(#paint3_linear)" />
            <path d="M31.1467 26.9545L30.8624 27.9134L31.1467 26.9545ZM13.7576 36.4444L12.7908 36.1885L13.7576 36.4444ZM9.15478 51.8569L10.1216 52.1128L9.15478 51.8569ZM18.7594 68.433L18.4752 69.3919L18.7594 68.433ZM45.5154 75.4569L45.7997 74.498L45.5154 75.4569ZM62.9045 65.967L63.8713 66.2228L62.9045 65.967ZM67.5074 50.5545L66.5405 50.2986L67.5074 50.5545ZM58.1869 33.0195L31.4309 25.9956L30.8624 27.9134L57.6184 34.9372L58.1869 33.0195ZM31.4309 25.9956C23.4672 23.905 15.1049 28.4396 12.7908 36.1885L14.7244 36.7003C16.7092 30.0542 23.9189 26.0906 30.8624 27.9134L31.4309 25.9956ZM12.7908 36.1885L8.18796 51.601L10.1216 52.1128L14.7244 36.7003L12.7908 36.1885ZM8.18796 51.601C5.87332 59.3516 10.5101 67.3009 18.4752 69.3919L19.0437 67.4742C12.1015 65.6517 8.1373 58.7572 10.1216 52.1128L8.18796 51.601ZM18.4752 69.3919L45.2312 76.4157L45.7997 74.498L19.0437 67.4742L18.4752 69.3919ZM45.2312 76.4157C53.1949 78.5063 61.5572 73.9718 63.8713 66.2228L61.9377 65.7111C59.9529 72.3571 52.7433 76.3208 45.7997 74.498L45.2312 76.4157ZM63.8713 66.2228L68.4742 50.8103L66.5405 50.2986L61.9377 65.7111L63.8713 66.2228ZM68.4742 50.8103C70.7888 43.0598 66.1521 35.1104 58.1869 33.0195L57.6184 34.9372C64.5606 36.7596 68.5248 43.6542 66.5405 50.2986L68.4742 50.8103Z" fill="url(#paint4_linear)" mask="url(#path-5-outside-1)" />
        </g>
        <g filter="url(#filter3_bd)">
            <path d="M40.1116 55.3415C39.6642 56.8487 38.0651 57.72 36.5033 57.3074C34.9733 56.9032 34.0862 55.3751 34.5336 53.8678L36.5602 47.039C36.9985 45.5625 38.5976 44.6912 40.1276 45.0954C41.6894 45.508 42.5764 47.0361 42.1382 48.5126L40.1116 55.3415Z" fill="url(#paint5_linear)" />
            <path d="M39.9182 55.2904C39.5037 56.6869 38.0202 57.5013 36.5602 57.1156C35.1335 56.7387 34.3121 55.3168 34.727 53.9189L36.7536 47.0901C37.159 45.7243 38.6425 44.9099 40.0706 45.2872C41.5321 45.6733 42.3498 47.0972 41.9449 48.4615L39.9182 55.2904Z" stroke="url(#paint6_linear)" stroke-width="0.4" />
        </g>
    </g>
    <defs>
        <filter id="filter0_f" x="-4.67737" y="8.51123" width="57.3754" height="50.492" filterUnits="userSpaceOnUse" color-interpolation-filters="sRGB">
            <feFlood flood-opacity="0" result="BackgroundImageFix" />
            <feBlend mode="normal" in="SourceGraphic" in2="BackgroundImageFix" result="shape" />
            <feGaussianBlur stdDeviation="7.5" result="effect1_foregroundBlur" />
        </filter>
        <filter id="filter1_b" x="9.17346" y="-4.39966" width="68.7172" height="62.0773" filterUnits="userSpaceOnUse" color-interpolation-filters="sRGB">
            <feFlood flood-opacity="0" result="BackgroundImageFix" />
            <feGaussianBlur in="BackgroundImage" stdDeviation="7.5" />
            <feComposite in2="SourceAlpha" operator="in" result="effect1_backgroundBlur" />
            <feBlend mode="normal" in="SourceGraphic" in2="effect1_backgroundBlur" result="shape" />
        </filter>
        <filter id="filter2_b" x="-16.408" y="1.48657" width="109.478" height="99.4382" filterUnits="userSpaceOnUse" color-interpolation-filters="sRGB">
            <feFlood flood-opacity="0" result="BackgroundImageFix" />
            <feGaussianBlur in="BackgroundImage" stdDeviation="12" />
            <feComposite in2="SourceAlpha" operator="in" result="effect1_backgroundBlur" />
            <feBlend mode="normal" in="SourceGraphic" in2="effect1_backgroundBlur" result="shape" />
        </filter>
        <filter id="filter3_bd" x="19.4176" y="29.9966" width="37.8324" height="42.4132" filterUnits="userSpaceOnUse" color-interpolation-filters="sRGB">
            <feFlood flood-opacity="0" result="BackgroundImageFix" />
            <feGaussianBlur in="BackgroundImage" stdDeviation="7.5" />
            <feComposite in2="SourceAlpha" operator="in" result="effect1_backgroundBlur" />
            <feColorMatrix in="SourceAlpha" type="matrix" values="0 0 0 0 0 0 0 0 0 0 0 0 0 0 0 0 0 0 127 0" />
            <feOffset dx="5" dy="5" />
            <feGaussianBlur stdDeviation="5" />
            <feColorMatrix type="matrix" values="0 0 0 0 0.577356 0 0 0 0 0.359375 0 0 0 0 0.9375 0 0 0 0.5 0" />
            <feBlend mode="normal" in2="effect1_backgroundBlur" result="effect2_dropShadow" />
            <feBlend mode="normal" in="SourceGraphic" in2="effect2_dropShadow" result="shape" />
        </filter>
        <linearGradient id="paint0_linear" x1="0.713063" y1="30.5935" x2="43.6578" y2="20.9148" gradientUnits="userSpaceOnUse">
            <stop stop-color="#16D9E3" />
            <stop offset="0.47" stop-color="#30C7EC" />
            <stop offset="1" stop-color="#46AEF7" />
        </linearGradient>
        <linearGradient id="paint1_linear" x1="63.2313" y1="20.0831" x2="23.9878" y2="10.2855" gradientUnits="userSpaceOnUse">
            <stop stop-color="white" />
            <stop offset="1" stop-color="white" stop-opacity="0.2" />
        </linearGradient>
        <linearGradient id="paint2_linear" x1="36.7442" y1="11.1932" x2="45.4642" y2="40.5125" gradientUnits="userSpaceOnUse">
            <stop stop-color="white" stop-opacity="0.25" />
            <stop offset="1" stop-color="white" stop-opacity="0" />
        </linearGradient>
        <linearGradient id="paint3_linear" x1="11.1936" y1="44.045" x2="64.6444" y2="59.947" gradientUnits="userSpaceOnUse">
            <stop stop-color="#83A6FF" />
            <stop offset="1" stop-color="#4D6DE2" />
        </linearGradient>
        <linearGradient id="paint4_linear" x1="24.7486" y1="30.4567" x2="38.4537" y2="75.5796" gradientUnits="userSpaceOnUse">
            <stop stop-color="white" stop-opacity="0.25" />
            <stop offset="1" stop-color="white" stop-opacity="0" />
        </linearGradient>
        <linearGradient id="paint5_linear" x1="41.8825" y1="47.9372" x2="35.6894" y2="46.1983" gradientUnits="userSpaceOnUse">
            <stop stop-color="white" />
            <stop offset="1" stop-color="white" stop-opacity="0.2" />
        </linearGradient>
        <linearGradient id="paint6_linear" x1="37.8202" y1="46.0201" x2="43.4562" y2="51.7354" gradientUnits="userSpaceOnUse">
            <stop stop-color="white" stop-opacity="0.25" />
            <stop offset="1" stop-color="white" stop-opacity="0" />
        </linearGradient>
        <clipPath id="clip0">
            <rect width="76" height="76" fill="white" />
        </clipPath>
    </defs>
</svg>
