<svg width="88" height="81" viewBox="0 0 88 81" fill="none" xmlns="http://www.w3.org/2000/svg">
<path d="M55.8659 12.2701C52.5764 10.6052 48.7404 10.3182 45.2453 11.4609L22.1895 17.4707C18.5506 18.1876 15.3761 20.3019 13.383 23.3438C11.6716 26.5438 11.3766 30.2754 12.5578 33.6995L18.7355 56.1281C19.4724 59.668 21.6459 62.7562 24.7728 64.695C28.0623 66.3599 31.8983 66.6469 35.4181 65.4978L58.4739 59.488C62.088 58.7775 65.2873 56.6567 67.2804 53.6149C68.9671 50.4213 69.2868 46.6832 68.1056 43.2592L61.9278 20.8306C61.1662 17.2971 58.9928 14.2089 55.8659 12.2701Z" fill="url(#paint0_linear)"/>
<g opacity="0.5" filter="url(#filter0_f)">
<path d="M44.226 18.5909L26.8389 23.3089C20.5322 25.0202 17.7659 29.1754 19.3179 34.5878L24.5741 52.9193C26.1515 58.4205 30.7089 60.5119 37.0156 58.8006L54.4027 54.0826C60.8111 52.3436 63.494 48.2876 61.9166 42.7864L56.6603 24.4549C55.1084 19.0424 50.6344 16.8519 44.226 18.5909Z" fill="url(#paint1_linear)"/>
</g>
<g filter="url(#filter1_b)">
<mask id="path-3-outside-1" maskUnits="userSpaceOnUse" x="26.3867" y="24.8711" width="58" height="57" fill="black">
<rect fill="white" x="26.3867" y="24.8711" width="58" height="57"/>
<path d="M79.0826 29.6552C76.1104 27.007 72.1659 25.6558 68.1659 25.8991H42.2212C38.1933 25.6558 34.2489 27.007 31.2766 29.6552C28.5544 32.5466 27.1655 36.3837 27.4155 40.302V65.5409C27.1655 69.4592 28.5544 73.2964 31.2766 76.1878C34.2489 78.836 38.1933 80.1871 42.2212 79.9439H68.1659C72.1659 80.1871 76.1382 78.836 79.1104 76.1878C81.8049 73.2964 83.2216 69.4592 82.9716 65.5409V40.302C83.1938 36.3837 81.8049 32.5466 79.0826 29.6552Z"/>
</mask>
<path d="M79.0826 29.6552C76.1104 27.007 72.1659 25.6558 68.1659 25.8991H42.2212C38.1933 25.6558 34.2489 27.007 31.2766 29.6552C28.5544 32.5466 27.1655 36.3837 27.4155 40.302V65.5409C27.1655 69.4592 28.5544 73.2964 31.2766 76.1878C34.2489 78.836 38.1933 80.1871 42.2212 79.9439H68.1659C72.1659 80.1871 76.1382 78.836 79.1104 76.1878C81.8049 73.2964 83.2216 69.4592 82.9716 65.5409V40.302C83.1938 36.3837 81.8049 32.5466 79.0826 29.6552Z" fill="url(#paint2_linear)"/>
<path d="M78.4174 30.4018C78.8298 30.7692 79.4619 30.7328 79.8293 30.3204C80.1967 29.908 80.1602 29.2759 79.7479 28.9085L78.4174 30.4018ZM68.1659 25.8991V26.8991C68.1861 26.8991 68.2063 26.8984 68.2266 26.8972L68.1659 25.8991ZM42.2212 25.8991L42.1609 26.8972C42.181 26.8984 42.2011 26.8991 42.2212 26.8991V25.8991ZM31.2766 29.6552L30.6114 28.9085C30.5895 28.928 30.5686 28.9484 30.5485 28.9697L31.2766 29.6552ZM27.4155 40.302H28.4155C28.4155 40.2808 28.4148 40.2595 28.4134 40.2383L27.4155 40.302ZM27.4155 65.5409L28.4134 65.6046C28.4148 65.5834 28.4155 65.5622 28.4155 65.5409H27.4155ZM31.2766 76.1878L30.5485 76.8733C30.5686 76.8946 30.5895 76.915 30.6114 76.9344L31.2766 76.1878ZM42.2212 79.9439V78.9439C42.2011 78.9439 42.181 78.9445 42.1609 78.9457L42.2212 79.9439ZM68.1659 79.9439L68.2266 78.9457C68.2063 78.9445 68.1861 78.9439 68.1659 78.9439V79.9439ZM79.1104 76.1878L79.7757 76.9344C79.7988 76.9138 79.8209 76.8922 79.842 76.8695L79.1104 76.1878ZM82.9716 65.5409H81.9716C81.9716 65.5622 81.9722 65.5834 81.9736 65.6046L82.9716 65.5409ZM82.9716 40.302L81.9732 40.2454C81.9721 40.2642 81.9716 40.2831 81.9716 40.302H82.9716ZM79.8107 28.9697C79.4321 28.5676 78.7993 28.5485 78.3971 28.9271C77.995 29.3057 77.976 29.9385 78.3546 30.3407L79.8107 28.9697ZM79.7479 28.9085C76.5741 26.0808 72.3674 24.6418 68.1052 24.9009L68.2266 26.8972C71.9644 26.6699 75.6467 27.9332 78.4174 30.4018L79.7479 28.9085ZM68.1659 24.8991H42.2212V26.8991H68.1659V24.8991ZM42.2814 24.9009C37.9927 24.6419 33.7859 26.0801 30.6114 28.9085L31.9418 30.4018C34.7118 27.9338 38.394 26.6698 42.1609 26.8972L42.2814 24.9009ZM30.5485 28.9697C27.6384 32.0606 26.1497 36.1683 26.4175 40.3657L28.4134 40.2383C28.1812 36.5992 29.4703 33.0325 32.0047 30.3407L30.5485 28.9697ZM26.4155 40.302V65.5409H28.4155V40.302H26.4155ZM26.4175 65.4773C26.1497 69.6747 27.6384 73.7824 30.5485 76.8733L32.0047 75.5023C29.4703 72.8104 28.1812 69.2437 28.4134 65.6046L26.4175 65.4773ZM30.6114 76.9344C33.7859 79.7628 37.9927 81.201 42.2814 80.9421L42.1609 78.9457C38.394 79.1732 34.7118 77.9091 31.9418 75.4411L30.6114 76.9344ZM42.2212 80.9439H68.1659V78.9439H42.2212V80.9439ZM68.1052 80.942C72.3657 81.2011 76.6006 79.7633 79.7757 76.9344L78.4452 75.4411C75.6757 77.9087 71.9661 79.1731 68.2266 78.9457L68.1052 80.942ZM79.842 76.8695C82.7178 73.7835 84.2376 69.679 83.9695 65.4773L81.9736 65.6046C82.2055 69.2394 80.892 72.8092 78.3788 75.506L79.842 76.8695ZM83.9716 65.5409V40.302H81.9716V65.5409H83.9716ZM83.97 40.3586C84.2077 36.1662 82.721 32.0607 79.8107 28.9697L78.3546 30.3407C80.8888 33.0324 82.1798 36.6013 81.9732 40.2454L83.97 40.3586Z" fill="url(#paint3_linear)" mask="url(#path-3-outside-1)"/>
</g>
<g filter="url(#filter2_b)">
<mask id="path-5-inside-2" fill="white">
<path d="M71.0532 47.7884L52.3586 66.0285C51.3864 66.9473 50.1086 67.4607 48.7752 67.4607H42.2474C41.8863 67.4607 41.553 67.3256 41.3029 67.0824C41.0529 66.8392 40.9418 66.5149 40.9418 66.1636L41.1085 59.7593C41.1363 58.4893 41.6641 57.3003 42.5807 56.4085L55.8309 43.5188C56.0531 43.3027 56.442 43.3027 56.6642 43.5188L61.3031 48.0046C61.6087 48.3018 62.0532 48.491 62.5254 48.491C63.5532 48.491 64.3587 47.6803 64.3587 46.7075C64.3587 46.2211 64.1643 45.7887 63.8587 45.4644C63.7754 45.3564 59.3587 41.0868 59.3587 41.0868C59.0809 40.8166 59.0809 40.3572 59.3587 40.087L61.2198 38.2495C62.9421 36.5741 65.7199 36.5741 67.4421 38.2495L71.0532 41.7624C72.7477 43.4107 72.7477 46.113 71.0532 47.7884Z"/>
</mask>
<path d="M71.0532 47.7884L52.3586 66.0285C51.3864 66.9473 50.1086 67.4607 48.7752 67.4607H42.2474C41.8863 67.4607 41.553 67.3256 41.3029 67.0824C41.0529 66.8392 40.9418 66.5149 40.9418 66.1636L41.1085 59.7593C41.1363 58.4893 41.6641 57.3003 42.5807 56.4085L55.8309 43.5188C56.0531 43.3027 56.442 43.3027 56.6642 43.5188L61.3031 48.0046C61.6087 48.3018 62.0532 48.491 62.5254 48.491C63.5532 48.491 64.3587 47.6803 64.3587 46.7075C64.3587 46.2211 64.1643 45.7887 63.8587 45.4644C63.7754 45.3564 59.3587 41.0868 59.3587 41.0868C59.0809 40.8166 59.0809 40.3572 59.3587 40.087L61.2198 38.2495C62.9421 36.5741 65.7199 36.5741 67.4421 38.2495L71.0532 41.7624C72.7477 43.4107 72.7477 46.113 71.0532 47.7884Z" fill="url(#paint4_linear)"/>
<path d="M52.3586 66.0285L52.496 66.1739L52.4983 66.1717L52.3586 66.0285ZM40.9418 66.1636L40.7418 66.1584V66.1636H40.9418ZM41.1085 59.7593L41.3084 59.7645L41.3085 59.7637L41.1085 59.7593ZM42.5807 56.4085L42.7202 56.5519L42.5807 56.4085ZM55.8309 43.5188L55.6914 43.3755L55.8309 43.5188ZM56.6642 43.5188L56.5248 43.6622L56.5252 43.6626L56.6642 43.5188ZM61.3031 48.0046L61.4426 47.8612L61.4422 47.8608L61.3031 48.0046ZM63.8587 45.4644L63.7003 45.5866L63.7064 45.5944L63.7132 45.6016L63.8587 45.4644ZM59.3587 41.0868L59.2192 41.2302L59.2197 41.2306L59.3587 41.0868ZM59.3587 40.087L59.4981 40.2303L59.4992 40.2293L59.3587 40.087ZM61.2198 38.2495L61.0804 38.1061L61.0793 38.1071L61.2198 38.2495ZM67.4421 38.2495L67.3026 38.3928L67.4421 38.2495ZM71.0532 41.7624L71.1927 41.619L71.0532 41.7624ZM70.9136 47.6452L52.2189 65.8854L52.4983 66.1717L71.1929 47.9315L70.9136 47.6452ZM52.2212 65.8831C51.2857 66.7672 50.0569 67.2607 48.7752 67.2607V67.6607C50.1603 67.6607 51.4871 67.1273 52.496 66.1739L52.2212 65.8831ZM48.7752 67.2607H42.2474V67.6607H48.7752V67.2607ZM42.2474 67.2607C41.9373 67.2607 41.6543 67.1452 41.4424 66.939L41.1635 67.2257C41.4516 67.506 41.8353 67.6607 42.2474 67.6607V67.2607ZM41.4424 66.939C41.2384 66.7405 41.1418 66.4719 41.1418 66.1636H40.7418C40.7418 66.5579 40.8675 66.9378 41.1635 67.2257L41.4424 66.939ZM41.1418 66.1688L41.3084 59.7645L40.9086 59.7541L40.7419 66.1584L41.1418 66.1688ZM41.3085 59.7637C41.3351 58.5474 41.8402 57.4079 42.7202 56.5519L42.4413 56.2652C41.4879 57.1926 40.9375 58.4311 40.9085 59.7549L41.3085 59.7637ZM42.7202 56.5519L55.9703 43.6622L55.6914 43.3755L42.4413 56.2652L42.7202 56.5519ZM55.9703 43.6622C56.1149 43.5215 56.3802 43.5215 56.5248 43.6622L56.8037 43.3755C56.5038 43.0838 55.9913 43.0838 55.6914 43.3755L55.9703 43.6622ZM56.5252 43.6626L61.1641 48.1483L61.4422 47.8608L56.8032 43.3751L56.5252 43.6626ZM61.1637 48.1479C61.5067 48.4816 62.0013 48.691 62.5254 48.691V48.291C62.105 48.291 61.7107 48.122 61.4426 47.8612L61.1637 48.1479ZM62.5254 48.691C63.6604 48.691 64.5587 47.794 64.5587 46.7075H64.1587C64.1587 47.5666 63.446 48.291 62.5254 48.291V48.691ZM64.5587 46.7075C64.5587 46.1658 64.3418 45.6855 64.0043 45.3273L63.7132 45.6016C63.9868 45.892 64.1587 46.2763 64.1587 46.7075H64.5587ZM64.0171 45.3423C64.0021 45.3228 63.9674 45.2878 63.9364 45.2566C63.8988 45.2186 63.8465 45.1667 63.7819 45.103C63.6528 44.9755 63.4731 44.7995 63.2601 44.5917C62.8341 44.176 62.274 43.632 61.7167 43.0915C61.1593 42.551 60.6046 42.0139 60.1892 41.6119C59.9815 41.4109 59.8086 41.2437 59.6877 41.1267C59.6272 41.0682 59.5797 41.0223 59.5473 40.991C59.5311 40.9754 59.5187 40.9634 59.5104 40.9553C59.5062 40.9512 59.503 40.9482 59.5009 40.9461C59.4998 40.9451 59.499 40.9443 59.4985 40.9438C59.4982 40.9435 59.498 40.9433 59.4979 40.9432C59.4978 40.9431 59.4978 40.9431 59.4977 40.9431C59.4977 40.943 59.4977 40.943 59.3587 41.0868C59.2197 41.2306 59.2197 41.2306 59.2197 41.2307C59.2198 41.2307 59.2198 41.2307 59.2199 41.2308C59.22 41.2309 59.2202 41.2311 59.2205 41.2314C59.221 41.2319 59.2218 41.2327 59.2229 41.2337C59.225 41.2358 59.2282 41.2388 59.2323 41.2429C59.2407 41.2509 59.2531 41.2629 59.2693 41.2786C59.3016 41.3099 59.3491 41.3558 59.4096 41.4142C59.5305 41.5312 59.7033 41.6984 59.911 41.8993C60.3264 42.3013 60.881 42.8383 61.4382 43.3787C61.9955 43.9191 62.5552 44.4627 62.9808 44.878C63.1936 45.0856 63.3726 45.261 63.5009 45.3876C63.5652 45.451 63.6163 45.5019 63.6525 45.5384C63.6954 45.5816 63.7049 45.5925 63.7003 45.5866L64.0171 45.3423ZM59.4981 40.9435C59.3011 40.7518 59.3011 40.422 59.4981 40.2303L59.2192 39.9436C58.8607 40.2924 58.8607 40.8814 59.2192 41.2302L59.4981 40.9435ZM59.4992 40.2293L61.3603 38.3918L61.0793 38.1071L59.2182 39.9447L59.4992 40.2293ZM61.3593 38.3928C63.0039 36.793 65.658 36.793 67.3026 38.3928L67.5816 38.1061C65.7817 36.3552 62.8802 36.3552 61.0804 38.1061L61.3593 38.3928ZM67.3026 38.3928L70.9138 41.9057L71.1927 41.619L67.5816 38.1061L67.3026 38.3928ZM70.9138 41.9057C72.5269 43.4749 72.5286 46.0484 70.9126 47.6462L71.1939 47.9306C72.9669 46.1776 72.9685 43.3465 71.1927 41.619L70.9138 41.9057Z" fill="url(#paint5_linear)" fill-opacity="0.5" mask="url(#path-5-inside-2)"/>
</g>
<defs>
<filter id="filter0_f" x="0.894928" y="0.00585938" width="79.4631" height="77.3769" filterUnits="userSpaceOnUse" color-interpolation-filters="sRGB">
<feFlood flood-opacity="0" result="BackgroundImageFix"/>
<feBlend mode="normal" in="SourceGraphic" in2="BackgroundImageFix" result="shape"/>
<feGaussianBlur stdDeviation="9" result="effect1_foregroundBlur"/>
</filter>
<filter id="filter1_b" x="2.38672" y="0.871094" width="105.613" height="104.101" filterUnits="userSpaceOnUse" color-interpolation-filters="sRGB">
<feFlood flood-opacity="0" result="BackgroundImageFix"/>
<feGaussianBlur in="BackgroundImage" stdDeviation="12"/>
<feComposite in2="SourceAlpha" operator="in" result="effect1_backgroundBlur"/>
<feBlend mode="normal" in="SourceGraphic" in2="effect1_backgroundBlur" result="shape"/>
</filter>
<filter id="filter2_b" x="25.9418" y="21.9929" width="61.3823" height="60.4678" filterUnits="userSpaceOnUse" color-interpolation-filters="sRGB">
<feFlood flood-opacity="0" result="BackgroundImageFix"/>
<feGaussianBlur in="BackgroundImage" stdDeviation="7.5"/>
<feComposite in2="SourceAlpha" operator="in" result="effect1_backgroundBlur"/>
<feBlend mode="normal" in="SourceGraphic" in2="effect1_backgroundBlur" result="shape"/>
</filter>
<linearGradient id="paint0_linear" x1="15.6211" y1="44.9204" x2="64.8549" y2="31.3595" gradientUnits="userSpaceOnUse">
<stop stop-color="#16D9E3"/>
<stop offset="0.47" stop-color="#30C7EC"/>
<stop offset="1" stop-color="#46AEF7"/>
</linearGradient>
<linearGradient id="paint1_linear" x1="21.9485" y1="43.7625" x2="59.1388" y2="33.0987" gradientUnits="userSpaceOnUse">
<stop stop-color="#16D9E3"/>
<stop offset="0.47" stop-color="#30C7EC"/>
<stop offset="1" stop-color="#46AEF7"/>
</linearGradient>
<linearGradient id="paint2_linear" x1="27.113" y1="52.9107" x2="82.934" y2="52.9107" gradientUnits="userSpaceOnUse">
<stop stop-color="#83A6FF"/>
<stop offset="1" stop-color="#4D6DE2"/>
</linearGradient>
<linearGradient id="paint3_linear" x1="36.2394" y1="32.1739" x2="70.5376" y2="75.8406" gradientUnits="userSpaceOnUse">
<stop stop-color="white" stop-opacity="0.25"/>
<stop offset="1" stop-color="white" stop-opacity="0"/>
</linearGradient>
<linearGradient id="paint4_linear" x1="70.0991" y1="42.4948" x2="35.1445" y2="43.6687" gradientUnits="userSpaceOnUse">
<stop stop-color="white"/>
<stop offset="1" stop-color="white" stop-opacity="0.2"/>
</linearGradient>
<linearGradient id="paint5_linear" x1="44.3224" y1="47.2134" x2="70.9702" y2="47.3649" gradientUnits="userSpaceOnUse">
<stop stop-color="white"/>
<stop offset="1" stop-color="white" stop-opacity="0"/>
</linearGradient>
</defs>
</svg>
