<svg width="139" height="41" viewBox="0 0 139 41" fill="none" xmlns="http://www.w3.org/2000/svg">
<path d="M63.6421 25.18C63.6421 20.77 57.6721 19.09 53.7721 17.77C50.3821 16.63 49.8721 16.27 49.8721 15.31C49.8721 14.23 51.2221 13.75 53.3821 13.75C55.9921 13.75 57.9721 14.47 57.9721 17.05H62.7721C62.7721 12.85 59.8621 9.55 53.3821 9.55C47.9221 9.55 45.0721 11.53 45.0721 15.13C45.0721 19.27 48.7021 20.47 53.1721 21.97C56.2621 23.02 58.8421 23.71 58.8421 25.24C58.8421 26.38 57.8221 27.1 54.7321 27.1C50.5321 27.1 48.9121 26.08 48.9121 22.84H44.1121C44.1121 28.18 46.9621 31.3 54.5821 31.3C61.0921 31.3 63.6421 28.81 63.6421 25.18ZM67.8473 31H72.6473V14.05L71.7473 11.05H72.9473L76.3373 31H85.6373L89.0273 11.05H90.2273L89.3273 14.05V31H94.1273V9.85H84.6773L81.5873 29.8H80.3873L77.2973 9.85H67.8473V31ZM116.674 9.85H98.0441V14.05H104.974V31H109.774V14.05H116.674V9.85ZM128.168 9.85H120.578V31H125.378V24.7H128.168C133.508 24.7 137.588 23.68 137.588 17.26C137.588 10.87 133.508 9.85 128.168 9.85ZM128.468 20.5H125.378V14.05H128.468C131.318 14.05 132.788 14.35 132.788 17.26C132.788 20.2 131.318 20.5 128.468 20.5Z" fill="white"/>
<path d="M14.5254 20.4444L13.914 29.0874C14.243 29.0895 14.568 29.0156 14.8641 28.8715C15.1601 28.7273 15.4192 28.5168 15.6214 28.2561L19.7224 24.3166L28.2374 30.5704C29.7883 31.4467 30.8844 30.9898 31.3094 29.1324L36.8941 2.82892C37.3862 0.514632 36.0888 -0.414077 34.5379 0.170111L1.73045 12.7901C-0.536249 13.6888 -0.484055 14.9471 1.35018 15.5238L9.74592 18.1451L28.6326 7.06803C29.5497 6.44639 29.7063 7.39757 29.7063 7.39757L14.5254 20.4444Z" fill="url(#paint0_linear)"/>
<path d="M14.5 28.5V28.5C12.5434 34.1252 16.72 40 22.6758 40H137" stroke="white" stroke-linecap="round" stroke-linejoin="round" stroke-dasharray="8 8"/>
<defs>
<linearGradient id="paint0_linear" x1="-1.39826" y1="4.41935e-06" x2="104.21" y2="40.7361" gradientUnits="userSpaceOnUse">
<stop stop-color="#1549D0"/>
<stop offset="1" stop-color="#22DDDD"/>
</linearGradient>
</defs>
</svg>
