<svg width="24" height="24" viewBox="0 0 24 24" fill="none" xmlns="http://www.w3.org/2000/svg">
<path d="M17.2777 1.97344L20.7457 2.35877C21.6754 2.46207 22.3924 3.19943 22.2947 4.12973C22.0507 6.4554 20.9013 11.0411 15.9719 15.9705C11.0426 20.8998 6.45629 22.0499 4.13019 22.2943C3.19972 22.3921 2.46212 21.6751 2.3588 20.7452L1.97351 17.2776C1.88544 16.485 2.27671 15.7158 2.96921 15.3202L5.45331 13.9011C6.23635 13.4538 7.22191 13.5858 7.85959 14.2235L8.49687 14.8608C8.96972 15.3336 9.65114 15.5337 10.2555 15.2474C10.9715 14.9082 12.0065 14.2791 13.1428 13.1427C14.2792 12.0064 14.9083 10.9715 15.2475 10.2554C15.5338 9.65107 15.3337 8.96964 14.8608 8.4968L14.2236 7.85951C13.5859 7.22184 13.4538 6.23628 13.9012 5.45323L15.3202 2.96914C15.7158 2.27664 16.4851 1.88537 17.2777 1.97344Z" stroke="url(#paint0_linear)" stroke-linecap="round" stroke-linejoin="round"/>
<path d="M11.0396 5.39445C11.1695 5.11298 11.0471 4.77547 10.7504 4.6857C10.0819 4.4834 9.3634 4.45375 8.65158 4.60284C7.74948 4.79177 6.89866 5.25929 6.20671 5.94626C5.51476 6.63323 5.01276 7.50881 4.76418 8.46226C4.56745 9.21689 4.53646 9.99348 4.67021 10.7301C4.72654 11.0403 5.06259 11.1944 5.35228 11.0699C5.60189 10.9627 5.72631 10.6846 5.67918 10.417C5.57962 9.8518 5.60486 9.25679 5.75564 8.67842C5.94841 7.93901 6.33771 7.26 6.87432 6.72726C7.41093 6.19451 8.07074 5.83195 8.77032 5.68543C9.27953 5.57878 9.79316 5.59007 10.2767 5.71561C10.5767 5.7935 10.9098 5.67592 11.0396 5.39445Z" fill="url(#paint1_linear)"/>
<defs>
<linearGradient id="paint0_linear" x1="2.53553" y1="22.3358" x2="22.3359" y2="2.53546" gradientUnits="userSpaceOnUse">
<stop stop-color="#16D9E3"/>
<stop offset="0.47" stop-color="#30C7EC"/>
<stop offset="1" stop-color="#46AEF7"/>
</linearGradient>
<linearGradient id="paint1_linear" x1="7.08626" y1="13.9654" x2="11.2747" y2="4.8848" gradientUnits="userSpaceOnUse">
<stop stop-color="#16D9E3"/>
<stop offset="0.47" stop-color="#30C7EC"/>
<stop offset="1" stop-color="#46AEF7"/>
</linearGradient>
</defs>
</svg>
