<svg width="1044" height="564" viewBox="0 0 1044 564" fill="none" xmlns="http://www.w3.org/2000/svg">
<g opacity="0.5" filter="url(#filter0_biiii)">
<rect width="315.804" height="315.804" rx="31.7101" transform="matrix(0.866044 0.499967 -0.866044 0.499967 510.5 247.895)" fill="#081AFF"/>
<rect width="315.804" height="315.804" rx="31.7101" transform="matrix(0.866044 0.499967 -0.866044 0.499967 510.5 247.895)" fill="white" fill-opacity="0.4"/>
<rect y="0.792702" width="314.218" height="314.218" rx="30.9174" transform="matrix(0.866044 0.499967 -0.866044 0.499967 511.187 248.291)" stroke="url(#paint0_linear)" stroke-opacity="0.8" stroke-width="1.58551"/>
</g>
<g opacity="0.5">
<rect width="315.804" height="315.804" rx="31.7101" transform="matrix(0.866044 0.499967 -0.866044 0.499967 510.5 240.059)" fill="#081AFF"/>
<rect width="315.804" height="315.804" rx="31.7101" transform="matrix(0.866044 0.499967 -0.866044 0.499967 510.5 240.059)" fill="url(#paint1_linear)" fill-opacity="0.6"/>
<rect y="0.792702" width="314.218" height="314.218" rx="30.9174" transform="matrix(0.866044 0.499967 -0.866044 0.499967 511.187 240.456)" stroke="url(#paint2_linear)" stroke-opacity="0.8" stroke-width="1.58551"/>
</g>
<g filter="url(#filter1_ddii)">
<g filter="url(#filter2_biiii)">
<path fill-rule="evenodd" clip-rule="evenodd" d="M533.349 220.701C525.766 216.323 513.47 216.323 505.887 220.701L367.482 300.602C361.564 304.019 360.265 309.092 363.583 313.236V343.152C360.265 347.296 361.564 352.369 367.482 355.786L505.887 435.686C513.47 440.064 525.766 440.064 533.349 435.686L671.753 355.786C676.595 352.991 678.345 349.087 677.005 345.49V310.898C678.346 307.301 676.595 303.397 671.753 300.602L533.349 220.701Z" fill="#22DDDD" fill-opacity="0.57"/>
<path fill-rule="evenodd" clip-rule="evenodd" d="M533.349 220.701C525.766 216.323 513.47 216.323 505.887 220.701L367.482 300.602C361.564 304.019 360.265 309.092 363.583 313.236V343.152C360.265 347.296 361.564 352.369 367.482 355.786L505.887 435.686C513.47 440.064 525.766 440.064 533.349 435.686L671.753 355.786C676.595 352.991 678.345 349.087 677.005 345.49V310.898C678.346 307.301 676.595 303.397 671.753 300.602L533.349 220.701Z" fill="url(#paint3_linear)" fill-opacity="0.1"/>
</g>
<rect width="191.522" height="191.522" rx="15.8551" transform="matrix(0.866044 0.499967 -0.866044 0.499967 519.656 212.635)" fill="url(#paint4_linear)"/>
<rect width="191.522" height="191.522" rx="15.8551" transform="matrix(0.866044 0.499967 -0.866044 0.499967 519.656 212.635)" fill="url(#paint5_linear)" fill-opacity="0.1"/>
</g>
<g opacity="0.2">
<path d="M471.46 53.737L449.293 40.9271V33.459L471.46 46.2689C473.272 47.3061 475.914 49.4325 478.14 52.6998C480.575 56.1746 482.284 60.5828 482.284 65.3542C482.284 70.6441 480.937 73.6521 478.399 74.4819C476.017 75.2598 473.169 73.9114 471.46 72.926L462.345 67.6361L462.293 67.5842C461.516 67.1175 460.273 66.6507 459.289 66.9619C458.46 67.2212 457.58 67.9991 457.58 70.9553C457.58 73.9114 458.512 75.6747 459.237 76.7638C460.169 78.1122 461.412 79.0457 462.189 79.4606L462.293 79.5125L490.156 95.6416V103.11L462.448 87.0844C460.532 86.099 457.787 83.9726 455.405 80.6535C452.815 76.9713 451.054 72.3555 451.054 67.2212C451.054 62.0868 452.815 59.4937 455.353 58.7677C457.735 58.0935 460.48 59.0788 462.396 60.2198L471.408 65.406C472.703 66.1839 473.687 66.4951 474.36 66.2877C474.878 66.1321 475.81 65.406 475.81 61.6201C475.81 59.1307 475.033 57.523 474.256 56.4857C473.376 55.1373 472.185 54.1519 471.46 53.737Z" fill="#3980EA" fill-opacity="0.79"/>
<path d="M471.46 53.737L449.293 40.9271V33.459L471.46 46.2689C473.272 47.3061 475.914 49.4325 478.14 52.6998C480.575 56.1746 482.284 60.5828 482.284 65.3542C482.284 70.6441 480.937 73.6521 478.399 74.4819C476.017 75.2598 473.169 73.9114 471.46 72.926L462.345 67.6361L462.293 67.5842C461.516 67.1175 460.273 66.6507 459.289 66.9619C458.46 67.2212 457.58 67.9991 457.58 70.9553C457.58 73.9114 458.512 75.6747 459.237 76.7638C460.169 78.1122 461.412 79.0457 462.189 79.4606L462.293 79.5125L490.156 95.6416V103.11L462.448 87.0844C460.532 86.099 457.787 83.9726 455.405 80.6535C452.815 76.9713 451.054 72.3555 451.054 67.2212C451.054 62.0868 452.815 59.4937 455.353 58.7677C457.735 58.0935 460.48 59.0788 462.396 60.2198L471.408 65.406C472.703 66.1839 473.687 66.4951 474.36 66.2877C474.878 66.1321 475.81 65.406 475.81 61.6201C475.81 59.1307 475.033 57.523 474.256 56.4857C473.376 55.1373 472.185 54.1519 471.46 53.737Z" fill="url(#paint6_linear)" fill-opacity="0.1"/>
</g>
<g filter="url(#filter3_ddii)">
<path d="M453.333 39.3193C453.333 46.0095 449.397 49.1731 444.581 46.4244C439.764 43.6238 435.828 35.9482 435.828 29.2062C435.828 22.516 439.764 19.3524 444.581 22.1011C449.397 24.9016 453.333 32.6291 453.333 39.3193Z" fill="#1549D0"/>
</g>
<g filter="url(#filter4_ddii)">
<path d="M501.498 105.703C501.498 112.393 497.562 115.556 492.745 112.808C487.929 110.007 483.993 102.332 483.993 95.5895C483.993 88.8993 487.929 85.7357 492.745 88.4844C497.562 91.2849 501.498 99.0124 501.498 105.703Z" fill="#1549D0"/>
</g>
<g filter="url(#filter5_ii)">
<path d="M563.024 212.902V256.621C563.024 257.088 563.49 257.607 563.801 257.451L574.004 251.176L584.413 269.639C584.983 270.624 585.967 270.728 585.967 269.794V226.23L563.024 212.902Z" fill="url(#paint7_linear)"/>
</g>
<g filter="url(#filter6_ii)">
<path d="M851.451 0.906049L1043.48 216.011L851.408 209.126C849.99 209.083 848.444 206.759 848.787 205.21L868.124 119.237L964.891 167.774L866.963 103.704L848.83 1.8527C848.487 -0.126659 850.033 -0.643013 851.451 0.906049Z" fill="#E0E0E0"/>
</g>
<g filter="url(#filter7_ii)">
<path d="M836.713 11.6204L1028.74 226.725L836.67 219.84C835.252 219.797 833.705 217.474 834.049 215.924L853.342 129.995L950.11 178.532L852.268 114.418L834.091 12.5671C833.748 10.5877 835.295 10.0713 836.713 11.6204Z" fill="url(#paint8_linear)"/>
</g>
<g filter="url(#filter8_ii)">
<path d="M1.77888 191.146L221.054 169.042L130.508 284.714C129.844 285.572 127.713 285.485 126.909 284.576L82.4365 233.997L155.921 195.968L72.3104 227.736L1.18668 193.192C-0.191648 192.515 0.184019 191.327 1.77888 191.146Z" fill="#E0E0E0"/>
</g>
<g filter="url(#filter9_ii)">
<path d="M1.78254 205.073L221.058 182.969L130.512 298.641C129.848 299.499 127.716 299.411 126.913 298.503L82.4475 247.97L155.932 209.94L72.3334 241.636L1.19034 207.119C-0.187992 206.442 0.187675 205.254 1.78254 205.073Z" fill="url(#paint9_linear)"/>
</g>
<defs>
<filter id="filter0_biiii" x="246.745" y="250.84" width="527.51" height="309.893" filterUnits="userSpaceOnUse" color-interpolation-filters="sRGB">
<feFlood flood-opacity="0" result="BackgroundImageFix"/>
<feGaussianBlur in="BackgroundImage" stdDeviation="3.17101"/>
<feComposite in2="SourceAlpha" operator="in" result="effect1_backgroundBlur"/>
<feBlend mode="normal" in="SourceGraphic" in2="effect1_backgroundBlur" result="shape"/>
<feColorMatrix in="SourceAlpha" type="matrix" values="0 0 0 0 0 0 0 0 0 0 0 0 0 0 0 0 0 0 127 0" result="hardAlpha"/>
<feOffset dx="-2.37826" dy="1.74406"/>
<feComposite in2="hardAlpha" operator="arithmetic" k2="-1" k3="1"/>
<feColorMatrix type="matrix" values="0 0 0 0 0.411765 0 0 0 0 0.760784 0 0 0 0 0.482353 0 0 0 1 0"/>
<feBlend mode="normal" in2="shape" result="effect2_innerShadow"/>
<feColorMatrix in="SourceAlpha" type="matrix" values="0 0 0 0 0 0 0 0 0 0 0 0 0 0 0 0 0 0 127 0" result="hardAlpha"/>
<feOffset dx="1.58551" dy="-1.58551"/>
<feComposite in2="hardAlpha" operator="arithmetic" k2="-1" k3="1"/>
<feColorMatrix type="matrix" values="0 0 0 0 0.415686 0 0 0 0 0.764706 0 0 0 0 0.494118 0 0 0 0.3 0"/>
<feBlend mode="normal" in2="effect2_innerShadow" result="effect3_innerShadow"/>
<feColorMatrix in="SourceAlpha" type="matrix" values="0 0 0 0 0 0 0 0 0 0 0 0 0 0 0 0 0 0 127 0" result="hardAlpha"/>
<feOffset dx="0.713478" dy="-0.872029"/>
<feGaussianBlur stdDeviation="0.541292"/>
<feComposite in2="hardAlpha" operator="arithmetic" k2="-1" k3="1"/>
<feColorMatrix type="matrix" values="0 0 0 0 1 0 0 0 0 1 0 0 0 0 1 0 0 0 0.3 0"/>
<feBlend mode="normal" in2="effect3_innerShadow" result="effect4_innerShadow"/>
<feColorMatrix in="SourceAlpha" type="matrix" values="0 0 0 0 0 0 0 0 0 0 0 0 0 0 0 0 0 0 127 0" result="hardAlpha"/>
<feOffset dx="-0.428087" dy="-0.428087"/>
<feGaussianBlur stdDeviation="0.216517"/>
<feComposite in2="hardAlpha" operator="arithmetic" k2="-1" k3="1"/>
<feColorMatrix type="matrix" values="0 0 0 0 0.607843 0 0 0 0 0.8 0 0 0 0 0.67451 0 0 0 1 0"/>
<feBlend mode="normal" in2="effect4_innerShadow" result="effect5_innerShadow"/>
</filter>
<filter id="filter1_ddii" x="338.012" y="215.693" width="356.907" height="245.474" filterUnits="userSpaceOnUse" color-interpolation-filters="sRGB">
<feFlood flood-opacity="0" result="BackgroundImageFix"/>
<feColorMatrix in="SourceAlpha" type="matrix" values="0 0 0 0 0 0 0 0 0 0 0 0 0 0 0 0 0 0 127 0"/>
<feOffset dx="7.92754" dy="12.6841"/>
<feGaussianBlur stdDeviation="4.75652"/>
<feColorMatrix type="matrix" values="0 0 0 0 0 0 0 0 0 0 0 0 0 0 0 0 0 0 0.06 0"/>
<feBlend mode="normal" in2="BackgroundImageFix" result="effect1_dropShadow"/>
<feColorMatrix in="SourceAlpha" type="matrix" values="0 0 0 0 0 0 0 0 0 0 0 0 0 0 0 0 0 0 127 0"/>
<feOffset dx="-19.0261" dy="12.6841"/>
<feGaussianBlur stdDeviation="2.37826"/>
<feColorMatrix type="matrix" values="0 0 0 0 0 0 0 0 0 0 0 0 0 0 0 0 0 0 0.04 0"/>
<feBlend mode="normal" in2="effect1_dropShadow" result="effect2_dropShadow"/>
<feBlend mode="normal" in="SourceGraphic" in2="effect2_dropShadow" result="shape"/>
<feColorMatrix in="SourceAlpha" type="matrix" values="0 0 0 0 0 0 0 0 0 0 0 0 0 0 0 0 0 0 127 0" result="hardAlpha"/>
<feOffset dx="-2.37826" dy="1.74406"/>
<feGaussianBlur stdDeviation="0.792754"/>
<feComposite in2="hardAlpha" operator="arithmetic" k2="-1" k3="1"/>
<feColorMatrix type="matrix" values="0 0 0 0 1 0 0 0 0 1 0 0 0 0 1 0 0 0 0.2 0"/>
<feBlend mode="normal" in2="shape" result="effect3_innerShadow"/>
<feColorMatrix in="SourceAlpha" type="matrix" values="0 0 0 0 0 0 0 0 0 0 0 0 0 0 0 0 0 0 127 0" result="hardAlpha"/>
<feOffset dy="-1.58551"/>
<feGaussianBlur stdDeviation="0.792754"/>
<feComposite in2="hardAlpha" operator="arithmetic" k2="-1" k3="1"/>
<feColorMatrix type="matrix" values="0 0 0 0 0 0 0 0 0 0 0 0 0 0 0 0 0 0 0.3 0"/>
<feBlend mode="normal" in2="effect3_innerShadow" result="effect4_innerShadow"/>
</filter>
<filter id="filter2_biiii" x="355.453" y="211.076" width="328.33" height="234.236" filterUnits="userSpaceOnUse" color-interpolation-filters="sRGB">
<feFlood flood-opacity="0" result="BackgroundImageFix"/>
<feGaussianBlur in="BackgroundImage" stdDeviation="3.17101"/>
<feComposite in2="SourceAlpha" operator="in" result="effect1_backgroundBlur"/>
<feBlend mode="normal" in="SourceGraphic" in2="effect1_backgroundBlur" result="shape"/>
<feColorMatrix in="SourceAlpha" type="matrix" values="0 0 0 0 0 0 0 0 0 0 0 0 0 0 0 0 0 0 127 0" result="hardAlpha"/>
<feOffset dx="-2.37826" dy="1.74406"/>
<feComposite in2="hardAlpha" operator="arithmetic" k2="-1" k3="1"/>
<feColorMatrix type="matrix" values="0 0 0 0 0.411765 0 0 0 0 0.760784 0 0 0 0 0.482353 0 0 0 1 0"/>
<feBlend mode="normal" in2="shape" result="effect2_innerShadow"/>
<feColorMatrix in="SourceAlpha" type="matrix" values="0 0 0 0 0 0 0 0 0 0 0 0 0 0 0 0 0 0 127 0" result="hardAlpha"/>
<feOffset dx="1.58551" dy="-1.58551"/>
<feComposite in2="hardAlpha" operator="arithmetic" k2="-1" k3="1"/>
<feColorMatrix type="matrix" values="0 0 0 0 0.415686 0 0 0 0 0.764706 0 0 0 0 0.494118 0 0 0 0.3 0"/>
<feBlend mode="normal" in2="effect2_innerShadow" result="effect3_innerShadow"/>
<feColorMatrix in="SourceAlpha" type="matrix" values="0 0 0 0 0 0 0 0 0 0 0 0 0 0 0 0 0 0 127 0" result="hardAlpha"/>
<feOffset dx="0.713478" dy="-0.872029"/>
<feGaussianBlur stdDeviation="0.541292"/>
<feComposite in2="hardAlpha" operator="arithmetic" k2="-1" k3="1"/>
<feColorMatrix type="matrix" values="0 0 0 0 1 0 0 0 0 1 0 0 0 0 1 0 0 0 0.3 0"/>
<feBlend mode="normal" in2="effect3_innerShadow" result="effect4_innerShadow"/>
<feColorMatrix in="SourceAlpha" type="matrix" values="0 0 0 0 0 0 0 0 0 0 0 0 0 0 0 0 0 0 127 0" result="hardAlpha"/>
<feOffset dx="-0.428087" dy="-0.428087"/>
<feGaussianBlur stdDeviation="0.216517"/>
<feComposite in2="hardAlpha" operator="arithmetic" k2="-1" k3="1"/>
<feColorMatrix type="matrix" values="0 0 0 0 0.607843 0 0 0 0 0.8 0 0 0 0 0.67451 0 0 0 1 0"/>
<feBlend mode="normal" in2="effect4_innerShadow" result="effect5_innerShadow"/>
</filter>
<filter id="filter3_ddii" x="434.243" y="19.5248" width="36.5311" height="50.0874" filterUnits="userSpaceOnUse" color-interpolation-filters="sRGB">
<feFlood flood-opacity="0" result="BackgroundImageFix"/>
<feColorMatrix in="SourceAlpha" type="matrix" values="0 0 0 0 0 0 0 0 0 0 0 0 0 0 0 0 0 0 127 0"/>
<feOffset dx="7.92754" dy="12.6841"/>
<feGaussianBlur stdDeviation="4.75652"/>
<feColorMatrix type="matrix" values="0 0 0 0 0 0 0 0 0 0 0 0 0 0 0 0 0 0 0.06 0"/>
<feBlend mode="normal" in2="BackgroundImageFix" result="effect1_dropShadow"/>
<feColorMatrix in="SourceAlpha" type="matrix" values="0 0 0 0 0 0 0 0 0 0 0 0 0 0 0 0 0 0 127 0"/>
<feOffset dx="7.92754" dy="12.6841"/>
<feGaussianBlur stdDeviation="1.58551"/>
<feColorMatrix type="matrix" values="0 0 0 0 0 0 0 0 0 0 0 0 0 0 0 0 0 0 0.04 0"/>
<feBlend mode="normal" in2="effect1_dropShadow" result="effect2_dropShadow"/>
<feBlend mode="normal" in="SourceGraphic" in2="effect2_dropShadow" result="shape"/>
<feColorMatrix in="SourceAlpha" type="matrix" values="0 0 0 0 0 0 0 0 0 0 0 0 0 0 0 0 0 0 127 0" result="hardAlpha"/>
<feOffset dx="-2.37826" dy="1.74406"/>
<feGaussianBlur stdDeviation="0.792754"/>
<feComposite in2="hardAlpha" operator="arithmetic" k2="-1" k3="1"/>
<feColorMatrix type="matrix" values="0 0 0 0 1 0 0 0 0 1 0 0 0 0 1 0 0 0 0.2 0"/>
<feBlend mode="normal" in2="shape" result="effect3_innerShadow"/>
<feColorMatrix in="SourceAlpha" type="matrix" values="0 0 0 0 0 0 0 0 0 0 0 0 0 0 0 0 0 0 127 0" result="hardAlpha"/>
<feOffset dy="-1.58551"/>
<feGaussianBlur stdDeviation="0.792754"/>
<feComposite in2="hardAlpha" operator="arithmetic" k2="-1" k3="1"/>
<feColorMatrix type="matrix" values="0 0 0 0 0 0 0 0 0 0 0 0 0 0 0 0 0 0 0.3 0"/>
<feBlend mode="normal" in2="effect3_innerShadow" result="effect4_innerShadow"/>
</filter>
<filter id="filter4_ddii" x="482.407" y="85.9081" width="36.5311" height="50.0874" filterUnits="userSpaceOnUse" color-interpolation-filters="sRGB">
<feFlood flood-opacity="0" result="BackgroundImageFix"/>
<feColorMatrix in="SourceAlpha" type="matrix" values="0 0 0 0 0 0 0 0 0 0 0 0 0 0 0 0 0 0 127 0"/>
<feOffset dx="7.92754" dy="12.6841"/>
<feGaussianBlur stdDeviation="4.75652"/>
<feColorMatrix type="matrix" values="0 0 0 0 0 0 0 0 0 0 0 0 0 0 0 0 0 0 0.06 0"/>
<feBlend mode="normal" in2="BackgroundImageFix" result="effect1_dropShadow"/>
<feColorMatrix in="SourceAlpha" type="matrix" values="0 0 0 0 0 0 0 0 0 0 0 0 0 0 0 0 0 0 127 0"/>
<feOffset dx="7.92754" dy="12.6841"/>
<feGaussianBlur stdDeviation="1.58551"/>
<feColorMatrix type="matrix" values="0 0 0 0 0 0 0 0 0 0 0 0 0 0 0 0 0 0 0.04 0"/>
<feBlend mode="normal" in2="effect1_dropShadow" result="effect2_dropShadow"/>
<feBlend mode="normal" in="SourceGraphic" in2="effect2_dropShadow" result="shape"/>
<feColorMatrix in="SourceAlpha" type="matrix" values="0 0 0 0 0 0 0 0 0 0 0 0 0 0 0 0 0 0 127 0" result="hardAlpha"/>
<feOffset dx="-2.37826" dy="1.74406"/>
<feGaussianBlur stdDeviation="0.792754"/>
<feComposite in2="hardAlpha" operator="arithmetic" k2="-1" k3="1"/>
<feColorMatrix type="matrix" values="0 0 0 0 1 0 0 0 0 1 0 0 0 0 1 0 0 0 0.2 0"/>
<feBlend mode="normal" in2="shape" result="effect3_innerShadow"/>
<feColorMatrix in="SourceAlpha" type="matrix" values="0 0 0 0 0 0 0 0 0 0 0 0 0 0 0 0 0 0 127 0" result="hardAlpha"/>
<feOffset dy="-1.58551"/>
<feGaussianBlur stdDeviation="0.792754"/>
<feComposite in2="hardAlpha" operator="arithmetic" k2="-1" k3="1"/>
<feColorMatrix type="matrix" values="0 0 0 0 0 0 0 0 0 0 0 0 0 0 0 0 0 0 0.3 0"/>
<feBlend mode="normal" in2="effect3_innerShadow" result="effect4_innerShadow"/>
</filter>
<filter id="filter5_ii" x="561.439" y="212.109" width="25.3212" height="59.916" filterUnits="userSpaceOnUse" color-interpolation-filters="sRGB">
<feFlood flood-opacity="0" result="BackgroundImageFix"/>
<feBlend mode="normal" in="SourceGraphic" in2="BackgroundImageFix" result="shape"/>
<feColorMatrix in="SourceAlpha" type="matrix" values="0 0 0 0 0 0 0 0 0 0 0 0 0 0 0 0 0 0 127 0" result="hardAlpha"/>
<feOffset dx="-2.37826" dy="1.74406"/>
<feGaussianBlur stdDeviation="0.792754"/>
<feComposite in2="hardAlpha" operator="arithmetic" k2="-1" k3="1"/>
<feColorMatrix type="matrix" values="0 0 0 0 1 0 0 0 0 1 0 0 0 0 1 0 0 0 0.6 0"/>
<feBlend mode="normal" in2="shape" result="effect1_innerShadow"/>
<feColorMatrix in="SourceAlpha" type="matrix" values="0 0 0 0 0 0 0 0 0 0 0 0 0 0 0 0 0 0 127 0" result="hardAlpha"/>
<feOffset dx="0.792754" dy="-0.792754"/>
<feGaussianBlur stdDeviation="0.792754"/>
<feComposite in2="hardAlpha" operator="arithmetic" k2="-1" k3="1"/>
<feColorMatrix type="matrix" values="0 0 0 0 0 0 0 0 0 0 0 0 0 0 0 0 0 0 0.3 0"/>
<feBlend mode="normal" in2="effect1_innerShadow" result="effect2_innerShadow"/>
</filter>
<filter id="filter6_ii" x="847.153" y="-0.792754" width="197.122" height="218.389" filterUnits="userSpaceOnUse" color-interpolation-filters="sRGB">
<feFlood flood-opacity="0" result="BackgroundImageFix"/>
<feBlend mode="normal" in="SourceGraphic" in2="BackgroundImageFix" result="shape"/>
<feColorMatrix in="SourceAlpha" type="matrix" values="0 0 0 0 0 0 0 0 0 0 0 0 0 0 0 0 0 0 127 0" result="hardAlpha"/>
<feOffset dx="-2.37826" dy="1.74406"/>
<feGaussianBlur stdDeviation="0.792754"/>
<feComposite in2="hardAlpha" operator="arithmetic" k2="-1" k3="1"/>
<feColorMatrix type="matrix" values="0 0 0 0 1 0 0 0 0 1 0 0 0 0 1 0 0 0 0.6 0"/>
<feBlend mode="normal" in2="shape" result="effect1_innerShadow"/>
<feColorMatrix in="SourceAlpha" type="matrix" values="0 0 0 0 0 0 0 0 0 0 0 0 0 0 0 0 0 0 127 0" result="hardAlpha"/>
<feOffset dx="0.792754" dy="-0.792754"/>
<feGaussianBlur stdDeviation="0.792754"/>
<feComposite in2="hardAlpha" operator="arithmetic" k2="-1" k3="1"/>
<feColorMatrix type="matrix" values="0 0 0 0 0 0 0 0 0 0 0 0 0 0 0 0 0 0 0.3 0"/>
<feBlend mode="normal" in2="effect1_innerShadow" result="effect2_innerShadow"/>
</filter>
<filter id="filter7_ii" x="832.414" y="9.9216" width="197.122" height="218.389" filterUnits="userSpaceOnUse" color-interpolation-filters="sRGB">
<feFlood flood-opacity="0" result="BackgroundImageFix"/>
<feBlend mode="normal" in="SourceGraphic" in2="BackgroundImageFix" result="shape"/>
<feColorMatrix in="SourceAlpha" type="matrix" values="0 0 0 0 0 0 0 0 0 0 0 0 0 0 0 0 0 0 127 0" result="hardAlpha"/>
<feOffset dx="-2.37826" dy="1.74406"/>
<feGaussianBlur stdDeviation="0.792754"/>
<feComposite in2="hardAlpha" operator="arithmetic" k2="-1" k3="1"/>
<feColorMatrix type="matrix" values="0 0 0 0 1 0 0 0 0 1 0 0 0 0 1 0 0 0 0.6 0"/>
<feBlend mode="normal" in2="shape" result="effect1_innerShadow"/>
<feColorMatrix in="SourceAlpha" type="matrix" values="0 0 0 0 0 0 0 0 0 0 0 0 0 0 0 0 0 0 127 0" result="hardAlpha"/>
<feOffset dx="0.792754" dy="-0.792754"/>
<feGaussianBlur stdDeviation="0.792754"/>
<feComposite in2="hardAlpha" operator="arithmetic" k2="-1" k3="1"/>
<feColorMatrix type="matrix" values="0 0 0 0 0 0 0 0 0 0 0 0 0 0 0 0 0 0 0.3 0"/>
<feBlend mode="normal" in2="effect1_innerShadow" result="effect2_innerShadow"/>
</filter>
<filter id="filter8_ii" x="-1.24691" y="168.249" width="223.094" height="118.647" filterUnits="userSpaceOnUse" color-interpolation-filters="sRGB">
<feFlood flood-opacity="0" result="BackgroundImageFix"/>
<feBlend mode="normal" in="SourceGraphic" in2="BackgroundImageFix" result="shape"/>
<feColorMatrix in="SourceAlpha" type="matrix" values="0 0 0 0 0 0 0 0 0 0 0 0 0 0 0 0 0 0 127 0" result="hardAlpha"/>
<feOffset dx="-2.37826" dy="1.74406"/>
<feGaussianBlur stdDeviation="0.792754"/>
<feComposite in2="hardAlpha" operator="arithmetic" k2="-1" k3="1"/>
<feColorMatrix type="matrix" values="0 0 0 0 1 0 0 0 0 1 0 0 0 0 1 0 0 0 0.6 0"/>
<feBlend mode="normal" in2="shape" result="effect1_innerShadow"/>
<feColorMatrix in="SourceAlpha" type="matrix" values="0 0 0 0 0 0 0 0 0 0 0 0 0 0 0 0 0 0 127 0" result="hardAlpha"/>
<feOffset dx="0.792754" dy="-0.792754"/>
<feGaussianBlur stdDeviation="0.792754"/>
<feComposite in2="hardAlpha" operator="arithmetic" k2="-1" k3="1"/>
<feColorMatrix type="matrix" values="0 0 0 0 0 0 0 0 0 0 0 0 0 0 0 0 0 0 0.3 0"/>
<feBlend mode="normal" in2="effect1_innerShadow" result="effect2_innerShadow"/>
</filter>
<filter id="filter9_ii" x="-1.24328" y="182.176" width="223.094" height="118.647" filterUnits="userSpaceOnUse" color-interpolation-filters="sRGB">
<feFlood flood-opacity="0" result="BackgroundImageFix"/>
<feBlend mode="normal" in="SourceGraphic" in2="BackgroundImageFix" result="shape"/>
<feColorMatrix in="SourceAlpha" type="matrix" values="0 0 0 0 0 0 0 0 0 0 0 0 0 0 0 0 0 0 127 0" result="hardAlpha"/>
<feOffset dx="-2.37826" dy="1.74406"/>
<feGaussianBlur stdDeviation="0.792754"/>
<feComposite in2="hardAlpha" operator="arithmetic" k2="-1" k3="1"/>
<feColorMatrix type="matrix" values="0 0 0 0 1 0 0 0 0 1 0 0 0 0 1 0 0 0 0.6 0"/>
<feBlend mode="normal" in2="shape" result="effect1_innerShadow"/>
<feColorMatrix in="SourceAlpha" type="matrix" values="0 0 0 0 0 0 0 0 0 0 0 0 0 0 0 0 0 0 127 0" result="hardAlpha"/>
<feOffset dx="0.792754" dy="-0.792754"/>
<feGaussianBlur stdDeviation="0.792754"/>
<feComposite in2="hardAlpha" operator="arithmetic" k2="-1" k3="1"/>
<feColorMatrix type="matrix" values="0 0 0 0 0 0 0 0 0 0 0 0 0 0 0 0 0 0 0.3 0"/>
<feBlend mode="normal" in2="effect1_innerShadow" result="effect2_innerShadow"/>
</filter>
<linearGradient id="paint0_linear" x1="421.788" y1="83.6374" x2="149.469" y2="431.718" gradientUnits="userSpaceOnUse">
<stop stop-color="white"/>
<stop offset="1" stop-opacity="0.4"/>
</linearGradient>
<linearGradient id="paint1_linear" x1="-130.058" y1="130.058" x2="169.478" y2="-9.05068" gradientUnits="userSpaceOnUse">
<stop stop-color="white" stop-opacity="0.78"/>
<stop offset="0.958333" stop-opacity="0.25"/>
</linearGradient>
<linearGradient id="paint2_linear" x1="-252.655" y1="148.828" x2="70.8749" y2="-180.899" gradientUnits="userSpaceOnUse">
<stop stop-color="white"/>
<stop offset="1" stop-opacity="0.4"/>
</linearGradient>
<linearGradient id="paint3_linear" x1="395.116" y1="120.03" x2="722.549" y2="412.191" gradientUnits="userSpaceOnUse">
<stop stop-color="white" stop-opacity="0.51"/>
<stop offset="0.372802" stop-color="white"/>
<stop offset="0.388381" stop-color="white" stop-opacity="0"/>
</linearGradient>
<linearGradient id="paint4_linear" x1="95.7611" y1="0" x2="95.7611" y2="191.522" gradientUnits="userSpaceOnUse">
<stop stop-color="#22DDDD"/>
<stop offset="1" stop-color="#22DDDD" stop-opacity="0.62"/>
</linearGradient>
<linearGradient id="paint5_linear" x1="20.2177" y1="-84.1876" x2="276.532" y2="76.339" gradientUnits="userSpaceOnUse">
<stop stop-color="white" stop-opacity="0.51"/>
<stop offset="0.372802" stop-color="white"/>
<stop offset="0.388381" stop-color="white" stop-opacity="0"/>
</linearGradient>
<linearGradient id="paint6_linear" x1="453.607" y1="2.84253" x2="520.687" y2="27.4895" gradientUnits="userSpaceOnUse">
<stop stop-color="white" stop-opacity="0.51"/>
<stop offset="0.372802" stop-color="white"/>
<stop offset="0.388381" stop-color="white" stop-opacity="0"/>
</linearGradient>
<linearGradient id="paint7_linear" x1="583.407" y1="237.567" x2="564.182" y2="241.56" gradientUnits="userSpaceOnUse">
<stop stop-color="#D7DEE4"/>
<stop offset="1" stop-color="#CDD4DA"/>
</linearGradient>
<linearGradient id="paint8_linear" x1="1007.01" y1="103.315" x2="867.54" y2="168.809" gradientUnits="userSpaceOnUse">
<stop stop-color="#D7DEE4"/>
<stop offset="1" stop-color="#C3CCD3"/>
</linearGradient>
<linearGradient id="paint9_linear" x1="134.985" y1="140.967" x2="112.826" y2="256.627" gradientUnits="userSpaceOnUse">
<stop stop-color="#D7DEE4"/>
<stop offset="1" stop-color="#C3CCD3"/>
</linearGradient>
</defs>
</svg>
